G04 #@! TF.GenerationSoftware,KiCad,Pcbnew,7.0.2*
G04 #@! TF.CreationDate,2023-11-13T13:22:44-06:00*
G04 #@! TF.ProjectId,Telemetry-Peripheral-SOM-Daughterboard-IMU,54656c65-6d65-4747-9279-2d5065726970,rev?*
G04 #@! TF.SameCoordinates,Original*
G04 #@! TF.FileFunction,Legend,Bot*
G04 #@! TF.FilePolarity,Positive*
%FSLAX46Y46*%
G04 Gerber Fmt 4.6, Leading zero omitted, Abs format (unit mm)*
G04 Created by KiCad (PCBNEW 7.0.2) date 2023-11-13 13:22:44*
%MOMM*%
%LPD*%
G01*
G04 APERTURE LIST*
%ADD10C,0.150000*%
%ADD11C,0.300000*%
%ADD12C,0.254000*%
%ADD13C,0.100000*%
%ADD14C,0.200000*%
%ADD15C,1.270000*%
%ADD16C,1.700000*%
%ADD17C,2.000000*%
%ADD18C,3.000000*%
%ADD19R,0.800000X1.800000*%
%ADD20R,0.800000X2.100000*%
%ADD21R,1.550000X2.000000*%
G04 APERTURE END LIST*
D10*
X157125000Y-81250000D02*
X156500000Y-81500000D01*
X156500000Y-81250000D01*
X156500000Y-81000000D01*
X157125000Y-81250000D01*
G36*
X157125000Y-81250000D02*
G01*
X156500000Y-81500000D01*
X156500000Y-81250000D01*
X156500000Y-81000000D01*
X157125000Y-81250000D01*
G37*
X156875000Y-101250000D02*
X156250000Y-101500000D01*
X156250000Y-101250000D01*
X156250000Y-101000000D01*
X156875000Y-101250000D01*
G36*
X156875000Y-101250000D02*
G01*
X156250000Y-101500000D01*
X156250000Y-101250000D01*
X156250000Y-101000000D01*
X156875000Y-101250000D01*
G37*
D11*
X149316428Y-73571428D02*
X149673571Y-73571428D01*
X149530714Y-73214285D02*
X149673571Y-73571428D01*
X149673571Y-73571428D02*
X149530714Y-73928571D01*
X149959285Y-73357142D02*
X149673571Y-73571428D01*
X149673571Y-73571428D02*
X149959285Y-73785714D01*
X150816428Y-74499999D02*
X149316428Y-74499999D01*
X149316428Y-74499999D02*
X150387857Y-74999999D01*
X150387857Y-74999999D02*
X149316428Y-75499999D01*
X149316428Y-75499999D02*
X150816428Y-75499999D01*
X149316428Y-76071428D02*
X149316428Y-77000000D01*
X149316428Y-77000000D02*
X149887857Y-76500000D01*
X149887857Y-76500000D02*
X149887857Y-76714285D01*
X149887857Y-76714285D02*
X149959285Y-76857143D01*
X149959285Y-76857143D02*
X150030714Y-76928571D01*
X150030714Y-76928571D02*
X150173571Y-77000000D01*
X150173571Y-77000000D02*
X150530714Y-77000000D01*
X150530714Y-77000000D02*
X150673571Y-76928571D01*
X150673571Y-76928571D02*
X150745000Y-76857143D01*
X150745000Y-76857143D02*
X150816428Y-76714285D01*
X150816428Y-76714285D02*
X150816428Y-76285714D01*
X150816428Y-76285714D02*
X150745000Y-76142857D01*
X150745000Y-76142857D02*
X150673571Y-76071428D01*
X150816428Y-78785713D02*
X149316428Y-78785713D01*
X150030714Y-78785713D02*
X150030714Y-79642856D01*
X150816428Y-79642856D02*
X149316428Y-79642856D01*
X150816428Y-80571428D02*
X150745000Y-80428571D01*
X150745000Y-80428571D02*
X150673571Y-80357142D01*
X150673571Y-80357142D02*
X150530714Y-80285714D01*
X150530714Y-80285714D02*
X150102142Y-80285714D01*
X150102142Y-80285714D02*
X149959285Y-80357142D01*
X149959285Y-80357142D02*
X149887857Y-80428571D01*
X149887857Y-80428571D02*
X149816428Y-80571428D01*
X149816428Y-80571428D02*
X149816428Y-80785714D01*
X149816428Y-80785714D02*
X149887857Y-80928571D01*
X149887857Y-80928571D02*
X149959285Y-81000000D01*
X149959285Y-81000000D02*
X150102142Y-81071428D01*
X150102142Y-81071428D02*
X150530714Y-81071428D01*
X150530714Y-81071428D02*
X150673571Y-81000000D01*
X150673571Y-81000000D02*
X150745000Y-80928571D01*
X150745000Y-80928571D02*
X150816428Y-80785714D01*
X150816428Y-80785714D02*
X150816428Y-80571428D01*
X150816428Y-81928571D02*
X150745000Y-81785714D01*
X150745000Y-81785714D02*
X150602142Y-81714285D01*
X150602142Y-81714285D02*
X149316428Y-81714285D01*
X150745000Y-83071428D02*
X150816428Y-82928571D01*
X150816428Y-82928571D02*
X150816428Y-82642857D01*
X150816428Y-82642857D02*
X150745000Y-82499999D01*
X150745000Y-82499999D02*
X150602142Y-82428571D01*
X150602142Y-82428571D02*
X150030714Y-82428571D01*
X150030714Y-82428571D02*
X149887857Y-82499999D01*
X149887857Y-82499999D02*
X149816428Y-82642857D01*
X149816428Y-82642857D02*
X149816428Y-82928571D01*
X149816428Y-82928571D02*
X149887857Y-83071428D01*
X149887857Y-83071428D02*
X150030714Y-83142857D01*
X150030714Y-83142857D02*
X150173571Y-83142857D01*
X150173571Y-83142857D02*
X150316428Y-82428571D01*
X150745000Y-83714285D02*
X150816428Y-83857142D01*
X150816428Y-83857142D02*
X150816428Y-84142856D01*
X150816428Y-84142856D02*
X150745000Y-84285713D01*
X150745000Y-84285713D02*
X150602142Y-84357142D01*
X150602142Y-84357142D02*
X150530714Y-84357142D01*
X150530714Y-84357142D02*
X150387857Y-84285713D01*
X150387857Y-84285713D02*
X150316428Y-84142856D01*
X150316428Y-84142856D02*
X150316428Y-83928571D01*
X150316428Y-83928571D02*
X150245000Y-83785713D01*
X150245000Y-83785713D02*
X150102142Y-83714285D01*
X150102142Y-83714285D02*
X150030714Y-83714285D01*
X150030714Y-83714285D02*
X149887857Y-83785713D01*
X149887857Y-83785713D02*
X149816428Y-83928571D01*
X149816428Y-83928571D02*
X149816428Y-84142856D01*
X149816428Y-84142856D02*
X149887857Y-84285713D01*
D10*
X156959523Y-99911904D02*
X156483333Y-99911904D01*
X157054761Y-100197619D02*
X156721428Y-99197619D01*
X156721428Y-99197619D02*
X156388095Y-100197619D01*
X156054761Y-100197619D02*
X156054761Y-99530952D01*
X156054761Y-99197619D02*
X156102380Y-99245238D01*
X156102380Y-99245238D02*
X156054761Y-99292857D01*
X156054761Y-99292857D02*
X156007142Y-99245238D01*
X156007142Y-99245238D02*
X156054761Y-99197619D01*
X156054761Y-99197619D02*
X156054761Y-99292857D01*
X155578571Y-100197619D02*
X155578571Y-99530952D01*
X155578571Y-99721428D02*
X155530952Y-99626190D01*
X155530952Y-99626190D02*
X155483333Y-99578571D01*
X155483333Y-99578571D02*
X155388095Y-99530952D01*
X155388095Y-99530952D02*
X155292857Y-99530952D01*
X155102380Y-99530952D02*
X154721428Y-99530952D01*
X154959523Y-100197619D02*
X154959523Y-99340476D01*
X154959523Y-99340476D02*
X154911904Y-99245238D01*
X154911904Y-99245238D02*
X154816666Y-99197619D01*
X154816666Y-99197619D02*
X154721428Y-99197619D01*
X154245237Y-100197619D02*
X154340475Y-100150000D01*
X154340475Y-100150000D02*
X154388094Y-100054761D01*
X154388094Y-100054761D02*
X154388094Y-99197619D01*
X153721427Y-100197619D02*
X153816665Y-100150000D01*
X153816665Y-100150000D02*
X153864284Y-100102380D01*
X153864284Y-100102380D02*
X153911903Y-100007142D01*
X153911903Y-100007142D02*
X153911903Y-99721428D01*
X153911903Y-99721428D02*
X153864284Y-99626190D01*
X153864284Y-99626190D02*
X153816665Y-99578571D01*
X153816665Y-99578571D02*
X153721427Y-99530952D01*
X153721427Y-99530952D02*
X153578570Y-99530952D01*
X153578570Y-99530952D02*
X153483332Y-99578571D01*
X153483332Y-99578571D02*
X153435713Y-99626190D01*
X153435713Y-99626190D02*
X153388094Y-99721428D01*
X153388094Y-99721428D02*
X153388094Y-100007142D01*
X153388094Y-100007142D02*
X153435713Y-100102380D01*
X153435713Y-100102380D02*
X153483332Y-100150000D01*
X153483332Y-100150000D02*
X153578570Y-100197619D01*
X153578570Y-100197619D02*
X153721427Y-100197619D01*
X153054760Y-99530952D02*
X152864284Y-100197619D01*
X152864284Y-100197619D02*
X152673808Y-99721428D01*
X152673808Y-99721428D02*
X152483332Y-100197619D01*
X152483332Y-100197619D02*
X152292856Y-99530952D01*
D11*
X164116428Y-71352857D02*
X164116428Y-72210000D01*
X165616428Y-71781428D02*
X164116428Y-71781428D01*
X165545000Y-73281428D02*
X165616428Y-73138571D01*
X165616428Y-73138571D02*
X165616428Y-72852857D01*
X165616428Y-72852857D02*
X165545000Y-72709999D01*
X165545000Y-72709999D02*
X165402142Y-72638571D01*
X165402142Y-72638571D02*
X164830714Y-72638571D01*
X164830714Y-72638571D02*
X164687857Y-72709999D01*
X164687857Y-72709999D02*
X164616428Y-72852857D01*
X164616428Y-72852857D02*
X164616428Y-73138571D01*
X164616428Y-73138571D02*
X164687857Y-73281428D01*
X164687857Y-73281428D02*
X164830714Y-73352857D01*
X164830714Y-73352857D02*
X164973571Y-73352857D01*
X164973571Y-73352857D02*
X165116428Y-72638571D01*
X165616428Y-74209999D02*
X165545000Y-74067142D01*
X165545000Y-74067142D02*
X165402142Y-73995713D01*
X165402142Y-73995713D02*
X164116428Y-73995713D01*
X165545000Y-75352856D02*
X165616428Y-75209999D01*
X165616428Y-75209999D02*
X165616428Y-74924285D01*
X165616428Y-74924285D02*
X165545000Y-74781427D01*
X165545000Y-74781427D02*
X165402142Y-74709999D01*
X165402142Y-74709999D02*
X164830714Y-74709999D01*
X164830714Y-74709999D02*
X164687857Y-74781427D01*
X164687857Y-74781427D02*
X164616428Y-74924285D01*
X164616428Y-74924285D02*
X164616428Y-75209999D01*
X164616428Y-75209999D02*
X164687857Y-75352856D01*
X164687857Y-75352856D02*
X164830714Y-75424285D01*
X164830714Y-75424285D02*
X164973571Y-75424285D01*
X164973571Y-75424285D02*
X165116428Y-74709999D01*
X165616428Y-76067141D02*
X164616428Y-76067141D01*
X164759285Y-76067141D02*
X164687857Y-76138570D01*
X164687857Y-76138570D02*
X164616428Y-76281427D01*
X164616428Y-76281427D02*
X164616428Y-76495713D01*
X164616428Y-76495713D02*
X164687857Y-76638570D01*
X164687857Y-76638570D02*
X164830714Y-76709999D01*
X164830714Y-76709999D02*
X165616428Y-76709999D01*
X164830714Y-76709999D02*
X164687857Y-76781427D01*
X164687857Y-76781427D02*
X164616428Y-76924284D01*
X164616428Y-76924284D02*
X164616428Y-77138570D01*
X164616428Y-77138570D02*
X164687857Y-77281427D01*
X164687857Y-77281427D02*
X164830714Y-77352856D01*
X164830714Y-77352856D02*
X165616428Y-77352856D01*
X165545000Y-78638570D02*
X165616428Y-78495713D01*
X165616428Y-78495713D02*
X165616428Y-78209999D01*
X165616428Y-78209999D02*
X165545000Y-78067141D01*
X165545000Y-78067141D02*
X165402142Y-77995713D01*
X165402142Y-77995713D02*
X164830714Y-77995713D01*
X164830714Y-77995713D02*
X164687857Y-78067141D01*
X164687857Y-78067141D02*
X164616428Y-78209999D01*
X164616428Y-78209999D02*
X164616428Y-78495713D01*
X164616428Y-78495713D02*
X164687857Y-78638570D01*
X164687857Y-78638570D02*
X164830714Y-78709999D01*
X164830714Y-78709999D02*
X164973571Y-78709999D01*
X164973571Y-78709999D02*
X165116428Y-77995713D01*
X164616428Y-79138570D02*
X164616428Y-79709998D01*
X164116428Y-79352855D02*
X165402142Y-79352855D01*
X165402142Y-79352855D02*
X165545000Y-79424284D01*
X165545000Y-79424284D02*
X165616428Y-79567141D01*
X165616428Y-79567141D02*
X165616428Y-79709998D01*
X165616428Y-80209998D02*
X164616428Y-80209998D01*
X164902142Y-80209998D02*
X164759285Y-80281427D01*
X164759285Y-80281427D02*
X164687857Y-80352856D01*
X164687857Y-80352856D02*
X164616428Y-80495713D01*
X164616428Y-80495713D02*
X164616428Y-80638570D01*
X164616428Y-80995712D02*
X165616428Y-81352855D01*
X164616428Y-81709998D02*
X165616428Y-81352855D01*
X165616428Y-81352855D02*
X165973571Y-81209998D01*
X165973571Y-81209998D02*
X166045000Y-81138569D01*
X166045000Y-81138569D02*
X166116428Y-80995712D01*
X165616428Y-83424283D02*
X164116428Y-83424283D01*
X164116428Y-83424283D02*
X164116428Y-83995712D01*
X164116428Y-83995712D02*
X164187857Y-84138569D01*
X164187857Y-84138569D02*
X164259285Y-84209998D01*
X164259285Y-84209998D02*
X164402142Y-84281426D01*
X164402142Y-84281426D02*
X164616428Y-84281426D01*
X164616428Y-84281426D02*
X164759285Y-84209998D01*
X164759285Y-84209998D02*
X164830714Y-84138569D01*
X164830714Y-84138569D02*
X164902142Y-83995712D01*
X164902142Y-83995712D02*
X164902142Y-83424283D01*
X165545000Y-85495712D02*
X165616428Y-85352855D01*
X165616428Y-85352855D02*
X165616428Y-85067141D01*
X165616428Y-85067141D02*
X165545000Y-84924283D01*
X165545000Y-84924283D02*
X165402142Y-84852855D01*
X165402142Y-84852855D02*
X164830714Y-84852855D01*
X164830714Y-84852855D02*
X164687857Y-84924283D01*
X164687857Y-84924283D02*
X164616428Y-85067141D01*
X164616428Y-85067141D02*
X164616428Y-85352855D01*
X164616428Y-85352855D02*
X164687857Y-85495712D01*
X164687857Y-85495712D02*
X164830714Y-85567141D01*
X164830714Y-85567141D02*
X164973571Y-85567141D01*
X164973571Y-85567141D02*
X165116428Y-84852855D01*
X165616428Y-86209997D02*
X164616428Y-86209997D01*
X164902142Y-86209997D02*
X164759285Y-86281426D01*
X164759285Y-86281426D02*
X164687857Y-86352855D01*
X164687857Y-86352855D02*
X164616428Y-86495712D01*
X164616428Y-86495712D02*
X164616428Y-86638569D01*
X165616428Y-87138568D02*
X164616428Y-87138568D01*
X164116428Y-87138568D02*
X164187857Y-87067140D01*
X164187857Y-87067140D02*
X164259285Y-87138568D01*
X164259285Y-87138568D02*
X164187857Y-87209997D01*
X164187857Y-87209997D02*
X164116428Y-87138568D01*
X164116428Y-87138568D02*
X164259285Y-87138568D01*
X164616428Y-87852854D02*
X166116428Y-87852854D01*
X164687857Y-87852854D02*
X164616428Y-87995712D01*
X164616428Y-87995712D02*
X164616428Y-88281426D01*
X164616428Y-88281426D02*
X164687857Y-88424283D01*
X164687857Y-88424283D02*
X164759285Y-88495712D01*
X164759285Y-88495712D02*
X164902142Y-88567140D01*
X164902142Y-88567140D02*
X165330714Y-88567140D01*
X165330714Y-88567140D02*
X165473571Y-88495712D01*
X165473571Y-88495712D02*
X165545000Y-88424283D01*
X165545000Y-88424283D02*
X165616428Y-88281426D01*
X165616428Y-88281426D02*
X165616428Y-87995712D01*
X165616428Y-87995712D02*
X165545000Y-87852854D01*
X165616428Y-89209997D02*
X164116428Y-89209997D01*
X165616428Y-89852855D02*
X164830714Y-89852855D01*
X164830714Y-89852855D02*
X164687857Y-89781426D01*
X164687857Y-89781426D02*
X164616428Y-89638569D01*
X164616428Y-89638569D02*
X164616428Y-89424283D01*
X164616428Y-89424283D02*
X164687857Y-89281426D01*
X164687857Y-89281426D02*
X164759285Y-89209997D01*
X165545000Y-91138569D02*
X165616428Y-90995712D01*
X165616428Y-90995712D02*
X165616428Y-90709998D01*
X165616428Y-90709998D02*
X165545000Y-90567140D01*
X165545000Y-90567140D02*
X165402142Y-90495712D01*
X165402142Y-90495712D02*
X164830714Y-90495712D01*
X164830714Y-90495712D02*
X164687857Y-90567140D01*
X164687857Y-90567140D02*
X164616428Y-90709998D01*
X164616428Y-90709998D02*
X164616428Y-90995712D01*
X164616428Y-90995712D02*
X164687857Y-91138569D01*
X164687857Y-91138569D02*
X164830714Y-91209998D01*
X164830714Y-91209998D02*
X164973571Y-91209998D01*
X164973571Y-91209998D02*
X165116428Y-90495712D01*
X165616428Y-91852854D02*
X164616428Y-91852854D01*
X164902142Y-91852854D02*
X164759285Y-91924283D01*
X164759285Y-91924283D02*
X164687857Y-91995712D01*
X164687857Y-91995712D02*
X164616428Y-92138569D01*
X164616428Y-92138569D02*
X164616428Y-92281426D01*
X165616428Y-93424283D02*
X164830714Y-93424283D01*
X164830714Y-93424283D02*
X164687857Y-93352854D01*
X164687857Y-93352854D02*
X164616428Y-93209997D01*
X164616428Y-93209997D02*
X164616428Y-92924283D01*
X164616428Y-92924283D02*
X164687857Y-92781425D01*
X165545000Y-93424283D02*
X165616428Y-93281425D01*
X165616428Y-93281425D02*
X165616428Y-92924283D01*
X165616428Y-92924283D02*
X165545000Y-92781425D01*
X165545000Y-92781425D02*
X165402142Y-92709997D01*
X165402142Y-92709997D02*
X165259285Y-92709997D01*
X165259285Y-92709997D02*
X165116428Y-92781425D01*
X165116428Y-92781425D02*
X165045000Y-92924283D01*
X165045000Y-92924283D02*
X165045000Y-93281425D01*
X165045000Y-93281425D02*
X164973571Y-93424283D01*
X165616428Y-94352854D02*
X165545000Y-94209997D01*
X165545000Y-94209997D02*
X165402142Y-94138568D01*
X165402142Y-94138568D02*
X164116428Y-94138568D01*
X167975000Y-71495714D02*
X168046428Y-71710000D01*
X168046428Y-71710000D02*
X168046428Y-72067142D01*
X168046428Y-72067142D02*
X167975000Y-72210000D01*
X167975000Y-72210000D02*
X167903571Y-72281428D01*
X167903571Y-72281428D02*
X167760714Y-72352857D01*
X167760714Y-72352857D02*
X167617857Y-72352857D01*
X167617857Y-72352857D02*
X167475000Y-72281428D01*
X167475000Y-72281428D02*
X167403571Y-72210000D01*
X167403571Y-72210000D02*
X167332142Y-72067142D01*
X167332142Y-72067142D02*
X167260714Y-71781428D01*
X167260714Y-71781428D02*
X167189285Y-71638571D01*
X167189285Y-71638571D02*
X167117857Y-71567142D01*
X167117857Y-71567142D02*
X166975000Y-71495714D01*
X166975000Y-71495714D02*
X166832142Y-71495714D01*
X166832142Y-71495714D02*
X166689285Y-71567142D01*
X166689285Y-71567142D02*
X166617857Y-71638571D01*
X166617857Y-71638571D02*
X166546428Y-71781428D01*
X166546428Y-71781428D02*
X166546428Y-72138571D01*
X166546428Y-72138571D02*
X166617857Y-72352857D01*
X166546428Y-73281428D02*
X166546428Y-73567142D01*
X166546428Y-73567142D02*
X166617857Y-73709999D01*
X166617857Y-73709999D02*
X166760714Y-73852856D01*
X166760714Y-73852856D02*
X167046428Y-73924285D01*
X167046428Y-73924285D02*
X167546428Y-73924285D01*
X167546428Y-73924285D02*
X167832142Y-73852856D01*
X167832142Y-73852856D02*
X167975000Y-73709999D01*
X167975000Y-73709999D02*
X168046428Y-73567142D01*
X168046428Y-73567142D02*
X168046428Y-73281428D01*
X168046428Y-73281428D02*
X167975000Y-73138571D01*
X167975000Y-73138571D02*
X167832142Y-72995713D01*
X167832142Y-72995713D02*
X167546428Y-72924285D01*
X167546428Y-72924285D02*
X167046428Y-72924285D01*
X167046428Y-72924285D02*
X166760714Y-72995713D01*
X166760714Y-72995713D02*
X166617857Y-73138571D01*
X166617857Y-73138571D02*
X166546428Y-73281428D01*
X168046428Y-74567142D02*
X166546428Y-74567142D01*
X166546428Y-74567142D02*
X167617857Y-75067142D01*
X167617857Y-75067142D02*
X166546428Y-75567142D01*
X166546428Y-75567142D02*
X168046428Y-75567142D01*
X168046428Y-77424285D02*
X166546428Y-77424285D01*
X166546428Y-77424285D02*
X166546428Y-77781428D01*
X166546428Y-77781428D02*
X166617857Y-77995714D01*
X166617857Y-77995714D02*
X166760714Y-78138571D01*
X166760714Y-78138571D02*
X166903571Y-78210000D01*
X166903571Y-78210000D02*
X167189285Y-78281428D01*
X167189285Y-78281428D02*
X167403571Y-78281428D01*
X167403571Y-78281428D02*
X167689285Y-78210000D01*
X167689285Y-78210000D02*
X167832142Y-78138571D01*
X167832142Y-78138571D02*
X167975000Y-77995714D01*
X167975000Y-77995714D02*
X168046428Y-77781428D01*
X168046428Y-77781428D02*
X168046428Y-77424285D01*
X168046428Y-79567143D02*
X167260714Y-79567143D01*
X167260714Y-79567143D02*
X167117857Y-79495714D01*
X167117857Y-79495714D02*
X167046428Y-79352857D01*
X167046428Y-79352857D02*
X167046428Y-79067143D01*
X167046428Y-79067143D02*
X167117857Y-78924285D01*
X167975000Y-79567143D02*
X168046428Y-79424285D01*
X168046428Y-79424285D02*
X168046428Y-79067143D01*
X168046428Y-79067143D02*
X167975000Y-78924285D01*
X167975000Y-78924285D02*
X167832142Y-78852857D01*
X167832142Y-78852857D02*
X167689285Y-78852857D01*
X167689285Y-78852857D02*
X167546428Y-78924285D01*
X167546428Y-78924285D02*
X167475000Y-79067143D01*
X167475000Y-79067143D02*
X167475000Y-79424285D01*
X167475000Y-79424285D02*
X167403571Y-79567143D01*
X167046428Y-80924286D02*
X168046428Y-80924286D01*
X167046428Y-80281428D02*
X167832142Y-80281428D01*
X167832142Y-80281428D02*
X167975000Y-80352857D01*
X167975000Y-80352857D02*
X168046428Y-80495714D01*
X168046428Y-80495714D02*
X168046428Y-80710000D01*
X168046428Y-80710000D02*
X167975000Y-80852857D01*
X167975000Y-80852857D02*
X167903571Y-80924286D01*
X167046428Y-82281429D02*
X168260714Y-82281429D01*
X168260714Y-82281429D02*
X168403571Y-82210000D01*
X168403571Y-82210000D02*
X168475000Y-82138571D01*
X168475000Y-82138571D02*
X168546428Y-81995714D01*
X168546428Y-81995714D02*
X168546428Y-81781429D01*
X168546428Y-81781429D02*
X168475000Y-81638571D01*
X167975000Y-82281429D02*
X168046428Y-82138571D01*
X168046428Y-82138571D02*
X168046428Y-81852857D01*
X168046428Y-81852857D02*
X167975000Y-81710000D01*
X167975000Y-81710000D02*
X167903571Y-81638571D01*
X167903571Y-81638571D02*
X167760714Y-81567143D01*
X167760714Y-81567143D02*
X167332142Y-81567143D01*
X167332142Y-81567143D02*
X167189285Y-81638571D01*
X167189285Y-81638571D02*
X167117857Y-81710000D01*
X167117857Y-81710000D02*
X167046428Y-81852857D01*
X167046428Y-81852857D02*
X167046428Y-82138571D01*
X167046428Y-82138571D02*
X167117857Y-82281429D01*
X168046428Y-82995714D02*
X166546428Y-82995714D01*
X168046428Y-83638572D02*
X167260714Y-83638572D01*
X167260714Y-83638572D02*
X167117857Y-83567143D01*
X167117857Y-83567143D02*
X167046428Y-83424286D01*
X167046428Y-83424286D02*
X167046428Y-83210000D01*
X167046428Y-83210000D02*
X167117857Y-83067143D01*
X167117857Y-83067143D02*
X167189285Y-82995714D01*
X167046428Y-84138572D02*
X167046428Y-84710000D01*
X166546428Y-84352857D02*
X167832142Y-84352857D01*
X167832142Y-84352857D02*
X167975000Y-84424286D01*
X167975000Y-84424286D02*
X168046428Y-84567143D01*
X168046428Y-84567143D02*
X168046428Y-84710000D01*
X167975000Y-85781429D02*
X168046428Y-85638572D01*
X168046428Y-85638572D02*
X168046428Y-85352858D01*
X168046428Y-85352858D02*
X167975000Y-85210000D01*
X167975000Y-85210000D02*
X167832142Y-85138572D01*
X167832142Y-85138572D02*
X167260714Y-85138572D01*
X167260714Y-85138572D02*
X167117857Y-85210000D01*
X167117857Y-85210000D02*
X167046428Y-85352858D01*
X167046428Y-85352858D02*
X167046428Y-85638572D01*
X167046428Y-85638572D02*
X167117857Y-85781429D01*
X167117857Y-85781429D02*
X167260714Y-85852858D01*
X167260714Y-85852858D02*
X167403571Y-85852858D01*
X167403571Y-85852858D02*
X167546428Y-85138572D01*
X168046428Y-86495714D02*
X167046428Y-86495714D01*
X167332142Y-86495714D02*
X167189285Y-86567143D01*
X167189285Y-86567143D02*
X167117857Y-86638572D01*
X167117857Y-86638572D02*
X167046428Y-86781429D01*
X167046428Y-86781429D02*
X167046428Y-86924286D01*
X168046428Y-87424285D02*
X166546428Y-87424285D01*
X167117857Y-87424285D02*
X167046428Y-87567143D01*
X167046428Y-87567143D02*
X167046428Y-87852857D01*
X167046428Y-87852857D02*
X167117857Y-87995714D01*
X167117857Y-87995714D02*
X167189285Y-88067143D01*
X167189285Y-88067143D02*
X167332142Y-88138571D01*
X167332142Y-88138571D02*
X167760714Y-88138571D01*
X167760714Y-88138571D02*
X167903571Y-88067143D01*
X167903571Y-88067143D02*
X167975000Y-87995714D01*
X167975000Y-87995714D02*
X168046428Y-87852857D01*
X168046428Y-87852857D02*
X168046428Y-87567143D01*
X168046428Y-87567143D02*
X167975000Y-87424285D01*
X168046428Y-88995714D02*
X167975000Y-88852857D01*
X167975000Y-88852857D02*
X167903571Y-88781428D01*
X167903571Y-88781428D02*
X167760714Y-88710000D01*
X167760714Y-88710000D02*
X167332142Y-88710000D01*
X167332142Y-88710000D02*
X167189285Y-88781428D01*
X167189285Y-88781428D02*
X167117857Y-88852857D01*
X167117857Y-88852857D02*
X167046428Y-88995714D01*
X167046428Y-88995714D02*
X167046428Y-89210000D01*
X167046428Y-89210000D02*
X167117857Y-89352857D01*
X167117857Y-89352857D02*
X167189285Y-89424286D01*
X167189285Y-89424286D02*
X167332142Y-89495714D01*
X167332142Y-89495714D02*
X167760714Y-89495714D01*
X167760714Y-89495714D02*
X167903571Y-89424286D01*
X167903571Y-89424286D02*
X167975000Y-89352857D01*
X167975000Y-89352857D02*
X168046428Y-89210000D01*
X168046428Y-89210000D02*
X168046428Y-88995714D01*
X168046428Y-90781429D02*
X167260714Y-90781429D01*
X167260714Y-90781429D02*
X167117857Y-90710000D01*
X167117857Y-90710000D02*
X167046428Y-90567143D01*
X167046428Y-90567143D02*
X167046428Y-90281429D01*
X167046428Y-90281429D02*
X167117857Y-90138571D01*
X167975000Y-90781429D02*
X168046428Y-90638571D01*
X168046428Y-90638571D02*
X168046428Y-90281429D01*
X168046428Y-90281429D02*
X167975000Y-90138571D01*
X167975000Y-90138571D02*
X167832142Y-90067143D01*
X167832142Y-90067143D02*
X167689285Y-90067143D01*
X167689285Y-90067143D02*
X167546428Y-90138571D01*
X167546428Y-90138571D02*
X167475000Y-90281429D01*
X167475000Y-90281429D02*
X167475000Y-90638571D01*
X167475000Y-90638571D02*
X167403571Y-90781429D01*
X168046428Y-91495714D02*
X167046428Y-91495714D01*
X167332142Y-91495714D02*
X167189285Y-91567143D01*
X167189285Y-91567143D02*
X167117857Y-91638572D01*
X167117857Y-91638572D02*
X167046428Y-91781429D01*
X167046428Y-91781429D02*
X167046428Y-91924286D01*
X168046428Y-93067143D02*
X166546428Y-93067143D01*
X167975000Y-93067143D02*
X168046428Y-92924285D01*
X168046428Y-92924285D02*
X168046428Y-92638571D01*
X168046428Y-92638571D02*
X167975000Y-92495714D01*
X167975000Y-92495714D02*
X167903571Y-92424285D01*
X167903571Y-92424285D02*
X167760714Y-92352857D01*
X167760714Y-92352857D02*
X167332142Y-92352857D01*
X167332142Y-92352857D02*
X167189285Y-92424285D01*
X167189285Y-92424285D02*
X167117857Y-92495714D01*
X167117857Y-92495714D02*
X167046428Y-92638571D01*
X167046428Y-92638571D02*
X167046428Y-92924285D01*
X167046428Y-92924285D02*
X167117857Y-93067143D01*
X169690714Y-72067142D02*
X169690714Y-71567142D01*
X170476428Y-71567142D02*
X168976428Y-71567142D01*
X168976428Y-71567142D02*
X168976428Y-72281428D01*
X170476428Y-73495714D02*
X169690714Y-73495714D01*
X169690714Y-73495714D02*
X169547857Y-73424285D01*
X169547857Y-73424285D02*
X169476428Y-73281428D01*
X169476428Y-73281428D02*
X169476428Y-72995714D01*
X169476428Y-72995714D02*
X169547857Y-72852856D01*
X170405000Y-73495714D02*
X170476428Y-73352856D01*
X170476428Y-73352856D02*
X170476428Y-72995714D01*
X170476428Y-72995714D02*
X170405000Y-72852856D01*
X170405000Y-72852856D02*
X170262142Y-72781428D01*
X170262142Y-72781428D02*
X170119285Y-72781428D01*
X170119285Y-72781428D02*
X169976428Y-72852856D01*
X169976428Y-72852856D02*
X169905000Y-72995714D01*
X169905000Y-72995714D02*
X169905000Y-73352856D01*
X169905000Y-73352856D02*
X169833571Y-73495714D01*
X170476428Y-74424285D02*
X170405000Y-74281428D01*
X170405000Y-74281428D02*
X170262142Y-74209999D01*
X170262142Y-74209999D02*
X168976428Y-74209999D01*
X170476428Y-75209999D02*
X170405000Y-75067142D01*
X170405000Y-75067142D02*
X170262142Y-74995713D01*
X170262142Y-74995713D02*
X168976428Y-74995713D01*
X169119285Y-76852856D02*
X169047857Y-76924284D01*
X169047857Y-76924284D02*
X168976428Y-77067142D01*
X168976428Y-77067142D02*
X168976428Y-77424284D01*
X168976428Y-77424284D02*
X169047857Y-77567142D01*
X169047857Y-77567142D02*
X169119285Y-77638570D01*
X169119285Y-77638570D02*
X169262142Y-77709999D01*
X169262142Y-77709999D02*
X169405000Y-77709999D01*
X169405000Y-77709999D02*
X169619285Y-77638570D01*
X169619285Y-77638570D02*
X170476428Y-76781427D01*
X170476428Y-76781427D02*
X170476428Y-77709999D01*
X168976428Y-78638570D02*
X168976428Y-78781427D01*
X168976428Y-78781427D02*
X169047857Y-78924284D01*
X169047857Y-78924284D02*
X169119285Y-78995713D01*
X169119285Y-78995713D02*
X169262142Y-79067141D01*
X169262142Y-79067141D02*
X169547857Y-79138570D01*
X169547857Y-79138570D02*
X169905000Y-79138570D01*
X169905000Y-79138570D02*
X170190714Y-79067141D01*
X170190714Y-79067141D02*
X170333571Y-78995713D01*
X170333571Y-78995713D02*
X170405000Y-78924284D01*
X170405000Y-78924284D02*
X170476428Y-78781427D01*
X170476428Y-78781427D02*
X170476428Y-78638570D01*
X170476428Y-78638570D02*
X170405000Y-78495713D01*
X170405000Y-78495713D02*
X170333571Y-78424284D01*
X170333571Y-78424284D02*
X170190714Y-78352855D01*
X170190714Y-78352855D02*
X169905000Y-78281427D01*
X169905000Y-78281427D02*
X169547857Y-78281427D01*
X169547857Y-78281427D02*
X169262142Y-78352855D01*
X169262142Y-78352855D02*
X169119285Y-78424284D01*
X169119285Y-78424284D02*
X169047857Y-78495713D01*
X169047857Y-78495713D02*
X168976428Y-78638570D01*
X169119285Y-79709998D02*
X169047857Y-79781426D01*
X169047857Y-79781426D02*
X168976428Y-79924284D01*
X168976428Y-79924284D02*
X168976428Y-80281426D01*
X168976428Y-80281426D02*
X169047857Y-80424284D01*
X169047857Y-80424284D02*
X169119285Y-80495712D01*
X169119285Y-80495712D02*
X169262142Y-80567141D01*
X169262142Y-80567141D02*
X169405000Y-80567141D01*
X169405000Y-80567141D02*
X169619285Y-80495712D01*
X169619285Y-80495712D02*
X170476428Y-79638569D01*
X170476428Y-79638569D02*
X170476428Y-80567141D01*
X168976428Y-81067140D02*
X168976428Y-81995712D01*
X168976428Y-81995712D02*
X169547857Y-81495712D01*
X169547857Y-81495712D02*
X169547857Y-81709997D01*
X169547857Y-81709997D02*
X169619285Y-81852855D01*
X169619285Y-81852855D02*
X169690714Y-81924283D01*
X169690714Y-81924283D02*
X169833571Y-81995712D01*
X169833571Y-81995712D02*
X170190714Y-81995712D01*
X170190714Y-81995712D02*
X170333571Y-81924283D01*
X170333571Y-81924283D02*
X170405000Y-81852855D01*
X170405000Y-81852855D02*
X170476428Y-81709997D01*
X170476428Y-81709997D02*
X170476428Y-81281426D01*
X170476428Y-81281426D02*
X170405000Y-81138569D01*
X170405000Y-81138569D02*
X170333571Y-81067140D01*
X169905000Y-83781425D02*
X169905000Y-84924283D01*
X170476428Y-86781425D02*
X168976428Y-86781425D01*
X168976428Y-86781425D02*
X168976428Y-87138568D01*
X168976428Y-87138568D02*
X169047857Y-87352854D01*
X169047857Y-87352854D02*
X169190714Y-87495711D01*
X169190714Y-87495711D02*
X169333571Y-87567140D01*
X169333571Y-87567140D02*
X169619285Y-87638568D01*
X169619285Y-87638568D02*
X169833571Y-87638568D01*
X169833571Y-87638568D02*
X170119285Y-87567140D01*
X170119285Y-87567140D02*
X170262142Y-87495711D01*
X170262142Y-87495711D02*
X170405000Y-87352854D01*
X170405000Y-87352854D02*
X170476428Y-87138568D01*
X170476428Y-87138568D02*
X170476428Y-86781425D01*
X170405000Y-88852854D02*
X170476428Y-88709997D01*
X170476428Y-88709997D02*
X170476428Y-88424283D01*
X170476428Y-88424283D02*
X170405000Y-88281425D01*
X170405000Y-88281425D02*
X170262142Y-88209997D01*
X170262142Y-88209997D02*
X169690714Y-88209997D01*
X169690714Y-88209997D02*
X169547857Y-88281425D01*
X169547857Y-88281425D02*
X169476428Y-88424283D01*
X169476428Y-88424283D02*
X169476428Y-88709997D01*
X169476428Y-88709997D02*
X169547857Y-88852854D01*
X169547857Y-88852854D02*
X169690714Y-88924283D01*
X169690714Y-88924283D02*
X169833571Y-88924283D01*
X169833571Y-88924283D02*
X169976428Y-88209997D01*
X170405000Y-89495711D02*
X170476428Y-89638568D01*
X170476428Y-89638568D02*
X170476428Y-89924282D01*
X170476428Y-89924282D02*
X170405000Y-90067139D01*
X170405000Y-90067139D02*
X170262142Y-90138568D01*
X170262142Y-90138568D02*
X170190714Y-90138568D01*
X170190714Y-90138568D02*
X170047857Y-90067139D01*
X170047857Y-90067139D02*
X169976428Y-89924282D01*
X169976428Y-89924282D02*
X169976428Y-89709997D01*
X169976428Y-89709997D02*
X169905000Y-89567139D01*
X169905000Y-89567139D02*
X169762142Y-89495711D01*
X169762142Y-89495711D02*
X169690714Y-89495711D01*
X169690714Y-89495711D02*
X169547857Y-89567139D01*
X169547857Y-89567139D02*
X169476428Y-89709997D01*
X169476428Y-89709997D02*
X169476428Y-89924282D01*
X169476428Y-89924282D02*
X169547857Y-90067139D01*
X170476428Y-90781425D02*
X169476428Y-90781425D01*
X168976428Y-90781425D02*
X169047857Y-90709997D01*
X169047857Y-90709997D02*
X169119285Y-90781425D01*
X169119285Y-90781425D02*
X169047857Y-90852854D01*
X169047857Y-90852854D02*
X168976428Y-90781425D01*
X168976428Y-90781425D02*
X169119285Y-90781425D01*
X169476428Y-92138569D02*
X170690714Y-92138569D01*
X170690714Y-92138569D02*
X170833571Y-92067140D01*
X170833571Y-92067140D02*
X170905000Y-91995711D01*
X170905000Y-91995711D02*
X170976428Y-91852854D01*
X170976428Y-91852854D02*
X170976428Y-91638569D01*
X170976428Y-91638569D02*
X170905000Y-91495711D01*
X170405000Y-92138569D02*
X170476428Y-91995711D01*
X170476428Y-91995711D02*
X170476428Y-91709997D01*
X170476428Y-91709997D02*
X170405000Y-91567140D01*
X170405000Y-91567140D02*
X170333571Y-91495711D01*
X170333571Y-91495711D02*
X170190714Y-91424283D01*
X170190714Y-91424283D02*
X169762142Y-91424283D01*
X169762142Y-91424283D02*
X169619285Y-91495711D01*
X169619285Y-91495711D02*
X169547857Y-91567140D01*
X169547857Y-91567140D02*
X169476428Y-91709997D01*
X169476428Y-91709997D02*
X169476428Y-91995711D01*
X169476428Y-91995711D02*
X169547857Y-92138569D01*
X169476428Y-92852854D02*
X170476428Y-92852854D01*
X169619285Y-92852854D02*
X169547857Y-92924283D01*
X169547857Y-92924283D02*
X169476428Y-93067140D01*
X169476428Y-93067140D02*
X169476428Y-93281426D01*
X169476428Y-93281426D02*
X169547857Y-93424283D01*
X169547857Y-93424283D02*
X169690714Y-93495712D01*
X169690714Y-93495712D02*
X170476428Y-93495712D01*
X170476428Y-95352854D02*
X168976428Y-95352854D01*
X169547857Y-95352854D02*
X169476428Y-95495712D01*
X169476428Y-95495712D02*
X169476428Y-95781426D01*
X169476428Y-95781426D02*
X169547857Y-95924283D01*
X169547857Y-95924283D02*
X169619285Y-95995712D01*
X169619285Y-95995712D02*
X169762142Y-96067140D01*
X169762142Y-96067140D02*
X170190714Y-96067140D01*
X170190714Y-96067140D02*
X170333571Y-95995712D01*
X170333571Y-95995712D02*
X170405000Y-95924283D01*
X170405000Y-95924283D02*
X170476428Y-95781426D01*
X170476428Y-95781426D02*
X170476428Y-95495712D01*
X170476428Y-95495712D02*
X170405000Y-95352854D01*
X169476428Y-96567140D02*
X170476428Y-96924283D01*
X169476428Y-97281426D02*
X170476428Y-96924283D01*
X170476428Y-96924283D02*
X170833571Y-96781426D01*
X170833571Y-96781426D02*
X170905000Y-96709997D01*
X170905000Y-96709997D02*
X170976428Y-96567140D01*
X172477857Y-71495714D02*
X172477857Y-72210000D01*
X172906428Y-71352857D02*
X171406428Y-71852857D01*
X171406428Y-71852857D02*
X172906428Y-72352857D01*
X171906428Y-72852856D02*
X172906428Y-72852856D01*
X172049285Y-72852856D02*
X171977857Y-72924285D01*
X171977857Y-72924285D02*
X171906428Y-73067142D01*
X171906428Y-73067142D02*
X171906428Y-73281428D01*
X171906428Y-73281428D02*
X171977857Y-73424285D01*
X171977857Y-73424285D02*
X172120714Y-73495714D01*
X172120714Y-73495714D02*
X172906428Y-73495714D01*
X172906428Y-74852857D02*
X171406428Y-74852857D01*
X172835000Y-74852857D02*
X172906428Y-74709999D01*
X172906428Y-74709999D02*
X172906428Y-74424285D01*
X172906428Y-74424285D02*
X172835000Y-74281428D01*
X172835000Y-74281428D02*
X172763571Y-74209999D01*
X172763571Y-74209999D02*
X172620714Y-74138571D01*
X172620714Y-74138571D02*
X172192142Y-74138571D01*
X172192142Y-74138571D02*
X172049285Y-74209999D01*
X172049285Y-74209999D02*
X171977857Y-74281428D01*
X171977857Y-74281428D02*
X171906428Y-74424285D01*
X171906428Y-74424285D02*
X171906428Y-74709999D01*
X171906428Y-74709999D02*
X171977857Y-74852857D01*
X172906428Y-75567142D02*
X171906428Y-75567142D01*
X172192142Y-75567142D02*
X172049285Y-75638571D01*
X172049285Y-75638571D02*
X171977857Y-75710000D01*
X171977857Y-75710000D02*
X171906428Y-75852857D01*
X171906428Y-75852857D02*
X171906428Y-75995714D01*
X172835000Y-77067142D02*
X172906428Y-76924285D01*
X172906428Y-76924285D02*
X172906428Y-76638571D01*
X172906428Y-76638571D02*
X172835000Y-76495713D01*
X172835000Y-76495713D02*
X172692142Y-76424285D01*
X172692142Y-76424285D02*
X172120714Y-76424285D01*
X172120714Y-76424285D02*
X171977857Y-76495713D01*
X171977857Y-76495713D02*
X171906428Y-76638571D01*
X171906428Y-76638571D02*
X171906428Y-76924285D01*
X171906428Y-76924285D02*
X171977857Y-77067142D01*
X171977857Y-77067142D02*
X172120714Y-77138571D01*
X172120714Y-77138571D02*
X172263571Y-77138571D01*
X172263571Y-77138571D02*
X172406428Y-76424285D01*
X171906428Y-77638570D02*
X172906428Y-77924285D01*
X172906428Y-77924285D02*
X172192142Y-78209999D01*
X172192142Y-78209999D02*
X172906428Y-78495713D01*
X172906428Y-78495713D02*
X171906428Y-78781427D01*
X172906428Y-80495713D02*
X171406428Y-80495713D01*
X171406428Y-80495713D02*
X172906428Y-81352856D01*
X172906428Y-81352856D02*
X171406428Y-81352856D01*
X171906428Y-82710000D02*
X173120714Y-82710000D01*
X173120714Y-82710000D02*
X173263571Y-82638571D01*
X173263571Y-82638571D02*
X173335000Y-82567142D01*
X173335000Y-82567142D02*
X173406428Y-82424285D01*
X173406428Y-82424285D02*
X173406428Y-82210000D01*
X173406428Y-82210000D02*
X173335000Y-82067142D01*
X172835000Y-82710000D02*
X172906428Y-82567142D01*
X172906428Y-82567142D02*
X172906428Y-82281428D01*
X172906428Y-82281428D02*
X172835000Y-82138571D01*
X172835000Y-82138571D02*
X172763571Y-82067142D01*
X172763571Y-82067142D02*
X172620714Y-81995714D01*
X172620714Y-81995714D02*
X172192142Y-81995714D01*
X172192142Y-81995714D02*
X172049285Y-82067142D01*
X172049285Y-82067142D02*
X171977857Y-82138571D01*
X171977857Y-82138571D02*
X171906428Y-82281428D01*
X171906428Y-82281428D02*
X171906428Y-82567142D01*
X171906428Y-82567142D02*
X171977857Y-82710000D01*
X171906428Y-84067143D02*
X172906428Y-84067143D01*
X171906428Y-83424285D02*
X172692142Y-83424285D01*
X172692142Y-83424285D02*
X172835000Y-83495714D01*
X172835000Y-83495714D02*
X172906428Y-83638571D01*
X172906428Y-83638571D02*
X172906428Y-83852857D01*
X172906428Y-83852857D02*
X172835000Y-83995714D01*
X172835000Y-83995714D02*
X172763571Y-84067143D01*
X171906428Y-84638571D02*
X172906428Y-84995714D01*
X171906428Y-85352857D02*
X172906428Y-84995714D01*
X172906428Y-84995714D02*
X173263571Y-84852857D01*
X173263571Y-84852857D02*
X173335000Y-84781428D01*
X173335000Y-84781428D02*
X173406428Y-84638571D01*
X172835000Y-86495714D02*
X172906428Y-86352857D01*
X172906428Y-86352857D02*
X172906428Y-86067143D01*
X172906428Y-86067143D02*
X172835000Y-85924285D01*
X172835000Y-85924285D02*
X172692142Y-85852857D01*
X172692142Y-85852857D02*
X172120714Y-85852857D01*
X172120714Y-85852857D02*
X171977857Y-85924285D01*
X171977857Y-85924285D02*
X171906428Y-86067143D01*
X171906428Y-86067143D02*
X171906428Y-86352857D01*
X171906428Y-86352857D02*
X171977857Y-86495714D01*
X171977857Y-86495714D02*
X172120714Y-86567143D01*
X172120714Y-86567143D02*
X172263571Y-86567143D01*
X172263571Y-86567143D02*
X172406428Y-85852857D01*
X171906428Y-87209999D02*
X172906428Y-87209999D01*
X172049285Y-87209999D02*
X171977857Y-87281428D01*
X171977857Y-87281428D02*
X171906428Y-87424285D01*
X171906428Y-87424285D02*
X171906428Y-87638571D01*
X171906428Y-87638571D02*
X171977857Y-87781428D01*
X171977857Y-87781428D02*
X172120714Y-87852857D01*
X172120714Y-87852857D02*
X172906428Y-87852857D01*
X172835000Y-88638571D02*
X172906428Y-88638571D01*
X172906428Y-88638571D02*
X173049285Y-88567142D01*
X173049285Y-88567142D02*
X173120714Y-88495714D01*
X172120714Y-90924285D02*
X172120714Y-90424285D01*
X172906428Y-90424285D02*
X171406428Y-90424285D01*
X171406428Y-90424285D02*
X171406428Y-91138571D01*
X172906428Y-91709999D02*
X171906428Y-91709999D01*
X172192142Y-91709999D02*
X172049285Y-91781428D01*
X172049285Y-91781428D02*
X171977857Y-91852857D01*
X171977857Y-91852857D02*
X171906428Y-91995714D01*
X171906428Y-91995714D02*
X171906428Y-92138571D01*
X172906428Y-93281428D02*
X172120714Y-93281428D01*
X172120714Y-93281428D02*
X171977857Y-93209999D01*
X171977857Y-93209999D02*
X171906428Y-93067142D01*
X171906428Y-93067142D02*
X171906428Y-92781428D01*
X171906428Y-92781428D02*
X171977857Y-92638570D01*
X172835000Y-93281428D02*
X172906428Y-93138570D01*
X172906428Y-93138570D02*
X172906428Y-92781428D01*
X172906428Y-92781428D02*
X172835000Y-92638570D01*
X172835000Y-92638570D02*
X172692142Y-92567142D01*
X172692142Y-92567142D02*
X172549285Y-92567142D01*
X172549285Y-92567142D02*
X172406428Y-92638570D01*
X172406428Y-92638570D02*
X172335000Y-92781428D01*
X172335000Y-92781428D02*
X172335000Y-93138570D01*
X172335000Y-93138570D02*
X172263571Y-93281428D01*
X171906428Y-93995713D02*
X172906428Y-93995713D01*
X172049285Y-93995713D02*
X171977857Y-94067142D01*
X171977857Y-94067142D02*
X171906428Y-94209999D01*
X171906428Y-94209999D02*
X171906428Y-94424285D01*
X171906428Y-94424285D02*
X171977857Y-94567142D01*
X171977857Y-94567142D02*
X172120714Y-94638571D01*
X172120714Y-94638571D02*
X172906428Y-94638571D01*
X172906428Y-95352856D02*
X171406428Y-95352856D01*
X172335000Y-95495714D02*
X172906428Y-95924285D01*
X171906428Y-95924285D02*
X172477857Y-95352856D01*
X172906428Y-98424285D02*
X172906428Y-97709999D01*
X172906428Y-97709999D02*
X171406428Y-97709999D01*
X172906428Y-98924285D02*
X171906428Y-98924285D01*
X171406428Y-98924285D02*
X171477857Y-98852857D01*
X171477857Y-98852857D02*
X171549285Y-98924285D01*
X171549285Y-98924285D02*
X171477857Y-98995714D01*
X171477857Y-98995714D02*
X171406428Y-98924285D01*
X171406428Y-98924285D02*
X171549285Y-98924285D01*
X172835000Y-99710000D02*
X172906428Y-99710000D01*
X172906428Y-99710000D02*
X173049285Y-99638571D01*
X173049285Y-99638571D02*
X173120714Y-99567143D01*
X171406428Y-101924286D02*
X172477857Y-101924286D01*
X172477857Y-101924286D02*
X172692142Y-101852857D01*
X172692142Y-101852857D02*
X172835000Y-101710000D01*
X172835000Y-101710000D02*
X172906428Y-101495714D01*
X172906428Y-101495714D02*
X172906428Y-101352857D01*
X172906428Y-102638571D02*
X171906428Y-102638571D01*
X171406428Y-102638571D02*
X171477857Y-102567143D01*
X171477857Y-102567143D02*
X171549285Y-102638571D01*
X171549285Y-102638571D02*
X171477857Y-102710000D01*
X171477857Y-102710000D02*
X171406428Y-102638571D01*
X171406428Y-102638571D02*
X171549285Y-102638571D01*
X172906428Y-103352857D02*
X171906428Y-103352857D01*
X172049285Y-103352857D02*
X171977857Y-103424286D01*
X171977857Y-103424286D02*
X171906428Y-103567143D01*
X171906428Y-103567143D02*
X171906428Y-103781429D01*
X171906428Y-103781429D02*
X171977857Y-103924286D01*
X171977857Y-103924286D02*
X172120714Y-103995715D01*
X172120714Y-103995715D02*
X172906428Y-103995715D01*
X172120714Y-103995715D02*
X171977857Y-104067143D01*
X171977857Y-104067143D02*
X171906428Y-104210000D01*
X171906428Y-104210000D02*
X171906428Y-104424286D01*
X171906428Y-104424286D02*
X171977857Y-104567143D01*
X171977857Y-104567143D02*
X172120714Y-104638572D01*
X172120714Y-104638572D02*
X172906428Y-104638572D01*
X172120714Y-106995714D02*
X172120714Y-106495714D01*
X172906428Y-106495714D02*
X171406428Y-106495714D01*
X171406428Y-106495714D02*
X171406428Y-107210000D01*
X172906428Y-108424286D02*
X172120714Y-108424286D01*
X172120714Y-108424286D02*
X171977857Y-108352857D01*
X171977857Y-108352857D02*
X171906428Y-108210000D01*
X171906428Y-108210000D02*
X171906428Y-107924286D01*
X171906428Y-107924286D02*
X171977857Y-107781428D01*
X172835000Y-108424286D02*
X172906428Y-108281428D01*
X172906428Y-108281428D02*
X172906428Y-107924286D01*
X172906428Y-107924286D02*
X172835000Y-107781428D01*
X172835000Y-107781428D02*
X172692142Y-107710000D01*
X172692142Y-107710000D02*
X172549285Y-107710000D01*
X172549285Y-107710000D02*
X172406428Y-107781428D01*
X172406428Y-107781428D02*
X172335000Y-107924286D01*
X172335000Y-107924286D02*
X172335000Y-108281428D01*
X172335000Y-108281428D02*
X172263571Y-108424286D01*
X171906428Y-109138571D02*
X172906428Y-109138571D01*
X172049285Y-109138571D02*
X171977857Y-109210000D01*
X171977857Y-109210000D02*
X171906428Y-109352857D01*
X171906428Y-109352857D02*
X171906428Y-109567143D01*
X171906428Y-109567143D02*
X171977857Y-109710000D01*
X171977857Y-109710000D02*
X172120714Y-109781429D01*
X172120714Y-109781429D02*
X172906428Y-109781429D01*
X171906428Y-111138572D02*
X173120714Y-111138572D01*
X173120714Y-111138572D02*
X173263571Y-111067143D01*
X173263571Y-111067143D02*
X173335000Y-110995714D01*
X173335000Y-110995714D02*
X173406428Y-110852857D01*
X173406428Y-110852857D02*
X173406428Y-110638572D01*
X173406428Y-110638572D02*
X173335000Y-110495714D01*
X172835000Y-111138572D02*
X172906428Y-110995714D01*
X172906428Y-110995714D02*
X172906428Y-110710000D01*
X172906428Y-110710000D02*
X172835000Y-110567143D01*
X172835000Y-110567143D02*
X172763571Y-110495714D01*
X172763571Y-110495714D02*
X172620714Y-110424286D01*
X172620714Y-110424286D02*
X172192142Y-110424286D01*
X172192142Y-110424286D02*
X172049285Y-110495714D01*
X172049285Y-110495714D02*
X171977857Y-110567143D01*
X171977857Y-110567143D02*
X171906428Y-110710000D01*
X171906428Y-110710000D02*
X171906428Y-110995714D01*
X171906428Y-110995714D02*
X171977857Y-111138572D01*
D10*
X152690476Y-82408095D02*
X153166666Y-82408095D01*
X152595238Y-82122380D02*
X152928571Y-83122380D01*
X152928571Y-83122380D02*
X153261904Y-82122380D01*
X153595238Y-82122380D02*
X153595238Y-82789047D01*
X153595238Y-83122380D02*
X153547619Y-83074761D01*
X153547619Y-83074761D02*
X153595238Y-83027142D01*
X153595238Y-83027142D02*
X153642857Y-83074761D01*
X153642857Y-83074761D02*
X153595238Y-83122380D01*
X153595238Y-83122380D02*
X153595238Y-83027142D01*
X154071428Y-82122380D02*
X154071428Y-82789047D01*
X154071428Y-82598571D02*
X154119047Y-82693809D01*
X154119047Y-82693809D02*
X154166666Y-82741428D01*
X154166666Y-82741428D02*
X154261904Y-82789047D01*
X154261904Y-82789047D02*
X154357142Y-82789047D01*
X154547619Y-82789047D02*
X154928571Y-82789047D01*
X154690476Y-82122380D02*
X154690476Y-82979523D01*
X154690476Y-82979523D02*
X154738095Y-83074761D01*
X154738095Y-83074761D02*
X154833333Y-83122380D01*
X154833333Y-83122380D02*
X154928571Y-83122380D01*
X155404762Y-82122380D02*
X155309524Y-82170000D01*
X155309524Y-82170000D02*
X155261905Y-82265238D01*
X155261905Y-82265238D02*
X155261905Y-83122380D01*
X155928572Y-82122380D02*
X155833334Y-82170000D01*
X155833334Y-82170000D02*
X155785715Y-82217619D01*
X155785715Y-82217619D02*
X155738096Y-82312857D01*
X155738096Y-82312857D02*
X155738096Y-82598571D01*
X155738096Y-82598571D02*
X155785715Y-82693809D01*
X155785715Y-82693809D02*
X155833334Y-82741428D01*
X155833334Y-82741428D02*
X155928572Y-82789047D01*
X155928572Y-82789047D02*
X156071429Y-82789047D01*
X156071429Y-82789047D02*
X156166667Y-82741428D01*
X156166667Y-82741428D02*
X156214286Y-82693809D01*
X156214286Y-82693809D02*
X156261905Y-82598571D01*
X156261905Y-82598571D02*
X156261905Y-82312857D01*
X156261905Y-82312857D02*
X156214286Y-82217619D01*
X156214286Y-82217619D02*
X156166667Y-82170000D01*
X156166667Y-82170000D02*
X156071429Y-82122380D01*
X156071429Y-82122380D02*
X155928572Y-82122380D01*
X156595239Y-82789047D02*
X156785715Y-82122380D01*
X156785715Y-82122380D02*
X156976191Y-82598571D01*
X156976191Y-82598571D02*
X157166667Y-82122380D01*
X157166667Y-82122380D02*
X157357143Y-82789047D01*
D12*
X153587526Y-89760237D02*
X152317526Y-89760237D01*
X153466573Y-91090714D02*
X153527050Y-91030238D01*
X153527050Y-91030238D02*
X153587526Y-90848809D01*
X153587526Y-90848809D02*
X153587526Y-90727857D01*
X153587526Y-90727857D02*
X153527050Y-90546428D01*
X153527050Y-90546428D02*
X153406097Y-90425476D01*
X153406097Y-90425476D02*
X153285145Y-90364999D01*
X153285145Y-90364999D02*
X153043240Y-90304523D01*
X153043240Y-90304523D02*
X152861811Y-90304523D01*
X152861811Y-90304523D02*
X152619907Y-90364999D01*
X152619907Y-90364999D02*
X152498954Y-90425476D01*
X152498954Y-90425476D02*
X152378002Y-90546428D01*
X152378002Y-90546428D02*
X152317526Y-90727857D01*
X152317526Y-90727857D02*
X152317526Y-90848809D01*
X152317526Y-90848809D02*
X152378002Y-91030238D01*
X152378002Y-91030238D02*
X152438478Y-91090714D01*
X153587526Y-92300238D02*
X153587526Y-91574523D01*
X153587526Y-91937380D02*
X152317526Y-91937380D01*
X152317526Y-91937380D02*
X152498954Y-91816428D01*
X152498954Y-91816428D02*
X152619907Y-91695476D01*
X152619907Y-91695476D02*
X152680383Y-91574523D01*
D13*
X150460000Y-85900000D02*
X150460000Y-85900000D01*
X150460000Y-86000000D02*
X150460000Y-86000000D01*
D14*
X157000000Y-86500000D02*
X157000000Y-89800000D01*
X149000000Y-86500000D02*
X157000000Y-86500000D01*
X149000000Y-89800000D02*
X149000000Y-86500000D01*
X157000000Y-92200000D02*
X157000000Y-95500000D01*
X157000000Y-95500000D02*
X149000000Y-95500000D01*
X149000000Y-95500000D02*
X149000000Y-92200000D01*
D13*
X150460000Y-86000000D02*
G75*
G03*
X150460000Y-85900000I0J50000D01*
G01*
X150460000Y-85900000D02*
G75*
G03*
X150460000Y-86000000I0J-50000D01*
G01*
%LPC*%
D15*
X182960000Y-85000000D03*
X182960000Y-97000000D03*
D16*
X181000000Y-88000000D03*
X181000000Y-91000000D03*
X181000000Y-94000000D03*
D15*
X182960000Y-69000000D03*
X182960000Y-81000000D03*
D16*
X181000000Y-72000000D03*
X181000000Y-75000000D03*
X181000000Y-78000000D03*
D17*
X157000000Y-117500000D03*
X171000000Y-117500000D03*
X167500000Y-117500000D03*
D18*
X150000000Y-112000000D03*
D17*
X160500000Y-117500000D03*
D18*
X150000000Y-70000000D03*
D15*
X182960000Y-101000000D03*
X182960000Y-113000000D03*
D16*
X181000000Y-104000000D03*
X181000000Y-107000000D03*
X181000000Y-110000000D03*
D17*
X164000000Y-117500000D03*
D19*
X150460000Y-87800000D03*
X151730000Y-87800000D03*
D20*
X153000000Y-87950000D03*
D19*
X154270000Y-87800000D03*
X155540000Y-87800000D03*
X155540000Y-94200000D03*
X154270000Y-94200000D03*
X153000000Y-94200000D03*
X151730000Y-94200000D03*
X150460000Y-94200000D03*
D21*
X149775000Y-91000000D03*
X156225000Y-91000000D03*
%LPD*%
M02*
