%TF.GenerationSoftware,KiCad,Pcbnew,7.0.2*%
%TF.CreationDate,2023-11-13T13:23:28-06:00*%
%TF.ProjectId,Telemetry-Peripheral-SOM-Daughterboard-IMU,54656c65-6d65-4747-9279-2d5065726970,rev?*%
%TF.SameCoordinates,Original*%
%TF.FileFunction,Drillmap*%
%TF.FilePolarity,Positive*%
%FSLAX45Y45*%
G04 Gerber Fmt 4.5, Leading zero omitted, Abs format (unit mm)*
G04 Created by KiCad (PCBNEW 7.0.2) date 2023-11-13 13:23:28*
%MOMM*%
%LPD*%
G01*
G04 APERTURE LIST*
%ADD10C,0.100000*%
%ADD11C,0.200000*%
%ADD12C,0.040000*%
%ADD13C,0.102000*%
G04 APERTURE END LIST*
D10*
X14600000Y-11600000D02*
G75*
G03*
X15000000Y-12000000I400000J0D01*
G01*
X18100000Y-12000000D02*
G75*
G03*
X18500000Y-11600000I0J400000D01*
G01*
X18500000Y-7000000D02*
G75*
G03*
X18100000Y-6600000I-400000J0D01*
G01*
X15000000Y-6600000D02*
G75*
G03*
X14600000Y-7000000I0J-400000D01*
G01*
X14600000Y-11600000D02*
X14600000Y-7000000D01*
X15000000Y-6600000D02*
X18100000Y-6600000D01*
X18500000Y-7000000D02*
X18500000Y-11600000D01*
X18100000Y-12000000D02*
X15000000Y-12000000D01*
D11*
D12*
X14660000Y-6980000D02*
X14700000Y-7020000D01*
X14700000Y-6980000D02*
X14660000Y-7020000D01*
X14660000Y-7260000D02*
X14700000Y-7300000D01*
X14700000Y-7260000D02*
X14660000Y-7300000D01*
X14680000Y-11280000D02*
X14720000Y-11320000D01*
X14720000Y-11280000D02*
X14680000Y-11320000D01*
X14680000Y-11560000D02*
X14720000Y-11600000D01*
X14720000Y-11560000D02*
X14680000Y-11600000D01*
X14740000Y-6760000D02*
X14780000Y-6800000D01*
X14780000Y-6760000D02*
X14740000Y-6800000D01*
X14780000Y-11800000D02*
X14820000Y-11840000D01*
X14820000Y-11800000D02*
X14780000Y-11840000D01*
X14880000Y-7780000D02*
X14920000Y-7820000D01*
X14920000Y-7780000D02*
X14880000Y-7820000D01*
X14880000Y-8280000D02*
X14920000Y-8320000D01*
X14920000Y-8280000D02*
X14880000Y-8320000D01*
X14880000Y-9980000D02*
X14920000Y-10020000D01*
X14920000Y-9980000D02*
X14880000Y-10020000D01*
X14880000Y-10480000D02*
X14920000Y-10520000D01*
X14920000Y-10480000D02*
X14880000Y-10520000D01*
X14980000Y-6660000D02*
X15020000Y-6700000D01*
X15020000Y-6660000D02*
X14980000Y-6700000D01*
X15000000Y-8530000D02*
X15040000Y-8570000D01*
X15040000Y-8530000D02*
X15000000Y-8570000D01*
X15000000Y-9630000D02*
X15040000Y-9670000D01*
X15040000Y-9630000D02*
X15000000Y-9670000D01*
X15000000Y-11880000D02*
X15040000Y-11920000D01*
X15040000Y-11880000D02*
X15000000Y-11920000D01*
X15215000Y-8530000D02*
X15255000Y-8570000D01*
X15255000Y-8530000D02*
X15215000Y-8570000D01*
X15215000Y-10767500D02*
X15255000Y-10807500D01*
X15255000Y-10767500D02*
X15215000Y-10807500D01*
X15220000Y-9225000D02*
X15260000Y-9265000D01*
X15260000Y-9225000D02*
X15220000Y-9265000D01*
X15220000Y-9630000D02*
X15260000Y-9670000D01*
X15260000Y-9630000D02*
X15220000Y-9670000D01*
X15260000Y-6660000D02*
X15300000Y-6700000D01*
X15300000Y-6660000D02*
X15260000Y-6700000D01*
X15307650Y-10767500D02*
X15347650Y-10807500D01*
X15347650Y-10767500D02*
X15307650Y-10807500D01*
X15340000Y-9890000D02*
X15380000Y-9930000D01*
X15380000Y-9890000D02*
X15340000Y-9930000D01*
X15580000Y-6780000D02*
X15620000Y-6820000D01*
X15620000Y-6780000D02*
X15580000Y-6820000D01*
X15580000Y-7280000D02*
X15620000Y-7320000D01*
X15620000Y-7280000D02*
X15580000Y-7320000D01*
X15580000Y-7780000D02*
X15620000Y-7820000D01*
X15620000Y-7780000D02*
X15580000Y-7820000D01*
X15580000Y-8280000D02*
X15620000Y-8320000D01*
X15620000Y-8280000D02*
X15580000Y-8320000D01*
X15673140Y-10730000D02*
X15713140Y-10770000D01*
X15713140Y-10730000D02*
X15673140Y-10770000D01*
X15685000Y-10450000D02*
X15725000Y-10490000D01*
X15725000Y-10450000D02*
X15685000Y-10490000D01*
X15695000Y-9405000D02*
X15735000Y-9445000D01*
X15735000Y-9405000D02*
X15695000Y-9445000D01*
X15780000Y-11080000D02*
X15820000Y-11120000D01*
X15820000Y-11080000D02*
X15780000Y-11120000D01*
X15800000Y-9040000D02*
X15840000Y-9080000D01*
X15840000Y-9040000D02*
X15800000Y-9080000D01*
X15880000Y-9705000D02*
X15920000Y-9745000D01*
X15920000Y-9705000D02*
X15880000Y-9745000D01*
X15953951Y-10150147D02*
X15993951Y-10190147D01*
X15993951Y-10150147D02*
X15953951Y-10190147D01*
X15954723Y-10057500D02*
X15994723Y-10097500D01*
X15994723Y-10057500D02*
X15954723Y-10097500D01*
X16150000Y-10150000D02*
X16190000Y-10190000D01*
X16190000Y-10150000D02*
X16150000Y-10190000D01*
X16155000Y-10386533D02*
X16195000Y-10426533D01*
X16195000Y-10386533D02*
X16155000Y-10426533D01*
X16252650Y-10050000D02*
X16292650Y-10090000D01*
X16292650Y-10050000D02*
X16252650Y-10090000D01*
X16255000Y-10730000D02*
X16295000Y-10770000D01*
X16295000Y-10730000D02*
X16255000Y-10770000D01*
X16260000Y-9040000D02*
X16300000Y-9080000D01*
X16300000Y-9040000D02*
X16260000Y-9080000D01*
X16273646Y-9314569D02*
X16313646Y-9354569D01*
X16313646Y-9314569D02*
X16273646Y-9354569D01*
X16280000Y-6780000D02*
X16320000Y-6820000D01*
X16320000Y-6780000D02*
X16280000Y-6820000D01*
X16280000Y-7280000D02*
X16320000Y-7320000D01*
X16320000Y-7280000D02*
X16280000Y-7320000D01*
X16280000Y-7780000D02*
X16320000Y-7820000D01*
X16320000Y-7780000D02*
X16280000Y-7820000D01*
X16280000Y-8280000D02*
X16320000Y-8320000D01*
X16320000Y-8280000D02*
X16280000Y-8320000D01*
X16415000Y-9560000D02*
X16455000Y-9600000D01*
X16455000Y-9560000D02*
X16415000Y-9600000D01*
X16470000Y-10285000D02*
X16510000Y-10325000D01*
X16510000Y-10285000D02*
X16470000Y-10325000D01*
X16470000Y-10385000D02*
X16510000Y-10425000D01*
X16510000Y-10385000D02*
X16470000Y-10425000D01*
X16480000Y-11080000D02*
X16520000Y-11120000D01*
X16520000Y-11080000D02*
X16480000Y-11120000D01*
X16630000Y-8880000D02*
X16670000Y-8920000D01*
X16670000Y-8880000D02*
X16630000Y-8920000D01*
X16630000Y-8980000D02*
X16670000Y-9020000D01*
X16670000Y-8980000D02*
X16630000Y-9020000D01*
X16830000Y-8680000D02*
X16870000Y-8720000D01*
X16870000Y-8680000D02*
X16830000Y-8720000D01*
X16845000Y-9447450D02*
X16885000Y-9487450D01*
X16885000Y-9447450D02*
X16845000Y-9487450D01*
X16980000Y-6780000D02*
X17020000Y-6820000D01*
X17020000Y-6780000D02*
X16980000Y-6820000D01*
X16980000Y-7280000D02*
X17020000Y-7320000D01*
X17020000Y-7280000D02*
X16980000Y-7320000D01*
X16980000Y-7780000D02*
X17020000Y-7820000D01*
X17020000Y-7780000D02*
X16980000Y-7820000D01*
X16980000Y-8280000D02*
X17020000Y-8320000D01*
X17020000Y-8280000D02*
X16980000Y-8320000D01*
X16980000Y-11080000D02*
X17020000Y-11120000D01*
X17020000Y-11080000D02*
X16980000Y-11120000D01*
X17090000Y-9200000D02*
X17130000Y-9240000D01*
X17130000Y-9200000D02*
X17090000Y-9240000D01*
X17130000Y-9830000D02*
X17170000Y-9870000D01*
X17170000Y-9830000D02*
X17130000Y-9870000D01*
X17377500Y-11735000D02*
X17417500Y-11775000D01*
X17417500Y-11735000D02*
X17377500Y-11775000D01*
X17580000Y-6780000D02*
X17620000Y-6820000D01*
X17620000Y-6780000D02*
X17580000Y-6820000D01*
X17630000Y-8780000D02*
X17670000Y-8820000D01*
X17670000Y-8780000D02*
X17630000Y-8820000D01*
X17630000Y-10380000D02*
X17670000Y-10420000D01*
X17670000Y-10380000D02*
X17630000Y-10420000D01*
X17635000Y-7180000D02*
X17675000Y-7220000D01*
X17675000Y-7180000D02*
X17635000Y-7220000D01*
X17780000Y-11900000D02*
X17820000Y-11940000D01*
X17820000Y-11900000D02*
X17780000Y-11940000D01*
X17800000Y-6660000D02*
X17840000Y-6700000D01*
X17840000Y-6660000D02*
X17800000Y-6700000D01*
X18060000Y-11900000D02*
X18100000Y-11940000D01*
X18100000Y-11900000D02*
X18060000Y-11940000D01*
X18080000Y-6660000D02*
X18120000Y-6700000D01*
X18120000Y-6660000D02*
X18080000Y-6700000D01*
X18080000Y-8280000D02*
X18120000Y-8320000D01*
X18120000Y-8280000D02*
X18080000Y-8320000D01*
X18080000Y-9880000D02*
X18120000Y-9920000D01*
X18120000Y-9880000D02*
X18080000Y-9920000D01*
X18080000Y-11480000D02*
X18120000Y-11520000D01*
X18120000Y-11480000D02*
X18080000Y-11520000D01*
X18300000Y-11800000D02*
X18340000Y-11840000D01*
X18340000Y-11800000D02*
X18300000Y-11840000D01*
X18380000Y-11580000D02*
X18420000Y-11620000D01*
X18420000Y-11580000D02*
X18380000Y-11620000D01*
X18400000Y-6980000D02*
X18440000Y-7020000D01*
X18440000Y-6980000D02*
X18400000Y-7020000D01*
X18400000Y-7260000D02*
X18440000Y-7300000D01*
X18440000Y-7260000D02*
X18400000Y-7300000D01*
D10*
X15750000Y-11750000D02*
G75*
G03*
X15750000Y-11750000I-50000J0D01*
G01*
X16100000Y-11750000D02*
G75*
G03*
X16100000Y-11750000I-50000J0D01*
G01*
X16450000Y-11750000D02*
G75*
G03*
X16450000Y-11750000I-50000J0D01*
G01*
X16800000Y-11750000D02*
G75*
G03*
X16800000Y-11750000I-50000J0D01*
G01*
X17150000Y-11750000D02*
G75*
G03*
X17150000Y-11750000I-50000J0D01*
G01*
D13*
X18100000Y-7149000D02*
X18100000Y-7251000D01*
X18049000Y-7200000D02*
X18151000Y-7200000D01*
X18100000Y-7449000D02*
X18100000Y-7551000D01*
X18049000Y-7500000D02*
X18151000Y-7500000D01*
X18100000Y-7749000D02*
X18100000Y-7851000D01*
X18049000Y-7800000D02*
X18151000Y-7800000D01*
X18100000Y-8749000D02*
X18100000Y-8851000D01*
X18049000Y-8800000D02*
X18151000Y-8800000D01*
X18100000Y-9049000D02*
X18100000Y-9151000D01*
X18049000Y-9100000D02*
X18151000Y-9100000D01*
X18100000Y-9349000D02*
X18100000Y-9451000D01*
X18049000Y-9400000D02*
X18151000Y-9400000D01*
X18100000Y-10349000D02*
X18100000Y-10451000D01*
X18049000Y-10400000D02*
X18151000Y-10400000D01*
X18100000Y-10649000D02*
X18100000Y-10751000D01*
X18049000Y-10700000D02*
X18151000Y-10700000D01*
X18100000Y-10949000D02*
X18100000Y-11051000D01*
X18049000Y-11000000D02*
X18151000Y-11000000D01*
D11*
X14842619Y-12317524D02*
X14842619Y-12117524D01*
X14842619Y-12117524D02*
X14890238Y-12117524D01*
X14890238Y-12117524D02*
X14918809Y-12127048D01*
X14918809Y-12127048D02*
X14937857Y-12146095D01*
X14937857Y-12146095D02*
X14947381Y-12165143D01*
X14947381Y-12165143D02*
X14956905Y-12203238D01*
X14956905Y-12203238D02*
X14956905Y-12231809D01*
X14956905Y-12231809D02*
X14947381Y-12269905D01*
X14947381Y-12269905D02*
X14937857Y-12288952D01*
X14937857Y-12288952D02*
X14918809Y-12308000D01*
X14918809Y-12308000D02*
X14890238Y-12317524D01*
X14890238Y-12317524D02*
X14842619Y-12317524D01*
X15042619Y-12317524D02*
X15042619Y-12184190D01*
X15042619Y-12222286D02*
X15052143Y-12203238D01*
X15052143Y-12203238D02*
X15061667Y-12193714D01*
X15061667Y-12193714D02*
X15080714Y-12184190D01*
X15080714Y-12184190D02*
X15099762Y-12184190D01*
X15166428Y-12317524D02*
X15166428Y-12184190D01*
X15166428Y-12117524D02*
X15156905Y-12127048D01*
X15156905Y-12127048D02*
X15166428Y-12136571D01*
X15166428Y-12136571D02*
X15175952Y-12127048D01*
X15175952Y-12127048D02*
X15166428Y-12117524D01*
X15166428Y-12117524D02*
X15166428Y-12136571D01*
X15290238Y-12317524D02*
X15271190Y-12308000D01*
X15271190Y-12308000D02*
X15261667Y-12288952D01*
X15261667Y-12288952D02*
X15261667Y-12117524D01*
X15395000Y-12317524D02*
X15375952Y-12308000D01*
X15375952Y-12308000D02*
X15366428Y-12288952D01*
X15366428Y-12288952D02*
X15366428Y-12117524D01*
X15623571Y-12317524D02*
X15623571Y-12117524D01*
X15623571Y-12117524D02*
X15690238Y-12260381D01*
X15690238Y-12260381D02*
X15756905Y-12117524D01*
X15756905Y-12117524D02*
X15756905Y-12317524D01*
X15937857Y-12317524D02*
X15937857Y-12212762D01*
X15937857Y-12212762D02*
X15928333Y-12193714D01*
X15928333Y-12193714D02*
X15909286Y-12184190D01*
X15909286Y-12184190D02*
X15871190Y-12184190D01*
X15871190Y-12184190D02*
X15852143Y-12193714D01*
X15937857Y-12308000D02*
X15918809Y-12317524D01*
X15918809Y-12317524D02*
X15871190Y-12317524D01*
X15871190Y-12317524D02*
X15852143Y-12308000D01*
X15852143Y-12308000D02*
X15842619Y-12288952D01*
X15842619Y-12288952D02*
X15842619Y-12269905D01*
X15842619Y-12269905D02*
X15852143Y-12250857D01*
X15852143Y-12250857D02*
X15871190Y-12241333D01*
X15871190Y-12241333D02*
X15918809Y-12241333D01*
X15918809Y-12241333D02*
X15937857Y-12231809D01*
X16033095Y-12184190D02*
X16033095Y-12384190D01*
X16033095Y-12193714D02*
X16052143Y-12184190D01*
X16052143Y-12184190D02*
X16090238Y-12184190D01*
X16090238Y-12184190D02*
X16109286Y-12193714D01*
X16109286Y-12193714D02*
X16118809Y-12203238D01*
X16118809Y-12203238D02*
X16128333Y-12222286D01*
X16128333Y-12222286D02*
X16128333Y-12279428D01*
X16128333Y-12279428D02*
X16118809Y-12298476D01*
X16118809Y-12298476D02*
X16109286Y-12308000D01*
X16109286Y-12308000D02*
X16090238Y-12317524D01*
X16090238Y-12317524D02*
X16052143Y-12317524D01*
X16052143Y-12317524D02*
X16033095Y-12308000D01*
X16214048Y-12298476D02*
X16223571Y-12308000D01*
X16223571Y-12308000D02*
X16214048Y-12317524D01*
X16214048Y-12317524D02*
X16204524Y-12308000D01*
X16204524Y-12308000D02*
X16214048Y-12298476D01*
X16214048Y-12298476D02*
X16214048Y-12317524D01*
X16214048Y-12193714D02*
X16223571Y-12203238D01*
X16223571Y-12203238D02*
X16214048Y-12212762D01*
X16214048Y-12212762D02*
X16204524Y-12203238D01*
X16204524Y-12203238D02*
X16214048Y-12193714D01*
X16214048Y-12193714D02*
X16214048Y-12212762D01*
D12*
X14555000Y-12625000D02*
X14595000Y-12665000D01*
X14595000Y-12625000D02*
X14555000Y-12665000D01*
D11*
X14880714Y-12537524D02*
X14899762Y-12537524D01*
X14899762Y-12537524D02*
X14918809Y-12547048D01*
X14918809Y-12547048D02*
X14928333Y-12556571D01*
X14928333Y-12556571D02*
X14937857Y-12575619D01*
X14937857Y-12575619D02*
X14947381Y-12613714D01*
X14947381Y-12613714D02*
X14947381Y-12661333D01*
X14947381Y-12661333D02*
X14937857Y-12699428D01*
X14937857Y-12699428D02*
X14928333Y-12718476D01*
X14928333Y-12718476D02*
X14918809Y-12728000D01*
X14918809Y-12728000D02*
X14899762Y-12737524D01*
X14899762Y-12737524D02*
X14880714Y-12737524D01*
X14880714Y-12737524D02*
X14861667Y-12728000D01*
X14861667Y-12728000D02*
X14852143Y-12718476D01*
X14852143Y-12718476D02*
X14842619Y-12699428D01*
X14842619Y-12699428D02*
X14833095Y-12661333D01*
X14833095Y-12661333D02*
X14833095Y-12613714D01*
X14833095Y-12613714D02*
X14842619Y-12575619D01*
X14842619Y-12575619D02*
X14852143Y-12556571D01*
X14852143Y-12556571D02*
X14861667Y-12547048D01*
X14861667Y-12547048D02*
X14880714Y-12537524D01*
X15033095Y-12718476D02*
X15042619Y-12728000D01*
X15042619Y-12728000D02*
X15033095Y-12737524D01*
X15033095Y-12737524D02*
X15023571Y-12728000D01*
X15023571Y-12728000D02*
X15033095Y-12718476D01*
X15033095Y-12718476D02*
X15033095Y-12737524D01*
X15214048Y-12604190D02*
X15214048Y-12737524D01*
X15166428Y-12528000D02*
X15118809Y-12670857D01*
X15118809Y-12670857D02*
X15242619Y-12670857D01*
X15356905Y-12537524D02*
X15375952Y-12537524D01*
X15375952Y-12537524D02*
X15395000Y-12547048D01*
X15395000Y-12547048D02*
X15404524Y-12556571D01*
X15404524Y-12556571D02*
X15414048Y-12575619D01*
X15414048Y-12575619D02*
X15423571Y-12613714D01*
X15423571Y-12613714D02*
X15423571Y-12661333D01*
X15423571Y-12661333D02*
X15414048Y-12699428D01*
X15414048Y-12699428D02*
X15404524Y-12718476D01*
X15404524Y-12718476D02*
X15395000Y-12728000D01*
X15395000Y-12728000D02*
X15375952Y-12737524D01*
X15375952Y-12737524D02*
X15356905Y-12737524D01*
X15356905Y-12737524D02*
X15337857Y-12728000D01*
X15337857Y-12728000D02*
X15328333Y-12718476D01*
X15328333Y-12718476D02*
X15318809Y-12699428D01*
X15318809Y-12699428D02*
X15309286Y-12661333D01*
X15309286Y-12661333D02*
X15309286Y-12613714D01*
X15309286Y-12613714D02*
X15318809Y-12575619D01*
X15318809Y-12575619D02*
X15328333Y-12556571D01*
X15328333Y-12556571D02*
X15337857Y-12547048D01*
X15337857Y-12547048D02*
X15356905Y-12537524D01*
X15547381Y-12537524D02*
X15566429Y-12537524D01*
X15566429Y-12537524D02*
X15585476Y-12547048D01*
X15585476Y-12547048D02*
X15595000Y-12556571D01*
X15595000Y-12556571D02*
X15604524Y-12575619D01*
X15604524Y-12575619D02*
X15614048Y-12613714D01*
X15614048Y-12613714D02*
X15614048Y-12661333D01*
X15614048Y-12661333D02*
X15604524Y-12699428D01*
X15604524Y-12699428D02*
X15595000Y-12718476D01*
X15595000Y-12718476D02*
X15585476Y-12728000D01*
X15585476Y-12728000D02*
X15566429Y-12737524D01*
X15566429Y-12737524D02*
X15547381Y-12737524D01*
X15547381Y-12737524D02*
X15528333Y-12728000D01*
X15528333Y-12728000D02*
X15518809Y-12718476D01*
X15518809Y-12718476D02*
X15509286Y-12699428D01*
X15509286Y-12699428D02*
X15499762Y-12661333D01*
X15499762Y-12661333D02*
X15499762Y-12613714D01*
X15499762Y-12613714D02*
X15509286Y-12575619D01*
X15509286Y-12575619D02*
X15518809Y-12556571D01*
X15518809Y-12556571D02*
X15528333Y-12547048D01*
X15528333Y-12547048D02*
X15547381Y-12537524D01*
X15699762Y-12737524D02*
X15699762Y-12604190D01*
X15699762Y-12623238D02*
X15709286Y-12613714D01*
X15709286Y-12613714D02*
X15728333Y-12604190D01*
X15728333Y-12604190D02*
X15756905Y-12604190D01*
X15756905Y-12604190D02*
X15775952Y-12613714D01*
X15775952Y-12613714D02*
X15785476Y-12632762D01*
X15785476Y-12632762D02*
X15785476Y-12737524D01*
X15785476Y-12632762D02*
X15795000Y-12613714D01*
X15795000Y-12613714D02*
X15814048Y-12604190D01*
X15814048Y-12604190D02*
X15842619Y-12604190D01*
X15842619Y-12604190D02*
X15861667Y-12613714D01*
X15861667Y-12613714D02*
X15871190Y-12632762D01*
X15871190Y-12632762D02*
X15871190Y-12737524D01*
X15966429Y-12737524D02*
X15966429Y-12604190D01*
X15966429Y-12623238D02*
X15975952Y-12613714D01*
X15975952Y-12613714D02*
X15995000Y-12604190D01*
X15995000Y-12604190D02*
X16023571Y-12604190D01*
X16023571Y-12604190D02*
X16042619Y-12613714D01*
X16042619Y-12613714D02*
X16052143Y-12632762D01*
X16052143Y-12632762D02*
X16052143Y-12737524D01*
X16052143Y-12632762D02*
X16061667Y-12613714D01*
X16061667Y-12613714D02*
X16080714Y-12604190D01*
X16080714Y-12604190D02*
X16109286Y-12604190D01*
X16109286Y-12604190D02*
X16128333Y-12613714D01*
X16128333Y-12613714D02*
X16137857Y-12632762D01*
X16137857Y-12632762D02*
X16137857Y-12737524D01*
X16528333Y-12528000D02*
X16356905Y-12785143D01*
X16785476Y-12537524D02*
X16804524Y-12537524D01*
X16804524Y-12537524D02*
X16823572Y-12547048D01*
X16823572Y-12547048D02*
X16833095Y-12556571D01*
X16833095Y-12556571D02*
X16842619Y-12575619D01*
X16842619Y-12575619D02*
X16852143Y-12613714D01*
X16852143Y-12613714D02*
X16852143Y-12661333D01*
X16852143Y-12661333D02*
X16842619Y-12699428D01*
X16842619Y-12699428D02*
X16833095Y-12718476D01*
X16833095Y-12718476D02*
X16823572Y-12728000D01*
X16823572Y-12728000D02*
X16804524Y-12737524D01*
X16804524Y-12737524D02*
X16785476Y-12737524D01*
X16785476Y-12737524D02*
X16766429Y-12728000D01*
X16766429Y-12728000D02*
X16756905Y-12718476D01*
X16756905Y-12718476D02*
X16747381Y-12699428D01*
X16747381Y-12699428D02*
X16737857Y-12661333D01*
X16737857Y-12661333D02*
X16737857Y-12613714D01*
X16737857Y-12613714D02*
X16747381Y-12575619D01*
X16747381Y-12575619D02*
X16756905Y-12556571D01*
X16756905Y-12556571D02*
X16766429Y-12547048D01*
X16766429Y-12547048D02*
X16785476Y-12537524D01*
X16937857Y-12718476D02*
X16947381Y-12728000D01*
X16947381Y-12728000D02*
X16937857Y-12737524D01*
X16937857Y-12737524D02*
X16928334Y-12728000D01*
X16928334Y-12728000D02*
X16937857Y-12718476D01*
X16937857Y-12718476D02*
X16937857Y-12737524D01*
X17071191Y-12537524D02*
X17090238Y-12537524D01*
X17090238Y-12537524D02*
X17109286Y-12547048D01*
X17109286Y-12547048D02*
X17118810Y-12556571D01*
X17118810Y-12556571D02*
X17128334Y-12575619D01*
X17128334Y-12575619D02*
X17137857Y-12613714D01*
X17137857Y-12613714D02*
X17137857Y-12661333D01*
X17137857Y-12661333D02*
X17128334Y-12699428D01*
X17128334Y-12699428D02*
X17118810Y-12718476D01*
X17118810Y-12718476D02*
X17109286Y-12728000D01*
X17109286Y-12728000D02*
X17090238Y-12737524D01*
X17090238Y-12737524D02*
X17071191Y-12737524D01*
X17071191Y-12737524D02*
X17052143Y-12728000D01*
X17052143Y-12728000D02*
X17042619Y-12718476D01*
X17042619Y-12718476D02*
X17033095Y-12699428D01*
X17033095Y-12699428D02*
X17023572Y-12661333D01*
X17023572Y-12661333D02*
X17023572Y-12613714D01*
X17023572Y-12613714D02*
X17033095Y-12575619D01*
X17033095Y-12575619D02*
X17042619Y-12556571D01*
X17042619Y-12556571D02*
X17052143Y-12547048D01*
X17052143Y-12547048D02*
X17071191Y-12537524D01*
X17328334Y-12737524D02*
X17214048Y-12737524D01*
X17271191Y-12737524D02*
X17271191Y-12537524D01*
X17271191Y-12537524D02*
X17252143Y-12566095D01*
X17252143Y-12566095D02*
X17233095Y-12585143D01*
X17233095Y-12585143D02*
X17214048Y-12594667D01*
X17509286Y-12537524D02*
X17414048Y-12537524D01*
X17414048Y-12537524D02*
X17404524Y-12632762D01*
X17404524Y-12632762D02*
X17414048Y-12623238D01*
X17414048Y-12623238D02*
X17433095Y-12613714D01*
X17433095Y-12613714D02*
X17480715Y-12613714D01*
X17480715Y-12613714D02*
X17499762Y-12623238D01*
X17499762Y-12623238D02*
X17509286Y-12632762D01*
X17509286Y-12632762D02*
X17518810Y-12651809D01*
X17518810Y-12651809D02*
X17518810Y-12699428D01*
X17518810Y-12699428D02*
X17509286Y-12718476D01*
X17509286Y-12718476D02*
X17499762Y-12728000D01*
X17499762Y-12728000D02*
X17480715Y-12737524D01*
X17480715Y-12737524D02*
X17433095Y-12737524D01*
X17433095Y-12737524D02*
X17414048Y-12728000D01*
X17414048Y-12728000D02*
X17404524Y-12718476D01*
X17585476Y-12537524D02*
X17718810Y-12537524D01*
X17718810Y-12537524D02*
X17633095Y-12737524D01*
X17785476Y-12537524D02*
X17785476Y-12575619D01*
X17861667Y-12537524D02*
X17861667Y-12575619D01*
X18156905Y-12813714D02*
X18147381Y-12804190D01*
X18147381Y-12804190D02*
X18128334Y-12775619D01*
X18128334Y-12775619D02*
X18118810Y-12756571D01*
X18118810Y-12756571D02*
X18109286Y-12728000D01*
X18109286Y-12728000D02*
X18099762Y-12680381D01*
X18099762Y-12680381D02*
X18099762Y-12642286D01*
X18099762Y-12642286D02*
X18109286Y-12594667D01*
X18109286Y-12594667D02*
X18118810Y-12566095D01*
X18118810Y-12566095D02*
X18128334Y-12547048D01*
X18128334Y-12547048D02*
X18147381Y-12518476D01*
X18147381Y-12518476D02*
X18156905Y-12508952D01*
X18214048Y-12537524D02*
X18347381Y-12537524D01*
X18347381Y-12537524D02*
X18261667Y-12737524D01*
X18509286Y-12604190D02*
X18509286Y-12737524D01*
X18461667Y-12528000D02*
X18414048Y-12670857D01*
X18414048Y-12670857D02*
X18537857Y-12670857D01*
X18766429Y-12737524D02*
X18766429Y-12537524D01*
X18852143Y-12737524D02*
X18852143Y-12632762D01*
X18852143Y-12632762D02*
X18842619Y-12613714D01*
X18842619Y-12613714D02*
X18823572Y-12604190D01*
X18823572Y-12604190D02*
X18795000Y-12604190D01*
X18795000Y-12604190D02*
X18775953Y-12613714D01*
X18775953Y-12613714D02*
X18766429Y-12623238D01*
X18975953Y-12737524D02*
X18956905Y-12728000D01*
X18956905Y-12728000D02*
X18947381Y-12718476D01*
X18947381Y-12718476D02*
X18937858Y-12699428D01*
X18937858Y-12699428D02*
X18937858Y-12642286D01*
X18937858Y-12642286D02*
X18947381Y-12623238D01*
X18947381Y-12623238D02*
X18956905Y-12613714D01*
X18956905Y-12613714D02*
X18975953Y-12604190D01*
X18975953Y-12604190D02*
X19004524Y-12604190D01*
X19004524Y-12604190D02*
X19023572Y-12613714D01*
X19023572Y-12613714D02*
X19033096Y-12623238D01*
X19033096Y-12623238D02*
X19042619Y-12642286D01*
X19042619Y-12642286D02*
X19042619Y-12699428D01*
X19042619Y-12699428D02*
X19033096Y-12718476D01*
X19033096Y-12718476D02*
X19023572Y-12728000D01*
X19023572Y-12728000D02*
X19004524Y-12737524D01*
X19004524Y-12737524D02*
X18975953Y-12737524D01*
X19156905Y-12737524D02*
X19137858Y-12728000D01*
X19137858Y-12728000D02*
X19128334Y-12708952D01*
X19128334Y-12708952D02*
X19128334Y-12537524D01*
X19309286Y-12728000D02*
X19290239Y-12737524D01*
X19290239Y-12737524D02*
X19252143Y-12737524D01*
X19252143Y-12737524D02*
X19233096Y-12728000D01*
X19233096Y-12728000D02*
X19223572Y-12708952D01*
X19223572Y-12708952D02*
X19223572Y-12632762D01*
X19223572Y-12632762D02*
X19233096Y-12613714D01*
X19233096Y-12613714D02*
X19252143Y-12604190D01*
X19252143Y-12604190D02*
X19290239Y-12604190D01*
X19290239Y-12604190D02*
X19309286Y-12613714D01*
X19309286Y-12613714D02*
X19318810Y-12632762D01*
X19318810Y-12632762D02*
X19318810Y-12651809D01*
X19318810Y-12651809D02*
X19223572Y-12670857D01*
X19395000Y-12728000D02*
X19414048Y-12737524D01*
X19414048Y-12737524D02*
X19452143Y-12737524D01*
X19452143Y-12737524D02*
X19471191Y-12728000D01*
X19471191Y-12728000D02*
X19480715Y-12708952D01*
X19480715Y-12708952D02*
X19480715Y-12699428D01*
X19480715Y-12699428D02*
X19471191Y-12680381D01*
X19471191Y-12680381D02*
X19452143Y-12670857D01*
X19452143Y-12670857D02*
X19423572Y-12670857D01*
X19423572Y-12670857D02*
X19404524Y-12661333D01*
X19404524Y-12661333D02*
X19395000Y-12642286D01*
X19395000Y-12642286D02*
X19395000Y-12632762D01*
X19395000Y-12632762D02*
X19404524Y-12613714D01*
X19404524Y-12613714D02*
X19423572Y-12604190D01*
X19423572Y-12604190D02*
X19452143Y-12604190D01*
X19452143Y-12604190D02*
X19471191Y-12613714D01*
X19547381Y-12813714D02*
X19556905Y-12804190D01*
X19556905Y-12804190D02*
X19575953Y-12775619D01*
X19575953Y-12775619D02*
X19585477Y-12756571D01*
X19585477Y-12756571D02*
X19595000Y-12728000D01*
X19595000Y-12728000D02*
X19604524Y-12680381D01*
X19604524Y-12680381D02*
X19604524Y-12642286D01*
X19604524Y-12642286D02*
X19595000Y-12594667D01*
X19595000Y-12594667D02*
X19585477Y-12566095D01*
X19585477Y-12566095D02*
X19575953Y-12547048D01*
X19575953Y-12547048D02*
X19556905Y-12518476D01*
X19556905Y-12518476D02*
X19547381Y-12508952D01*
D10*
X14595000Y-12909000D02*
G75*
G03*
X14595000Y-12909000I-50000J0D01*
G01*
D11*
X14947381Y-13001524D02*
X14833095Y-13001524D01*
X14890238Y-13001524D02*
X14890238Y-12801524D01*
X14890238Y-12801524D02*
X14871190Y-12830095D01*
X14871190Y-12830095D02*
X14852143Y-12849143D01*
X14852143Y-12849143D02*
X14833095Y-12858667D01*
X15033095Y-12982476D02*
X15042619Y-12992000D01*
X15042619Y-12992000D02*
X15033095Y-13001524D01*
X15033095Y-13001524D02*
X15023571Y-12992000D01*
X15023571Y-12992000D02*
X15033095Y-12982476D01*
X15033095Y-12982476D02*
X15033095Y-13001524D01*
X15166428Y-12801524D02*
X15185476Y-12801524D01*
X15185476Y-12801524D02*
X15204524Y-12811048D01*
X15204524Y-12811048D02*
X15214048Y-12820571D01*
X15214048Y-12820571D02*
X15223571Y-12839619D01*
X15223571Y-12839619D02*
X15233095Y-12877714D01*
X15233095Y-12877714D02*
X15233095Y-12925333D01*
X15233095Y-12925333D02*
X15223571Y-12963428D01*
X15223571Y-12963428D02*
X15214048Y-12982476D01*
X15214048Y-12982476D02*
X15204524Y-12992000D01*
X15204524Y-12992000D02*
X15185476Y-13001524D01*
X15185476Y-13001524D02*
X15166428Y-13001524D01*
X15166428Y-13001524D02*
X15147381Y-12992000D01*
X15147381Y-12992000D02*
X15137857Y-12982476D01*
X15137857Y-12982476D02*
X15128333Y-12963428D01*
X15128333Y-12963428D02*
X15118809Y-12925333D01*
X15118809Y-12925333D02*
X15118809Y-12877714D01*
X15118809Y-12877714D02*
X15128333Y-12839619D01*
X15128333Y-12839619D02*
X15137857Y-12820571D01*
X15137857Y-12820571D02*
X15147381Y-12811048D01*
X15147381Y-12811048D02*
X15166428Y-12801524D01*
X15356905Y-12801524D02*
X15375952Y-12801524D01*
X15375952Y-12801524D02*
X15395000Y-12811048D01*
X15395000Y-12811048D02*
X15404524Y-12820571D01*
X15404524Y-12820571D02*
X15414048Y-12839619D01*
X15414048Y-12839619D02*
X15423571Y-12877714D01*
X15423571Y-12877714D02*
X15423571Y-12925333D01*
X15423571Y-12925333D02*
X15414048Y-12963428D01*
X15414048Y-12963428D02*
X15404524Y-12982476D01*
X15404524Y-12982476D02*
X15395000Y-12992000D01*
X15395000Y-12992000D02*
X15375952Y-13001524D01*
X15375952Y-13001524D02*
X15356905Y-13001524D01*
X15356905Y-13001524D02*
X15337857Y-12992000D01*
X15337857Y-12992000D02*
X15328333Y-12982476D01*
X15328333Y-12982476D02*
X15318809Y-12963428D01*
X15318809Y-12963428D02*
X15309286Y-12925333D01*
X15309286Y-12925333D02*
X15309286Y-12877714D01*
X15309286Y-12877714D02*
X15318809Y-12839619D01*
X15318809Y-12839619D02*
X15328333Y-12820571D01*
X15328333Y-12820571D02*
X15337857Y-12811048D01*
X15337857Y-12811048D02*
X15356905Y-12801524D01*
X15547381Y-12801524D02*
X15566429Y-12801524D01*
X15566429Y-12801524D02*
X15585476Y-12811048D01*
X15585476Y-12811048D02*
X15595000Y-12820571D01*
X15595000Y-12820571D02*
X15604524Y-12839619D01*
X15604524Y-12839619D02*
X15614048Y-12877714D01*
X15614048Y-12877714D02*
X15614048Y-12925333D01*
X15614048Y-12925333D02*
X15604524Y-12963428D01*
X15604524Y-12963428D02*
X15595000Y-12982476D01*
X15595000Y-12982476D02*
X15585476Y-12992000D01*
X15585476Y-12992000D02*
X15566429Y-13001524D01*
X15566429Y-13001524D02*
X15547381Y-13001524D01*
X15547381Y-13001524D02*
X15528333Y-12992000D01*
X15528333Y-12992000D02*
X15518809Y-12982476D01*
X15518809Y-12982476D02*
X15509286Y-12963428D01*
X15509286Y-12963428D02*
X15499762Y-12925333D01*
X15499762Y-12925333D02*
X15499762Y-12877714D01*
X15499762Y-12877714D02*
X15509286Y-12839619D01*
X15509286Y-12839619D02*
X15518809Y-12820571D01*
X15518809Y-12820571D02*
X15528333Y-12811048D01*
X15528333Y-12811048D02*
X15547381Y-12801524D01*
X15699762Y-13001524D02*
X15699762Y-12868190D01*
X15699762Y-12887238D02*
X15709286Y-12877714D01*
X15709286Y-12877714D02*
X15728333Y-12868190D01*
X15728333Y-12868190D02*
X15756905Y-12868190D01*
X15756905Y-12868190D02*
X15775952Y-12877714D01*
X15775952Y-12877714D02*
X15785476Y-12896762D01*
X15785476Y-12896762D02*
X15785476Y-13001524D01*
X15785476Y-12896762D02*
X15795000Y-12877714D01*
X15795000Y-12877714D02*
X15814048Y-12868190D01*
X15814048Y-12868190D02*
X15842619Y-12868190D01*
X15842619Y-12868190D02*
X15861667Y-12877714D01*
X15861667Y-12877714D02*
X15871190Y-12896762D01*
X15871190Y-12896762D02*
X15871190Y-13001524D01*
X15966429Y-13001524D02*
X15966429Y-12868190D01*
X15966429Y-12887238D02*
X15975952Y-12877714D01*
X15975952Y-12877714D02*
X15995000Y-12868190D01*
X15995000Y-12868190D02*
X16023571Y-12868190D01*
X16023571Y-12868190D02*
X16042619Y-12877714D01*
X16042619Y-12877714D02*
X16052143Y-12896762D01*
X16052143Y-12896762D02*
X16052143Y-13001524D01*
X16052143Y-12896762D02*
X16061667Y-12877714D01*
X16061667Y-12877714D02*
X16080714Y-12868190D01*
X16080714Y-12868190D02*
X16109286Y-12868190D01*
X16109286Y-12868190D02*
X16128333Y-12877714D01*
X16128333Y-12877714D02*
X16137857Y-12896762D01*
X16137857Y-12896762D02*
X16137857Y-13001524D01*
X16528333Y-12792000D02*
X16356905Y-13049143D01*
X16785476Y-12801524D02*
X16804524Y-12801524D01*
X16804524Y-12801524D02*
X16823572Y-12811048D01*
X16823572Y-12811048D02*
X16833095Y-12820571D01*
X16833095Y-12820571D02*
X16842619Y-12839619D01*
X16842619Y-12839619D02*
X16852143Y-12877714D01*
X16852143Y-12877714D02*
X16852143Y-12925333D01*
X16852143Y-12925333D02*
X16842619Y-12963428D01*
X16842619Y-12963428D02*
X16833095Y-12982476D01*
X16833095Y-12982476D02*
X16823572Y-12992000D01*
X16823572Y-12992000D02*
X16804524Y-13001524D01*
X16804524Y-13001524D02*
X16785476Y-13001524D01*
X16785476Y-13001524D02*
X16766429Y-12992000D01*
X16766429Y-12992000D02*
X16756905Y-12982476D01*
X16756905Y-12982476D02*
X16747381Y-12963428D01*
X16747381Y-12963428D02*
X16737857Y-12925333D01*
X16737857Y-12925333D02*
X16737857Y-12877714D01*
X16737857Y-12877714D02*
X16747381Y-12839619D01*
X16747381Y-12839619D02*
X16756905Y-12820571D01*
X16756905Y-12820571D02*
X16766429Y-12811048D01*
X16766429Y-12811048D02*
X16785476Y-12801524D01*
X16937857Y-12982476D02*
X16947381Y-12992000D01*
X16947381Y-12992000D02*
X16937857Y-13001524D01*
X16937857Y-13001524D02*
X16928334Y-12992000D01*
X16928334Y-12992000D02*
X16937857Y-12982476D01*
X16937857Y-12982476D02*
X16937857Y-13001524D01*
X17071191Y-12801524D02*
X17090238Y-12801524D01*
X17090238Y-12801524D02*
X17109286Y-12811048D01*
X17109286Y-12811048D02*
X17118810Y-12820571D01*
X17118810Y-12820571D02*
X17128334Y-12839619D01*
X17128334Y-12839619D02*
X17137857Y-12877714D01*
X17137857Y-12877714D02*
X17137857Y-12925333D01*
X17137857Y-12925333D02*
X17128334Y-12963428D01*
X17128334Y-12963428D02*
X17118810Y-12982476D01*
X17118810Y-12982476D02*
X17109286Y-12992000D01*
X17109286Y-12992000D02*
X17090238Y-13001524D01*
X17090238Y-13001524D02*
X17071191Y-13001524D01*
X17071191Y-13001524D02*
X17052143Y-12992000D01*
X17052143Y-12992000D02*
X17042619Y-12982476D01*
X17042619Y-12982476D02*
X17033095Y-12963428D01*
X17033095Y-12963428D02*
X17023572Y-12925333D01*
X17023572Y-12925333D02*
X17023572Y-12877714D01*
X17023572Y-12877714D02*
X17033095Y-12839619D01*
X17033095Y-12839619D02*
X17042619Y-12820571D01*
X17042619Y-12820571D02*
X17052143Y-12811048D01*
X17052143Y-12811048D02*
X17071191Y-12801524D01*
X17204524Y-12801524D02*
X17328334Y-12801524D01*
X17328334Y-12801524D02*
X17261667Y-12877714D01*
X17261667Y-12877714D02*
X17290238Y-12877714D01*
X17290238Y-12877714D02*
X17309286Y-12887238D01*
X17309286Y-12887238D02*
X17318810Y-12896762D01*
X17318810Y-12896762D02*
X17328334Y-12915809D01*
X17328334Y-12915809D02*
X17328334Y-12963428D01*
X17328334Y-12963428D02*
X17318810Y-12982476D01*
X17318810Y-12982476D02*
X17309286Y-12992000D01*
X17309286Y-12992000D02*
X17290238Y-13001524D01*
X17290238Y-13001524D02*
X17233095Y-13001524D01*
X17233095Y-13001524D02*
X17214048Y-12992000D01*
X17214048Y-12992000D02*
X17204524Y-12982476D01*
X17423572Y-13001524D02*
X17461667Y-13001524D01*
X17461667Y-13001524D02*
X17480715Y-12992000D01*
X17480715Y-12992000D02*
X17490238Y-12982476D01*
X17490238Y-12982476D02*
X17509286Y-12953905D01*
X17509286Y-12953905D02*
X17518810Y-12915809D01*
X17518810Y-12915809D02*
X17518810Y-12839619D01*
X17518810Y-12839619D02*
X17509286Y-12820571D01*
X17509286Y-12820571D02*
X17499762Y-12811048D01*
X17499762Y-12811048D02*
X17480715Y-12801524D01*
X17480715Y-12801524D02*
X17442619Y-12801524D01*
X17442619Y-12801524D02*
X17423572Y-12811048D01*
X17423572Y-12811048D02*
X17414048Y-12820571D01*
X17414048Y-12820571D02*
X17404524Y-12839619D01*
X17404524Y-12839619D02*
X17404524Y-12887238D01*
X17404524Y-12887238D02*
X17414048Y-12906286D01*
X17414048Y-12906286D02*
X17423572Y-12915809D01*
X17423572Y-12915809D02*
X17442619Y-12925333D01*
X17442619Y-12925333D02*
X17480715Y-12925333D01*
X17480715Y-12925333D02*
X17499762Y-12915809D01*
X17499762Y-12915809D02*
X17509286Y-12906286D01*
X17509286Y-12906286D02*
X17518810Y-12887238D01*
X17690238Y-12868190D02*
X17690238Y-13001524D01*
X17642619Y-12792000D02*
X17595000Y-12934857D01*
X17595000Y-12934857D02*
X17718810Y-12934857D01*
X17785476Y-12801524D02*
X17785476Y-12839619D01*
X17861667Y-12801524D02*
X17861667Y-12839619D01*
X18156905Y-13077714D02*
X18147381Y-13068190D01*
X18147381Y-13068190D02*
X18128334Y-13039619D01*
X18128334Y-13039619D02*
X18118810Y-13020571D01*
X18118810Y-13020571D02*
X18109286Y-12992000D01*
X18109286Y-12992000D02*
X18099762Y-12944381D01*
X18099762Y-12944381D02*
X18099762Y-12906286D01*
X18099762Y-12906286D02*
X18109286Y-12858667D01*
X18109286Y-12858667D02*
X18118810Y-12830095D01*
X18118810Y-12830095D02*
X18128334Y-12811048D01*
X18128334Y-12811048D02*
X18147381Y-12782476D01*
X18147381Y-12782476D02*
X18156905Y-12772952D01*
X18328334Y-12801524D02*
X18233096Y-12801524D01*
X18233096Y-12801524D02*
X18223572Y-12896762D01*
X18223572Y-12896762D02*
X18233096Y-12887238D01*
X18233096Y-12887238D02*
X18252143Y-12877714D01*
X18252143Y-12877714D02*
X18299762Y-12877714D01*
X18299762Y-12877714D02*
X18318810Y-12887238D01*
X18318810Y-12887238D02*
X18328334Y-12896762D01*
X18328334Y-12896762D02*
X18337857Y-12915809D01*
X18337857Y-12915809D02*
X18337857Y-12963428D01*
X18337857Y-12963428D02*
X18328334Y-12982476D01*
X18328334Y-12982476D02*
X18318810Y-12992000D01*
X18318810Y-12992000D02*
X18299762Y-13001524D01*
X18299762Y-13001524D02*
X18252143Y-13001524D01*
X18252143Y-13001524D02*
X18233096Y-12992000D01*
X18233096Y-12992000D02*
X18223572Y-12982476D01*
X18575953Y-13001524D02*
X18575953Y-12801524D01*
X18661667Y-13001524D02*
X18661667Y-12896762D01*
X18661667Y-12896762D02*
X18652143Y-12877714D01*
X18652143Y-12877714D02*
X18633096Y-12868190D01*
X18633096Y-12868190D02*
X18604524Y-12868190D01*
X18604524Y-12868190D02*
X18585477Y-12877714D01*
X18585477Y-12877714D02*
X18575953Y-12887238D01*
X18785477Y-13001524D02*
X18766429Y-12992000D01*
X18766429Y-12992000D02*
X18756905Y-12982476D01*
X18756905Y-12982476D02*
X18747381Y-12963428D01*
X18747381Y-12963428D02*
X18747381Y-12906286D01*
X18747381Y-12906286D02*
X18756905Y-12887238D01*
X18756905Y-12887238D02*
X18766429Y-12877714D01*
X18766429Y-12877714D02*
X18785477Y-12868190D01*
X18785477Y-12868190D02*
X18814048Y-12868190D01*
X18814048Y-12868190D02*
X18833096Y-12877714D01*
X18833096Y-12877714D02*
X18842619Y-12887238D01*
X18842619Y-12887238D02*
X18852143Y-12906286D01*
X18852143Y-12906286D02*
X18852143Y-12963428D01*
X18852143Y-12963428D02*
X18842619Y-12982476D01*
X18842619Y-12982476D02*
X18833096Y-12992000D01*
X18833096Y-12992000D02*
X18814048Y-13001524D01*
X18814048Y-13001524D02*
X18785477Y-13001524D01*
X18966429Y-13001524D02*
X18947381Y-12992000D01*
X18947381Y-12992000D02*
X18937858Y-12972952D01*
X18937858Y-12972952D02*
X18937858Y-12801524D01*
X19118810Y-12992000D02*
X19099762Y-13001524D01*
X19099762Y-13001524D02*
X19061667Y-13001524D01*
X19061667Y-13001524D02*
X19042619Y-12992000D01*
X19042619Y-12992000D02*
X19033096Y-12972952D01*
X19033096Y-12972952D02*
X19033096Y-12896762D01*
X19033096Y-12896762D02*
X19042619Y-12877714D01*
X19042619Y-12877714D02*
X19061667Y-12868190D01*
X19061667Y-12868190D02*
X19099762Y-12868190D01*
X19099762Y-12868190D02*
X19118810Y-12877714D01*
X19118810Y-12877714D02*
X19128334Y-12896762D01*
X19128334Y-12896762D02*
X19128334Y-12915809D01*
X19128334Y-12915809D02*
X19033096Y-12934857D01*
X19204524Y-12992000D02*
X19223572Y-13001524D01*
X19223572Y-13001524D02*
X19261667Y-13001524D01*
X19261667Y-13001524D02*
X19280715Y-12992000D01*
X19280715Y-12992000D02*
X19290239Y-12972952D01*
X19290239Y-12972952D02*
X19290239Y-12963428D01*
X19290239Y-12963428D02*
X19280715Y-12944381D01*
X19280715Y-12944381D02*
X19261667Y-12934857D01*
X19261667Y-12934857D02*
X19233096Y-12934857D01*
X19233096Y-12934857D02*
X19214048Y-12925333D01*
X19214048Y-12925333D02*
X19204524Y-12906286D01*
X19204524Y-12906286D02*
X19204524Y-12896762D01*
X19204524Y-12896762D02*
X19214048Y-12877714D01*
X19214048Y-12877714D02*
X19233096Y-12868190D01*
X19233096Y-12868190D02*
X19261667Y-12868190D01*
X19261667Y-12868190D02*
X19280715Y-12877714D01*
X19356905Y-13077714D02*
X19366429Y-13068190D01*
X19366429Y-13068190D02*
X19385477Y-13039619D01*
X19385477Y-13039619D02*
X19395000Y-13020571D01*
X19395000Y-13020571D02*
X19404524Y-12992000D01*
X19404524Y-12992000D02*
X19414048Y-12944381D01*
X19414048Y-12944381D02*
X19414048Y-12906286D01*
X19414048Y-12906286D02*
X19404524Y-12858667D01*
X19404524Y-12858667D02*
X19395000Y-12830095D01*
X19395000Y-12830095D02*
X19385477Y-12811048D01*
X19385477Y-12811048D02*
X19366429Y-12782476D01*
X19366429Y-12782476D02*
X19356905Y-12772952D01*
D13*
X14544000Y-13122000D02*
X14544000Y-13224000D01*
X14493000Y-13173000D02*
X14595000Y-13173000D01*
D11*
X14947381Y-13265524D02*
X14833095Y-13265524D01*
X14890238Y-13265524D02*
X14890238Y-13065524D01*
X14890238Y-13065524D02*
X14871190Y-13094095D01*
X14871190Y-13094095D02*
X14852143Y-13113143D01*
X14852143Y-13113143D02*
X14833095Y-13122667D01*
X15033095Y-13246476D02*
X15042619Y-13256000D01*
X15042619Y-13256000D02*
X15033095Y-13265524D01*
X15033095Y-13265524D02*
X15023571Y-13256000D01*
X15023571Y-13256000D02*
X15033095Y-13246476D01*
X15033095Y-13246476D02*
X15033095Y-13265524D01*
X15166428Y-13065524D02*
X15185476Y-13065524D01*
X15185476Y-13065524D02*
X15204524Y-13075048D01*
X15204524Y-13075048D02*
X15214048Y-13084571D01*
X15214048Y-13084571D02*
X15223571Y-13103619D01*
X15223571Y-13103619D02*
X15233095Y-13141714D01*
X15233095Y-13141714D02*
X15233095Y-13189333D01*
X15233095Y-13189333D02*
X15223571Y-13227428D01*
X15223571Y-13227428D02*
X15214048Y-13246476D01*
X15214048Y-13246476D02*
X15204524Y-13256000D01*
X15204524Y-13256000D02*
X15185476Y-13265524D01*
X15185476Y-13265524D02*
X15166428Y-13265524D01*
X15166428Y-13265524D02*
X15147381Y-13256000D01*
X15147381Y-13256000D02*
X15137857Y-13246476D01*
X15137857Y-13246476D02*
X15128333Y-13227428D01*
X15128333Y-13227428D02*
X15118809Y-13189333D01*
X15118809Y-13189333D02*
X15118809Y-13141714D01*
X15118809Y-13141714D02*
X15128333Y-13103619D01*
X15128333Y-13103619D02*
X15137857Y-13084571D01*
X15137857Y-13084571D02*
X15147381Y-13075048D01*
X15147381Y-13075048D02*
X15166428Y-13065524D01*
X15309286Y-13084571D02*
X15318809Y-13075048D01*
X15318809Y-13075048D02*
X15337857Y-13065524D01*
X15337857Y-13065524D02*
X15385476Y-13065524D01*
X15385476Y-13065524D02*
X15404524Y-13075048D01*
X15404524Y-13075048D02*
X15414048Y-13084571D01*
X15414048Y-13084571D02*
X15423571Y-13103619D01*
X15423571Y-13103619D02*
X15423571Y-13122667D01*
X15423571Y-13122667D02*
X15414048Y-13151238D01*
X15414048Y-13151238D02*
X15299762Y-13265524D01*
X15299762Y-13265524D02*
X15423571Y-13265524D01*
X15547381Y-13065524D02*
X15566429Y-13065524D01*
X15566429Y-13065524D02*
X15585476Y-13075048D01*
X15585476Y-13075048D02*
X15595000Y-13084571D01*
X15595000Y-13084571D02*
X15604524Y-13103619D01*
X15604524Y-13103619D02*
X15614048Y-13141714D01*
X15614048Y-13141714D02*
X15614048Y-13189333D01*
X15614048Y-13189333D02*
X15604524Y-13227428D01*
X15604524Y-13227428D02*
X15595000Y-13246476D01*
X15595000Y-13246476D02*
X15585476Y-13256000D01*
X15585476Y-13256000D02*
X15566429Y-13265524D01*
X15566429Y-13265524D02*
X15547381Y-13265524D01*
X15547381Y-13265524D02*
X15528333Y-13256000D01*
X15528333Y-13256000D02*
X15518809Y-13246476D01*
X15518809Y-13246476D02*
X15509286Y-13227428D01*
X15509286Y-13227428D02*
X15499762Y-13189333D01*
X15499762Y-13189333D02*
X15499762Y-13141714D01*
X15499762Y-13141714D02*
X15509286Y-13103619D01*
X15509286Y-13103619D02*
X15518809Y-13084571D01*
X15518809Y-13084571D02*
X15528333Y-13075048D01*
X15528333Y-13075048D02*
X15547381Y-13065524D01*
X15699762Y-13265524D02*
X15699762Y-13132190D01*
X15699762Y-13151238D02*
X15709286Y-13141714D01*
X15709286Y-13141714D02*
X15728333Y-13132190D01*
X15728333Y-13132190D02*
X15756905Y-13132190D01*
X15756905Y-13132190D02*
X15775952Y-13141714D01*
X15775952Y-13141714D02*
X15785476Y-13160762D01*
X15785476Y-13160762D02*
X15785476Y-13265524D01*
X15785476Y-13160762D02*
X15795000Y-13141714D01*
X15795000Y-13141714D02*
X15814048Y-13132190D01*
X15814048Y-13132190D02*
X15842619Y-13132190D01*
X15842619Y-13132190D02*
X15861667Y-13141714D01*
X15861667Y-13141714D02*
X15871190Y-13160762D01*
X15871190Y-13160762D02*
X15871190Y-13265524D01*
X15966429Y-13265524D02*
X15966429Y-13132190D01*
X15966429Y-13151238D02*
X15975952Y-13141714D01*
X15975952Y-13141714D02*
X15995000Y-13132190D01*
X15995000Y-13132190D02*
X16023571Y-13132190D01*
X16023571Y-13132190D02*
X16042619Y-13141714D01*
X16042619Y-13141714D02*
X16052143Y-13160762D01*
X16052143Y-13160762D02*
X16052143Y-13265524D01*
X16052143Y-13160762D02*
X16061667Y-13141714D01*
X16061667Y-13141714D02*
X16080714Y-13132190D01*
X16080714Y-13132190D02*
X16109286Y-13132190D01*
X16109286Y-13132190D02*
X16128333Y-13141714D01*
X16128333Y-13141714D02*
X16137857Y-13160762D01*
X16137857Y-13160762D02*
X16137857Y-13265524D01*
X16528333Y-13056000D02*
X16356905Y-13313143D01*
X16785476Y-13065524D02*
X16804524Y-13065524D01*
X16804524Y-13065524D02*
X16823572Y-13075048D01*
X16823572Y-13075048D02*
X16833095Y-13084571D01*
X16833095Y-13084571D02*
X16842619Y-13103619D01*
X16842619Y-13103619D02*
X16852143Y-13141714D01*
X16852143Y-13141714D02*
X16852143Y-13189333D01*
X16852143Y-13189333D02*
X16842619Y-13227428D01*
X16842619Y-13227428D02*
X16833095Y-13246476D01*
X16833095Y-13246476D02*
X16823572Y-13256000D01*
X16823572Y-13256000D02*
X16804524Y-13265524D01*
X16804524Y-13265524D02*
X16785476Y-13265524D01*
X16785476Y-13265524D02*
X16766429Y-13256000D01*
X16766429Y-13256000D02*
X16756905Y-13246476D01*
X16756905Y-13246476D02*
X16747381Y-13227428D01*
X16747381Y-13227428D02*
X16737857Y-13189333D01*
X16737857Y-13189333D02*
X16737857Y-13141714D01*
X16737857Y-13141714D02*
X16747381Y-13103619D01*
X16747381Y-13103619D02*
X16756905Y-13084571D01*
X16756905Y-13084571D02*
X16766429Y-13075048D01*
X16766429Y-13075048D02*
X16785476Y-13065524D01*
X16937857Y-13246476D02*
X16947381Y-13256000D01*
X16947381Y-13256000D02*
X16937857Y-13265524D01*
X16937857Y-13265524D02*
X16928334Y-13256000D01*
X16928334Y-13256000D02*
X16937857Y-13246476D01*
X16937857Y-13246476D02*
X16937857Y-13265524D01*
X17071191Y-13065524D02*
X17090238Y-13065524D01*
X17090238Y-13065524D02*
X17109286Y-13075048D01*
X17109286Y-13075048D02*
X17118810Y-13084571D01*
X17118810Y-13084571D02*
X17128334Y-13103619D01*
X17128334Y-13103619D02*
X17137857Y-13141714D01*
X17137857Y-13141714D02*
X17137857Y-13189333D01*
X17137857Y-13189333D02*
X17128334Y-13227428D01*
X17128334Y-13227428D02*
X17118810Y-13246476D01*
X17118810Y-13246476D02*
X17109286Y-13256000D01*
X17109286Y-13256000D02*
X17090238Y-13265524D01*
X17090238Y-13265524D02*
X17071191Y-13265524D01*
X17071191Y-13265524D02*
X17052143Y-13256000D01*
X17052143Y-13256000D02*
X17042619Y-13246476D01*
X17042619Y-13246476D02*
X17033095Y-13227428D01*
X17033095Y-13227428D02*
X17023572Y-13189333D01*
X17023572Y-13189333D02*
X17023572Y-13141714D01*
X17023572Y-13141714D02*
X17033095Y-13103619D01*
X17033095Y-13103619D02*
X17042619Y-13084571D01*
X17042619Y-13084571D02*
X17052143Y-13075048D01*
X17052143Y-13075048D02*
X17071191Y-13065524D01*
X17309286Y-13132190D02*
X17309286Y-13265524D01*
X17261667Y-13056000D02*
X17214048Y-13198857D01*
X17214048Y-13198857D02*
X17337857Y-13198857D01*
X17452143Y-13065524D02*
X17471191Y-13065524D01*
X17471191Y-13065524D02*
X17490238Y-13075048D01*
X17490238Y-13075048D02*
X17499762Y-13084571D01*
X17499762Y-13084571D02*
X17509286Y-13103619D01*
X17509286Y-13103619D02*
X17518810Y-13141714D01*
X17518810Y-13141714D02*
X17518810Y-13189333D01*
X17518810Y-13189333D02*
X17509286Y-13227428D01*
X17509286Y-13227428D02*
X17499762Y-13246476D01*
X17499762Y-13246476D02*
X17490238Y-13256000D01*
X17490238Y-13256000D02*
X17471191Y-13265524D01*
X17471191Y-13265524D02*
X17452143Y-13265524D01*
X17452143Y-13265524D02*
X17433095Y-13256000D01*
X17433095Y-13256000D02*
X17423572Y-13246476D01*
X17423572Y-13246476D02*
X17414048Y-13227428D01*
X17414048Y-13227428D02*
X17404524Y-13189333D01*
X17404524Y-13189333D02*
X17404524Y-13141714D01*
X17404524Y-13141714D02*
X17414048Y-13103619D01*
X17414048Y-13103619D02*
X17423572Y-13084571D01*
X17423572Y-13084571D02*
X17433095Y-13075048D01*
X17433095Y-13075048D02*
X17452143Y-13065524D01*
X17595000Y-13084571D02*
X17604524Y-13075048D01*
X17604524Y-13075048D02*
X17623572Y-13065524D01*
X17623572Y-13065524D02*
X17671191Y-13065524D01*
X17671191Y-13065524D02*
X17690238Y-13075048D01*
X17690238Y-13075048D02*
X17699762Y-13084571D01*
X17699762Y-13084571D02*
X17709286Y-13103619D01*
X17709286Y-13103619D02*
X17709286Y-13122667D01*
X17709286Y-13122667D02*
X17699762Y-13151238D01*
X17699762Y-13151238D02*
X17585476Y-13265524D01*
X17585476Y-13265524D02*
X17709286Y-13265524D01*
X17785476Y-13065524D02*
X17785476Y-13103619D01*
X17861667Y-13065524D02*
X17861667Y-13103619D01*
X18156905Y-13341714D02*
X18147381Y-13332190D01*
X18147381Y-13332190D02*
X18128334Y-13303619D01*
X18128334Y-13303619D02*
X18118810Y-13284571D01*
X18118810Y-13284571D02*
X18109286Y-13256000D01*
X18109286Y-13256000D02*
X18099762Y-13208381D01*
X18099762Y-13208381D02*
X18099762Y-13170286D01*
X18099762Y-13170286D02*
X18109286Y-13122667D01*
X18109286Y-13122667D02*
X18118810Y-13094095D01*
X18118810Y-13094095D02*
X18128334Y-13075048D01*
X18128334Y-13075048D02*
X18147381Y-13046476D01*
X18147381Y-13046476D02*
X18156905Y-13036952D01*
X18242619Y-13265524D02*
X18280715Y-13265524D01*
X18280715Y-13265524D02*
X18299762Y-13256000D01*
X18299762Y-13256000D02*
X18309286Y-13246476D01*
X18309286Y-13246476D02*
X18328334Y-13217905D01*
X18328334Y-13217905D02*
X18337857Y-13179809D01*
X18337857Y-13179809D02*
X18337857Y-13103619D01*
X18337857Y-13103619D02*
X18328334Y-13084571D01*
X18328334Y-13084571D02*
X18318810Y-13075048D01*
X18318810Y-13075048D02*
X18299762Y-13065524D01*
X18299762Y-13065524D02*
X18261667Y-13065524D01*
X18261667Y-13065524D02*
X18242619Y-13075048D01*
X18242619Y-13075048D02*
X18233096Y-13084571D01*
X18233096Y-13084571D02*
X18223572Y-13103619D01*
X18223572Y-13103619D02*
X18223572Y-13151238D01*
X18223572Y-13151238D02*
X18233096Y-13170286D01*
X18233096Y-13170286D02*
X18242619Y-13179809D01*
X18242619Y-13179809D02*
X18261667Y-13189333D01*
X18261667Y-13189333D02*
X18299762Y-13189333D01*
X18299762Y-13189333D02*
X18318810Y-13179809D01*
X18318810Y-13179809D02*
X18328334Y-13170286D01*
X18328334Y-13170286D02*
X18337857Y-13151238D01*
X18575953Y-13265524D02*
X18575953Y-13065524D01*
X18661667Y-13265524D02*
X18661667Y-13160762D01*
X18661667Y-13160762D02*
X18652143Y-13141714D01*
X18652143Y-13141714D02*
X18633096Y-13132190D01*
X18633096Y-13132190D02*
X18604524Y-13132190D01*
X18604524Y-13132190D02*
X18585477Y-13141714D01*
X18585477Y-13141714D02*
X18575953Y-13151238D01*
X18785477Y-13265524D02*
X18766429Y-13256000D01*
X18766429Y-13256000D02*
X18756905Y-13246476D01*
X18756905Y-13246476D02*
X18747381Y-13227428D01*
X18747381Y-13227428D02*
X18747381Y-13170286D01*
X18747381Y-13170286D02*
X18756905Y-13151238D01*
X18756905Y-13151238D02*
X18766429Y-13141714D01*
X18766429Y-13141714D02*
X18785477Y-13132190D01*
X18785477Y-13132190D02*
X18814048Y-13132190D01*
X18814048Y-13132190D02*
X18833096Y-13141714D01*
X18833096Y-13141714D02*
X18842619Y-13151238D01*
X18842619Y-13151238D02*
X18852143Y-13170286D01*
X18852143Y-13170286D02*
X18852143Y-13227428D01*
X18852143Y-13227428D02*
X18842619Y-13246476D01*
X18842619Y-13246476D02*
X18833096Y-13256000D01*
X18833096Y-13256000D02*
X18814048Y-13265524D01*
X18814048Y-13265524D02*
X18785477Y-13265524D01*
X18966429Y-13265524D02*
X18947381Y-13256000D01*
X18947381Y-13256000D02*
X18937858Y-13236952D01*
X18937858Y-13236952D02*
X18937858Y-13065524D01*
X19118810Y-13256000D02*
X19099762Y-13265524D01*
X19099762Y-13265524D02*
X19061667Y-13265524D01*
X19061667Y-13265524D02*
X19042619Y-13256000D01*
X19042619Y-13256000D02*
X19033096Y-13236952D01*
X19033096Y-13236952D02*
X19033096Y-13160762D01*
X19033096Y-13160762D02*
X19042619Y-13141714D01*
X19042619Y-13141714D02*
X19061667Y-13132190D01*
X19061667Y-13132190D02*
X19099762Y-13132190D01*
X19099762Y-13132190D02*
X19118810Y-13141714D01*
X19118810Y-13141714D02*
X19128334Y-13160762D01*
X19128334Y-13160762D02*
X19128334Y-13179809D01*
X19128334Y-13179809D02*
X19033096Y-13198857D01*
X19204524Y-13256000D02*
X19223572Y-13265524D01*
X19223572Y-13265524D02*
X19261667Y-13265524D01*
X19261667Y-13265524D02*
X19280715Y-13256000D01*
X19280715Y-13256000D02*
X19290239Y-13236952D01*
X19290239Y-13236952D02*
X19290239Y-13227428D01*
X19290239Y-13227428D02*
X19280715Y-13208381D01*
X19280715Y-13208381D02*
X19261667Y-13198857D01*
X19261667Y-13198857D02*
X19233096Y-13198857D01*
X19233096Y-13198857D02*
X19214048Y-13189333D01*
X19214048Y-13189333D02*
X19204524Y-13170286D01*
X19204524Y-13170286D02*
X19204524Y-13160762D01*
X19204524Y-13160762D02*
X19214048Y-13141714D01*
X19214048Y-13141714D02*
X19233096Y-13132190D01*
X19233096Y-13132190D02*
X19261667Y-13132190D01*
X19261667Y-13132190D02*
X19280715Y-13141714D01*
X19356905Y-13341714D02*
X19366429Y-13332190D01*
X19366429Y-13332190D02*
X19385477Y-13303619D01*
X19385477Y-13303619D02*
X19395000Y-13284571D01*
X19395000Y-13284571D02*
X19404524Y-13256000D01*
X19404524Y-13256000D02*
X19414048Y-13208381D01*
X19414048Y-13208381D02*
X19414048Y-13170286D01*
X19414048Y-13170286D02*
X19404524Y-13122667D01*
X19404524Y-13122667D02*
X19395000Y-13094095D01*
X19395000Y-13094095D02*
X19385477Y-13075048D01*
X19385477Y-13075048D02*
X19366429Y-13046476D01*
X19366429Y-13046476D02*
X19356905Y-13036952D01*
M02*
