G04 #@! TF.GenerationSoftware,KiCad,Pcbnew,7.0.2*
G04 #@! TF.CreationDate,2023-11-13T13:22:44-06:00*
G04 #@! TF.ProjectId,Telemetry-Peripheral-SOM-Daughterboard-IMU,54656c65-6d65-4747-9279-2d5065726970,rev?*
G04 #@! TF.SameCoordinates,Original*
G04 #@! TF.FileFunction,Copper,L1,Top*
G04 #@! TF.FilePolarity,Positive*
%FSLAX46Y46*%
G04 Gerber Fmt 4.6, Leading zero omitted, Abs format (unit mm)*
G04 Created by KiCad (PCBNEW 7.0.2) date 2023-11-13 13:22:44*
%MOMM*%
%LPD*%
G01*
G04 APERTURE LIST*
G04 Aperture macros list*
%AMRoundRect*
0 Rectangle with rounded corners*
0 $1 Rounding radius*
0 $2 $3 $4 $5 $6 $7 $8 $9 X,Y pos of 4 corners*
0 Add a 4 corners polygon primitive as box body*
4,1,4,$2,$3,$4,$5,$6,$7,$8,$9,$2,$3,0*
0 Add four circle primitives for the rounded corners*
1,1,$1+$1,$2,$3*
1,1,$1+$1,$4,$5*
1,1,$1+$1,$6,$7*
1,1,$1+$1,$8,$9*
0 Add four rect primitives between the rounded corners*
20,1,$1+$1,$2,$3,$4,$5,0*
20,1,$1+$1,$4,$5,$6,$7,0*
20,1,$1+$1,$6,$7,$8,$9,0*
20,1,$1+$1,$8,$9,$2,$3,0*%
G04 Aperture macros list end*
G04 #@! TA.AperFunction,SMDPad,CuDef*
%ADD10RoundRect,0.250000X-0.250000X-0.475000X0.250000X-0.475000X0.250000X0.475000X-0.250000X0.475000X0*%
G04 #@! TD*
G04 #@! TA.AperFunction,SMDPad,CuDef*
%ADD11RoundRect,0.250000X0.250000X0.475000X-0.250000X0.475000X-0.250000X-0.475000X0.250000X-0.475000X0*%
G04 #@! TD*
G04 #@! TA.AperFunction,SMDPad,CuDef*
%ADD12RoundRect,0.250000X0.475000X-0.250000X0.475000X0.250000X-0.475000X0.250000X-0.475000X-0.250000X0*%
G04 #@! TD*
G04 #@! TA.AperFunction,ComponentPad*
%ADD13C,1.700000*%
G04 #@! TD*
G04 #@! TA.AperFunction,SMDPad,CuDef*
%ADD14RoundRect,0.250000X-0.350000X0.275000X-0.350000X-0.275000X0.350000X-0.275000X0.350000X0.275000X0*%
G04 #@! TD*
G04 #@! TA.AperFunction,ComponentPad*
%ADD15C,2.000000*%
G04 #@! TD*
G04 #@! TA.AperFunction,SMDPad,CuDef*
%ADD16R,1.800000X0.550000*%
G04 #@! TD*
G04 #@! TA.AperFunction,SMDPad,CuDef*
%ADD17RoundRect,0.250000X-0.475000X0.250000X-0.475000X-0.250000X0.475000X-0.250000X0.475000X0.250000X0*%
G04 #@! TD*
G04 #@! TA.AperFunction,SMDPad,CuDef*
%ADD18RoundRect,0.250000X0.450000X-0.350000X0.450000X0.350000X-0.450000X0.350000X-0.450000X-0.350000X0*%
G04 #@! TD*
G04 #@! TA.AperFunction,SMDPad,CuDef*
%ADD19R,2.000000X2.000000*%
G04 #@! TD*
G04 #@! TA.AperFunction,SMDPad,CuDef*
%ADD20R,0.533400X0.304800*%
G04 #@! TD*
G04 #@! TA.AperFunction,SMDPad,CuDef*
%ADD21R,0.304800X0.533400*%
G04 #@! TD*
G04 #@! TA.AperFunction,SMDPad,CuDef*
%ADD22RoundRect,0.250000X-0.450000X0.262500X-0.450000X-0.262500X0.450000X-0.262500X0.450000X0.262500X0*%
G04 #@! TD*
G04 #@! TA.AperFunction,ViaPad*
%ADD23C,0.800000*%
G04 #@! TD*
G04 #@! TA.AperFunction,Conductor*
%ADD24C,1.000000*%
G04 #@! TD*
G04 #@! TA.AperFunction,Conductor*
%ADD25C,0.200000*%
G04 #@! TD*
G04 #@! TA.AperFunction,Conductor*
%ADD26C,0.400000*%
G04 #@! TD*
G04 APERTURE END LIST*
D10*
X156931401Y-107500000D03*
X158831401Y-107500000D03*
X174000000Y-80100000D03*
X175900000Y-80100000D03*
D11*
X176500000Y-104000000D03*
X174600000Y-104000000D03*
D12*
X150200000Y-96500000D03*
X150200000Y-94600000D03*
D13*
X181000000Y-88000000D03*
X181000000Y-91000000D03*
X181000000Y-94000000D03*
X181000000Y-72000000D03*
X181000000Y-75000000D03*
X181000000Y-78000000D03*
D14*
X176000000Y-75700000D03*
X176000000Y-78000000D03*
D11*
X176500000Y-88000000D03*
X174600000Y-88000000D03*
D15*
X157000000Y-117500000D03*
D16*
X164350000Y-87400000D03*
X168650000Y-87400000D03*
X164350000Y-88200000D03*
X168650000Y-88200000D03*
X164350000Y-89000000D03*
X168650000Y-89000000D03*
X164350000Y-89800000D03*
X168650000Y-89800000D03*
X164350000Y-90600000D03*
X168650000Y-90600000D03*
X164350000Y-91400000D03*
X168650000Y-91400000D03*
X164350000Y-92200000D03*
X168650000Y-92200000D03*
X164350000Y-93000000D03*
X168650000Y-93000000D03*
X164350000Y-93800000D03*
X168650000Y-93800000D03*
X164350000Y-94600000D03*
X168650000Y-94600000D03*
D11*
X176500000Y-72000000D03*
X174600000Y-72000000D03*
D10*
X174000000Y-96100000D03*
X175900000Y-96100000D03*
D17*
X152400000Y-94600000D03*
X152400000Y-96500000D03*
D15*
X171000000Y-117500000D03*
D18*
X174000000Y-77700000D03*
X174000000Y-75700000D03*
D15*
X167500000Y-117500000D03*
D17*
X150200000Y-85500000D03*
X150200000Y-87400000D03*
X152350000Y-85500000D03*
X152350000Y-87400000D03*
D19*
X174000000Y-117500000D03*
D10*
X174000000Y-112050000D03*
X175900000Y-112050000D03*
D20*
X158318901Y-103049698D03*
X158318901Y-103549699D03*
X158318901Y-104049699D03*
X158318901Y-104549700D03*
D21*
X159000002Y-104726799D03*
X159500001Y-104726799D03*
X160000000Y-104726799D03*
D20*
X160681101Y-104549700D03*
X160681101Y-104049699D03*
X160681101Y-103549699D03*
X160681101Y-103049698D03*
D21*
X160000000Y-102872599D03*
X159500001Y-102872599D03*
X159000002Y-102872599D03*
D18*
X174000000Y-109700000D03*
X174000000Y-107700000D03*
D22*
X158331401Y-98187500D03*
X158331401Y-100012500D03*
D18*
X174000000Y-93700000D03*
X174000000Y-91700000D03*
D14*
X176000000Y-91700000D03*
X176000000Y-94000000D03*
D11*
X162750000Y-107500000D03*
X160850000Y-107500000D03*
D15*
X160500000Y-117500000D03*
D14*
X176000000Y-107700000D03*
X176000000Y-110000000D03*
D19*
X153500000Y-117500000D03*
D13*
X181000000Y-104000000D03*
X181000000Y-107000000D03*
X181000000Y-110000000D03*
D15*
X164000000Y-117500000D03*
D23*
X176550000Y-72000000D03*
X156931401Y-107500000D03*
X168500000Y-87000000D03*
X162800000Y-90600000D03*
X176500000Y-88000000D03*
X173975000Y-117550000D03*
X158200000Y-90600000D03*
X176500000Y-104000000D03*
X162750000Y-107500000D03*
X152350000Y-85500000D03*
X181000000Y-99000000D03*
X147600000Y-67800000D03*
X170000000Y-83000000D03*
X163000000Y-83000000D03*
X146800000Y-72800000D03*
X149000000Y-100000000D03*
X158000000Y-111000000D03*
X181000000Y-115000000D03*
X149000000Y-105000000D03*
X184200000Y-72800000D03*
X156000000Y-68000000D03*
X178000000Y-119200000D03*
X149000000Y-83000000D03*
X170000000Y-111000000D03*
X150000000Y-66800000D03*
X170000000Y-68000000D03*
X183200000Y-118200000D03*
X148000000Y-118200000D03*
X181000000Y-83000000D03*
X170000000Y-78000000D03*
X178200000Y-66800000D03*
X170000000Y-73000000D03*
X181000000Y-66800000D03*
X180800000Y-119200000D03*
X152800000Y-66800000D03*
X150200000Y-119000000D03*
X184200000Y-70000000D03*
X165000000Y-111000000D03*
X156000000Y-73000000D03*
X147000000Y-115800000D03*
X147000000Y-113000000D03*
X163000000Y-73000000D03*
X156000000Y-78000000D03*
X176000000Y-68000000D03*
X156000000Y-83000000D03*
X184000000Y-116000000D03*
X163000000Y-78000000D03*
X146800000Y-70000000D03*
X149000000Y-78000000D03*
X163000000Y-68000000D03*
X152350000Y-107875000D03*
X166500000Y-89000000D03*
X157150000Y-94250000D03*
X153276503Y-107875000D03*
X153600000Y-99100000D03*
X166500000Y-90000000D03*
X159739515Y-101701471D03*
X161700000Y-101700000D03*
X161750000Y-104065332D03*
X164900000Y-103050000D03*
X162936460Y-93345689D03*
X159000000Y-97250000D03*
X157050000Y-104700000D03*
X164900000Y-104050000D03*
X162726500Y-100700000D03*
X159747234Y-100775001D03*
X164350000Y-95800000D03*
X171500000Y-98500000D03*
X150200000Y-85500000D03*
X150200000Y-96500000D03*
X152400000Y-96500000D03*
X152400000Y-92450000D03*
X171100000Y-92200000D03*
X168650000Y-94674502D03*
D24*
X176550000Y-72000000D02*
X176500000Y-72000000D01*
X181000000Y-88000000D02*
X176500000Y-88000000D01*
D25*
X153100000Y-85500000D02*
X158200000Y-90600000D01*
X159000002Y-105431399D02*
X159000002Y-104726799D01*
X152350000Y-85500000D02*
X153100000Y-85500000D01*
X156931401Y-107500000D02*
X159000002Y-105431399D01*
X162800000Y-90600000D02*
X164350000Y-90600000D01*
D26*
X168500000Y-87000000D02*
X168500000Y-87250000D01*
D25*
X160681101Y-105431101D02*
X160681101Y-104549700D01*
D24*
X176550000Y-72000000D02*
X181000000Y-72000000D01*
D26*
X168500000Y-87250000D02*
X168650000Y-87400000D01*
D24*
X176500000Y-104000000D02*
X181000000Y-104000000D01*
D25*
X162750000Y-107500000D02*
X160681101Y-105431101D01*
X158318901Y-103549699D02*
X158318901Y-104049699D01*
X157150000Y-94350000D02*
X152350000Y-99150000D01*
X157150000Y-94250000D02*
X157150000Y-94350000D01*
X166500000Y-89000000D02*
X168650000Y-89000000D01*
X152350000Y-99150000D02*
X152350000Y-107875000D01*
X160400000Y-91868629D02*
X160400000Y-102472599D01*
X160400000Y-102472599D02*
X160000000Y-102872599D01*
X162468629Y-89800000D02*
X160400000Y-91868629D01*
X164350000Y-89800000D02*
X162468629Y-89800000D01*
X153276503Y-99423497D02*
X153276503Y-107875000D01*
X166500000Y-90000000D02*
X166700000Y-89800000D01*
X166700000Y-89800000D02*
X168650000Y-89800000D01*
X153600000Y-99100000D02*
X153276503Y-99423497D01*
X161700000Y-101700000D02*
X162100000Y-101300000D01*
X159739515Y-101701471D02*
X159500001Y-101940985D01*
X162100000Y-93295437D02*
X163195437Y-92200000D01*
X159500001Y-101940985D02*
X159500001Y-102872599D01*
X162100000Y-101300000D02*
X162100000Y-93295437D01*
X163195437Y-92200000D02*
X164350000Y-92200000D01*
X166519000Y-93581000D02*
X167900000Y-92200000D01*
X161734367Y-104049699D02*
X160681101Y-104049699D01*
X161750000Y-104065332D02*
X161734367Y-104049699D01*
X167900000Y-92200000D02*
X168650000Y-92200000D01*
X164900000Y-103050000D02*
X166519000Y-101431000D01*
X166519000Y-101431000D02*
X166519000Y-93581000D01*
X163282149Y-93000000D02*
X164350000Y-93000000D01*
X158331401Y-97918599D02*
X158331401Y-98187500D01*
X159000000Y-97250000D02*
X158331401Y-97918599D01*
X162936460Y-93345689D02*
X163282149Y-93000000D01*
X167150000Y-101800000D02*
X167150000Y-93750000D01*
X164900000Y-104050000D02*
X167150000Y-101800000D01*
X157050000Y-104700000D02*
X157200300Y-104549700D01*
X167150000Y-93750000D02*
X167900000Y-93000000D01*
X157200300Y-104549700D02*
X158318901Y-104549700D01*
X167900000Y-93000000D02*
X168650000Y-93000000D01*
X163521000Y-93800000D02*
X164350000Y-93800000D01*
X163200000Y-100226500D02*
X163200000Y-94121000D01*
X159747234Y-100775001D02*
X159000002Y-101522233D01*
X163200000Y-94121000D02*
X163521000Y-93800000D01*
X159000002Y-101522233D02*
X159000002Y-102872599D01*
X162726500Y-100700000D02*
X163200000Y-100226500D01*
X174000000Y-109700000D02*
X174000000Y-112050000D01*
X174000000Y-114500000D02*
X174000000Y-112050000D01*
X172000000Y-107700000D02*
X174000000Y-109700000D01*
X164350000Y-95800000D02*
X164350000Y-94600000D01*
X171500000Y-98500000D02*
X172000000Y-99000000D01*
X171000000Y-117500000D02*
X174000000Y-114500000D01*
X172000000Y-99000000D02*
X172000000Y-107700000D01*
D26*
X158318901Y-100025000D02*
X158318901Y-102997299D01*
D25*
X152400000Y-92450000D02*
X152200000Y-92450000D01*
X151800000Y-94000000D02*
X152400000Y-94600000D01*
X151800000Y-92850000D02*
X151800000Y-94000000D01*
X152200000Y-92450000D02*
X151800000Y-92850000D01*
X167750000Y-113750000D02*
X164000000Y-117500000D01*
X167750000Y-95500000D02*
X167750000Y-113750000D01*
X168650000Y-94600000D02*
X167750000Y-95500000D01*
X171100000Y-92200000D02*
X171100000Y-83000000D01*
X171100000Y-83000000D02*
X174000000Y-80100000D01*
X174000000Y-77700000D02*
X174000000Y-80100000D01*
X169550000Y-93800000D02*
X170000000Y-94250000D01*
X168350000Y-116650000D02*
X167500000Y-117500000D01*
X170000000Y-94250000D02*
X173450000Y-94250000D01*
X168650000Y-93800000D02*
X169550000Y-93800000D01*
X170000000Y-94250000D02*
X170000000Y-95275000D01*
X170000000Y-95275000D02*
X168350000Y-96925000D01*
X168350000Y-96925000D02*
X168350000Y-116650000D01*
X173450000Y-94250000D02*
X174000000Y-93700000D01*
X174000000Y-93700000D02*
X174000000Y-96100000D01*
X174000000Y-107700000D02*
X176000000Y-107700000D01*
X176000000Y-110000000D02*
X181000000Y-110000000D01*
X174000000Y-75700000D02*
X176000000Y-75700000D01*
X176000000Y-78000000D02*
X181000000Y-78000000D01*
X174000000Y-91700000D02*
X176000000Y-91700000D01*
X176000000Y-94000000D02*
X181000000Y-94000000D01*
G04 #@! TA.AperFunction,Conductor*
G36*
X181002855Y-66100632D02*
G01*
X181354083Y-66116870D01*
X181365473Y-66117926D01*
X181710864Y-66166105D01*
X181722107Y-66168207D01*
X182061578Y-66248050D01*
X182072568Y-66251177D01*
X182403244Y-66362009D01*
X182413898Y-66366137D01*
X182732922Y-66506999D01*
X182743149Y-66512091D01*
X182925184Y-66613484D01*
X183047809Y-66681786D01*
X183057547Y-66687815D01*
X183345249Y-66884895D01*
X183354389Y-66891798D01*
X183622665Y-67114572D01*
X183631129Y-67122288D01*
X183877711Y-67368870D01*
X183885427Y-67377334D01*
X184108201Y-67645610D01*
X184115104Y-67654750D01*
X184312184Y-67942452D01*
X184318213Y-67952190D01*
X184406580Y-68110838D01*
X184481682Y-68245673D01*
X184487901Y-68256837D01*
X184493006Y-68267090D01*
X184633857Y-68586088D01*
X184637995Y-68596768D01*
X184748818Y-68927418D01*
X184751952Y-68938434D01*
X184831790Y-69277884D01*
X184833895Y-69289143D01*
X184882072Y-69634519D01*
X184883129Y-69645923D01*
X184899368Y-69997143D01*
X184899500Y-70002870D01*
X184899500Y-115997128D01*
X184899368Y-116002855D01*
X184883129Y-116354076D01*
X184882072Y-116365480D01*
X184833895Y-116710856D01*
X184831790Y-116722115D01*
X184751952Y-117061565D01*
X184748818Y-117072581D01*
X184637995Y-117403231D01*
X184633857Y-117413911D01*
X184493006Y-117732909D01*
X184487901Y-117743162D01*
X184318213Y-118047809D01*
X184312184Y-118057547D01*
X184115104Y-118345249D01*
X184108201Y-118354389D01*
X183885427Y-118622665D01*
X183877711Y-118631129D01*
X183631129Y-118877711D01*
X183622665Y-118885427D01*
X183354389Y-119108201D01*
X183345249Y-119115104D01*
X183057547Y-119312184D01*
X183047809Y-119318213D01*
X182743162Y-119487901D01*
X182732909Y-119493006D01*
X182413911Y-119633857D01*
X182403231Y-119637995D01*
X182072581Y-119748818D01*
X182061565Y-119751952D01*
X181722115Y-119831790D01*
X181710856Y-119833895D01*
X181365480Y-119882072D01*
X181354076Y-119883129D01*
X181002855Y-119899368D01*
X180997128Y-119899500D01*
X150002872Y-119899500D01*
X149997145Y-119899368D01*
X149645923Y-119883129D01*
X149634519Y-119882072D01*
X149289143Y-119833895D01*
X149277884Y-119831790D01*
X148938434Y-119751952D01*
X148927418Y-119748818D01*
X148596768Y-119637995D01*
X148586088Y-119633857D01*
X148267085Y-119493003D01*
X148256842Y-119487903D01*
X148157598Y-119432625D01*
X147952190Y-119318213D01*
X147942452Y-119312184D01*
X147654750Y-119115104D01*
X147645610Y-119108201D01*
X147377334Y-118885427D01*
X147368870Y-118877711D01*
X147122288Y-118631129D01*
X147114572Y-118622665D01*
X147078518Y-118579247D01*
X146891796Y-118354386D01*
X146884895Y-118345249D01*
X146862281Y-118312237D01*
X146687815Y-118057547D01*
X146681786Y-118047809D01*
X146515907Y-117750000D01*
X152000000Y-117750000D01*
X152000000Y-118544518D01*
X152000354Y-118551132D01*
X152006400Y-118607371D01*
X152056647Y-118742089D01*
X152142811Y-118857188D01*
X152257910Y-118943352D01*
X152392628Y-118993599D01*
X152448867Y-118999645D01*
X152455482Y-119000000D01*
X153250000Y-119000000D01*
X153250000Y-117750000D01*
X153750000Y-117750000D01*
X153750000Y-119000000D01*
X154544518Y-119000000D01*
X154551132Y-118999645D01*
X154607371Y-118993599D01*
X154742089Y-118943352D01*
X154857188Y-118857188D01*
X154943352Y-118742089D01*
X154993599Y-118607371D01*
X154999645Y-118551132D01*
X155000000Y-118544518D01*
X155000000Y-117750000D01*
X153750000Y-117750000D01*
X153250000Y-117750000D01*
X152000000Y-117750000D01*
X146515907Y-117750000D01*
X146512091Y-117743149D01*
X146506999Y-117732922D01*
X146404154Y-117499999D01*
X155794357Y-117499999D01*
X155814885Y-117721537D01*
X155875769Y-117935526D01*
X155974941Y-118134688D01*
X156109019Y-118312237D01*
X156273437Y-118462124D01*
X156462595Y-118579245D01*
X156462597Y-118579245D01*
X156462599Y-118579247D01*
X156670060Y-118659618D01*
X156888757Y-118700500D01*
X156888759Y-118700500D01*
X157111241Y-118700500D01*
X157111243Y-118700500D01*
X157329940Y-118659618D01*
X157537401Y-118579247D01*
X157726562Y-118462124D01*
X157726562Y-118462123D01*
X157890980Y-118312237D01*
X157890981Y-118312236D01*
X158025058Y-118134689D01*
X158124229Y-117935528D01*
X158185115Y-117721536D01*
X158205643Y-117500000D01*
X158205643Y-117499999D01*
X159294357Y-117499999D01*
X159314885Y-117721537D01*
X159375769Y-117935526D01*
X159474941Y-118134688D01*
X159609019Y-118312237D01*
X159773437Y-118462124D01*
X159962595Y-118579245D01*
X159962597Y-118579245D01*
X159962599Y-118579247D01*
X160170060Y-118659618D01*
X160388757Y-118700500D01*
X160388759Y-118700500D01*
X160611241Y-118700500D01*
X160611243Y-118700500D01*
X160829940Y-118659618D01*
X161037401Y-118579247D01*
X161226562Y-118462124D01*
X161226562Y-118462123D01*
X161390980Y-118312237D01*
X161390981Y-118312236D01*
X161525058Y-118134689D01*
X161624229Y-117935528D01*
X161685115Y-117721536D01*
X161705643Y-117500000D01*
X161705643Y-117499999D01*
X162794357Y-117499999D01*
X162814885Y-117721537D01*
X162875769Y-117935526D01*
X162974941Y-118134688D01*
X163109019Y-118312237D01*
X163273437Y-118462124D01*
X163462595Y-118579245D01*
X163462597Y-118579245D01*
X163462599Y-118579247D01*
X163670060Y-118659618D01*
X163888757Y-118700500D01*
X163888759Y-118700500D01*
X164111241Y-118700500D01*
X164111243Y-118700500D01*
X164329940Y-118659618D01*
X164537401Y-118579247D01*
X164726562Y-118462124D01*
X164726561Y-118462123D01*
X164890980Y-118312237D01*
X164890981Y-118312236D01*
X165025058Y-118134689D01*
X165124229Y-117935528D01*
X165185115Y-117721536D01*
X165205643Y-117500000D01*
X165185115Y-117278464D01*
X165154672Y-117171467D01*
X165124230Y-117064474D01*
X165076328Y-116968275D01*
X165064067Y-116899490D01*
X165090940Y-116834995D01*
X165099637Y-116825332D01*
X167837821Y-114087148D01*
X167899142Y-114053665D01*
X167968834Y-114058649D01*
X168024767Y-114100521D01*
X168049184Y-114165985D01*
X168049500Y-114174831D01*
X168049500Y-116244422D01*
X168029815Y-116311461D01*
X167977011Y-116357216D01*
X167907853Y-116367160D01*
X167880707Y-116360049D01*
X167829942Y-116340382D01*
X167720591Y-116319941D01*
X167611243Y-116299500D01*
X167388757Y-116299500D01*
X167244739Y-116326422D01*
X167170060Y-116340382D01*
X166962595Y-116420754D01*
X166773437Y-116537875D01*
X166609019Y-116687762D01*
X166474941Y-116865311D01*
X166375769Y-117064473D01*
X166314885Y-117278462D01*
X166294357Y-117499999D01*
X166314885Y-117721537D01*
X166375769Y-117935526D01*
X166474941Y-118134688D01*
X166609019Y-118312237D01*
X166773437Y-118462124D01*
X166962595Y-118579245D01*
X166962597Y-118579245D01*
X166962599Y-118579247D01*
X167170060Y-118659618D01*
X167388757Y-118700500D01*
X167388759Y-118700500D01*
X167611241Y-118700500D01*
X167611243Y-118700500D01*
X167829940Y-118659618D01*
X168037401Y-118579247D01*
X168226562Y-118462124D01*
X168226561Y-118462123D01*
X168390980Y-118312237D01*
X168390981Y-118312236D01*
X168525058Y-118134689D01*
X168624229Y-117935528D01*
X168685115Y-117721536D01*
X168705643Y-117500000D01*
X168705643Y-117499999D01*
X169794357Y-117499999D01*
X169814885Y-117721537D01*
X169875769Y-117935526D01*
X169974941Y-118134688D01*
X170109019Y-118312237D01*
X170273437Y-118462124D01*
X170462595Y-118579245D01*
X170462597Y-118579245D01*
X170462599Y-118579247D01*
X170670060Y-118659618D01*
X170888757Y-118700500D01*
X170888759Y-118700500D01*
X171111241Y-118700500D01*
X171111243Y-118700500D01*
X171329940Y-118659618D01*
X171537401Y-118579247D01*
X171726562Y-118462124D01*
X171726561Y-118462123D01*
X171890980Y-118312237D01*
X171890981Y-118312236D01*
X172025058Y-118134689D01*
X172124229Y-117935528D01*
X172185115Y-117721536D01*
X172205643Y-117500000D01*
X172185115Y-117278464D01*
X172154672Y-117171467D01*
X172124230Y-117064474D01*
X172076328Y-116968275D01*
X172064067Y-116899490D01*
X172090940Y-116834995D01*
X172099637Y-116825332D01*
X172598549Y-116326420D01*
X172659870Y-116292937D01*
X172729562Y-116297921D01*
X172785495Y-116339793D01*
X172809912Y-116405257D01*
X172807846Y-116438293D01*
X172799500Y-116480253D01*
X172799500Y-118519748D01*
X172811132Y-118578230D01*
X172855447Y-118644552D01*
X172921769Y-118688867D01*
X172980251Y-118700500D01*
X172980252Y-118700500D01*
X175019749Y-118700500D01*
X175048989Y-118694683D01*
X175078231Y-118688867D01*
X175144552Y-118644552D01*
X175188867Y-118578231D01*
X175200500Y-118519748D01*
X175200500Y-116480252D01*
X175188867Y-116421769D01*
X175171818Y-116396254D01*
X175144552Y-116355447D01*
X175078230Y-116311132D01*
X175019749Y-116299500D01*
X175019748Y-116299500D01*
X172980252Y-116299500D01*
X172957614Y-116304002D01*
X172938293Y-116307846D01*
X172868702Y-116301617D01*
X172813525Y-116258754D01*
X172790281Y-116192864D01*
X172806349Y-116124867D01*
X172826418Y-116098551D01*
X174163518Y-114761451D01*
X174177353Y-114751498D01*
X174184225Y-114743959D01*
X174184228Y-114743958D01*
X174215488Y-114709666D01*
X174219379Y-114705590D01*
X174232174Y-114692797D01*
X174232178Y-114692790D01*
X174232868Y-114692101D01*
X174241922Y-114680671D01*
X174259915Y-114660934D01*
X174259914Y-114660934D01*
X174259916Y-114660933D01*
X174262417Y-114654474D01*
X174275748Y-114629186D01*
X174279656Y-114623481D01*
X174279655Y-114623481D01*
X174279657Y-114623480D01*
X174285775Y-114597467D01*
X174290845Y-114581093D01*
X174300500Y-114556173D01*
X174300500Y-114549248D01*
X174303794Y-114520857D01*
X174305379Y-114514119D01*
X174301689Y-114487665D01*
X174300500Y-114470535D01*
X174300500Y-113072595D01*
X174320185Y-113005556D01*
X174372989Y-112959801D01*
X174383539Y-112955556D01*
X174462882Y-112927793D01*
X174462882Y-112927792D01*
X174462884Y-112927792D01*
X174572150Y-112847150D01*
X174652791Y-112737885D01*
X174652791Y-112737884D01*
X174652793Y-112737882D01*
X174675157Y-112673966D01*
X174715878Y-112617192D01*
X174780831Y-112591444D01*
X174849393Y-112604900D01*
X174899796Y-112653287D01*
X174909905Y-112675918D01*
X174965642Y-112844122D01*
X175057683Y-112993345D01*
X175181654Y-113117316D01*
X175330877Y-113209357D01*
X175497303Y-113264506D01*
X175596891Y-113274680D01*
X175603167Y-113274999D01*
X175649999Y-113274999D01*
X175650000Y-113274998D01*
X175650000Y-112300000D01*
X176150000Y-112300000D01*
X176150000Y-113274999D01*
X176196829Y-113274999D01*
X176203111Y-113274678D01*
X176302695Y-113264506D01*
X176469122Y-113209357D01*
X176618345Y-113117316D01*
X176642170Y-113093491D01*
X182070500Y-113093491D01*
X182109373Y-113276382D01*
X182185427Y-113447202D01*
X182295329Y-113598469D01*
X182434284Y-113723585D01*
X182596214Y-113817075D01*
X182664013Y-113839104D01*
X182774044Y-113874855D01*
X182913380Y-113889500D01*
X182916622Y-113889500D01*
X183003378Y-113889500D01*
X183006620Y-113889500D01*
X183145956Y-113874855D01*
X183323785Y-113817075D01*
X183485715Y-113723585D01*
X183624669Y-113598470D01*
X183734573Y-113447200D01*
X183810625Y-113276385D01*
X183810988Y-113274680D01*
X183849500Y-113093491D01*
X183849500Y-112906508D01*
X183810626Y-112723617D01*
X183734572Y-112552797D01*
X183624670Y-112401530D01*
X183485715Y-112276414D01*
X183323785Y-112182924D01*
X183145957Y-112125145D01*
X183009840Y-112110838D01*
X183009831Y-112110837D01*
X183006620Y-112110500D01*
X182913380Y-112110500D01*
X182910169Y-112110837D01*
X182910159Y-112110838D01*
X182774042Y-112125145D01*
X182596214Y-112182924D01*
X182434284Y-112276414D01*
X182295329Y-112401530D01*
X182185427Y-112552797D01*
X182109373Y-112723617D01*
X182070500Y-112906508D01*
X182070500Y-113093491D01*
X176642170Y-113093491D01*
X176742316Y-112993345D01*
X176834357Y-112844122D01*
X176889506Y-112677696D01*
X176899680Y-112578109D01*
X176900000Y-112571831D01*
X176900000Y-112300000D01*
X176150000Y-112300000D01*
X175650000Y-112300000D01*
X175650000Y-111924000D01*
X175669685Y-111856961D01*
X175722489Y-111811206D01*
X175774000Y-111800000D01*
X176899999Y-111800000D01*
X176899999Y-111528170D01*
X176899678Y-111521888D01*
X176889506Y-111422304D01*
X176834357Y-111255877D01*
X176742316Y-111106654D01*
X176618345Y-110982683D01*
X176504387Y-110912394D01*
X176457662Y-110860446D01*
X176446439Y-110791484D01*
X176474282Y-110727402D01*
X176528529Y-110689813D01*
X176562882Y-110677793D01*
X176562882Y-110677792D01*
X176562884Y-110677792D01*
X176672150Y-110597150D01*
X176752791Y-110487885D01*
X176752791Y-110487884D01*
X176752793Y-110487882D01*
X176789302Y-110383544D01*
X176830022Y-110326770D01*
X176894975Y-110301022D01*
X176906343Y-110300500D01*
X179901421Y-110300500D01*
X179968460Y-110320185D01*
X180014215Y-110372989D01*
X180020081Y-110388503D01*
X180024768Y-110403954D01*
X180122315Y-110586450D01*
X180153542Y-110624500D01*
X180253589Y-110746410D01*
X180298816Y-110783526D01*
X180413550Y-110877685D01*
X180596046Y-110975232D01*
X180794066Y-111035300D01*
X181000000Y-111055583D01*
X181205934Y-111035300D01*
X181403954Y-110975232D01*
X181586450Y-110877685D01*
X181746410Y-110746410D01*
X181877685Y-110586450D01*
X181975232Y-110403954D01*
X182035300Y-110205934D01*
X182055583Y-110000000D01*
X182035300Y-109794066D01*
X181975232Y-109596046D01*
X181877685Y-109413550D01*
X181783370Y-109298626D01*
X181746410Y-109253589D01*
X181648952Y-109173608D01*
X181586450Y-109122315D01*
X181403954Y-109024768D01*
X181304944Y-108994734D01*
X181205932Y-108964699D01*
X181022497Y-108946632D01*
X181000000Y-108944417D01*
X180999999Y-108944417D01*
X180794067Y-108964699D01*
X180596043Y-109024769D01*
X180413551Y-109122314D01*
X180253589Y-109253589D01*
X180122314Y-109413551D01*
X180024768Y-109596046D01*
X180020081Y-109611497D01*
X179981783Y-109669935D01*
X179917970Y-109698391D01*
X179901421Y-109699500D01*
X176906343Y-109699500D01*
X176839304Y-109679815D01*
X176793549Y-109627011D01*
X176789305Y-109616465D01*
X176752793Y-109512118D01*
X176752791Y-109512115D01*
X176752791Y-109512114D01*
X176672150Y-109402849D01*
X176562884Y-109322207D01*
X176434696Y-109277353D01*
X176407151Y-109274770D01*
X176407139Y-109274769D01*
X176404266Y-109274500D01*
X175595734Y-109274500D01*
X175592861Y-109274769D01*
X175592848Y-109274770D01*
X175565303Y-109277353D01*
X175437115Y-109322207D01*
X175327849Y-109402849D01*
X175247207Y-109512115D01*
X175202353Y-109640303D01*
X175199770Y-109667848D01*
X175199769Y-109667861D01*
X175199500Y-109670734D01*
X175199500Y-110329266D01*
X175199769Y-110332139D01*
X175199770Y-110332151D01*
X175202353Y-110359696D01*
X175247207Y-110487884D01*
X175327849Y-110597150D01*
X175410600Y-110658223D01*
X175452851Y-110713870D01*
X175458310Y-110783526D01*
X175425243Y-110845076D01*
X175375973Y-110875698D01*
X175330879Y-110890641D01*
X175181654Y-110982683D01*
X175057683Y-111106654D01*
X174965642Y-111255876D01*
X174909904Y-111424081D01*
X174870131Y-111481525D01*
X174805615Y-111508348D01*
X174736839Y-111496033D01*
X174685639Y-111448489D01*
X174675156Y-111426029D01*
X174674474Y-111424081D01*
X174652793Y-111362118D01*
X174652792Y-111362115D01*
X174572150Y-111252849D01*
X174462885Y-111172208D01*
X174383545Y-111144446D01*
X174326769Y-111103724D01*
X174301022Y-111038771D01*
X174300500Y-111027404D01*
X174300500Y-110624500D01*
X174320185Y-110557461D01*
X174372989Y-110511706D01*
X174424500Y-110500500D01*
X174501373Y-110500500D01*
X174504266Y-110500500D01*
X174534699Y-110497646D01*
X174662882Y-110452793D01*
X174662882Y-110452792D01*
X174662884Y-110452792D01*
X174772150Y-110372150D01*
X174852792Y-110262884D01*
X174852793Y-110262882D01*
X174897646Y-110134699D01*
X174900500Y-110104266D01*
X174900500Y-109295734D01*
X174897646Y-109265301D01*
X174852793Y-109137118D01*
X174852792Y-109137115D01*
X174772150Y-109027849D01*
X174662884Y-108947207D01*
X174534696Y-108902353D01*
X174507151Y-108899770D01*
X174507139Y-108899769D01*
X174504266Y-108899500D01*
X174501373Y-108899500D01*
X173675833Y-108899500D01*
X173608794Y-108879815D01*
X173588152Y-108863181D01*
X173437152Y-108712181D01*
X173403667Y-108650858D01*
X173408651Y-108581166D01*
X173450523Y-108525233D01*
X173515987Y-108500816D01*
X173524833Y-108500500D01*
X174501373Y-108500500D01*
X174504266Y-108500500D01*
X174534699Y-108497646D01*
X174662882Y-108452793D01*
X174662882Y-108452792D01*
X174662884Y-108452792D01*
X174772150Y-108372150D01*
X174852792Y-108262884D01*
X174875529Y-108197905D01*
X174897646Y-108134699D01*
X174899688Y-108112923D01*
X174925545Y-108048015D01*
X174982390Y-108007389D01*
X175023146Y-108000500D01*
X175093657Y-108000500D01*
X175160696Y-108020185D01*
X175206451Y-108072989D01*
X175210694Y-108083534D01*
X175238447Y-108162848D01*
X175247208Y-108187885D01*
X175327849Y-108297150D01*
X175437115Y-108377792D01*
X175437118Y-108377793D01*
X175565301Y-108422646D01*
X175595734Y-108425500D01*
X175598627Y-108425500D01*
X176401373Y-108425500D01*
X176404266Y-108425500D01*
X176434699Y-108422646D01*
X176562882Y-108377793D01*
X176562882Y-108377792D01*
X176562884Y-108377792D01*
X176672150Y-108297150D01*
X176752792Y-108187884D01*
X176756306Y-108177841D01*
X176797646Y-108059699D01*
X176800500Y-108029266D01*
X176800500Y-107370734D01*
X176797646Y-107340301D01*
X176752793Y-107212118D01*
X176752792Y-107212115D01*
X176672150Y-107102849D01*
X176562884Y-107022207D01*
X176499416Y-106999999D01*
X179644842Y-106999999D01*
X179665430Y-107235318D01*
X179726569Y-107463492D01*
X179826400Y-107677580D01*
X179885073Y-107761373D01*
X180508866Y-107137580D01*
X180531318Y-107214040D01*
X180610605Y-107337413D01*
X180721438Y-107433451D01*
X180854839Y-107494373D01*
X180858633Y-107494918D01*
X180238625Y-108114925D01*
X180322420Y-108173599D01*
X180536507Y-108273430D01*
X180764681Y-108334569D01*
X181000000Y-108355157D01*
X181235318Y-108334569D01*
X181463492Y-108273430D01*
X181677576Y-108173600D01*
X181761373Y-108114925D01*
X181141365Y-107494918D01*
X181145161Y-107494373D01*
X181278562Y-107433451D01*
X181389395Y-107337413D01*
X181468682Y-107214040D01*
X181491133Y-107137580D01*
X182114925Y-107761373D01*
X182173600Y-107677576D01*
X182273430Y-107463492D01*
X182334569Y-107235318D01*
X182355157Y-106999999D01*
X182334569Y-106764681D01*
X182273430Y-106536507D01*
X182173599Y-106322421D01*
X182114926Y-106238626D01*
X182114925Y-106238625D01*
X181491132Y-106862418D01*
X181468682Y-106785960D01*
X181389395Y-106662587D01*
X181278562Y-106566549D01*
X181145161Y-106505627D01*
X181141364Y-106505081D01*
X181761373Y-105885073D01*
X181761373Y-105885072D01*
X181677580Y-105826400D01*
X181463492Y-105726569D01*
X181235318Y-105665430D01*
X181000000Y-105644842D01*
X180764681Y-105665430D01*
X180536507Y-105726569D01*
X180322422Y-105826399D01*
X180238626Y-105885072D01*
X180238625Y-105885073D01*
X180858634Y-106505081D01*
X180854839Y-106505627D01*
X180721438Y-106566549D01*
X180610605Y-106662587D01*
X180531318Y-106785960D01*
X180508867Y-106862419D01*
X179885073Y-106238625D01*
X179885072Y-106238625D01*
X179826399Y-106322422D01*
X179726569Y-106536507D01*
X179665430Y-106764681D01*
X179644842Y-106999999D01*
X176499416Y-106999999D01*
X176434696Y-106977353D01*
X176407151Y-106974770D01*
X176407139Y-106974769D01*
X176404266Y-106974500D01*
X175595734Y-106974500D01*
X175592861Y-106974769D01*
X175592848Y-106974770D01*
X175565303Y-106977353D01*
X175437115Y-107022207D01*
X175327849Y-107102849D01*
X175247208Y-107212114D01*
X175239089Y-107235318D01*
X175210697Y-107316455D01*
X175169978Y-107373230D01*
X175105025Y-107398978D01*
X175093657Y-107399500D01*
X175023146Y-107399500D01*
X174956107Y-107379815D01*
X174910352Y-107327011D01*
X174899688Y-107287076D01*
X174897646Y-107265303D01*
X174897646Y-107265301D01*
X174852793Y-107137118D01*
X174852792Y-107137115D01*
X174772150Y-107027849D01*
X174662884Y-106947207D01*
X174534696Y-106902353D01*
X174507151Y-106899770D01*
X174507139Y-106899769D01*
X174504266Y-106899500D01*
X173495734Y-106899500D01*
X173492861Y-106899769D01*
X173492848Y-106899770D01*
X173465303Y-106902353D01*
X173337115Y-106947207D01*
X173227849Y-107027849D01*
X173147207Y-107137115D01*
X173102353Y-107265303D01*
X173099770Y-107292848D01*
X173099769Y-107292861D01*
X173099500Y-107295734D01*
X173099500Y-107298604D01*
X173099499Y-107298626D01*
X173099500Y-108075167D01*
X173079815Y-108142206D01*
X173027011Y-108187961D01*
X172957853Y-108197905D01*
X172894297Y-108168880D01*
X172887819Y-108162848D01*
X172336819Y-107611848D01*
X172303334Y-107550525D01*
X172300500Y-107524167D01*
X172300500Y-104250000D01*
X173600001Y-104250000D01*
X173600001Y-104521829D01*
X173600321Y-104528111D01*
X173610493Y-104627695D01*
X173665642Y-104794122D01*
X173757683Y-104943345D01*
X173881654Y-105067316D01*
X174030877Y-105159357D01*
X174197303Y-105214506D01*
X174296891Y-105224680D01*
X174303167Y-105224999D01*
X174349998Y-105224999D01*
X174349999Y-105224998D01*
X174350000Y-104250000D01*
X173600001Y-104250000D01*
X172300500Y-104250000D01*
X172300500Y-103750000D01*
X173600000Y-103750000D01*
X174349999Y-103750000D01*
X174349999Y-102775000D01*
X174849999Y-102775000D01*
X174850000Y-103750000D01*
X174849999Y-105224998D01*
X174850000Y-105224999D01*
X174896829Y-105224999D01*
X174903111Y-105224678D01*
X175002695Y-105214506D01*
X175169122Y-105159357D01*
X175318345Y-105067316D01*
X175442316Y-104943345D01*
X175534357Y-104794122D01*
X175590095Y-104625919D01*
X175629868Y-104568474D01*
X175694384Y-104541651D01*
X175763159Y-104553966D01*
X175814359Y-104601509D01*
X175824843Y-104623969D01*
X175847207Y-104687884D01*
X175927849Y-104797150D01*
X176037115Y-104877792D01*
X176037118Y-104877793D01*
X176165301Y-104922646D01*
X176195734Y-104925500D01*
X176198627Y-104925500D01*
X176801373Y-104925500D01*
X176804266Y-104925500D01*
X176834699Y-104922646D01*
X176962882Y-104877793D01*
X176962882Y-104877792D01*
X176962884Y-104877792D01*
X177072148Y-104797152D01*
X177072148Y-104797150D01*
X177072150Y-104797150D01*
X177106308Y-104750866D01*
X177161956Y-104708616D01*
X177206079Y-104700500D01*
X180157265Y-104700500D01*
X180224304Y-104720185D01*
X180253118Y-104745835D01*
X180253590Y-104746410D01*
X180413550Y-104877685D01*
X180596046Y-104975232D01*
X180794066Y-105035300D01*
X181000000Y-105055583D01*
X181205934Y-105035300D01*
X181403954Y-104975232D01*
X181586450Y-104877685D01*
X181746410Y-104746410D01*
X181877685Y-104586450D01*
X181975232Y-104403954D01*
X182035300Y-104205934D01*
X182055583Y-104000000D01*
X182035300Y-103794066D01*
X181975232Y-103596046D01*
X181877685Y-103413550D01*
X181800146Y-103319068D01*
X181746410Y-103253589D01*
X181648952Y-103173608D01*
X181586450Y-103122315D01*
X181451159Y-103050000D01*
X181403956Y-103024769D01*
X181403955Y-103024768D01*
X181403954Y-103024768D01*
X181304944Y-102994733D01*
X181205932Y-102964699D01*
X181022497Y-102946632D01*
X181000000Y-102944417D01*
X180999999Y-102944417D01*
X180794067Y-102964699D01*
X180596043Y-103024769D01*
X180413551Y-103122314D01*
X180253589Y-103253590D01*
X180253119Y-103254164D01*
X180251776Y-103255078D01*
X180244148Y-103261339D01*
X180243587Y-103260656D01*
X180195373Y-103293499D01*
X180157265Y-103299500D01*
X177206079Y-103299500D01*
X177139040Y-103279815D01*
X177106308Y-103249133D01*
X177072148Y-103202847D01*
X176962884Y-103122207D01*
X176834696Y-103077353D01*
X176807151Y-103074770D01*
X176807139Y-103074769D01*
X176804266Y-103074500D01*
X176195734Y-103074500D01*
X176192861Y-103074769D01*
X176192848Y-103074770D01*
X176165303Y-103077353D01*
X176037115Y-103122207D01*
X175927849Y-103202849D01*
X175847206Y-103312117D01*
X175824841Y-103376032D01*
X175784119Y-103432808D01*
X175719166Y-103458555D01*
X175650605Y-103445098D01*
X175600202Y-103396711D01*
X175590094Y-103374081D01*
X175534357Y-103205877D01*
X175442316Y-103056654D01*
X175318345Y-102932683D01*
X175169122Y-102840642D01*
X175002696Y-102785493D01*
X174903109Y-102775319D01*
X174896832Y-102775000D01*
X174849999Y-102775000D01*
X174349999Y-102775000D01*
X174303171Y-102775000D01*
X174296888Y-102775321D01*
X174197304Y-102785493D01*
X174030877Y-102840642D01*
X173881654Y-102932683D01*
X173757683Y-103056654D01*
X173665642Y-103205877D01*
X173610493Y-103372303D01*
X173600319Y-103471890D01*
X173600000Y-103478168D01*
X173600000Y-103750000D01*
X172300500Y-103750000D01*
X172300500Y-101093491D01*
X182070500Y-101093491D01*
X182109373Y-101276382D01*
X182185427Y-101447202D01*
X182295329Y-101598469D01*
X182434284Y-101723585D01*
X182596214Y-101817075D01*
X182681803Y-101844884D01*
X182774044Y-101874855D01*
X182913380Y-101889500D01*
X182916622Y-101889500D01*
X183003378Y-101889500D01*
X183006620Y-101889500D01*
X183145956Y-101874855D01*
X183323785Y-101817075D01*
X183485715Y-101723585D01*
X183624669Y-101598470D01*
X183624670Y-101598469D01*
X183734572Y-101447202D01*
X183734573Y-101447200D01*
X183810625Y-101276385D01*
X183811618Y-101271717D01*
X183849500Y-101093491D01*
X183849500Y-100906508D01*
X183810626Y-100723617D01*
X183734572Y-100552797D01*
X183624670Y-100401530D01*
X183485715Y-100276414D01*
X183323785Y-100182924D01*
X183145957Y-100125145D01*
X183009840Y-100110838D01*
X183009831Y-100110837D01*
X183006620Y-100110500D01*
X182913380Y-100110500D01*
X182910169Y-100110837D01*
X182910159Y-100110838D01*
X182774042Y-100125145D01*
X182596214Y-100182924D01*
X182434284Y-100276414D01*
X182295329Y-100401530D01*
X182185427Y-100552797D01*
X182109373Y-100723617D01*
X182070500Y-100906508D01*
X182070500Y-101093491D01*
X172300500Y-101093491D01*
X172300500Y-99069246D01*
X172303243Y-99052425D01*
X172302772Y-99042238D01*
X172302773Y-99042236D01*
X172300632Y-98995920D01*
X172300500Y-98990195D01*
X172300500Y-98971177D01*
X172298817Y-98956680D01*
X172298196Y-98943237D01*
X172297585Y-98930009D01*
X172294786Y-98923671D01*
X172286332Y-98896367D01*
X172285061Y-98889568D01*
X172285061Y-98889567D01*
X172270997Y-98866853D01*
X172262994Y-98851669D01*
X172252206Y-98827235D01*
X172247310Y-98822339D01*
X172229563Y-98799933D01*
X172225919Y-98794048D01*
X172204602Y-98777950D01*
X172191648Y-98766677D01*
X172127898Y-98702927D01*
X172094413Y-98641604D01*
X172092640Y-98599063D01*
X172105682Y-98500000D01*
X172085044Y-98343238D01*
X172024536Y-98197159D01*
X172024535Y-98197159D01*
X171928282Y-98071717D01*
X171802840Y-97975463D01*
X171656762Y-97914956D01*
X171500000Y-97894317D01*
X171343237Y-97914956D01*
X171197159Y-97975463D01*
X171071717Y-98071717D01*
X170975463Y-98197159D01*
X170914956Y-98343237D01*
X170894317Y-98500000D01*
X170914956Y-98656762D01*
X170975463Y-98802840D01*
X171071717Y-98928282D01*
X171159866Y-98995920D01*
X171197159Y-99024536D01*
X171343238Y-99085044D01*
X171479361Y-99102964D01*
X171499999Y-99105682D01*
X171499999Y-99105681D01*
X171500000Y-99105682D01*
X171559314Y-99097873D01*
X171628350Y-99108638D01*
X171680606Y-99155018D01*
X171699500Y-99220812D01*
X171699500Y-107630756D01*
X171696756Y-107647577D01*
X171699368Y-107704078D01*
X171699500Y-107709804D01*
X171699500Y-107728818D01*
X171701181Y-107743307D01*
X171702415Y-107769993D01*
X171705213Y-107776330D01*
X171713666Y-107803626D01*
X171714938Y-107810434D01*
X171728997Y-107833140D01*
X171737002Y-107848327D01*
X171747792Y-107872763D01*
X171752688Y-107877659D01*
X171770434Y-107900063D01*
X171774081Y-107905952D01*
X171795396Y-107922048D01*
X171808351Y-107933322D01*
X173064390Y-109189361D01*
X173097875Y-109250684D01*
X173100167Y-109288613D01*
X173099500Y-109295734D01*
X173099500Y-110104266D01*
X173099769Y-110107139D01*
X173099770Y-110107151D01*
X173102353Y-110134696D01*
X173147207Y-110262884D01*
X173227849Y-110372150D01*
X173337115Y-110452792D01*
X173337118Y-110452793D01*
X173465301Y-110497646D01*
X173495734Y-110500500D01*
X173575500Y-110500500D01*
X173642539Y-110520185D01*
X173688294Y-110572989D01*
X173699500Y-110624500D01*
X173699500Y-111027404D01*
X173679815Y-111094443D01*
X173627011Y-111140198D01*
X173616455Y-111144446D01*
X173537114Y-111172208D01*
X173427849Y-111252849D01*
X173347207Y-111362115D01*
X173302353Y-111490303D01*
X173299770Y-111517848D01*
X173299769Y-111517861D01*
X173299500Y-111520734D01*
X173299500Y-112579266D01*
X173299769Y-112582139D01*
X173299770Y-112582151D01*
X173302353Y-112609696D01*
X173347207Y-112737884D01*
X173427849Y-112847150D01*
X173537115Y-112927792D01*
X173537118Y-112927793D01*
X173616454Y-112955553D01*
X173673230Y-112996274D01*
X173698978Y-113061227D01*
X173699500Y-113072595D01*
X173699500Y-114324166D01*
X173679815Y-114391205D01*
X173663181Y-114411847D01*
X171678773Y-116396254D01*
X171617450Y-116429739D01*
X171547758Y-116424755D01*
X171546298Y-116424200D01*
X171537402Y-116420753D01*
X171537401Y-116420753D01*
X171329940Y-116340382D01*
X171111243Y-116299500D01*
X170888757Y-116299500D01*
X170744739Y-116326422D01*
X170670060Y-116340382D01*
X170462595Y-116420754D01*
X170273437Y-116537875D01*
X170109019Y-116687762D01*
X169974941Y-116865311D01*
X169875769Y-117064473D01*
X169814885Y-117278462D01*
X169794357Y-117499999D01*
X168705643Y-117499999D01*
X168685115Y-117278464D01*
X168654672Y-117171467D01*
X168624230Y-117064474D01*
X168575385Y-116966381D01*
X168563124Y-116897596D01*
X168589997Y-116833101D01*
X168594750Y-116827569D01*
X168600022Y-116821784D01*
X168609916Y-116810933D01*
X168612416Y-116804476D01*
X168625745Y-116779189D01*
X168629657Y-116773480D01*
X168635773Y-116747472D01*
X168640848Y-116731083D01*
X168650500Y-116706173D01*
X168650500Y-116699246D01*
X168653794Y-116670855D01*
X168655379Y-116664118D01*
X168651689Y-116637663D01*
X168650500Y-116620533D01*
X168650500Y-106899500D01*
X168650500Y-97100828D01*
X168670184Y-97033793D01*
X168686809Y-97013161D01*
X170163518Y-95536451D01*
X170177353Y-95526498D01*
X170184225Y-95518959D01*
X170184228Y-95518958D01*
X170215488Y-95484666D01*
X170219379Y-95480590D01*
X170232174Y-95467797D01*
X170232178Y-95467790D01*
X170232868Y-95467101D01*
X170241922Y-95455671D01*
X170259914Y-95435935D01*
X170259913Y-95435935D01*
X170259916Y-95435933D01*
X170262419Y-95429470D01*
X170275743Y-95404191D01*
X170279656Y-95398481D01*
X170285770Y-95372481D01*
X170290846Y-95356089D01*
X170300500Y-95331173D01*
X170300500Y-95324248D01*
X170303794Y-95295857D01*
X170305379Y-95289119D01*
X170301689Y-95262665D01*
X170300500Y-95245535D01*
X170300500Y-94674500D01*
X170320185Y-94607461D01*
X170372989Y-94561706D01*
X170424500Y-94550500D01*
X173380757Y-94550500D01*
X173397577Y-94553243D01*
X173407762Y-94552772D01*
X173407765Y-94552773D01*
X173454080Y-94550631D01*
X173459805Y-94550500D01*
X173478824Y-94550500D01*
X173493318Y-94548817D01*
X173519992Y-94547585D01*
X173525408Y-94545193D01*
X173594686Y-94536118D01*
X173657873Y-94565939D01*
X173694906Y-94625186D01*
X173699500Y-94658625D01*
X173699500Y-95077404D01*
X173679815Y-95144443D01*
X173627011Y-95190198D01*
X173616457Y-95194445D01*
X173603329Y-95199039D01*
X173537114Y-95222208D01*
X173427849Y-95302849D01*
X173347207Y-95412115D01*
X173302353Y-95540303D01*
X173299770Y-95567848D01*
X173299769Y-95567861D01*
X173299500Y-95570734D01*
X173299500Y-96629266D01*
X173299769Y-96632139D01*
X173299770Y-96632151D01*
X173302353Y-96659696D01*
X173302353Y-96659698D01*
X173302354Y-96659699D01*
X173304976Y-96667192D01*
X173347207Y-96787884D01*
X173427849Y-96897150D01*
X173537115Y-96977792D01*
X173537118Y-96977793D01*
X173665301Y-97022646D01*
X173695734Y-97025500D01*
X173698627Y-97025500D01*
X174301373Y-97025500D01*
X174304266Y-97025500D01*
X174334699Y-97022646D01*
X174462882Y-96977793D01*
X174462882Y-96977792D01*
X174462884Y-96977792D01*
X174572150Y-96897150D01*
X174652791Y-96787885D01*
X174652791Y-96787884D01*
X174652793Y-96787882D01*
X174675157Y-96723966D01*
X174715878Y-96667192D01*
X174780831Y-96641444D01*
X174849393Y-96654900D01*
X174899796Y-96703287D01*
X174909905Y-96725918D01*
X174965642Y-96894122D01*
X175057683Y-97043345D01*
X175181654Y-97167316D01*
X175330877Y-97259357D01*
X175497303Y-97314506D01*
X175596891Y-97324680D01*
X175603167Y-97324999D01*
X175649999Y-97324999D01*
X175650000Y-97324998D01*
X175650000Y-96350000D01*
X176150000Y-96350000D01*
X176150000Y-97324999D01*
X176196829Y-97324999D01*
X176203111Y-97324678D01*
X176302695Y-97314506D01*
X176469122Y-97259357D01*
X176618345Y-97167316D01*
X176692170Y-97093491D01*
X182070500Y-97093491D01*
X182109373Y-97276382D01*
X182185427Y-97447202D01*
X182295329Y-97598469D01*
X182434284Y-97723585D01*
X182596214Y-97817075D01*
X182681803Y-97844884D01*
X182774044Y-97874855D01*
X182913380Y-97889500D01*
X182916622Y-97889500D01*
X183003378Y-97889500D01*
X183006620Y-97889500D01*
X183145956Y-97874855D01*
X183323785Y-97817075D01*
X183485715Y-97723585D01*
X183624669Y-97598470D01*
X183624670Y-97598469D01*
X183734572Y-97447202D01*
X183784833Y-97334315D01*
X183810625Y-97276385D01*
X183814245Y-97259357D01*
X183849500Y-97093491D01*
X183849500Y-96906508D01*
X183810626Y-96723617D01*
X183734572Y-96552797D01*
X183624670Y-96401530D01*
X183485715Y-96276414D01*
X183323785Y-96182924D01*
X183145957Y-96125145D01*
X183009840Y-96110838D01*
X183009831Y-96110837D01*
X183006620Y-96110500D01*
X182913380Y-96110500D01*
X182910169Y-96110837D01*
X182910159Y-96110838D01*
X182774042Y-96125145D01*
X182596214Y-96182924D01*
X182434284Y-96276414D01*
X182295329Y-96401530D01*
X182185427Y-96552797D01*
X182109373Y-96723617D01*
X182070500Y-96906508D01*
X182070500Y-97093491D01*
X176692170Y-97093491D01*
X176742316Y-97043345D01*
X176834357Y-96894122D01*
X176889506Y-96727696D01*
X176899680Y-96628109D01*
X176900000Y-96621831D01*
X176900000Y-96350000D01*
X176150000Y-96350000D01*
X175650000Y-96350000D01*
X175650000Y-95974000D01*
X175669685Y-95906961D01*
X175722489Y-95861206D01*
X175774000Y-95850000D01*
X176899999Y-95850000D01*
X176899999Y-95578170D01*
X176899678Y-95571888D01*
X176889506Y-95472304D01*
X176834357Y-95305877D01*
X176742316Y-95156654D01*
X176618345Y-95032683D01*
X176456787Y-94933034D01*
X176458423Y-94930380D01*
X176419584Y-94903488D01*
X176392763Y-94838972D01*
X176405079Y-94770196D01*
X176452624Y-94718997D01*
X176475074Y-94708518D01*
X176562882Y-94677793D01*
X176672150Y-94597150D01*
X176706579Y-94550500D01*
X176752791Y-94487885D01*
X176752791Y-94487884D01*
X176752793Y-94487882D01*
X176789302Y-94383544D01*
X176830022Y-94326770D01*
X176894975Y-94301022D01*
X176906343Y-94300500D01*
X179901421Y-94300500D01*
X179968460Y-94320185D01*
X180014215Y-94372989D01*
X180020081Y-94388503D01*
X180024768Y-94403954D01*
X180122315Y-94586450D01*
X180153542Y-94624500D01*
X180253589Y-94746410D01*
X180310408Y-94793039D01*
X180413550Y-94877685D01*
X180596046Y-94975232D01*
X180794066Y-95035300D01*
X181000000Y-95055583D01*
X181205934Y-95035300D01*
X181403954Y-94975232D01*
X181586450Y-94877685D01*
X181746410Y-94746410D01*
X181877685Y-94586450D01*
X181975232Y-94403954D01*
X182035300Y-94205934D01*
X182055583Y-94000000D01*
X182035300Y-93794066D01*
X181975232Y-93596046D01*
X181877685Y-93413550D01*
X181783370Y-93298626D01*
X181746410Y-93253589D01*
X181625519Y-93154378D01*
X181586450Y-93122315D01*
X181423177Y-93035043D01*
X181403956Y-93024769D01*
X181403955Y-93024768D01*
X181403954Y-93024768D01*
X181242919Y-92975919D01*
X181205932Y-92964699D01*
X181000000Y-92944417D01*
X180794067Y-92964699D01*
X180596043Y-93024769D01*
X180413551Y-93122314D01*
X180253589Y-93253589D01*
X180122314Y-93413551D01*
X180024768Y-93596046D01*
X180020081Y-93611497D01*
X179981783Y-93669935D01*
X179917970Y-93698391D01*
X179901421Y-93699500D01*
X176906343Y-93699500D01*
X176839304Y-93679815D01*
X176793549Y-93627011D01*
X176789305Y-93616465D01*
X176752793Y-93512118D01*
X176752791Y-93512115D01*
X176752791Y-93512114D01*
X176672150Y-93402849D01*
X176562884Y-93322207D01*
X176434696Y-93277353D01*
X176407151Y-93274770D01*
X176407139Y-93274769D01*
X176404266Y-93274500D01*
X175595734Y-93274500D01*
X175592861Y-93274769D01*
X175592848Y-93274770D01*
X175565303Y-93277353D01*
X175437115Y-93322207D01*
X175327849Y-93402849D01*
X175247207Y-93512115D01*
X175202353Y-93640303D01*
X175199770Y-93667848D01*
X175199769Y-93667861D01*
X175199500Y-93670734D01*
X175199500Y-94329266D01*
X175199769Y-94332139D01*
X175199770Y-94332151D01*
X175202353Y-94359696D01*
X175247207Y-94487884D01*
X175327849Y-94597150D01*
X175452155Y-94688892D01*
X175450626Y-94690963D01*
X175484413Y-94715194D01*
X175510162Y-94780146D01*
X175496709Y-94848708D01*
X175448324Y-94899113D01*
X175425690Y-94909224D01*
X175330876Y-94940642D01*
X175181654Y-95032683D01*
X175057683Y-95156654D01*
X174965642Y-95305876D01*
X174909904Y-95474081D01*
X174870131Y-95531525D01*
X174805615Y-95558348D01*
X174736839Y-95546033D01*
X174685639Y-95498489D01*
X174675156Y-95476029D01*
X174674474Y-95474081D01*
X174652793Y-95412118D01*
X174652792Y-95412115D01*
X174572150Y-95302849D01*
X174462885Y-95222208D01*
X174396671Y-95199039D01*
X174383544Y-95194445D01*
X174326769Y-95153724D01*
X174301022Y-95088771D01*
X174300500Y-95077404D01*
X174300500Y-94624500D01*
X174320185Y-94557461D01*
X174372989Y-94511706D01*
X174424500Y-94500500D01*
X174501373Y-94500500D01*
X174504266Y-94500500D01*
X174534699Y-94497646D01*
X174662882Y-94452793D01*
X174662882Y-94452792D01*
X174662884Y-94452792D01*
X174772150Y-94372150D01*
X174852792Y-94262884D01*
X174852793Y-94262882D01*
X174897646Y-94134699D01*
X174900500Y-94104266D01*
X174900500Y-93295734D01*
X174897646Y-93265301D01*
X174852793Y-93137118D01*
X174852792Y-93137115D01*
X174772150Y-93027849D01*
X174662884Y-92947207D01*
X174534696Y-92902353D01*
X174507151Y-92899770D01*
X174507139Y-92899769D01*
X174504266Y-92899500D01*
X173495734Y-92899500D01*
X173492861Y-92899769D01*
X173492848Y-92899770D01*
X173465303Y-92902353D01*
X173337115Y-92947207D01*
X173227849Y-93027849D01*
X173147207Y-93137115D01*
X173102353Y-93265303D01*
X173099770Y-93292848D01*
X173099769Y-93292861D01*
X173099500Y-93295734D01*
X173099500Y-93298625D01*
X173099500Y-93298626D01*
X173099500Y-93825500D01*
X173079815Y-93892539D01*
X173027011Y-93938294D01*
X172975500Y-93949500D01*
X170175833Y-93949500D01*
X170108794Y-93929815D01*
X170088152Y-93913181D01*
X169811450Y-93636479D01*
X169801496Y-93622644D01*
X169790959Y-93613038D01*
X169754680Y-93553326D01*
X169750500Y-93521403D01*
X169750500Y-93505249D01*
X169734376Y-93424190D01*
X169734376Y-93375807D01*
X169742722Y-93333853D01*
X169750500Y-93294748D01*
X169750500Y-92705252D01*
X169750500Y-92705249D01*
X169734376Y-92624190D01*
X169734376Y-92575807D01*
X169750500Y-92494748D01*
X169750500Y-92200000D01*
X170494317Y-92200000D01*
X170514956Y-92356762D01*
X170575463Y-92502840D01*
X170671717Y-92628282D01*
X170776835Y-92708941D01*
X170797159Y-92724536D01*
X170943238Y-92785044D01*
X171100000Y-92805682D01*
X171256762Y-92785044D01*
X171402841Y-92724536D01*
X171528282Y-92628282D01*
X171624536Y-92502841D01*
X171685044Y-92356762D01*
X171705682Y-92200000D01*
X171693078Y-92104266D01*
X173099500Y-92104266D01*
X173099769Y-92107139D01*
X173099770Y-92107151D01*
X173102353Y-92134696D01*
X173147207Y-92262884D01*
X173227849Y-92372150D01*
X173337115Y-92452792D01*
X173337118Y-92452793D01*
X173465301Y-92497646D01*
X173495734Y-92500500D01*
X173498627Y-92500500D01*
X174501373Y-92500500D01*
X174504266Y-92500500D01*
X174534699Y-92497646D01*
X174662882Y-92452793D01*
X174662882Y-92452792D01*
X174662884Y-92452792D01*
X174772150Y-92372150D01*
X174852792Y-92262884D01*
X174852793Y-92262882D01*
X174897646Y-92134699D01*
X174899688Y-92112923D01*
X174925545Y-92048015D01*
X174982390Y-92007389D01*
X175023146Y-92000500D01*
X175093657Y-92000500D01*
X175160696Y-92020185D01*
X175206451Y-92072989D01*
X175210694Y-92083534D01*
X175238097Y-92161846D01*
X175247208Y-92187885D01*
X175327849Y-92297150D01*
X175437115Y-92377792D01*
X175437118Y-92377793D01*
X175565301Y-92422646D01*
X175595734Y-92425500D01*
X175598627Y-92425500D01*
X176401373Y-92425500D01*
X176404266Y-92425500D01*
X176434699Y-92422646D01*
X176562882Y-92377793D01*
X176562882Y-92377792D01*
X176562884Y-92377792D01*
X176672150Y-92297150D01*
X176752792Y-92187884D01*
X176757790Y-92173600D01*
X176797646Y-92059699D01*
X176800500Y-92029266D01*
X176800500Y-91370734D01*
X176797646Y-91340301D01*
X176752793Y-91212118D01*
X176752792Y-91212115D01*
X176672150Y-91102849D01*
X176562884Y-91022207D01*
X176499416Y-90999999D01*
X179644842Y-90999999D01*
X179665430Y-91235318D01*
X179726569Y-91463492D01*
X179826400Y-91677580D01*
X179885073Y-91761373D01*
X180508866Y-91137580D01*
X180531318Y-91214040D01*
X180610605Y-91337413D01*
X180721438Y-91433451D01*
X180854839Y-91494373D01*
X180858633Y-91494918D01*
X180238625Y-92114925D01*
X180322420Y-92173599D01*
X180536507Y-92273430D01*
X180764681Y-92334569D01*
X181000000Y-92355157D01*
X181235318Y-92334569D01*
X181463492Y-92273430D01*
X181677576Y-92173600D01*
X181761373Y-92114925D01*
X181141365Y-91494918D01*
X181145161Y-91494373D01*
X181278562Y-91433451D01*
X181389395Y-91337413D01*
X181468682Y-91214040D01*
X181491133Y-91137580D01*
X182114925Y-91761373D01*
X182173600Y-91677576D01*
X182273430Y-91463492D01*
X182334569Y-91235318D01*
X182355157Y-90999999D01*
X182334569Y-90764681D01*
X182273430Y-90536507D01*
X182173599Y-90322421D01*
X182114926Y-90238626D01*
X182114925Y-90238625D01*
X181491132Y-90862418D01*
X181468682Y-90785960D01*
X181389395Y-90662587D01*
X181278562Y-90566549D01*
X181145161Y-90505627D01*
X181141364Y-90505081D01*
X181761373Y-89885073D01*
X181761373Y-89885072D01*
X181677580Y-89826400D01*
X181463492Y-89726569D01*
X181235318Y-89665430D01*
X181000000Y-89644842D01*
X180764681Y-89665430D01*
X180536507Y-89726569D01*
X180322422Y-89826399D01*
X180238625Y-89885072D01*
X180238625Y-89885073D01*
X180858632Y-90505081D01*
X180854839Y-90505627D01*
X180721438Y-90566549D01*
X180610605Y-90662587D01*
X180531318Y-90785960D01*
X180508867Y-90862419D01*
X179885073Y-90238625D01*
X179885072Y-90238625D01*
X179826399Y-90322422D01*
X179726569Y-90536507D01*
X179665430Y-90764681D01*
X179644842Y-90999999D01*
X176499416Y-90999999D01*
X176434696Y-90977353D01*
X176407151Y-90974770D01*
X176407139Y-90974769D01*
X176404266Y-90974500D01*
X175595734Y-90974500D01*
X175592861Y-90974769D01*
X175592848Y-90974770D01*
X175565303Y-90977353D01*
X175437115Y-91022207D01*
X175327849Y-91102849D01*
X175247208Y-91212114D01*
X175247207Y-91212118D01*
X175210697Y-91316455D01*
X175169978Y-91373230D01*
X175105025Y-91398978D01*
X175093657Y-91399500D01*
X175023146Y-91399500D01*
X174956107Y-91379815D01*
X174910352Y-91327011D01*
X174899688Y-91287076D01*
X174897646Y-91265303D01*
X174897646Y-91265301D01*
X174852793Y-91137118D01*
X174852792Y-91137115D01*
X174772150Y-91027849D01*
X174662884Y-90947207D01*
X174534696Y-90902353D01*
X174507151Y-90899770D01*
X174507139Y-90899769D01*
X174504266Y-90899500D01*
X173495734Y-90899500D01*
X173492861Y-90899769D01*
X173492848Y-90899770D01*
X173465303Y-90902353D01*
X173337115Y-90947207D01*
X173227849Y-91027849D01*
X173147207Y-91137115D01*
X173102353Y-91265303D01*
X173099770Y-91292848D01*
X173099769Y-91292861D01*
X173099500Y-91295734D01*
X173099500Y-92104266D01*
X171693078Y-92104266D01*
X171685044Y-92043238D01*
X171624536Y-91897159D01*
X171599826Y-91864956D01*
X171528282Y-91771717D01*
X171449014Y-91710893D01*
X171407811Y-91654465D01*
X171400500Y-91612517D01*
X171400500Y-88250000D01*
X173600001Y-88250000D01*
X173600001Y-88521829D01*
X173600321Y-88528111D01*
X173610493Y-88627695D01*
X173665642Y-88794122D01*
X173757683Y-88943345D01*
X173881654Y-89067316D01*
X174030877Y-89159357D01*
X174197303Y-89214506D01*
X174296891Y-89224680D01*
X174303167Y-89224999D01*
X174349998Y-89224999D01*
X174349999Y-89224998D01*
X174350000Y-88250000D01*
X173600001Y-88250000D01*
X171400500Y-88250000D01*
X171400500Y-87750000D01*
X173600000Y-87750000D01*
X174349999Y-87750000D01*
X174349999Y-86775000D01*
X174849999Y-86775000D01*
X174850000Y-87750000D01*
X174849999Y-89224998D01*
X174850000Y-89224999D01*
X174896829Y-89224999D01*
X174903111Y-89224678D01*
X175002695Y-89214506D01*
X175169122Y-89159357D01*
X175318345Y-89067316D01*
X175442316Y-88943345D01*
X175534357Y-88794122D01*
X175590095Y-88625919D01*
X175629868Y-88568474D01*
X175694384Y-88541651D01*
X175763159Y-88553966D01*
X175814359Y-88601509D01*
X175824843Y-88623969D01*
X175847207Y-88687884D01*
X175927849Y-88797150D01*
X176037115Y-88877792D01*
X176037118Y-88877793D01*
X176165301Y-88922646D01*
X176195734Y-88925500D01*
X176198627Y-88925500D01*
X176801373Y-88925500D01*
X176804266Y-88925500D01*
X176834699Y-88922646D01*
X176962882Y-88877793D01*
X176962882Y-88877792D01*
X176962884Y-88877792D01*
X177072148Y-88797152D01*
X177072148Y-88797150D01*
X177072150Y-88797150D01*
X177106308Y-88750866D01*
X177161956Y-88708616D01*
X177206079Y-88700500D01*
X180157265Y-88700500D01*
X180224304Y-88720185D01*
X180253118Y-88745835D01*
X180253590Y-88746410D01*
X180413550Y-88877685D01*
X180596046Y-88975232D01*
X180794066Y-89035300D01*
X181000000Y-89055583D01*
X181205934Y-89035300D01*
X181403954Y-88975232D01*
X181586450Y-88877685D01*
X181746410Y-88746410D01*
X181877685Y-88586450D01*
X181975232Y-88403954D01*
X182035300Y-88205934D01*
X182055583Y-88000000D01*
X182035300Y-87794066D01*
X181975232Y-87596046D01*
X181877685Y-87413550D01*
X181812047Y-87333570D01*
X181746410Y-87253589D01*
X181620184Y-87150000D01*
X181586450Y-87122315D01*
X181403954Y-87024768D01*
X181257846Y-86980447D01*
X181205932Y-86964699D01*
X181022497Y-86946632D01*
X181000000Y-86944417D01*
X180999999Y-86944417D01*
X180794067Y-86964699D01*
X180596043Y-87024769D01*
X180413551Y-87122314D01*
X180253589Y-87253590D01*
X180253119Y-87254164D01*
X180251776Y-87255078D01*
X180244148Y-87261339D01*
X180243587Y-87260656D01*
X180195373Y-87293499D01*
X180157265Y-87299500D01*
X177206079Y-87299500D01*
X177139040Y-87279815D01*
X177106308Y-87249133D01*
X177072148Y-87202847D01*
X176962884Y-87122207D01*
X176834696Y-87077353D01*
X176807151Y-87074770D01*
X176807139Y-87074769D01*
X176804266Y-87074500D01*
X176195734Y-87074500D01*
X176192861Y-87074769D01*
X176192848Y-87074770D01*
X176165303Y-87077353D01*
X176037115Y-87122207D01*
X175927849Y-87202849D01*
X175847206Y-87312117D01*
X175824841Y-87376032D01*
X175784119Y-87432808D01*
X175719166Y-87458555D01*
X175650605Y-87445098D01*
X175600202Y-87396711D01*
X175590094Y-87374081D01*
X175534357Y-87205877D01*
X175442316Y-87056654D01*
X175318345Y-86932683D01*
X175169122Y-86840642D01*
X175002696Y-86785493D01*
X174903109Y-86775319D01*
X174896832Y-86775000D01*
X174849999Y-86775000D01*
X174349999Y-86775000D01*
X174303171Y-86775000D01*
X174296888Y-86775321D01*
X174197304Y-86785493D01*
X174030877Y-86840642D01*
X173881654Y-86932683D01*
X173757683Y-87056654D01*
X173665642Y-87205877D01*
X173610493Y-87372303D01*
X173600319Y-87471890D01*
X173600000Y-87478168D01*
X173600000Y-87750000D01*
X171400500Y-87750000D01*
X171400500Y-85093491D01*
X182070500Y-85093491D01*
X182109373Y-85276382D01*
X182185427Y-85447202D01*
X182295329Y-85598469D01*
X182434284Y-85723585D01*
X182596214Y-85817075D01*
X182650447Y-85834696D01*
X182774044Y-85874855D01*
X182913380Y-85889500D01*
X182916622Y-85889500D01*
X183003378Y-85889500D01*
X183006620Y-85889500D01*
X183145956Y-85874855D01*
X183323785Y-85817075D01*
X183485715Y-85723585D01*
X183624669Y-85598470D01*
X183734573Y-85447200D01*
X183810625Y-85276385D01*
X183812445Y-85267826D01*
X183849500Y-85093491D01*
X183849500Y-84906508D01*
X183810626Y-84723617D01*
X183734572Y-84552797D01*
X183624670Y-84401530D01*
X183485715Y-84276414D01*
X183323785Y-84182924D01*
X183145957Y-84125145D01*
X183009840Y-84110838D01*
X183009831Y-84110837D01*
X183006620Y-84110500D01*
X182913380Y-84110500D01*
X182910169Y-84110837D01*
X182910159Y-84110838D01*
X182774042Y-84125145D01*
X182596214Y-84182924D01*
X182434284Y-84276414D01*
X182295329Y-84401530D01*
X182185427Y-84552797D01*
X182109373Y-84723617D01*
X182070500Y-84906508D01*
X182070500Y-85093491D01*
X171400500Y-85093491D01*
X171400500Y-83175832D01*
X171420185Y-83108793D01*
X171436814Y-83088156D01*
X173489478Y-81035491D01*
X173550799Y-81002008D01*
X173618109Y-81006132D01*
X173665301Y-81022646D01*
X173695734Y-81025500D01*
X173698627Y-81025500D01*
X174301373Y-81025500D01*
X174304266Y-81025500D01*
X174334699Y-81022646D01*
X174462882Y-80977793D01*
X174462882Y-80977792D01*
X174462884Y-80977792D01*
X174572150Y-80897150D01*
X174652791Y-80787885D01*
X174652791Y-80787884D01*
X174652793Y-80787882D01*
X174675157Y-80723966D01*
X174715878Y-80667192D01*
X174780831Y-80641444D01*
X174849393Y-80654900D01*
X174899796Y-80703287D01*
X174909905Y-80725918D01*
X174965642Y-80894122D01*
X175057683Y-81043345D01*
X175181654Y-81167316D01*
X175330877Y-81259357D01*
X175497303Y-81314506D01*
X175596891Y-81324680D01*
X175603167Y-81324999D01*
X175649999Y-81324999D01*
X175650000Y-81324998D01*
X175650000Y-80350000D01*
X176150000Y-80350000D01*
X176150000Y-81324999D01*
X176196829Y-81324999D01*
X176203111Y-81324678D01*
X176302695Y-81314506D01*
X176469122Y-81259357D01*
X176618345Y-81167316D01*
X176692170Y-81093491D01*
X182070500Y-81093491D01*
X182109373Y-81276382D01*
X182185427Y-81447202D01*
X182295329Y-81598469D01*
X182434284Y-81723585D01*
X182596214Y-81817075D01*
X182681803Y-81844884D01*
X182774044Y-81874855D01*
X182913380Y-81889500D01*
X182916622Y-81889500D01*
X183003378Y-81889500D01*
X183006620Y-81889500D01*
X183145956Y-81874855D01*
X183323785Y-81817075D01*
X183485715Y-81723585D01*
X183624669Y-81598470D01*
X183734573Y-81447200D01*
X183810625Y-81276385D01*
X183814245Y-81259357D01*
X183849500Y-81093491D01*
X183849500Y-80906508D01*
X183810626Y-80723617D01*
X183734572Y-80552797D01*
X183624670Y-80401530D01*
X183485715Y-80276414D01*
X183323785Y-80182924D01*
X183145957Y-80125145D01*
X183009840Y-80110838D01*
X183009831Y-80110837D01*
X183006620Y-80110500D01*
X182913380Y-80110500D01*
X182910169Y-80110837D01*
X182910159Y-80110838D01*
X182774042Y-80125145D01*
X182596214Y-80182924D01*
X182434284Y-80276414D01*
X182295329Y-80401530D01*
X182185427Y-80552797D01*
X182109373Y-80723617D01*
X182070500Y-80906508D01*
X182070500Y-81093491D01*
X176692170Y-81093491D01*
X176742316Y-81043345D01*
X176834357Y-80894122D01*
X176889506Y-80727696D01*
X176899680Y-80628109D01*
X176900000Y-80621831D01*
X176900000Y-80350000D01*
X176150000Y-80350000D01*
X175650000Y-80350000D01*
X175650000Y-79974000D01*
X175669685Y-79906961D01*
X175722489Y-79861206D01*
X175774000Y-79850000D01*
X176899999Y-79850000D01*
X176899999Y-79578170D01*
X176899678Y-79571888D01*
X176889506Y-79472304D01*
X176834357Y-79305877D01*
X176742316Y-79156654D01*
X176618345Y-79032683D01*
X176456787Y-78933034D01*
X176458423Y-78930380D01*
X176419584Y-78903488D01*
X176392763Y-78838972D01*
X176405079Y-78770196D01*
X176452624Y-78718997D01*
X176475074Y-78708518D01*
X176562882Y-78677793D01*
X176672150Y-78597150D01*
X176701442Y-78557461D01*
X176752791Y-78487885D01*
X176752791Y-78487884D01*
X176752793Y-78487882D01*
X176789302Y-78383544D01*
X176830022Y-78326770D01*
X176894975Y-78301022D01*
X176906343Y-78300500D01*
X179901421Y-78300500D01*
X179968460Y-78320185D01*
X180014215Y-78372989D01*
X180020081Y-78388503D01*
X180024768Y-78403954D01*
X180122315Y-78586450D01*
X180153542Y-78624500D01*
X180253589Y-78746410D01*
X180333569Y-78812047D01*
X180413550Y-78877685D01*
X180596046Y-78975232D01*
X180794066Y-79035300D01*
X181000000Y-79055583D01*
X181205934Y-79035300D01*
X181403954Y-78975232D01*
X181586450Y-78877685D01*
X181746410Y-78746410D01*
X181877685Y-78586450D01*
X181975232Y-78403954D01*
X182035300Y-78205934D01*
X182055583Y-78000000D01*
X182035300Y-77794066D01*
X181975232Y-77596046D01*
X181877685Y-77413550D01*
X181783370Y-77298626D01*
X181746410Y-77253589D01*
X181648952Y-77173608D01*
X181586450Y-77122315D01*
X181403954Y-77024768D01*
X181304944Y-76994733D01*
X181205932Y-76964699D01*
X181000000Y-76944417D01*
X180794067Y-76964699D01*
X180596043Y-77024769D01*
X180413551Y-77122314D01*
X180253589Y-77253589D01*
X180122314Y-77413551D01*
X180024768Y-77596046D01*
X180020081Y-77611497D01*
X179981783Y-77669935D01*
X179917970Y-77698391D01*
X179901421Y-77699500D01*
X176906343Y-77699500D01*
X176839304Y-77679815D01*
X176793549Y-77627011D01*
X176789305Y-77616465D01*
X176752793Y-77512118D01*
X176752791Y-77512115D01*
X176752791Y-77512114D01*
X176672150Y-77402849D01*
X176562884Y-77322207D01*
X176434696Y-77277353D01*
X176407151Y-77274770D01*
X176407139Y-77274769D01*
X176404266Y-77274500D01*
X175595734Y-77274500D01*
X175592861Y-77274769D01*
X175592848Y-77274770D01*
X175565303Y-77277353D01*
X175437115Y-77322207D01*
X175327849Y-77402849D01*
X175247207Y-77512115D01*
X175202353Y-77640303D01*
X175199770Y-77667848D01*
X175199769Y-77667861D01*
X175199500Y-77670734D01*
X175199500Y-78329266D01*
X175199769Y-78332139D01*
X175199770Y-78332151D01*
X175202353Y-78359696D01*
X175247207Y-78487884D01*
X175327849Y-78597150D01*
X175452155Y-78688892D01*
X175450626Y-78690963D01*
X175484413Y-78715194D01*
X175510162Y-78780146D01*
X175496709Y-78848708D01*
X175448324Y-78899113D01*
X175425690Y-78909224D01*
X175330876Y-78940642D01*
X175181654Y-79032683D01*
X175057683Y-79156654D01*
X174965642Y-79305876D01*
X174909904Y-79474081D01*
X174870131Y-79531525D01*
X174805615Y-79558348D01*
X174736839Y-79546033D01*
X174685639Y-79498489D01*
X174675156Y-79476029D01*
X174674474Y-79474081D01*
X174652793Y-79412118D01*
X174652792Y-79412115D01*
X174572150Y-79302849D01*
X174462885Y-79222208D01*
X174383545Y-79194446D01*
X174326769Y-79153724D01*
X174301022Y-79088771D01*
X174300500Y-79077404D01*
X174300500Y-78624500D01*
X174320185Y-78557461D01*
X174372989Y-78511706D01*
X174424500Y-78500500D01*
X174501373Y-78500500D01*
X174504266Y-78500500D01*
X174534699Y-78497646D01*
X174662882Y-78452793D01*
X174662882Y-78452792D01*
X174662884Y-78452792D01*
X174772150Y-78372150D01*
X174852792Y-78262884D01*
X174852793Y-78262882D01*
X174897646Y-78134699D01*
X174900500Y-78104266D01*
X174900500Y-77295734D01*
X174897646Y-77265301D01*
X174852793Y-77137118D01*
X174852792Y-77137115D01*
X174772150Y-77027849D01*
X174662884Y-76947207D01*
X174534696Y-76902353D01*
X174507151Y-76899770D01*
X174507139Y-76899769D01*
X174504266Y-76899500D01*
X173495734Y-76899500D01*
X173492861Y-76899769D01*
X173492848Y-76899770D01*
X173465303Y-76902353D01*
X173337115Y-76947207D01*
X173227849Y-77027849D01*
X173147207Y-77137115D01*
X173102353Y-77265303D01*
X173099770Y-77292848D01*
X173099769Y-77292861D01*
X173099500Y-77295734D01*
X173099500Y-78104266D01*
X173099769Y-78107139D01*
X173099770Y-78107151D01*
X173102353Y-78134696D01*
X173147207Y-78262884D01*
X173227849Y-78372150D01*
X173337115Y-78452792D01*
X173337118Y-78452793D01*
X173465301Y-78497646D01*
X173495734Y-78500500D01*
X173575500Y-78500500D01*
X173642539Y-78520185D01*
X173688294Y-78572989D01*
X173699500Y-78624500D01*
X173699500Y-79077404D01*
X173679815Y-79144443D01*
X173627011Y-79190198D01*
X173616455Y-79194446D01*
X173537114Y-79222208D01*
X173427849Y-79302849D01*
X173347207Y-79412115D01*
X173302353Y-79540303D01*
X173299770Y-79567848D01*
X173299769Y-79567861D01*
X173299500Y-79570734D01*
X173299500Y-79573626D01*
X173299500Y-80324165D01*
X173279815Y-80391204D01*
X173263181Y-80411846D01*
X170936475Y-82738552D01*
X170922639Y-82748508D01*
X170884523Y-82790318D01*
X170880573Y-82794454D01*
X170867141Y-82807886D01*
X170858087Y-82819317D01*
X170840083Y-82839067D01*
X170837578Y-82845534D01*
X170824259Y-82870802D01*
X170820343Y-82876518D01*
X170814228Y-82902517D01*
X170809151Y-82918913D01*
X170799500Y-82943826D01*
X170799500Y-82950752D01*
X170796206Y-82979142D01*
X170794621Y-82985880D01*
X170798311Y-83012333D01*
X170799500Y-83029464D01*
X170799500Y-91612517D01*
X170779815Y-91679556D01*
X170750986Y-91710893D01*
X170671717Y-91771717D01*
X170575463Y-91897159D01*
X170514956Y-92043237D01*
X170494317Y-92200000D01*
X169750500Y-92200000D01*
X169750500Y-91905249D01*
X169734376Y-91824190D01*
X169734376Y-91775807D01*
X169747289Y-91710893D01*
X169750500Y-91694748D01*
X169750500Y-91105252D01*
X169750500Y-91105251D01*
X169750500Y-91105249D01*
X169734376Y-91024190D01*
X169734376Y-90975807D01*
X169750500Y-90894748D01*
X169750500Y-90305249D01*
X169734376Y-90224190D01*
X169734376Y-90175807D01*
X169750500Y-90094748D01*
X169750500Y-89505249D01*
X169734376Y-89424190D01*
X169734376Y-89375807D01*
X169739250Y-89351308D01*
X169750500Y-89294748D01*
X169750500Y-89011554D01*
X169770185Y-88944516D01*
X169800190Y-88912288D01*
X169907187Y-88832190D01*
X169993352Y-88717089D01*
X170043599Y-88582371D01*
X170049645Y-88526132D01*
X170050000Y-88519518D01*
X170050000Y-88450000D01*
X167250000Y-88450000D01*
X167250000Y-88519518D01*
X167250354Y-88526130D01*
X167254237Y-88562244D01*
X167241832Y-88631004D01*
X167194222Y-88682141D01*
X167130948Y-88699500D01*
X167087482Y-88699500D01*
X167020443Y-88679815D01*
X166989106Y-88650986D01*
X166973773Y-88631004D01*
X166928282Y-88571718D01*
X166924055Y-88568474D01*
X166802840Y-88475463D01*
X166656762Y-88414956D01*
X166500000Y-88394317D01*
X166343237Y-88414956D01*
X166197159Y-88475463D01*
X166071717Y-88571717D01*
X165975463Y-88697159D01*
X165914956Y-88843237D01*
X165894317Y-89000000D01*
X165914956Y-89156762D01*
X165975463Y-89302840D01*
X166068826Y-89424514D01*
X166094020Y-89489683D01*
X166079981Y-89558128D01*
X166068826Y-89575486D01*
X165975463Y-89697159D01*
X165914956Y-89843237D01*
X165894317Y-90000000D01*
X165914956Y-90156762D01*
X165975463Y-90302840D01*
X166071717Y-90428282D01*
X166166405Y-90500938D01*
X166197159Y-90524536D01*
X166343238Y-90585044D01*
X166500000Y-90605682D01*
X166656762Y-90585044D01*
X166802841Y-90524536D01*
X166928282Y-90428282D01*
X167024536Y-90302841D01*
X167076641Y-90177047D01*
X167120482Y-90122644D01*
X167186776Y-90100579D01*
X167191202Y-90100500D01*
X167439134Y-90100500D01*
X167506173Y-90120185D01*
X167551928Y-90172989D01*
X167561872Y-90242147D01*
X167560754Y-90248673D01*
X167552662Y-90289353D01*
X167549500Y-90305251D01*
X167549500Y-90894748D01*
X167565624Y-90975807D01*
X167565624Y-91024190D01*
X167549500Y-91105249D01*
X167549500Y-91105251D01*
X167549500Y-91105252D01*
X167549500Y-91694748D01*
X167552711Y-91710893D01*
X167565624Y-91775807D01*
X167565624Y-91824190D01*
X167549500Y-91905249D01*
X167549500Y-92074165D01*
X167529815Y-92141204D01*
X167513181Y-92161846D01*
X166355475Y-93319552D01*
X166341639Y-93329508D01*
X166303523Y-93371318D01*
X166299573Y-93375454D01*
X166286141Y-93388886D01*
X166277087Y-93400317D01*
X166259083Y-93420067D01*
X166256578Y-93426534D01*
X166243259Y-93451802D01*
X166239343Y-93457518D01*
X166233228Y-93483517D01*
X166228151Y-93499913D01*
X166218499Y-93524828D01*
X166218499Y-93531756D01*
X166215206Y-93560138D01*
X166213620Y-93566878D01*
X166217311Y-93593333D01*
X166218500Y-93610464D01*
X166218500Y-101255166D01*
X166198815Y-101322205D01*
X166182181Y-101342847D01*
X165102926Y-102422101D01*
X165041603Y-102455586D01*
X164999060Y-102457359D01*
X164900000Y-102444317D01*
X164743237Y-102464956D01*
X164597159Y-102525463D01*
X164471717Y-102621717D01*
X164375463Y-102747159D01*
X164314956Y-102893237D01*
X164294317Y-103049999D01*
X164314956Y-103206762D01*
X164375463Y-103352840D01*
X164468826Y-103474514D01*
X164494020Y-103539683D01*
X164479981Y-103608128D01*
X164468826Y-103625486D01*
X164375463Y-103747159D01*
X164314956Y-103893237D01*
X164294317Y-104049999D01*
X164314956Y-104206762D01*
X164375463Y-104352840D01*
X164471717Y-104478282D01*
X164577823Y-104559699D01*
X164597159Y-104574536D01*
X164743238Y-104635044D01*
X164900000Y-104655682D01*
X165056762Y-104635044D01*
X165202841Y-104574536D01*
X165328282Y-104478282D01*
X165424536Y-104352841D01*
X165485044Y-104206762D01*
X165505682Y-104050000D01*
X165492640Y-103950936D01*
X165503405Y-103881902D01*
X165527895Y-103847074D01*
X167237821Y-102137149D01*
X167299142Y-102103666D01*
X167368834Y-102108650D01*
X167424767Y-102150522D01*
X167449184Y-102215986D01*
X167449500Y-102224832D01*
X167449500Y-113574165D01*
X167429815Y-113641204D01*
X167413181Y-113661846D01*
X164678773Y-116396254D01*
X164617450Y-116429739D01*
X164547758Y-116424755D01*
X164546298Y-116424200D01*
X164537402Y-116420753D01*
X164537401Y-116420753D01*
X164329940Y-116340382D01*
X164111243Y-116299500D01*
X163888757Y-116299500D01*
X163744739Y-116326422D01*
X163670060Y-116340382D01*
X163462595Y-116420754D01*
X163273437Y-116537875D01*
X163109019Y-116687762D01*
X162974941Y-116865311D01*
X162875769Y-117064473D01*
X162814885Y-117278462D01*
X162794357Y-117499999D01*
X161705643Y-117499999D01*
X161685115Y-117278464D01*
X161662227Y-117198021D01*
X161624230Y-117064473D01*
X161525058Y-116865311D01*
X161390980Y-116687762D01*
X161226562Y-116537875D01*
X161037404Y-116420754D01*
X160964802Y-116392628D01*
X160829940Y-116340382D01*
X160611243Y-116299500D01*
X160388757Y-116299500D01*
X160244739Y-116326422D01*
X160170060Y-116340382D01*
X159962595Y-116420754D01*
X159773437Y-116537875D01*
X159609019Y-116687762D01*
X159474941Y-116865311D01*
X159375769Y-117064473D01*
X159314885Y-117278462D01*
X159294357Y-117499999D01*
X158205643Y-117499999D01*
X158185115Y-117278464D01*
X158162227Y-117198021D01*
X158124230Y-117064473D01*
X158025058Y-116865311D01*
X157890980Y-116687762D01*
X157726562Y-116537875D01*
X157537404Y-116420754D01*
X157464802Y-116392628D01*
X157329940Y-116340382D01*
X157111243Y-116299500D01*
X156888757Y-116299500D01*
X156744739Y-116326422D01*
X156670060Y-116340382D01*
X156462595Y-116420754D01*
X156273437Y-116537875D01*
X156109019Y-116687762D01*
X155974941Y-116865311D01*
X155875769Y-117064473D01*
X155814885Y-117278462D01*
X155794357Y-117499999D01*
X146404154Y-117499999D01*
X146366137Y-117413898D01*
X146362009Y-117403244D01*
X146310647Y-117250000D01*
X152000000Y-117250000D01*
X153250000Y-117250000D01*
X153250000Y-116000000D01*
X153750000Y-116000000D01*
X153750000Y-117250000D01*
X155000000Y-117250000D01*
X155000000Y-116455481D01*
X154999645Y-116448867D01*
X154993599Y-116392628D01*
X154943352Y-116257910D01*
X154857188Y-116142811D01*
X154742089Y-116056647D01*
X154607371Y-116006400D01*
X154551132Y-116000354D01*
X154544518Y-116000000D01*
X153750000Y-116000000D01*
X153250000Y-116000000D01*
X152455482Y-116000000D01*
X152448867Y-116000354D01*
X152392628Y-116006400D01*
X152257910Y-116056647D01*
X152142811Y-116142811D01*
X152056647Y-116257910D01*
X152006400Y-116392628D01*
X152000354Y-116448867D01*
X152000000Y-116455481D01*
X152000000Y-117250000D01*
X146310647Y-117250000D01*
X146251177Y-117072568D01*
X146248050Y-117061578D01*
X146168207Y-116722107D01*
X146166104Y-116710856D01*
X146165450Y-116706171D01*
X146117926Y-116365473D01*
X146116870Y-116354076D01*
X146115591Y-116326422D01*
X146100632Y-116002855D01*
X146100500Y-115997128D01*
X146100500Y-112131482D01*
X148245500Y-112131482D01*
X148284691Y-112391507D01*
X148287783Y-112401530D01*
X148362202Y-112642788D01*
X148415194Y-112752827D01*
X148476296Y-112879707D01*
X148476297Y-112879709D01*
X148476298Y-112879710D01*
X148624430Y-113096980D01*
X148803290Y-113289746D01*
X149008883Y-113453701D01*
X149236616Y-113585183D01*
X149481402Y-113681254D01*
X149737772Y-113739769D01*
X149934346Y-113754500D01*
X149936663Y-113754500D01*
X150063337Y-113754500D01*
X150065654Y-113754500D01*
X150262228Y-113739769D01*
X150518598Y-113681254D01*
X150763384Y-113585183D01*
X150991117Y-113453701D01*
X151196710Y-113289746D01*
X151375570Y-113096980D01*
X151523702Y-112879710D01*
X151637798Y-112642788D01*
X151715308Y-112391508D01*
X151754500Y-112131482D01*
X151754500Y-111868518D01*
X151715308Y-111608492D01*
X151637798Y-111357212D01*
X151523702Y-111120290D01*
X151375570Y-110903020D01*
X151196710Y-110710254D01*
X150991117Y-110546299D01*
X150991116Y-110546298D01*
X150763382Y-110414816D01*
X150518600Y-110318746D01*
X150262225Y-110260230D01*
X150067968Y-110245673D01*
X150067957Y-110245672D01*
X150065654Y-110245500D01*
X149934346Y-110245500D01*
X149932043Y-110245672D01*
X149932031Y-110245673D01*
X149737774Y-110260230D01*
X149481399Y-110318746D01*
X149236617Y-110414816D01*
X149008883Y-110546298D01*
X148803290Y-110710253D01*
X148624431Y-110903018D01*
X148476296Y-111120292D01*
X148362202Y-111357212D01*
X148284691Y-111608492D01*
X148245500Y-111868517D01*
X148245500Y-112131482D01*
X146100500Y-112131482D01*
X146100500Y-107874999D01*
X151744317Y-107874999D01*
X151764956Y-108031762D01*
X151825463Y-108177840D01*
X151921717Y-108303282D01*
X152018823Y-108377793D01*
X152047159Y-108399536D01*
X152193238Y-108460044D01*
X152350000Y-108480682D01*
X152506762Y-108460044D01*
X152652841Y-108399536D01*
X152737765Y-108334371D01*
X152802933Y-108309177D01*
X152871378Y-108323215D01*
X152888737Y-108334371D01*
X152973662Y-108399536D01*
X153119741Y-108460044D01*
X153255863Y-108477964D01*
X153276502Y-108480682D01*
X153276502Y-108480681D01*
X153276503Y-108480682D01*
X153433265Y-108460044D01*
X153579344Y-108399536D01*
X153704785Y-108303282D01*
X153801039Y-108177841D01*
X153861547Y-108031762D01*
X153861876Y-108029266D01*
X156230901Y-108029266D01*
X156231170Y-108032139D01*
X156231171Y-108032151D01*
X156233754Y-108059696D01*
X156278608Y-108187884D01*
X156359250Y-108297150D01*
X156468516Y-108377792D01*
X156468519Y-108377793D01*
X156596702Y-108422646D01*
X156627135Y-108425500D01*
X156630028Y-108425500D01*
X157232774Y-108425500D01*
X157235667Y-108425500D01*
X157266100Y-108422646D01*
X157394283Y-108377793D01*
X157394283Y-108377792D01*
X157394285Y-108377792D01*
X157503551Y-108297150D01*
X157584192Y-108187885D01*
X157584192Y-108187884D01*
X157584194Y-108187882D01*
X157606558Y-108123966D01*
X157647279Y-108067192D01*
X157712232Y-108041444D01*
X157780794Y-108054900D01*
X157831197Y-108103287D01*
X157841306Y-108125918D01*
X157897043Y-108294122D01*
X157989084Y-108443345D01*
X158113055Y-108567316D01*
X158262278Y-108659357D01*
X158428704Y-108714506D01*
X158528292Y-108724680D01*
X158534568Y-108724999D01*
X158581400Y-108724999D01*
X158581401Y-108724998D01*
X158581401Y-107750000D01*
X159081401Y-107750000D01*
X159081401Y-108724999D01*
X159128230Y-108724999D01*
X159134512Y-108724678D01*
X159234096Y-108714506D01*
X159400523Y-108659357D01*
X159549746Y-108567316D01*
X159673717Y-108443345D01*
X159735161Y-108343728D01*
X159787108Y-108297003D01*
X159856071Y-108285780D01*
X159920153Y-108313623D01*
X159946239Y-108343727D01*
X160007684Y-108443346D01*
X160131654Y-108567316D01*
X160280877Y-108659357D01*
X160447303Y-108714506D01*
X160546891Y-108724680D01*
X160553167Y-108724999D01*
X160599999Y-108724999D01*
X160600000Y-108724998D01*
X160600000Y-107750000D01*
X159081401Y-107750000D01*
X158581401Y-107750000D01*
X158581401Y-106326332D01*
X158596474Y-106275000D01*
X159081401Y-106275000D01*
X159081401Y-107250000D01*
X160600000Y-107250000D01*
X160600000Y-106275000D01*
X160553171Y-106275000D01*
X160546888Y-106275321D01*
X160447304Y-106285493D01*
X160280877Y-106340642D01*
X160131654Y-106432683D01*
X160007682Y-106556655D01*
X159946238Y-106656272D01*
X159894290Y-106702997D01*
X159825328Y-106714218D01*
X159761246Y-106686375D01*
X159735161Y-106656271D01*
X159673717Y-106556654D01*
X159549746Y-106432683D01*
X159400523Y-106340642D01*
X159234097Y-106285493D01*
X159134510Y-106275319D01*
X159128233Y-106275000D01*
X159081401Y-106275000D01*
X158596474Y-106275000D01*
X158601086Y-106259293D01*
X158617715Y-106238656D01*
X159163522Y-105692849D01*
X159177354Y-105682898D01*
X159184227Y-105675358D01*
X159184230Y-105675357D01*
X159215480Y-105641076D01*
X159219371Y-105637000D01*
X159232177Y-105624196D01*
X159232181Y-105624189D01*
X159232872Y-105623499D01*
X159241928Y-105612064D01*
X159259918Y-105592332D01*
X159262418Y-105585875D01*
X159275751Y-105560583D01*
X159279659Y-105554879D01*
X159279659Y-105554878D01*
X159284777Y-105547409D01*
X159333243Y-105507856D01*
X159347601Y-105493498D01*
X159347601Y-105052108D01*
X159349984Y-105027915D01*
X159352902Y-105013246D01*
X159352902Y-104440350D01*
X159349984Y-104425681D01*
X159347601Y-104401489D01*
X159347601Y-103960099D01*
X159652401Y-103960099D01*
X159652401Y-105493499D01*
X159696919Y-105493499D01*
X159703533Y-105493144D01*
X159736745Y-105489574D01*
X159763255Y-105489573D01*
X159796485Y-105493145D01*
X159803082Y-105493499D01*
X159847600Y-105493499D01*
X159847600Y-103960099D01*
X159803084Y-103960099D01*
X159796478Y-103960452D01*
X159763251Y-103964024D01*
X159736749Y-103964024D01*
X159703523Y-103960452D01*
X159696918Y-103960099D01*
X159652401Y-103960099D01*
X159347601Y-103960099D01*
X159303083Y-103960099D01*
X159296468Y-103960453D01*
X159224740Y-103968165D01*
X159224278Y-103963873D01*
X159182979Y-103966807D01*
X159121672Y-103933293D01*
X159088217Y-103871953D01*
X159085573Y-103852279D01*
X159085246Y-103846170D01*
X159081675Y-103812953D01*
X159081676Y-103786443D01*
X159085246Y-103753231D01*
X159085601Y-103746617D01*
X159085601Y-103702099D01*
X157552201Y-103702099D01*
X157552201Y-103746615D01*
X157552554Y-103753220D01*
X157556126Y-103786448D01*
X157556126Y-103812950D01*
X157552554Y-103846177D01*
X157552201Y-103852782D01*
X157552201Y-103897299D01*
X158347301Y-103897299D01*
X158414340Y-103916984D01*
X158460095Y-103969788D01*
X158471301Y-104021299D01*
X158471301Y-104072800D01*
X158451616Y-104139839D01*
X158398812Y-104185594D01*
X158347301Y-104196800D01*
X158032453Y-104196800D01*
X158017791Y-104199716D01*
X157993602Y-104202099D01*
X157547705Y-104202099D01*
X157496284Y-104230176D01*
X157426593Y-104225190D01*
X157394442Y-104207385D01*
X157352840Y-104175463D01*
X157206762Y-104114956D01*
X157050000Y-104094317D01*
X156893237Y-104114956D01*
X156747159Y-104175463D01*
X156621717Y-104271717D01*
X156525463Y-104397159D01*
X156464956Y-104543237D01*
X156444317Y-104700000D01*
X156464956Y-104856762D01*
X156525463Y-105002840D01*
X156621717Y-105128282D01*
X156734088Y-105214506D01*
X156747159Y-105224536D01*
X156893238Y-105285044D01*
X157050000Y-105305682D01*
X157206762Y-105285044D01*
X157352841Y-105224536D01*
X157478282Y-105128282D01*
X157574536Y-105002841D01*
X157606054Y-104926748D01*
X157649896Y-104872344D01*
X157716190Y-104850279D01*
X157720616Y-104850200D01*
X157875343Y-104850200D01*
X157942382Y-104869885D01*
X157944234Y-104871098D01*
X157954254Y-104877793D01*
X157973970Y-104890967D01*
X158018397Y-104899804D01*
X158032452Y-104902600D01*
X158523329Y-104902600D01*
X158590368Y-104922285D01*
X158636123Y-104975089D01*
X158644946Y-105002409D01*
X158651488Y-105035300D01*
X158658735Y-105071730D01*
X158678604Y-105101466D01*
X158699482Y-105168142D01*
X158699502Y-105170356D01*
X158699502Y-105255565D01*
X158679817Y-105322604D01*
X158663183Y-105343246D01*
X157441923Y-106564505D01*
X157380600Y-106597990D01*
X157313289Y-106593866D01*
X157266100Y-106577354D01*
X157266099Y-106577353D01*
X157266097Y-106577353D01*
X157238552Y-106574770D01*
X157238540Y-106574769D01*
X157235667Y-106574500D01*
X156627135Y-106574500D01*
X156624262Y-106574769D01*
X156624249Y-106574770D01*
X156596704Y-106577353D01*
X156468516Y-106622207D01*
X156359250Y-106702849D01*
X156278608Y-106812115D01*
X156233754Y-106940303D01*
X156231171Y-106967848D01*
X156231170Y-106967861D01*
X156230901Y-106970734D01*
X156230901Y-108029266D01*
X153861876Y-108029266D01*
X153882185Y-107875000D01*
X153881890Y-107872763D01*
X153876674Y-107833140D01*
X153861547Y-107718238D01*
X153801039Y-107572159D01*
X153741352Y-107494373D01*
X153704785Y-107446717D01*
X153625517Y-107385893D01*
X153584314Y-107329465D01*
X153577003Y-107287517D01*
X153577003Y-100329266D01*
X157430901Y-100329266D01*
X157431170Y-100332139D01*
X157431171Y-100332151D01*
X157433754Y-100359696D01*
X157478608Y-100487884D01*
X157559250Y-100597150D01*
X157668516Y-100677792D01*
X157683951Y-100683193D01*
X157796702Y-100722646D01*
X157801220Y-100723069D01*
X157805978Y-100723516D01*
X157870887Y-100749373D01*
X157911512Y-100806218D01*
X157918401Y-100846974D01*
X157918401Y-102699039D01*
X157898716Y-102766078D01*
X157897503Y-102767930D01*
X157863333Y-102819067D01*
X157850391Y-102884132D01*
X157818005Y-102946042D01*
X157803085Y-102959205D01*
X157695013Y-103040107D01*
X157608848Y-103155209D01*
X157558601Y-103289927D01*
X157552555Y-103346166D01*
X157552201Y-103352780D01*
X157552201Y-103397299D01*
X157993602Y-103397299D01*
X158017791Y-103399681D01*
X158032453Y-103402598D01*
X158307927Y-103402598D01*
X158318901Y-103403461D01*
X158329875Y-103402598D01*
X158605348Y-103402598D01*
X158605349Y-103402598D01*
X158620010Y-103399681D01*
X158644200Y-103397299D01*
X159085599Y-103397299D01*
X159109288Y-103373610D01*
X159170611Y-103340125D01*
X159172778Y-103339674D01*
X159225812Y-103329125D01*
X159274191Y-103329125D01*
X159308583Y-103335965D01*
X159327852Y-103339799D01*
X159327853Y-103339799D01*
X159672148Y-103339799D01*
X159672149Y-103339799D01*
X159725811Y-103329125D01*
X159774190Y-103329125D01*
X159808582Y-103335965D01*
X159827851Y-103339799D01*
X160089901Y-103339799D01*
X160156940Y-103359484D01*
X160202695Y-103412288D01*
X160213901Y-103463799D01*
X160213901Y-103721847D01*
X160220144Y-103753231D01*
X160224575Y-103775509D01*
X160224574Y-103823891D01*
X160216012Y-103866933D01*
X160183626Y-103928844D01*
X160182077Y-103930422D01*
X160152400Y-103960099D01*
X160152400Y-105493499D01*
X160196918Y-105493499D01*
X160203514Y-105493145D01*
X160275262Y-105485432D01*
X160275705Y-105489555D01*
X160317508Y-105486555D01*
X160378839Y-105520025D01*
X160396608Y-105542452D01*
X160410098Y-105564240D01*
X160418103Y-105579428D01*
X160428893Y-105603864D01*
X160433789Y-105608760D01*
X160451535Y-105631164D01*
X160455182Y-105637053D01*
X160465496Y-105644842D01*
X160476497Y-105653149D01*
X160489452Y-105664423D01*
X161063681Y-106238652D01*
X161097166Y-106299975D01*
X161100000Y-106326333D01*
X161100000Y-108724999D01*
X161146829Y-108724999D01*
X161153111Y-108724678D01*
X161252695Y-108714506D01*
X161419122Y-108659357D01*
X161568345Y-108567316D01*
X161692316Y-108443345D01*
X161784357Y-108294122D01*
X161840095Y-108125919D01*
X161879868Y-108068474D01*
X161944384Y-108041651D01*
X162013159Y-108053966D01*
X162064359Y-108101509D01*
X162074843Y-108123969D01*
X162097207Y-108187884D01*
X162177849Y-108297150D01*
X162287115Y-108377792D01*
X162287118Y-108377793D01*
X162415301Y-108422646D01*
X162445734Y-108425500D01*
X162448627Y-108425500D01*
X163051373Y-108425500D01*
X163054266Y-108425500D01*
X163084699Y-108422646D01*
X163212882Y-108377793D01*
X163212882Y-108377792D01*
X163212884Y-108377792D01*
X163322150Y-108297150D01*
X163402792Y-108187884D01*
X163406306Y-108177841D01*
X163447646Y-108059699D01*
X163450500Y-108029266D01*
X163450500Y-106970734D01*
X163447646Y-106940301D01*
X163402793Y-106812118D01*
X163402792Y-106812115D01*
X163322150Y-106702849D01*
X163212884Y-106622207D01*
X163084696Y-106577353D01*
X163057151Y-106574770D01*
X163057139Y-106574769D01*
X163054266Y-106574500D01*
X162445734Y-106574500D01*
X162442861Y-106574769D01*
X162442848Y-106574770D01*
X162415301Y-106577353D01*
X162368110Y-106593866D01*
X162298331Y-106597427D01*
X162239476Y-106564505D01*
X161017920Y-105342949D01*
X160984435Y-105281626D01*
X160981601Y-105255268D01*
X160981601Y-104986934D01*
X161001286Y-104919895D01*
X161036710Y-104883832D01*
X161092353Y-104846652D01*
X161125428Y-104797152D01*
X161136668Y-104780331D01*
X161148301Y-104721848D01*
X161148301Y-104611992D01*
X161167986Y-104544954D01*
X161220790Y-104499199D01*
X161289948Y-104489255D01*
X161347784Y-104513615D01*
X161447159Y-104589868D01*
X161593238Y-104650376D01*
X161750000Y-104671014D01*
X161906762Y-104650376D01*
X162052841Y-104589868D01*
X162178282Y-104493614D01*
X162274536Y-104368173D01*
X162335044Y-104222094D01*
X162355682Y-104065332D01*
X162335044Y-103908570D01*
X162274536Y-103762491D01*
X162262771Y-103747159D01*
X162178282Y-103637049D01*
X162052840Y-103540795D01*
X161906762Y-103480288D01*
X161750000Y-103459649D01*
X161593237Y-103480288D01*
X161447159Y-103540795D01*
X161347787Y-103617046D01*
X161282618Y-103642240D01*
X161214173Y-103628201D01*
X161164184Y-103579387D01*
X161148301Y-103518670D01*
X161148301Y-103377550D01*
X161142058Y-103346166D01*
X161137627Y-103323889D01*
X161137627Y-103275507D01*
X161141873Y-103254164D01*
X161148301Y-103221846D01*
X161148301Y-102877550D01*
X161136668Y-102819067D01*
X161136667Y-102819067D01*
X161092353Y-102752745D01*
X161026031Y-102708430D01*
X160967550Y-102696798D01*
X160967549Y-102696798D01*
X160816424Y-102696798D01*
X160749385Y-102677113D01*
X160703630Y-102624309D01*
X160693686Y-102555151D01*
X160700500Y-102529142D01*
X160700500Y-102521847D01*
X160703794Y-102493456D01*
X160705379Y-102486718D01*
X160701689Y-102460264D01*
X160700500Y-102443134D01*
X160700500Y-101700000D01*
X161094317Y-101700000D01*
X161114956Y-101856762D01*
X161175463Y-102002840D01*
X161271717Y-102128282D01*
X161386016Y-102215986D01*
X161397159Y-102224536D01*
X161543238Y-102285044D01*
X161700000Y-102305682D01*
X161856762Y-102285044D01*
X162002841Y-102224536D01*
X162128282Y-102128282D01*
X162224536Y-102002841D01*
X162285044Y-101856762D01*
X162305682Y-101700000D01*
X162292640Y-101600937D01*
X162303405Y-101531903D01*
X162327903Y-101497067D01*
X162332174Y-101492797D01*
X162332178Y-101492791D01*
X162332864Y-101492105D01*
X162341922Y-101480671D01*
X162359914Y-101460935D01*
X162359913Y-101460935D01*
X162359916Y-101460933D01*
X162362419Y-101454470D01*
X162375743Y-101429191D01*
X162379656Y-101423481D01*
X162385770Y-101397481D01*
X162390844Y-101381094D01*
X162400500Y-101356173D01*
X162400500Y-101356169D01*
X162401807Y-101352796D01*
X162444381Y-101297396D01*
X162510149Y-101273808D01*
X162564880Y-101283032D01*
X162569738Y-101285044D01*
X162687309Y-101300522D01*
X162726499Y-101305682D01*
X162726499Y-101305681D01*
X162726500Y-101305682D01*
X162883262Y-101285044D01*
X163029341Y-101224536D01*
X163154782Y-101128282D01*
X163251036Y-101002841D01*
X163311544Y-100856762D01*
X163332182Y-100700000D01*
X163319140Y-100600936D01*
X163329905Y-100531902D01*
X163354395Y-100497074D01*
X163363518Y-100487951D01*
X163377353Y-100477998D01*
X163384225Y-100470459D01*
X163384228Y-100470458D01*
X163415488Y-100436166D01*
X163419379Y-100432090D01*
X163432174Y-100419297D01*
X163432178Y-100419290D01*
X163432868Y-100418601D01*
X163441922Y-100407171D01*
X163459914Y-100387435D01*
X163459913Y-100387435D01*
X163459916Y-100387433D01*
X163462419Y-100380970D01*
X163475743Y-100355691D01*
X163479656Y-100349981D01*
X163485770Y-100323981D01*
X163490846Y-100307589D01*
X163500500Y-100282673D01*
X163500500Y-100275748D01*
X163503794Y-100247357D01*
X163505379Y-100240619D01*
X163501689Y-100214165D01*
X163500500Y-100197035D01*
X163500500Y-95839892D01*
X163512045Y-95800574D01*
X163501981Y-95779213D01*
X163500500Y-95760107D01*
X163500500Y-95199500D01*
X163520185Y-95132461D01*
X163572989Y-95086706D01*
X163624500Y-95075500D01*
X163925500Y-95075500D01*
X163992539Y-95095185D01*
X164038294Y-95147989D01*
X164049500Y-95199500D01*
X164049500Y-95212517D01*
X164029815Y-95279556D01*
X164000986Y-95310893D01*
X163921717Y-95371717D01*
X163825463Y-95497159D01*
X163764956Y-95643237D01*
X163747439Y-95776293D01*
X163738313Y-95796921D01*
X163743477Y-95804957D01*
X163747439Y-95823707D01*
X163764956Y-95956762D01*
X163825463Y-96102840D01*
X163921717Y-96228282D01*
X163984445Y-96276414D01*
X164047159Y-96324536D01*
X164193238Y-96385044D01*
X164350000Y-96405682D01*
X164506762Y-96385044D01*
X164652841Y-96324536D01*
X164778282Y-96228282D01*
X164874536Y-96102841D01*
X164935044Y-95956762D01*
X164955682Y-95800000D01*
X164935044Y-95643238D01*
X164874536Y-95497159D01*
X164861786Y-95480543D01*
X164778282Y-95371717D01*
X164699014Y-95310893D01*
X164657811Y-95254465D01*
X164650500Y-95212517D01*
X164650500Y-95199500D01*
X164670185Y-95132461D01*
X164722989Y-95086706D01*
X164774500Y-95075500D01*
X165269749Y-95075500D01*
X165298989Y-95069683D01*
X165328231Y-95063867D01*
X165394552Y-95019552D01*
X165438867Y-94953231D01*
X165450500Y-94894748D01*
X165450500Y-94305252D01*
X165450085Y-94303168D01*
X165434376Y-94224192D01*
X165434376Y-94175808D01*
X165450500Y-94094748D01*
X165450500Y-93505249D01*
X165434376Y-93424190D01*
X165434376Y-93375807D01*
X165442722Y-93333853D01*
X165450500Y-93294748D01*
X165450500Y-92705252D01*
X165450500Y-92705249D01*
X165434376Y-92624190D01*
X165434376Y-92575807D01*
X165450500Y-92494748D01*
X165450500Y-92211555D01*
X165470185Y-92144516D01*
X165500190Y-92112288D01*
X165607187Y-92032190D01*
X165693352Y-91917089D01*
X165743599Y-91782371D01*
X165749645Y-91726132D01*
X165750000Y-91719518D01*
X165750000Y-91650000D01*
X162950000Y-91650000D01*
X162950000Y-91719518D01*
X162950354Y-91726132D01*
X162956400Y-91782373D01*
X162991422Y-91876269D01*
X162996406Y-91945960D01*
X162974161Y-91994373D01*
X162973356Y-91995438D01*
X162962116Y-92008348D01*
X161936475Y-93033989D01*
X161922639Y-93043945D01*
X161884523Y-93085755D01*
X161880573Y-93089891D01*
X161867141Y-93103323D01*
X161858087Y-93114754D01*
X161840083Y-93134504D01*
X161837578Y-93140971D01*
X161824259Y-93166239D01*
X161820343Y-93171955D01*
X161814228Y-93197954D01*
X161809151Y-93214350D01*
X161799500Y-93239263D01*
X161799500Y-93246189D01*
X161796206Y-93274579D01*
X161795554Y-93277353D01*
X161794621Y-93281318D01*
X161796632Y-93295734D01*
X161798311Y-93307770D01*
X161799500Y-93324901D01*
X161799500Y-100972473D01*
X161779815Y-101039512D01*
X161727011Y-101085267D01*
X161691686Y-101095412D01*
X161543237Y-101114956D01*
X161397159Y-101175463D01*
X161271717Y-101271717D01*
X161175463Y-101397159D01*
X161114956Y-101543237D01*
X161094317Y-101700000D01*
X160700500Y-101700000D01*
X160700500Y-92044461D01*
X160720185Y-91977422D01*
X160736814Y-91956785D01*
X162004803Y-90688795D01*
X162066124Y-90655312D01*
X162135816Y-90660296D01*
X162191749Y-90702168D01*
X162207966Y-90741987D01*
X162208709Y-90741680D01*
X162275463Y-90902840D01*
X162371717Y-91028282D01*
X162497159Y-91124535D01*
X162497159Y-91124536D01*
X162643238Y-91185044D01*
X162800000Y-91205682D01*
X162956762Y-91185044D01*
X162998506Y-91167752D01*
X163018579Y-91159439D01*
X163066031Y-91150000D01*
X165750000Y-91150000D01*
X165750000Y-91080481D01*
X165749645Y-91073867D01*
X165743599Y-91017628D01*
X165693352Y-90882910D01*
X165607188Y-90767810D01*
X165500189Y-90687711D01*
X165458318Y-90631777D01*
X165450500Y-90588444D01*
X165450500Y-90305249D01*
X165434376Y-90224190D01*
X165434376Y-90175807D01*
X165450500Y-90094748D01*
X165450500Y-89505249D01*
X165434376Y-89424190D01*
X165434376Y-89375807D01*
X165439250Y-89351308D01*
X165450500Y-89294748D01*
X165450500Y-88705252D01*
X165438867Y-88646769D01*
X165438866Y-88646768D01*
X165434376Y-88624192D01*
X165434376Y-88575808D01*
X165450500Y-88494748D01*
X165450500Y-87950000D01*
X167250000Y-87950000D01*
X170050000Y-87950000D01*
X170050000Y-87880481D01*
X170049645Y-87873867D01*
X170043599Y-87817628D01*
X169993352Y-87682910D01*
X169907188Y-87567810D01*
X169800189Y-87487711D01*
X169758318Y-87431777D01*
X169750500Y-87388444D01*
X169750500Y-87105251D01*
X169738867Y-87046769D01*
X169694552Y-86980447D01*
X169628230Y-86936132D01*
X169569749Y-86924500D01*
X169569748Y-86924500D01*
X169201557Y-86924500D01*
X169134518Y-86904815D01*
X169088763Y-86852011D01*
X169086996Y-86847952D01*
X169085044Y-86843240D01*
X169085044Y-86843238D01*
X169024536Y-86697159D01*
X168976949Y-86635142D01*
X168928282Y-86571717D01*
X168802840Y-86475463D01*
X168656762Y-86414956D01*
X168500000Y-86394317D01*
X168343237Y-86414956D01*
X168197159Y-86475463D01*
X168071717Y-86571717D01*
X167975463Y-86697159D01*
X167943221Y-86775000D01*
X167914956Y-86843238D01*
X167914955Y-86843239D01*
X167913004Y-86847952D01*
X167869164Y-86902356D01*
X167802870Y-86924421D01*
X167798443Y-86924500D01*
X167730251Y-86924500D01*
X167671769Y-86936132D01*
X167605447Y-86980447D01*
X167561132Y-87046769D01*
X167549500Y-87105251D01*
X167549500Y-87388444D01*
X167529815Y-87455483D01*
X167499811Y-87487711D01*
X167392811Y-87567810D01*
X167306647Y-87682910D01*
X167256400Y-87817628D01*
X167250354Y-87873867D01*
X167250000Y-87880481D01*
X167250000Y-87950000D01*
X165450500Y-87950000D01*
X165450500Y-87905251D01*
X165434376Y-87824192D01*
X165434376Y-87775808D01*
X165450500Y-87694748D01*
X165450500Y-87105251D01*
X165438867Y-87046769D01*
X165394552Y-86980447D01*
X165328230Y-86936132D01*
X165269749Y-86924500D01*
X165269748Y-86924500D01*
X163430252Y-86924500D01*
X163430251Y-86924500D01*
X163371769Y-86936132D01*
X163305447Y-86980447D01*
X163261132Y-87046769D01*
X163249500Y-87105251D01*
X163249500Y-87694748D01*
X163265624Y-87775808D01*
X163265624Y-87824192D01*
X163249500Y-87905251D01*
X163249500Y-88494748D01*
X163265624Y-88575808D01*
X163265624Y-88624192D01*
X163261133Y-88646768D01*
X163261133Y-88646769D01*
X163249500Y-88705252D01*
X163249500Y-89294748D01*
X163260750Y-89351309D01*
X163254524Y-89420899D01*
X163211662Y-89476077D01*
X163145772Y-89499322D01*
X163139134Y-89499500D01*
X162537872Y-89499500D01*
X162521051Y-89496756D01*
X162477937Y-89498749D01*
X162464548Y-89499368D01*
X162458824Y-89499500D01*
X162439812Y-89499500D01*
X162425324Y-89501181D01*
X162398636Y-89502415D01*
X162392295Y-89505215D01*
X162365007Y-89513665D01*
X162358197Y-89514938D01*
X162335488Y-89528998D01*
X162320306Y-89537000D01*
X162295862Y-89547794D01*
X162290962Y-89552694D01*
X162268572Y-89570429D01*
X162262677Y-89574079D01*
X162246579Y-89595396D01*
X162235308Y-89608348D01*
X160236475Y-91607181D01*
X160222639Y-91617137D01*
X160184523Y-91658947D01*
X160180573Y-91663083D01*
X160167141Y-91676515D01*
X160158087Y-91687946D01*
X160140083Y-91707696D01*
X160137578Y-91714163D01*
X160124259Y-91739431D01*
X160120343Y-91745147D01*
X160114228Y-91771146D01*
X160109151Y-91787542D01*
X160099500Y-91812455D01*
X160099500Y-91819381D01*
X160096206Y-91847771D01*
X160094621Y-91854509D01*
X160098311Y-91880962D01*
X160099500Y-91898093D01*
X160099500Y-100085358D01*
X160079815Y-100152397D01*
X160027011Y-100198152D01*
X159957853Y-100208096D01*
X159928049Y-100199920D01*
X159911907Y-100193234D01*
X159903996Y-100189957D01*
X159883356Y-100187239D01*
X159747233Y-100169318D01*
X159590471Y-100189957D01*
X159444393Y-100250464D01*
X159431386Y-100260445D01*
X159366217Y-100285638D01*
X159297772Y-100271599D01*
X159247783Y-100222784D01*
X159231901Y-100162068D01*
X159231901Y-99975699D01*
X159231901Y-99695734D01*
X159229047Y-99665301D01*
X159184194Y-99537118D01*
X159184193Y-99537115D01*
X159103551Y-99427849D01*
X158994285Y-99347207D01*
X158866097Y-99302353D01*
X158838552Y-99299770D01*
X158838540Y-99299769D01*
X158835667Y-99299500D01*
X157827135Y-99299500D01*
X157824262Y-99299769D01*
X157824249Y-99299770D01*
X157796704Y-99302353D01*
X157668516Y-99347207D01*
X157559250Y-99427849D01*
X157478608Y-99537115D01*
X157433754Y-99665303D01*
X157431171Y-99692848D01*
X157431170Y-99692861D01*
X157430901Y-99695734D01*
X157430901Y-100329266D01*
X153577003Y-100329266D01*
X153577003Y-99817454D01*
X153596688Y-99750415D01*
X153649492Y-99704660D01*
X153684814Y-99694516D01*
X153756762Y-99685044D01*
X153902841Y-99624536D01*
X154028282Y-99528282D01*
X154124536Y-99402841D01*
X154185044Y-99256762D01*
X154205682Y-99100000D01*
X154185044Y-98943238D01*
X154124536Y-98797159D01*
X154122149Y-98794048D01*
X154028282Y-98671717D01*
X153902840Y-98575463D01*
X153756762Y-98514956D01*
X153699647Y-98507436D01*
X153692481Y-98504266D01*
X157430901Y-98504266D01*
X157431170Y-98507139D01*
X157431171Y-98507151D01*
X157433754Y-98534696D01*
X157478608Y-98662884D01*
X157559250Y-98772150D01*
X157668516Y-98852792D01*
X157668519Y-98852793D01*
X157796702Y-98897646D01*
X157827135Y-98900500D01*
X157830028Y-98900500D01*
X158832774Y-98900500D01*
X158835667Y-98900500D01*
X158866100Y-98897646D01*
X158994283Y-98852793D01*
X158994283Y-98852792D01*
X158994285Y-98852792D01*
X159103551Y-98772150D01*
X159184193Y-98662884D01*
X159206526Y-98599060D01*
X159229047Y-98534699D01*
X159231901Y-98504266D01*
X159231901Y-97886774D01*
X159251586Y-97819735D01*
X159290844Y-97785717D01*
X159289890Y-97784474D01*
X159428282Y-97678282D01*
X159428281Y-97678281D01*
X159524536Y-97552841D01*
X159585044Y-97406762D01*
X159605682Y-97250000D01*
X159585044Y-97093238D01*
X159524536Y-96947159D01*
X159493345Y-96906510D01*
X159428282Y-96821717D01*
X159302840Y-96725463D01*
X159156762Y-96664956D01*
X159000000Y-96644317D01*
X158843237Y-96664956D01*
X158697159Y-96725463D01*
X158571717Y-96821717D01*
X158475463Y-96947159D01*
X158414956Y-97093237D01*
X158394317Y-97250000D01*
X158405418Y-97334315D01*
X158394652Y-97403350D01*
X158348272Y-97455606D01*
X158282479Y-97474500D01*
X157827135Y-97474500D01*
X157824262Y-97474769D01*
X157824249Y-97474770D01*
X157796704Y-97477353D01*
X157668516Y-97522207D01*
X157559250Y-97602849D01*
X157478608Y-97712115D01*
X157433754Y-97840303D01*
X157431171Y-97867848D01*
X157431170Y-97867861D01*
X157430901Y-97870734D01*
X157430901Y-98504266D01*
X153692481Y-98504266D01*
X153635751Y-98479171D01*
X153597280Y-98420846D01*
X153596449Y-98350981D01*
X153628150Y-98296819D01*
X157035440Y-94889529D01*
X157096761Y-94856046D01*
X157139300Y-94854273D01*
X157150000Y-94855682D01*
X157306762Y-94835044D01*
X157452841Y-94774536D01*
X157578282Y-94678282D01*
X157674536Y-94552841D01*
X157735044Y-94406762D01*
X157755682Y-94250000D01*
X157735044Y-94093238D01*
X157674536Y-93947159D01*
X157661228Y-93929815D01*
X157578282Y-93821717D01*
X157452840Y-93725463D01*
X157306762Y-93664956D01*
X157150000Y-93644317D01*
X156993237Y-93664956D01*
X156847159Y-93725463D01*
X156721717Y-93821717D01*
X156625463Y-93947159D01*
X156564956Y-94093237D01*
X156544317Y-94250000D01*
X156567087Y-94422948D01*
X156565644Y-94423137D01*
X156570977Y-94472732D01*
X156539704Y-94535212D01*
X156536628Y-94538399D01*
X152186475Y-98888552D01*
X152172639Y-98898508D01*
X152134523Y-98940318D01*
X152130573Y-98944454D01*
X152117141Y-98957886D01*
X152108087Y-98969317D01*
X152090083Y-98989067D01*
X152087578Y-98995534D01*
X152074259Y-99020802D01*
X152070343Y-99026518D01*
X152064228Y-99052517D01*
X152059151Y-99068913D01*
X152049500Y-99093826D01*
X152049500Y-99100752D01*
X152046206Y-99129142D01*
X152044621Y-99135880D01*
X152048311Y-99162333D01*
X152049500Y-99179464D01*
X152049500Y-107287517D01*
X152029815Y-107354556D01*
X152000986Y-107385893D01*
X151921717Y-107446717D01*
X151825463Y-107572159D01*
X151764956Y-107718237D01*
X151744317Y-107874999D01*
X146100500Y-107874999D01*
X146100500Y-94896829D01*
X148975001Y-94896829D01*
X148975321Y-94903111D01*
X148985493Y-95002695D01*
X149040642Y-95169122D01*
X149132683Y-95318345D01*
X149256654Y-95442316D01*
X149405877Y-95534357D01*
X149574080Y-95590095D01*
X149631525Y-95629868D01*
X149658348Y-95694384D01*
X149646033Y-95763160D01*
X149598490Y-95814359D01*
X149576031Y-95824843D01*
X149512114Y-95847208D01*
X149402849Y-95927849D01*
X149322207Y-96037115D01*
X149277353Y-96165303D01*
X149274770Y-96192848D01*
X149274769Y-96192861D01*
X149274500Y-96195734D01*
X149274500Y-96804266D01*
X149274769Y-96807139D01*
X149274770Y-96807151D01*
X149277353Y-96834696D01*
X149322207Y-96962884D01*
X149402849Y-97072150D01*
X149512115Y-97152792D01*
X149512118Y-97152793D01*
X149640301Y-97197646D01*
X149670734Y-97200500D01*
X149673627Y-97200500D01*
X150726373Y-97200500D01*
X150729266Y-97200500D01*
X150759699Y-97197646D01*
X150887882Y-97152793D01*
X150887882Y-97152792D01*
X150887884Y-97152792D01*
X150997150Y-97072150D01*
X151077792Y-96962884D01*
X151077793Y-96962882D01*
X151122646Y-96834699D01*
X151125500Y-96804266D01*
X151474500Y-96804266D01*
X151474769Y-96807139D01*
X151474770Y-96807151D01*
X151477353Y-96834696D01*
X151522207Y-96962884D01*
X151602849Y-97072150D01*
X151712115Y-97152792D01*
X151712118Y-97152793D01*
X151840301Y-97197646D01*
X151870734Y-97200500D01*
X151873627Y-97200500D01*
X152926373Y-97200500D01*
X152929266Y-97200500D01*
X152959699Y-97197646D01*
X153087882Y-97152793D01*
X153087882Y-97152792D01*
X153087884Y-97152792D01*
X153197150Y-97072150D01*
X153277792Y-96962884D01*
X153277793Y-96962882D01*
X153322646Y-96834699D01*
X153325500Y-96804266D01*
X153325500Y-96195734D01*
X153322646Y-96165301D01*
X153277793Y-96037118D01*
X153277792Y-96037115D01*
X153197150Y-95927849D01*
X153087884Y-95847207D01*
X152959696Y-95802353D01*
X152932151Y-95799770D01*
X152932139Y-95799769D01*
X152929266Y-95799500D01*
X151870734Y-95799500D01*
X151867861Y-95799769D01*
X151867848Y-95799770D01*
X151840303Y-95802353D01*
X151712115Y-95847207D01*
X151602849Y-95927849D01*
X151522207Y-96037115D01*
X151477353Y-96165303D01*
X151474770Y-96192848D01*
X151474769Y-96192861D01*
X151474500Y-96195734D01*
X151474500Y-96804266D01*
X151125500Y-96804266D01*
X151125500Y-96195734D01*
X151122646Y-96165301D01*
X151077793Y-96037118D01*
X151077792Y-96037115D01*
X150997150Y-95927849D01*
X150887882Y-95847206D01*
X150823967Y-95824841D01*
X150767191Y-95784120D01*
X150741444Y-95719167D01*
X150754900Y-95650605D01*
X150803288Y-95600202D01*
X150825919Y-95590094D01*
X150994121Y-95534358D01*
X151143345Y-95442316D01*
X151267316Y-95318345D01*
X151366966Y-95156787D01*
X151368039Y-95157448D01*
X151398578Y-95113339D01*
X151463093Y-95086515D01*
X151531869Y-95098829D01*
X151576284Y-95136154D01*
X151602851Y-95172152D01*
X151712115Y-95252792D01*
X151712118Y-95252793D01*
X151840301Y-95297646D01*
X151870734Y-95300500D01*
X151873627Y-95300500D01*
X152926373Y-95300500D01*
X152929266Y-95300500D01*
X152959699Y-95297646D01*
X153087882Y-95252793D01*
X153087882Y-95252792D01*
X153087884Y-95252792D01*
X153197150Y-95172150D01*
X153277792Y-95062884D01*
X153288360Y-95032683D01*
X153322646Y-94934699D01*
X153325500Y-94904266D01*
X153325500Y-94295734D01*
X153322646Y-94265301D01*
X153277793Y-94137118D01*
X153277792Y-94137115D01*
X153197150Y-94027849D01*
X153087884Y-93947207D01*
X152959696Y-93902353D01*
X152932151Y-93899770D01*
X152932139Y-93899769D01*
X152929266Y-93899500D01*
X152926373Y-93899500D01*
X152224500Y-93899500D01*
X152157461Y-93879815D01*
X152111706Y-93827011D01*
X152100500Y-93775500D01*
X152100500Y-93157646D01*
X152120185Y-93090607D01*
X152172989Y-93044852D01*
X152240686Y-93034707D01*
X152243234Y-93035042D01*
X152243238Y-93035044D01*
X152400000Y-93055682D01*
X152556762Y-93035044D01*
X152702841Y-92974536D01*
X152828282Y-92878282D01*
X152924536Y-92752841D01*
X152985044Y-92606762D01*
X153005682Y-92450000D01*
X152985044Y-92293238D01*
X152924536Y-92147159D01*
X152891623Y-92104266D01*
X152828282Y-92021717D01*
X152702840Y-91925463D01*
X152556762Y-91864956D01*
X152400000Y-91844317D01*
X152243237Y-91864956D01*
X152097159Y-91925463D01*
X151971717Y-92021717D01*
X151875464Y-92147158D01*
X151814956Y-92293238D01*
X151802736Y-92386053D01*
X151774469Y-92449950D01*
X151767479Y-92457548D01*
X151636476Y-92588552D01*
X151622638Y-92598509D01*
X151584523Y-92640318D01*
X151580573Y-92644454D01*
X151567141Y-92657886D01*
X151558087Y-92669317D01*
X151540083Y-92689067D01*
X151537578Y-92695534D01*
X151524259Y-92720802D01*
X151520343Y-92726518D01*
X151514228Y-92752517D01*
X151509151Y-92768913D01*
X151499500Y-92793826D01*
X151499500Y-92800752D01*
X151496206Y-92829142D01*
X151494621Y-92835880D01*
X151498311Y-92862333D01*
X151499500Y-92879464D01*
X151499500Y-93820845D01*
X151479815Y-93887884D01*
X151427011Y-93933639D01*
X151357853Y-93943583D01*
X151294297Y-93914558D01*
X151269963Y-93885944D01*
X151267318Y-93881656D01*
X151143345Y-93757683D01*
X150994122Y-93665642D01*
X150827696Y-93610493D01*
X150728109Y-93600319D01*
X150721832Y-93600000D01*
X150450000Y-93600000D01*
X150450000Y-94726000D01*
X150430315Y-94793039D01*
X150377511Y-94838794D01*
X150326000Y-94850000D01*
X148975001Y-94850000D01*
X148975001Y-94896829D01*
X146100500Y-94896829D01*
X146100500Y-94350000D01*
X148975000Y-94350000D01*
X149950000Y-94350000D01*
X149950000Y-93600000D01*
X149678171Y-93600000D01*
X149671888Y-93600321D01*
X149572304Y-93610493D01*
X149405877Y-93665642D01*
X149256654Y-93757683D01*
X149132683Y-93881654D01*
X149040642Y-94030877D01*
X148985493Y-94197303D01*
X148975319Y-94296890D01*
X148975000Y-94303168D01*
X148975000Y-94350000D01*
X146100500Y-94350000D01*
X146100500Y-87650000D01*
X148975001Y-87650000D01*
X148975001Y-87696829D01*
X148975321Y-87703111D01*
X148985493Y-87802695D01*
X149040642Y-87969122D01*
X149132683Y-88118345D01*
X149256654Y-88242316D01*
X149405877Y-88334357D01*
X149572303Y-88389506D01*
X149671890Y-88399680D01*
X149678168Y-88399999D01*
X149949999Y-88399999D01*
X149950000Y-88399998D01*
X149950000Y-87650000D01*
X150450000Y-87650000D01*
X150450000Y-88399999D01*
X150721829Y-88399999D01*
X150728111Y-88399678D01*
X150827695Y-88389506D01*
X150994122Y-88334357D01*
X151143344Y-88242316D01*
X151187318Y-88198343D01*
X151248641Y-88164857D01*
X151318332Y-88169841D01*
X151362682Y-88198343D01*
X151406655Y-88242316D01*
X151555877Y-88334357D01*
X151722303Y-88389506D01*
X151821890Y-88399680D01*
X151828168Y-88399999D01*
X152099999Y-88399999D01*
X152100000Y-88399998D01*
X152100000Y-87650000D01*
X152600000Y-87650000D01*
X152600000Y-88399999D01*
X152871829Y-88399999D01*
X152878111Y-88399678D01*
X152977695Y-88389506D01*
X153144122Y-88334357D01*
X153293345Y-88242316D01*
X153417316Y-88118345D01*
X153509357Y-87969122D01*
X153564506Y-87802696D01*
X153574680Y-87703109D01*
X153575000Y-87696831D01*
X153575000Y-87650000D01*
X152600000Y-87650000D01*
X152100000Y-87650000D01*
X150450000Y-87650000D01*
X149950000Y-87650000D01*
X148975001Y-87650000D01*
X146100500Y-87650000D01*
X146100500Y-87150000D01*
X148975000Y-87150000D01*
X153574999Y-87150000D01*
X153574999Y-87103170D01*
X153574678Y-87096888D01*
X153564506Y-86997304D01*
X153509357Y-86830877D01*
X153417316Y-86681654D01*
X153293345Y-86557683D01*
X153144123Y-86465643D01*
X152975918Y-86409904D01*
X152918474Y-86370131D01*
X152891651Y-86305615D01*
X152903966Y-86236839D01*
X152951510Y-86185639D01*
X152973964Y-86175158D01*
X153037882Y-86152793D01*
X153118845Y-86093039D01*
X153184471Y-86069069D01*
X153252641Y-86084384D01*
X153280158Y-86105129D01*
X157572101Y-90397072D01*
X157605586Y-90458395D01*
X157607359Y-90500938D01*
X157594317Y-90599999D01*
X157614956Y-90756762D01*
X157675463Y-90902840D01*
X157771717Y-91028282D01*
X157897159Y-91124535D01*
X157897159Y-91124536D01*
X158043238Y-91185044D01*
X158200000Y-91205682D01*
X158356762Y-91185044D01*
X158502841Y-91124536D01*
X158628282Y-91028282D01*
X158724536Y-90902841D01*
X158785044Y-90756762D01*
X158805682Y-90600000D01*
X158785044Y-90443238D01*
X158724536Y-90297159D01*
X158687346Y-90248692D01*
X158628282Y-90171717D01*
X158502840Y-90075463D01*
X158356762Y-90014956D01*
X158199999Y-89994317D01*
X158100938Y-90007359D01*
X158031902Y-89996593D01*
X157997072Y-89972101D01*
X153361450Y-85336479D01*
X153351497Y-85322645D01*
X153315960Y-85290248D01*
X153279680Y-85230536D01*
X153275582Y-85199240D01*
X153275636Y-85201532D01*
X153275500Y-85198626D01*
X153275500Y-85195734D01*
X153272646Y-85165301D01*
X153227793Y-85037118D01*
X153227792Y-85037115D01*
X153147150Y-84927849D01*
X153037884Y-84847207D01*
X152909696Y-84802353D01*
X152882151Y-84799770D01*
X152882139Y-84799769D01*
X152879266Y-84799500D01*
X151820734Y-84799500D01*
X151817861Y-84799769D01*
X151817848Y-84799770D01*
X151790303Y-84802353D01*
X151662115Y-84847207D01*
X151552849Y-84927849D01*
X151472207Y-85037115D01*
X151427353Y-85165303D01*
X151424770Y-85192848D01*
X151424769Y-85192861D01*
X151424500Y-85195734D01*
X151424500Y-85804266D01*
X151424769Y-85807139D01*
X151424770Y-85807151D01*
X151427353Y-85834696D01*
X151472207Y-85962884D01*
X151552849Y-86072150D01*
X151662115Y-86152792D01*
X151726031Y-86175157D01*
X151782807Y-86215879D01*
X151808555Y-86280831D01*
X151795099Y-86349393D01*
X151746712Y-86399796D01*
X151724081Y-86409905D01*
X151555877Y-86465642D01*
X151406654Y-86557683D01*
X151362681Y-86601657D01*
X151301358Y-86635142D01*
X151231666Y-86630158D01*
X151187319Y-86601657D01*
X151143345Y-86557683D01*
X150994123Y-86465643D01*
X150825918Y-86409904D01*
X150768474Y-86370131D01*
X150741651Y-86305615D01*
X150753966Y-86236839D01*
X150801510Y-86185639D01*
X150823964Y-86175158D01*
X150887882Y-86152793D01*
X150887882Y-86152792D01*
X150887884Y-86152792D01*
X150997150Y-86072150D01*
X151077792Y-85962884D01*
X151103470Y-85889500D01*
X151122646Y-85834699D01*
X151125500Y-85804266D01*
X151125500Y-85195734D01*
X151122646Y-85165301D01*
X151077793Y-85037118D01*
X151077792Y-85037115D01*
X150997150Y-84927849D01*
X150887884Y-84847207D01*
X150759696Y-84802353D01*
X150732151Y-84799770D01*
X150732139Y-84799769D01*
X150729266Y-84799500D01*
X149670734Y-84799500D01*
X149667861Y-84799769D01*
X149667848Y-84799770D01*
X149640303Y-84802353D01*
X149512115Y-84847207D01*
X149402849Y-84927849D01*
X149322207Y-85037115D01*
X149277353Y-85165303D01*
X149274770Y-85192848D01*
X149274769Y-85192861D01*
X149274500Y-85195734D01*
X149274500Y-85804266D01*
X149274769Y-85807139D01*
X149274770Y-85807151D01*
X149277353Y-85834696D01*
X149322207Y-85962884D01*
X149402849Y-86072150D01*
X149512115Y-86152792D01*
X149576031Y-86175157D01*
X149632807Y-86215879D01*
X149658555Y-86280831D01*
X149645099Y-86349393D01*
X149596712Y-86399796D01*
X149574081Y-86409905D01*
X149405877Y-86465642D01*
X149256654Y-86557683D01*
X149132683Y-86681654D01*
X149040642Y-86830877D01*
X148985493Y-86997303D01*
X148975319Y-87096890D01*
X148975000Y-87103168D01*
X148975000Y-87150000D01*
X146100500Y-87150000D01*
X146100500Y-76104266D01*
X173099500Y-76104266D01*
X173099769Y-76107139D01*
X173099770Y-76107151D01*
X173102353Y-76134696D01*
X173147207Y-76262884D01*
X173227849Y-76372150D01*
X173337115Y-76452792D01*
X173337118Y-76452793D01*
X173465301Y-76497646D01*
X173495734Y-76500500D01*
X173498627Y-76500500D01*
X174501373Y-76500500D01*
X174504266Y-76500500D01*
X174534699Y-76497646D01*
X174662882Y-76452793D01*
X174662882Y-76452792D01*
X174662884Y-76452792D01*
X174772150Y-76372150D01*
X174852792Y-76262884D01*
X174879035Y-76187885D01*
X174897646Y-76134699D01*
X174899688Y-76112923D01*
X174925545Y-76048015D01*
X174982390Y-76007389D01*
X175023146Y-76000500D01*
X175093657Y-76000500D01*
X175160696Y-76020185D01*
X175206451Y-76072989D01*
X175210694Y-76083534D01*
X175228598Y-76134699D01*
X175247208Y-76187885D01*
X175327849Y-76297150D01*
X175437115Y-76377792D01*
X175437118Y-76377793D01*
X175565301Y-76422646D01*
X175595734Y-76425500D01*
X175598627Y-76425500D01*
X176401373Y-76425500D01*
X176404266Y-76425500D01*
X176434699Y-76422646D01*
X176562882Y-76377793D01*
X176562882Y-76377792D01*
X176562884Y-76377792D01*
X176672150Y-76297150D01*
X176752792Y-76187884D01*
X176757790Y-76173600D01*
X176797646Y-76059699D01*
X176800500Y-76029266D01*
X176800500Y-75370734D01*
X176797646Y-75340301D01*
X176752793Y-75212118D01*
X176752792Y-75212115D01*
X176672150Y-75102849D01*
X176562884Y-75022207D01*
X176499416Y-74999999D01*
X179644842Y-74999999D01*
X179665430Y-75235318D01*
X179726569Y-75463492D01*
X179826400Y-75677580D01*
X179885073Y-75761373D01*
X180508866Y-75137580D01*
X180531318Y-75214040D01*
X180610605Y-75337413D01*
X180721438Y-75433451D01*
X180854839Y-75494373D01*
X180858633Y-75494918D01*
X180238625Y-76114925D01*
X180322420Y-76173599D01*
X180536507Y-76273430D01*
X180764681Y-76334569D01*
X181000000Y-76355157D01*
X181235318Y-76334569D01*
X181463492Y-76273430D01*
X181677576Y-76173600D01*
X181761373Y-76114925D01*
X181141365Y-75494918D01*
X181145161Y-75494373D01*
X181278562Y-75433451D01*
X181389395Y-75337413D01*
X181468682Y-75214040D01*
X181491133Y-75137580D01*
X182114925Y-75761373D01*
X182173600Y-75677576D01*
X182273430Y-75463492D01*
X182334569Y-75235318D01*
X182355157Y-74999999D01*
X182334569Y-74764681D01*
X182273430Y-74536507D01*
X182173599Y-74322421D01*
X182114926Y-74238626D01*
X182114925Y-74238625D01*
X181491132Y-74862418D01*
X181468682Y-74785960D01*
X181389395Y-74662587D01*
X181278562Y-74566549D01*
X181145161Y-74505627D01*
X181141366Y-74505081D01*
X181761373Y-73885073D01*
X181761373Y-73885072D01*
X181677580Y-73826400D01*
X181463492Y-73726569D01*
X181235318Y-73665430D01*
X181000000Y-73644842D01*
X180764681Y-73665430D01*
X180536507Y-73726569D01*
X180322422Y-73826399D01*
X180238625Y-73885072D01*
X180858634Y-74505081D01*
X180854839Y-74505627D01*
X180721438Y-74566549D01*
X180610605Y-74662587D01*
X180531318Y-74785960D01*
X180508867Y-74862419D01*
X179885073Y-74238625D01*
X179885072Y-74238625D01*
X179826399Y-74322422D01*
X179726569Y-74536507D01*
X179665430Y-74764681D01*
X179644842Y-74999999D01*
X176499416Y-74999999D01*
X176434696Y-74977353D01*
X176407151Y-74974770D01*
X176407139Y-74974769D01*
X176404266Y-74974500D01*
X175595734Y-74974500D01*
X175592861Y-74974769D01*
X175592848Y-74974770D01*
X175565303Y-74977353D01*
X175437115Y-75022207D01*
X175327849Y-75102849D01*
X175247208Y-75212114D01*
X175247207Y-75212118D01*
X175210697Y-75316455D01*
X175169978Y-75373230D01*
X175105025Y-75398978D01*
X175093657Y-75399500D01*
X175023146Y-75399500D01*
X174956107Y-75379815D01*
X174910352Y-75327011D01*
X174899688Y-75287076D01*
X174897646Y-75265303D01*
X174897646Y-75265301D01*
X174852793Y-75137118D01*
X174852792Y-75137115D01*
X174772150Y-75027849D01*
X174662884Y-74947207D01*
X174534696Y-74902353D01*
X174507151Y-74899770D01*
X174507139Y-74899769D01*
X174504266Y-74899500D01*
X173495734Y-74899500D01*
X173492861Y-74899769D01*
X173492848Y-74899770D01*
X173465303Y-74902353D01*
X173337115Y-74947207D01*
X173227849Y-75027849D01*
X173147207Y-75137115D01*
X173102353Y-75265303D01*
X173099770Y-75292848D01*
X173099769Y-75292861D01*
X173099500Y-75295734D01*
X173099500Y-76104266D01*
X146100500Y-76104266D01*
X146100500Y-72250000D01*
X173600001Y-72250000D01*
X173600001Y-72521829D01*
X173600321Y-72528111D01*
X173610493Y-72627695D01*
X173665642Y-72794122D01*
X173757683Y-72943345D01*
X173881654Y-73067316D01*
X174030877Y-73159357D01*
X174197303Y-73214506D01*
X174296891Y-73224680D01*
X174303167Y-73224999D01*
X174349998Y-73224999D01*
X174349999Y-73224998D01*
X174350000Y-72250000D01*
X173600001Y-72250000D01*
X146100500Y-72250000D01*
X146100500Y-70131482D01*
X148245500Y-70131482D01*
X148284691Y-70391507D01*
X148362202Y-70642787D01*
X148476296Y-70879707D01*
X148476297Y-70879709D01*
X148476298Y-70879710D01*
X148624430Y-71096980D01*
X148803290Y-71289746D01*
X149008883Y-71453701D01*
X149236616Y-71585183D01*
X149481402Y-71681254D01*
X149737772Y-71739769D01*
X149934346Y-71754500D01*
X149936663Y-71754500D01*
X150063337Y-71754500D01*
X150065654Y-71754500D01*
X150125703Y-71750000D01*
X173600000Y-71750000D01*
X174349999Y-71750000D01*
X174349999Y-70775000D01*
X174849999Y-70775000D01*
X174850000Y-71750000D01*
X174849999Y-73224998D01*
X174850000Y-73224999D01*
X174896829Y-73224999D01*
X174903111Y-73224678D01*
X175002695Y-73214506D01*
X175169122Y-73159357D01*
X175318345Y-73067316D01*
X175442316Y-72943345D01*
X175534357Y-72794122D01*
X175590095Y-72625919D01*
X175629868Y-72568474D01*
X175694384Y-72541651D01*
X175763159Y-72553966D01*
X175814359Y-72601509D01*
X175824843Y-72623969D01*
X175847207Y-72687884D01*
X175927849Y-72797150D01*
X176037115Y-72877792D01*
X176037118Y-72877793D01*
X176165301Y-72922646D01*
X176195734Y-72925500D01*
X176198627Y-72925500D01*
X176801373Y-72925500D01*
X176804266Y-72925500D01*
X176834699Y-72922646D01*
X176962882Y-72877793D01*
X176962882Y-72877792D01*
X176962884Y-72877792D01*
X177072148Y-72797152D01*
X177072148Y-72797150D01*
X177072150Y-72797150D01*
X177106308Y-72750866D01*
X177161956Y-72708616D01*
X177206079Y-72700500D01*
X180157265Y-72700500D01*
X180224304Y-72720185D01*
X180253118Y-72745835D01*
X180253590Y-72746410D01*
X180413550Y-72877685D01*
X180596046Y-72975232D01*
X180794066Y-73035300D01*
X181000000Y-73055583D01*
X181205934Y-73035300D01*
X181403954Y-72975232D01*
X181586450Y-72877685D01*
X181746410Y-72746410D01*
X181877685Y-72586450D01*
X181975232Y-72403954D01*
X182035300Y-72205934D01*
X182055583Y-72000000D01*
X182035300Y-71794066D01*
X181975232Y-71596046D01*
X181877685Y-71413550D01*
X181812047Y-71333570D01*
X181746410Y-71253589D01*
X181648952Y-71173608D01*
X181586450Y-71122315D01*
X181403954Y-71024768D01*
X181304944Y-70994733D01*
X181205932Y-70964699D01*
X181022497Y-70946632D01*
X181000000Y-70944417D01*
X180999999Y-70944417D01*
X180794067Y-70964699D01*
X180596043Y-71024769D01*
X180413551Y-71122314D01*
X180253589Y-71253590D01*
X180253119Y-71254164D01*
X180251776Y-71255078D01*
X180244148Y-71261339D01*
X180243587Y-71260656D01*
X180195373Y-71293499D01*
X180157265Y-71299500D01*
X177206079Y-71299500D01*
X177139040Y-71279815D01*
X177106308Y-71249133D01*
X177072148Y-71202847D01*
X176962884Y-71122207D01*
X176834696Y-71077353D01*
X176807151Y-71074770D01*
X176807139Y-71074769D01*
X176804266Y-71074500D01*
X176195734Y-71074500D01*
X176192861Y-71074769D01*
X176192848Y-71074770D01*
X176165303Y-71077353D01*
X176037115Y-71122207D01*
X175927849Y-71202849D01*
X175847206Y-71312117D01*
X175824841Y-71376032D01*
X175784119Y-71432808D01*
X175719166Y-71458555D01*
X175650605Y-71445098D01*
X175600202Y-71396711D01*
X175590094Y-71374081D01*
X175534357Y-71205877D01*
X175442316Y-71056654D01*
X175318345Y-70932683D01*
X175169122Y-70840642D01*
X175002696Y-70785493D01*
X174903109Y-70775319D01*
X174896832Y-70775000D01*
X174849999Y-70775000D01*
X174349999Y-70775000D01*
X174303171Y-70775000D01*
X174296888Y-70775321D01*
X174197304Y-70785493D01*
X174030877Y-70840642D01*
X173881654Y-70932683D01*
X173757683Y-71056654D01*
X173665642Y-71205877D01*
X173610493Y-71372303D01*
X173600319Y-71471890D01*
X173600000Y-71478168D01*
X173600000Y-71750000D01*
X150125703Y-71750000D01*
X150262228Y-71739769D01*
X150518598Y-71681254D01*
X150763384Y-71585183D01*
X150991117Y-71453701D01*
X151196710Y-71289746D01*
X151375570Y-71096980D01*
X151523702Y-70879710D01*
X151637798Y-70642788D01*
X151715308Y-70391508D01*
X151754500Y-70131482D01*
X151754500Y-69868518D01*
X151715308Y-69608492D01*
X151637798Y-69357212D01*
X151523702Y-69120290D01*
X151505431Y-69093491D01*
X182070500Y-69093491D01*
X182109373Y-69276382D01*
X182185427Y-69447202D01*
X182295329Y-69598469D01*
X182434284Y-69723585D01*
X182596214Y-69817075D01*
X182681803Y-69844884D01*
X182774044Y-69874855D01*
X182913380Y-69889500D01*
X182916622Y-69889500D01*
X183003378Y-69889500D01*
X183006620Y-69889500D01*
X183145956Y-69874855D01*
X183323785Y-69817075D01*
X183485715Y-69723585D01*
X183624669Y-69598470D01*
X183734573Y-69447200D01*
X183810625Y-69276385D01*
X183849500Y-69093490D01*
X183849500Y-68906510D01*
X183849500Y-68906508D01*
X183810626Y-68723617D01*
X183734572Y-68552797D01*
X183624670Y-68401530D01*
X183485715Y-68276414D01*
X183323785Y-68182924D01*
X183145957Y-68125145D01*
X183009840Y-68110838D01*
X183009831Y-68110837D01*
X183006620Y-68110500D01*
X182913380Y-68110500D01*
X182910169Y-68110837D01*
X182910159Y-68110838D01*
X182774042Y-68125145D01*
X182596214Y-68182924D01*
X182434284Y-68276414D01*
X182295329Y-68401530D01*
X182185427Y-68552797D01*
X182109373Y-68723617D01*
X182070500Y-68906508D01*
X182070500Y-69093491D01*
X151505431Y-69093491D01*
X151375570Y-68903020D01*
X151196710Y-68710254D01*
X150991117Y-68546299D01*
X150991116Y-68546298D01*
X150763382Y-68414816D01*
X150518600Y-68318746D01*
X150262225Y-68260230D01*
X150067968Y-68245673D01*
X150067957Y-68245672D01*
X150065654Y-68245500D01*
X149934346Y-68245500D01*
X149932043Y-68245672D01*
X149932031Y-68245673D01*
X149737774Y-68260230D01*
X149481399Y-68318746D01*
X149236617Y-68414816D01*
X149008883Y-68546298D01*
X148803290Y-68710253D01*
X148624431Y-68903018D01*
X148476296Y-69120292D01*
X148362202Y-69357212D01*
X148284691Y-69608492D01*
X148245500Y-69868517D01*
X148245500Y-70131482D01*
X146100500Y-70131482D01*
X146100500Y-70002870D01*
X146100632Y-69997143D01*
X146105609Y-69889500D01*
X146116870Y-69645914D01*
X146117927Y-69634519D01*
X146122956Y-69598469D01*
X146166106Y-69289131D01*
X146168206Y-69277896D01*
X146248052Y-68938416D01*
X146251175Y-68927437D01*
X146362011Y-68596748D01*
X146366134Y-68586108D01*
X146507003Y-68267068D01*
X146512086Y-68256859D01*
X146681789Y-67952184D01*
X146687815Y-67942452D01*
X146884905Y-67654736D01*
X146891787Y-67645623D01*
X147114582Y-67377321D01*
X147122277Y-67368881D01*
X147368881Y-67122277D01*
X147377321Y-67114582D01*
X147645623Y-66891787D01*
X147654736Y-66884905D01*
X147942457Y-66687811D01*
X147952184Y-66681789D01*
X148256859Y-66512086D01*
X148267068Y-66507003D01*
X148586108Y-66366134D01*
X148596748Y-66362011D01*
X148927437Y-66251175D01*
X148938416Y-66248052D01*
X149277896Y-66168206D01*
X149289131Y-66166106D01*
X149634528Y-66117926D01*
X149645914Y-66116870D01*
X149997144Y-66100632D01*
X150002872Y-66100500D01*
X150026929Y-66100500D01*
X180973071Y-66100500D01*
X180997128Y-66100500D01*
X181002855Y-66100632D01*
G37*
G04 #@! TD.AperFunction*
M02*
