M48
; DRILL file {KiCad 7.0.2} date Mon Nov 13 13:23:14 2023
; FORMAT={-:-/ absolute / metric / decimal}
; #@! TF.CreationDate,2023-11-13T13:23:14-06:00
; #@! TF.GenerationSoftware,Kicad,Pcbnew,7.0.2
; #@! TF.FileFunction,Plated,1,2,PTH
FMAT,2
METRIC
; #@! TA.AperFunction,Plated,PTH,ViaDrill
T1C0.400
; #@! TA.AperFunction,Plated,PTH,ComponentDrill
T2C1.000
; #@! TA.AperFunction,Plated,PTH,ComponentDrill
T3C1.020
%
G90
G05
T1
X146.8Y-70.0
X146.8Y-72.8
X147.0Y-113.0
X147.0Y-115.8
X147.6Y-67.8
X148.0Y-118.2
X149.0Y-78.0
X149.0Y-83.0
X149.0Y-100.0
X149.0Y-105.0
X150.0Y-66.8
X150.2Y-85.5
X150.2Y-96.5
X150.2Y-119.0
X152.35Y-85.5
X152.35Y-107.875
X152.4Y-92.45
X152.4Y-96.5
X152.8Y-66.8
X153.277Y-107.875
X153.6Y-99.1
X156.0Y-68.0
X156.0Y-73.0
X156.0Y-78.0
X156.0Y-83.0
X156.931Y-107.5
X157.05Y-104.7
X157.15Y-94.25
X158.0Y-111.0
X158.2Y-90.6
X159.0Y-97.25
X159.74Y-101.701
X159.747Y-100.775
X161.7Y-101.7
X161.75Y-104.065
X162.726Y-100.7
X162.75Y-107.5
X162.8Y-90.6
X162.936Y-93.346
X163.0Y-68.0
X163.0Y-73.0
X163.0Y-78.0
X163.0Y-83.0
X164.35Y-95.8
X164.9Y-103.05
X164.9Y-104.05
X165.0Y-111.0
X166.5Y-89.0
X166.5Y-90.0
X168.5Y-87.0
X168.65Y-94.675
X170.0Y-68.0
X170.0Y-73.0
X170.0Y-78.0
X170.0Y-83.0
X170.0Y-111.0
X171.1Y-92.2
X171.5Y-98.5
X173.975Y-117.55
X176.0Y-68.0
X176.5Y-88.0
X176.5Y-104.0
X176.55Y-72.0
X178.0Y-119.2
X178.2Y-66.8
X180.8Y-119.2
X181.0Y-66.8
X181.0Y-83.0
X181.0Y-99.0
X181.0Y-115.0
X183.2Y-118.2
X184.0Y-116.0
X184.2Y-70.0
X184.2Y-72.8
T2
X157.0Y-117.5
X160.5Y-117.5
X164.0Y-117.5
X167.5Y-117.5
X171.0Y-117.5
T3
X181.0Y-72.0
X181.0Y-75.0
X181.0Y-78.0
X181.0Y-88.0
X181.0Y-91.0
X181.0Y-94.0
X181.0Y-104.0
X181.0Y-107.0
X181.0Y-110.0
T0
M30
