%TF.GenerationSoftware,KiCad,Pcbnew,7.0.2*%
%TF.CreationDate,2023-11-13T13:23:28-06:00*%
%TF.ProjectId,Telemetry-Peripheral-SOM-Daughterboard-IMU,54656c65-6d65-4747-9279-2d5065726970,rev?*%
%TF.SameCoordinates,Original*%
%TF.FileFunction,Drillmap*%
%TF.FilePolarity,Positive*%
%FSLAX45Y45*%
G04 Gerber Fmt 4.5, Leading zero omitted, Abs format (unit mm)*
G04 Created by KiCad (PCBNEW 7.0.2) date 2023-11-13 13:23:28*
%MOMM*%
%LPD*%
G01*
G04 APERTURE LIST*
%ADD10C,0.100000*%
%ADD11C,0.200000*%
%ADD12C,0.127000*%
%ADD13C,0.300000*%
G04 APERTURE END LIST*
D10*
X14600000Y-11600000D02*
G75*
G03*
X15000000Y-12000000I400000J0D01*
G01*
X18100000Y-12000000D02*
G75*
G03*
X18500000Y-11600000I0J400000D01*
G01*
X18500000Y-7000000D02*
G75*
G03*
X18100000Y-6600000I-400000J0D01*
G01*
X15000000Y-6600000D02*
G75*
G03*
X14600000Y-7000000I0J-400000D01*
G01*
X14600000Y-11600000D02*
X14600000Y-7000000D01*
X15000000Y-6600000D02*
X18100000Y-6600000D01*
X18500000Y-7000000D02*
X18500000Y-11600000D01*
X18100000Y-12000000D02*
X15000000Y-12000000D01*
D11*
D12*
X18232500Y-6836500D02*
X18359500Y-6963500D01*
X18359500Y-6836500D02*
X18232500Y-6963500D01*
X18232500Y-8036500D02*
X18359500Y-8163500D01*
X18359500Y-8036500D02*
X18232500Y-8163500D01*
X18232500Y-8436500D02*
X18359500Y-8563500D01*
X18359500Y-8436500D02*
X18232500Y-8563500D01*
X18232500Y-9636500D02*
X18359500Y-9763500D01*
X18359500Y-9636500D02*
X18232500Y-9763500D01*
X18232500Y-10036500D02*
X18359500Y-10163500D01*
X18359500Y-10036500D02*
X18232500Y-10163500D01*
X18232500Y-11236500D02*
X18359500Y-11363500D01*
X18359500Y-11236500D02*
X18232500Y-11363500D01*
D13*
X15150000Y-7000000D02*
G75*
G03*
X15150000Y-7000000I-150000J0D01*
G01*
X15150000Y-11200000D02*
G75*
G03*
X15150000Y-11200000I-150000J0D01*
G01*
D11*
X14842619Y-12317524D02*
X14842619Y-12117524D01*
X14842619Y-12117524D02*
X14890238Y-12117524D01*
X14890238Y-12117524D02*
X14918809Y-12127048D01*
X14918809Y-12127048D02*
X14937857Y-12146095D01*
X14937857Y-12146095D02*
X14947381Y-12165143D01*
X14947381Y-12165143D02*
X14956905Y-12203238D01*
X14956905Y-12203238D02*
X14956905Y-12231809D01*
X14956905Y-12231809D02*
X14947381Y-12269905D01*
X14947381Y-12269905D02*
X14937857Y-12288952D01*
X14937857Y-12288952D02*
X14918809Y-12308000D01*
X14918809Y-12308000D02*
X14890238Y-12317524D01*
X14890238Y-12317524D02*
X14842619Y-12317524D01*
X15042619Y-12317524D02*
X15042619Y-12184190D01*
X15042619Y-12222286D02*
X15052143Y-12203238D01*
X15052143Y-12203238D02*
X15061667Y-12193714D01*
X15061667Y-12193714D02*
X15080714Y-12184190D01*
X15080714Y-12184190D02*
X15099762Y-12184190D01*
X15166428Y-12317524D02*
X15166428Y-12184190D01*
X15166428Y-12117524D02*
X15156905Y-12127048D01*
X15156905Y-12127048D02*
X15166428Y-12136571D01*
X15166428Y-12136571D02*
X15175952Y-12127048D01*
X15175952Y-12127048D02*
X15166428Y-12117524D01*
X15166428Y-12117524D02*
X15166428Y-12136571D01*
X15290238Y-12317524D02*
X15271190Y-12308000D01*
X15271190Y-12308000D02*
X15261667Y-12288952D01*
X15261667Y-12288952D02*
X15261667Y-12117524D01*
X15395000Y-12317524D02*
X15375952Y-12308000D01*
X15375952Y-12308000D02*
X15366428Y-12288952D01*
X15366428Y-12288952D02*
X15366428Y-12117524D01*
X15623571Y-12317524D02*
X15623571Y-12117524D01*
X15623571Y-12117524D02*
X15690238Y-12260381D01*
X15690238Y-12260381D02*
X15756905Y-12117524D01*
X15756905Y-12117524D02*
X15756905Y-12317524D01*
X15937857Y-12317524D02*
X15937857Y-12212762D01*
X15937857Y-12212762D02*
X15928333Y-12193714D01*
X15928333Y-12193714D02*
X15909286Y-12184190D01*
X15909286Y-12184190D02*
X15871190Y-12184190D01*
X15871190Y-12184190D02*
X15852143Y-12193714D01*
X15937857Y-12308000D02*
X15918809Y-12317524D01*
X15918809Y-12317524D02*
X15871190Y-12317524D01*
X15871190Y-12317524D02*
X15852143Y-12308000D01*
X15852143Y-12308000D02*
X15842619Y-12288952D01*
X15842619Y-12288952D02*
X15842619Y-12269905D01*
X15842619Y-12269905D02*
X15852143Y-12250857D01*
X15852143Y-12250857D02*
X15871190Y-12241333D01*
X15871190Y-12241333D02*
X15918809Y-12241333D01*
X15918809Y-12241333D02*
X15937857Y-12231809D01*
X16033095Y-12184190D02*
X16033095Y-12384190D01*
X16033095Y-12193714D02*
X16052143Y-12184190D01*
X16052143Y-12184190D02*
X16090238Y-12184190D01*
X16090238Y-12184190D02*
X16109286Y-12193714D01*
X16109286Y-12193714D02*
X16118809Y-12203238D01*
X16118809Y-12203238D02*
X16128333Y-12222286D01*
X16128333Y-12222286D02*
X16128333Y-12279428D01*
X16128333Y-12279428D02*
X16118809Y-12298476D01*
X16118809Y-12298476D02*
X16109286Y-12308000D01*
X16109286Y-12308000D02*
X16090238Y-12317524D01*
X16090238Y-12317524D02*
X16052143Y-12317524D01*
X16052143Y-12317524D02*
X16033095Y-12308000D01*
X16214048Y-12298476D02*
X16223571Y-12308000D01*
X16223571Y-12308000D02*
X16214048Y-12317524D01*
X16214048Y-12317524D02*
X16204524Y-12308000D01*
X16204524Y-12308000D02*
X16214048Y-12298476D01*
X16214048Y-12298476D02*
X16214048Y-12317524D01*
X16214048Y-12193714D02*
X16223571Y-12203238D01*
X16223571Y-12203238D02*
X16214048Y-12212762D01*
X16214048Y-12212762D02*
X16204524Y-12203238D01*
X16204524Y-12203238D02*
X16214048Y-12193714D01*
X16214048Y-12193714D02*
X16214048Y-12212762D01*
D12*
X14468000Y-12581500D02*
X14595000Y-12708500D01*
X14595000Y-12581500D02*
X14468000Y-12708500D01*
D11*
X14947381Y-12737524D02*
X14833095Y-12737524D01*
X14890238Y-12737524D02*
X14890238Y-12537524D01*
X14890238Y-12537524D02*
X14871190Y-12566095D01*
X14871190Y-12566095D02*
X14852143Y-12585143D01*
X14852143Y-12585143D02*
X14833095Y-12594667D01*
X15033095Y-12718476D02*
X15042619Y-12728000D01*
X15042619Y-12728000D02*
X15033095Y-12737524D01*
X15033095Y-12737524D02*
X15023571Y-12728000D01*
X15023571Y-12728000D02*
X15033095Y-12718476D01*
X15033095Y-12718476D02*
X15033095Y-12737524D01*
X15118809Y-12556571D02*
X15128333Y-12547048D01*
X15128333Y-12547048D02*
X15147381Y-12537524D01*
X15147381Y-12537524D02*
X15195000Y-12537524D01*
X15195000Y-12537524D02*
X15214048Y-12547048D01*
X15214048Y-12547048D02*
X15223571Y-12556571D01*
X15223571Y-12556571D02*
X15233095Y-12575619D01*
X15233095Y-12575619D02*
X15233095Y-12594667D01*
X15233095Y-12594667D02*
X15223571Y-12623238D01*
X15223571Y-12623238D02*
X15109286Y-12737524D01*
X15109286Y-12737524D02*
X15233095Y-12737524D01*
X15299762Y-12537524D02*
X15433095Y-12537524D01*
X15433095Y-12537524D02*
X15347381Y-12737524D01*
X15547381Y-12537524D02*
X15566429Y-12537524D01*
X15566429Y-12537524D02*
X15585476Y-12547048D01*
X15585476Y-12547048D02*
X15595000Y-12556571D01*
X15595000Y-12556571D02*
X15604524Y-12575619D01*
X15604524Y-12575619D02*
X15614048Y-12613714D01*
X15614048Y-12613714D02*
X15614048Y-12661333D01*
X15614048Y-12661333D02*
X15604524Y-12699428D01*
X15604524Y-12699428D02*
X15595000Y-12718476D01*
X15595000Y-12718476D02*
X15585476Y-12728000D01*
X15585476Y-12728000D02*
X15566429Y-12737524D01*
X15566429Y-12737524D02*
X15547381Y-12737524D01*
X15547381Y-12737524D02*
X15528333Y-12728000D01*
X15528333Y-12728000D02*
X15518809Y-12718476D01*
X15518809Y-12718476D02*
X15509286Y-12699428D01*
X15509286Y-12699428D02*
X15499762Y-12661333D01*
X15499762Y-12661333D02*
X15499762Y-12613714D01*
X15499762Y-12613714D02*
X15509286Y-12575619D01*
X15509286Y-12575619D02*
X15518809Y-12556571D01*
X15518809Y-12556571D02*
X15528333Y-12547048D01*
X15528333Y-12547048D02*
X15547381Y-12537524D01*
X15699762Y-12737524D02*
X15699762Y-12604190D01*
X15699762Y-12623238D02*
X15709286Y-12613714D01*
X15709286Y-12613714D02*
X15728333Y-12604190D01*
X15728333Y-12604190D02*
X15756905Y-12604190D01*
X15756905Y-12604190D02*
X15775952Y-12613714D01*
X15775952Y-12613714D02*
X15785476Y-12632762D01*
X15785476Y-12632762D02*
X15785476Y-12737524D01*
X15785476Y-12632762D02*
X15795000Y-12613714D01*
X15795000Y-12613714D02*
X15814048Y-12604190D01*
X15814048Y-12604190D02*
X15842619Y-12604190D01*
X15842619Y-12604190D02*
X15861667Y-12613714D01*
X15861667Y-12613714D02*
X15871190Y-12632762D01*
X15871190Y-12632762D02*
X15871190Y-12737524D01*
X15966429Y-12737524D02*
X15966429Y-12604190D01*
X15966429Y-12623238D02*
X15975952Y-12613714D01*
X15975952Y-12613714D02*
X15995000Y-12604190D01*
X15995000Y-12604190D02*
X16023571Y-12604190D01*
X16023571Y-12604190D02*
X16042619Y-12613714D01*
X16042619Y-12613714D02*
X16052143Y-12632762D01*
X16052143Y-12632762D02*
X16052143Y-12737524D01*
X16052143Y-12632762D02*
X16061667Y-12613714D01*
X16061667Y-12613714D02*
X16080714Y-12604190D01*
X16080714Y-12604190D02*
X16109286Y-12604190D01*
X16109286Y-12604190D02*
X16128333Y-12613714D01*
X16128333Y-12613714D02*
X16137857Y-12632762D01*
X16137857Y-12632762D02*
X16137857Y-12737524D01*
X16528333Y-12528000D02*
X16356905Y-12785143D01*
X16785476Y-12537524D02*
X16804524Y-12537524D01*
X16804524Y-12537524D02*
X16823572Y-12547048D01*
X16823572Y-12547048D02*
X16833095Y-12556571D01*
X16833095Y-12556571D02*
X16842619Y-12575619D01*
X16842619Y-12575619D02*
X16852143Y-12613714D01*
X16852143Y-12613714D02*
X16852143Y-12661333D01*
X16852143Y-12661333D02*
X16842619Y-12699428D01*
X16842619Y-12699428D02*
X16833095Y-12718476D01*
X16833095Y-12718476D02*
X16823572Y-12728000D01*
X16823572Y-12728000D02*
X16804524Y-12737524D01*
X16804524Y-12737524D02*
X16785476Y-12737524D01*
X16785476Y-12737524D02*
X16766429Y-12728000D01*
X16766429Y-12728000D02*
X16756905Y-12718476D01*
X16756905Y-12718476D02*
X16747381Y-12699428D01*
X16747381Y-12699428D02*
X16737857Y-12661333D01*
X16737857Y-12661333D02*
X16737857Y-12613714D01*
X16737857Y-12613714D02*
X16747381Y-12575619D01*
X16747381Y-12575619D02*
X16756905Y-12556571D01*
X16756905Y-12556571D02*
X16766429Y-12547048D01*
X16766429Y-12547048D02*
X16785476Y-12537524D01*
X16937857Y-12718476D02*
X16947381Y-12728000D01*
X16947381Y-12728000D02*
X16937857Y-12737524D01*
X16937857Y-12737524D02*
X16928334Y-12728000D01*
X16928334Y-12728000D02*
X16937857Y-12718476D01*
X16937857Y-12718476D02*
X16937857Y-12737524D01*
X17071191Y-12537524D02*
X17090238Y-12537524D01*
X17090238Y-12537524D02*
X17109286Y-12547048D01*
X17109286Y-12547048D02*
X17118810Y-12556571D01*
X17118810Y-12556571D02*
X17128334Y-12575619D01*
X17128334Y-12575619D02*
X17137857Y-12613714D01*
X17137857Y-12613714D02*
X17137857Y-12661333D01*
X17137857Y-12661333D02*
X17128334Y-12699428D01*
X17128334Y-12699428D02*
X17118810Y-12718476D01*
X17118810Y-12718476D02*
X17109286Y-12728000D01*
X17109286Y-12728000D02*
X17090238Y-12737524D01*
X17090238Y-12737524D02*
X17071191Y-12737524D01*
X17071191Y-12737524D02*
X17052143Y-12728000D01*
X17052143Y-12728000D02*
X17042619Y-12718476D01*
X17042619Y-12718476D02*
X17033095Y-12699428D01*
X17033095Y-12699428D02*
X17023572Y-12661333D01*
X17023572Y-12661333D02*
X17023572Y-12613714D01*
X17023572Y-12613714D02*
X17033095Y-12575619D01*
X17033095Y-12575619D02*
X17042619Y-12556571D01*
X17042619Y-12556571D02*
X17052143Y-12547048D01*
X17052143Y-12547048D02*
X17071191Y-12537524D01*
X17318810Y-12537524D02*
X17223572Y-12537524D01*
X17223572Y-12537524D02*
X17214048Y-12632762D01*
X17214048Y-12632762D02*
X17223572Y-12623238D01*
X17223572Y-12623238D02*
X17242619Y-12613714D01*
X17242619Y-12613714D02*
X17290238Y-12613714D01*
X17290238Y-12613714D02*
X17309286Y-12623238D01*
X17309286Y-12623238D02*
X17318810Y-12632762D01*
X17318810Y-12632762D02*
X17328334Y-12651809D01*
X17328334Y-12651809D02*
X17328334Y-12699428D01*
X17328334Y-12699428D02*
X17318810Y-12718476D01*
X17318810Y-12718476D02*
X17309286Y-12728000D01*
X17309286Y-12728000D02*
X17290238Y-12737524D01*
X17290238Y-12737524D02*
X17242619Y-12737524D01*
X17242619Y-12737524D02*
X17223572Y-12728000D01*
X17223572Y-12728000D02*
X17214048Y-12718476D01*
X17452143Y-12537524D02*
X17471191Y-12537524D01*
X17471191Y-12537524D02*
X17490238Y-12547048D01*
X17490238Y-12547048D02*
X17499762Y-12556571D01*
X17499762Y-12556571D02*
X17509286Y-12575619D01*
X17509286Y-12575619D02*
X17518810Y-12613714D01*
X17518810Y-12613714D02*
X17518810Y-12661333D01*
X17518810Y-12661333D02*
X17509286Y-12699428D01*
X17509286Y-12699428D02*
X17499762Y-12718476D01*
X17499762Y-12718476D02*
X17490238Y-12728000D01*
X17490238Y-12728000D02*
X17471191Y-12737524D01*
X17471191Y-12737524D02*
X17452143Y-12737524D01*
X17452143Y-12737524D02*
X17433095Y-12728000D01*
X17433095Y-12728000D02*
X17423572Y-12718476D01*
X17423572Y-12718476D02*
X17414048Y-12699428D01*
X17414048Y-12699428D02*
X17404524Y-12661333D01*
X17404524Y-12661333D02*
X17404524Y-12613714D01*
X17404524Y-12613714D02*
X17414048Y-12575619D01*
X17414048Y-12575619D02*
X17423572Y-12556571D01*
X17423572Y-12556571D02*
X17433095Y-12547048D01*
X17433095Y-12547048D02*
X17452143Y-12537524D01*
X17642619Y-12537524D02*
X17661667Y-12537524D01*
X17661667Y-12537524D02*
X17680715Y-12547048D01*
X17680715Y-12547048D02*
X17690238Y-12556571D01*
X17690238Y-12556571D02*
X17699762Y-12575619D01*
X17699762Y-12575619D02*
X17709286Y-12613714D01*
X17709286Y-12613714D02*
X17709286Y-12661333D01*
X17709286Y-12661333D02*
X17699762Y-12699428D01*
X17699762Y-12699428D02*
X17690238Y-12718476D01*
X17690238Y-12718476D02*
X17680715Y-12728000D01*
X17680715Y-12728000D02*
X17661667Y-12737524D01*
X17661667Y-12737524D02*
X17642619Y-12737524D01*
X17642619Y-12737524D02*
X17623572Y-12728000D01*
X17623572Y-12728000D02*
X17614048Y-12718476D01*
X17614048Y-12718476D02*
X17604524Y-12699428D01*
X17604524Y-12699428D02*
X17595000Y-12661333D01*
X17595000Y-12661333D02*
X17595000Y-12613714D01*
X17595000Y-12613714D02*
X17604524Y-12575619D01*
X17604524Y-12575619D02*
X17614048Y-12556571D01*
X17614048Y-12556571D02*
X17623572Y-12547048D01*
X17623572Y-12547048D02*
X17642619Y-12537524D01*
X17785476Y-12537524D02*
X17785476Y-12575619D01*
X17861667Y-12537524D02*
X17861667Y-12575619D01*
X18156905Y-12813714D02*
X18147381Y-12804190D01*
X18147381Y-12804190D02*
X18128334Y-12775619D01*
X18128334Y-12775619D02*
X18118810Y-12756571D01*
X18118810Y-12756571D02*
X18109286Y-12728000D01*
X18109286Y-12728000D02*
X18099762Y-12680381D01*
X18099762Y-12680381D02*
X18099762Y-12642286D01*
X18099762Y-12642286D02*
X18109286Y-12594667D01*
X18109286Y-12594667D02*
X18118810Y-12566095D01*
X18118810Y-12566095D02*
X18128334Y-12547048D01*
X18128334Y-12547048D02*
X18147381Y-12518476D01*
X18147381Y-12518476D02*
X18156905Y-12508952D01*
X18318810Y-12537524D02*
X18280715Y-12537524D01*
X18280715Y-12537524D02*
X18261667Y-12547048D01*
X18261667Y-12547048D02*
X18252143Y-12556571D01*
X18252143Y-12556571D02*
X18233096Y-12585143D01*
X18233096Y-12585143D02*
X18223572Y-12623238D01*
X18223572Y-12623238D02*
X18223572Y-12699428D01*
X18223572Y-12699428D02*
X18233096Y-12718476D01*
X18233096Y-12718476D02*
X18242619Y-12728000D01*
X18242619Y-12728000D02*
X18261667Y-12737524D01*
X18261667Y-12737524D02*
X18299762Y-12737524D01*
X18299762Y-12737524D02*
X18318810Y-12728000D01*
X18318810Y-12728000D02*
X18328334Y-12718476D01*
X18328334Y-12718476D02*
X18337857Y-12699428D01*
X18337857Y-12699428D02*
X18337857Y-12651809D01*
X18337857Y-12651809D02*
X18328334Y-12632762D01*
X18328334Y-12632762D02*
X18318810Y-12623238D01*
X18318810Y-12623238D02*
X18299762Y-12613714D01*
X18299762Y-12613714D02*
X18261667Y-12613714D01*
X18261667Y-12613714D02*
X18242619Y-12623238D01*
X18242619Y-12623238D02*
X18233096Y-12632762D01*
X18233096Y-12632762D02*
X18223572Y-12651809D01*
X18575953Y-12737524D02*
X18575953Y-12537524D01*
X18661667Y-12737524D02*
X18661667Y-12632762D01*
X18661667Y-12632762D02*
X18652143Y-12613714D01*
X18652143Y-12613714D02*
X18633096Y-12604190D01*
X18633096Y-12604190D02*
X18604524Y-12604190D01*
X18604524Y-12604190D02*
X18585477Y-12613714D01*
X18585477Y-12613714D02*
X18575953Y-12623238D01*
X18785477Y-12737524D02*
X18766429Y-12728000D01*
X18766429Y-12728000D02*
X18756905Y-12718476D01*
X18756905Y-12718476D02*
X18747381Y-12699428D01*
X18747381Y-12699428D02*
X18747381Y-12642286D01*
X18747381Y-12642286D02*
X18756905Y-12623238D01*
X18756905Y-12623238D02*
X18766429Y-12613714D01*
X18766429Y-12613714D02*
X18785477Y-12604190D01*
X18785477Y-12604190D02*
X18814048Y-12604190D01*
X18814048Y-12604190D02*
X18833096Y-12613714D01*
X18833096Y-12613714D02*
X18842619Y-12623238D01*
X18842619Y-12623238D02*
X18852143Y-12642286D01*
X18852143Y-12642286D02*
X18852143Y-12699428D01*
X18852143Y-12699428D02*
X18842619Y-12718476D01*
X18842619Y-12718476D02*
X18833096Y-12728000D01*
X18833096Y-12728000D02*
X18814048Y-12737524D01*
X18814048Y-12737524D02*
X18785477Y-12737524D01*
X18966429Y-12737524D02*
X18947381Y-12728000D01*
X18947381Y-12728000D02*
X18937858Y-12708952D01*
X18937858Y-12708952D02*
X18937858Y-12537524D01*
X19118810Y-12728000D02*
X19099762Y-12737524D01*
X19099762Y-12737524D02*
X19061667Y-12737524D01*
X19061667Y-12737524D02*
X19042619Y-12728000D01*
X19042619Y-12728000D02*
X19033096Y-12708952D01*
X19033096Y-12708952D02*
X19033096Y-12632762D01*
X19033096Y-12632762D02*
X19042619Y-12613714D01*
X19042619Y-12613714D02*
X19061667Y-12604190D01*
X19061667Y-12604190D02*
X19099762Y-12604190D01*
X19099762Y-12604190D02*
X19118810Y-12613714D01*
X19118810Y-12613714D02*
X19128334Y-12632762D01*
X19128334Y-12632762D02*
X19128334Y-12651809D01*
X19128334Y-12651809D02*
X19033096Y-12670857D01*
X19204524Y-12728000D02*
X19223572Y-12737524D01*
X19223572Y-12737524D02*
X19261667Y-12737524D01*
X19261667Y-12737524D02*
X19280715Y-12728000D01*
X19280715Y-12728000D02*
X19290239Y-12708952D01*
X19290239Y-12708952D02*
X19290239Y-12699428D01*
X19290239Y-12699428D02*
X19280715Y-12680381D01*
X19280715Y-12680381D02*
X19261667Y-12670857D01*
X19261667Y-12670857D02*
X19233096Y-12670857D01*
X19233096Y-12670857D02*
X19214048Y-12661333D01*
X19214048Y-12661333D02*
X19204524Y-12642286D01*
X19204524Y-12642286D02*
X19204524Y-12632762D01*
X19204524Y-12632762D02*
X19214048Y-12613714D01*
X19214048Y-12613714D02*
X19233096Y-12604190D01*
X19233096Y-12604190D02*
X19261667Y-12604190D01*
X19261667Y-12604190D02*
X19280715Y-12613714D01*
X19356905Y-12813714D02*
X19366429Y-12804190D01*
X19366429Y-12804190D02*
X19385477Y-12775619D01*
X19385477Y-12775619D02*
X19395000Y-12756571D01*
X19395000Y-12756571D02*
X19404524Y-12728000D01*
X19404524Y-12728000D02*
X19414048Y-12680381D01*
X19414048Y-12680381D02*
X19414048Y-12642286D01*
X19414048Y-12642286D02*
X19404524Y-12594667D01*
X19404524Y-12594667D02*
X19395000Y-12566095D01*
X19395000Y-12566095D02*
X19385477Y-12547048D01*
X19385477Y-12547048D02*
X19366429Y-12518476D01*
X19366429Y-12518476D02*
X19356905Y-12508952D01*
X19718810Y-12813714D02*
X19709286Y-12804190D01*
X19709286Y-12804190D02*
X19690239Y-12775619D01*
X19690239Y-12775619D02*
X19680715Y-12756571D01*
X19680715Y-12756571D02*
X19671191Y-12728000D01*
X19671191Y-12728000D02*
X19661667Y-12680381D01*
X19661667Y-12680381D02*
X19661667Y-12642286D01*
X19661667Y-12642286D02*
X19671191Y-12594667D01*
X19671191Y-12594667D02*
X19680715Y-12566095D01*
X19680715Y-12566095D02*
X19690239Y-12547048D01*
X19690239Y-12547048D02*
X19709286Y-12518476D01*
X19709286Y-12518476D02*
X19718810Y-12508952D01*
X19795000Y-12604190D02*
X19795000Y-12737524D01*
X19795000Y-12623238D02*
X19804524Y-12613714D01*
X19804524Y-12613714D02*
X19823572Y-12604190D01*
X19823572Y-12604190D02*
X19852143Y-12604190D01*
X19852143Y-12604190D02*
X19871191Y-12613714D01*
X19871191Y-12613714D02*
X19880715Y-12632762D01*
X19880715Y-12632762D02*
X19880715Y-12737524D01*
X20004524Y-12737524D02*
X19985477Y-12728000D01*
X19985477Y-12728000D02*
X19975953Y-12718476D01*
X19975953Y-12718476D02*
X19966429Y-12699428D01*
X19966429Y-12699428D02*
X19966429Y-12642286D01*
X19966429Y-12642286D02*
X19975953Y-12623238D01*
X19975953Y-12623238D02*
X19985477Y-12613714D01*
X19985477Y-12613714D02*
X20004524Y-12604190D01*
X20004524Y-12604190D02*
X20033096Y-12604190D01*
X20033096Y-12604190D02*
X20052143Y-12613714D01*
X20052143Y-12613714D02*
X20061667Y-12623238D01*
X20061667Y-12623238D02*
X20071191Y-12642286D01*
X20071191Y-12642286D02*
X20071191Y-12699428D01*
X20071191Y-12699428D02*
X20061667Y-12718476D01*
X20061667Y-12718476D02*
X20052143Y-12728000D01*
X20052143Y-12728000D02*
X20033096Y-12737524D01*
X20033096Y-12737524D02*
X20004524Y-12737524D01*
X20128334Y-12604190D02*
X20204524Y-12604190D01*
X20156905Y-12537524D02*
X20156905Y-12708952D01*
X20156905Y-12708952D02*
X20166429Y-12728000D01*
X20166429Y-12728000D02*
X20185477Y-12737524D01*
X20185477Y-12737524D02*
X20204524Y-12737524D01*
X20423572Y-12604190D02*
X20423572Y-12804190D01*
X20423572Y-12613714D02*
X20442620Y-12604190D01*
X20442620Y-12604190D02*
X20480715Y-12604190D01*
X20480715Y-12604190D02*
X20499762Y-12613714D01*
X20499762Y-12613714D02*
X20509286Y-12623238D01*
X20509286Y-12623238D02*
X20518810Y-12642286D01*
X20518810Y-12642286D02*
X20518810Y-12699428D01*
X20518810Y-12699428D02*
X20509286Y-12718476D01*
X20509286Y-12718476D02*
X20499762Y-12728000D01*
X20499762Y-12728000D02*
X20480715Y-12737524D01*
X20480715Y-12737524D02*
X20442620Y-12737524D01*
X20442620Y-12737524D02*
X20423572Y-12728000D01*
X20633096Y-12737524D02*
X20614048Y-12728000D01*
X20614048Y-12728000D02*
X20604524Y-12708952D01*
X20604524Y-12708952D02*
X20604524Y-12537524D01*
X20795001Y-12737524D02*
X20795001Y-12632762D01*
X20795001Y-12632762D02*
X20785477Y-12613714D01*
X20785477Y-12613714D02*
X20766429Y-12604190D01*
X20766429Y-12604190D02*
X20728334Y-12604190D01*
X20728334Y-12604190D02*
X20709286Y-12613714D01*
X20795001Y-12728000D02*
X20775953Y-12737524D01*
X20775953Y-12737524D02*
X20728334Y-12737524D01*
X20728334Y-12737524D02*
X20709286Y-12728000D01*
X20709286Y-12728000D02*
X20699762Y-12708952D01*
X20699762Y-12708952D02*
X20699762Y-12689905D01*
X20699762Y-12689905D02*
X20709286Y-12670857D01*
X20709286Y-12670857D02*
X20728334Y-12661333D01*
X20728334Y-12661333D02*
X20775953Y-12661333D01*
X20775953Y-12661333D02*
X20795001Y-12651809D01*
X20861667Y-12604190D02*
X20937858Y-12604190D01*
X20890239Y-12537524D02*
X20890239Y-12708952D01*
X20890239Y-12708952D02*
X20899762Y-12728000D01*
X20899762Y-12728000D02*
X20918810Y-12737524D01*
X20918810Y-12737524D02*
X20937858Y-12737524D01*
X21080715Y-12728000D02*
X21061667Y-12737524D01*
X21061667Y-12737524D02*
X21023572Y-12737524D01*
X21023572Y-12737524D02*
X21004524Y-12728000D01*
X21004524Y-12728000D02*
X20995001Y-12708952D01*
X20995001Y-12708952D02*
X20995001Y-12632762D01*
X20995001Y-12632762D02*
X21004524Y-12613714D01*
X21004524Y-12613714D02*
X21023572Y-12604190D01*
X21023572Y-12604190D02*
X21061667Y-12604190D01*
X21061667Y-12604190D02*
X21080715Y-12613714D01*
X21080715Y-12613714D02*
X21090239Y-12632762D01*
X21090239Y-12632762D02*
X21090239Y-12651809D01*
X21090239Y-12651809D02*
X20995001Y-12670857D01*
X21261667Y-12737524D02*
X21261667Y-12537524D01*
X21261667Y-12728000D02*
X21242620Y-12737524D01*
X21242620Y-12737524D02*
X21204524Y-12737524D01*
X21204524Y-12737524D02*
X21185477Y-12728000D01*
X21185477Y-12728000D02*
X21175953Y-12718476D01*
X21175953Y-12718476D02*
X21166429Y-12699428D01*
X21166429Y-12699428D02*
X21166429Y-12642286D01*
X21166429Y-12642286D02*
X21175953Y-12623238D01*
X21175953Y-12623238D02*
X21185477Y-12613714D01*
X21185477Y-12613714D02*
X21204524Y-12604190D01*
X21204524Y-12604190D02*
X21242620Y-12604190D01*
X21242620Y-12604190D02*
X21261667Y-12613714D01*
X21337858Y-12813714D02*
X21347382Y-12804190D01*
X21347382Y-12804190D02*
X21366429Y-12775619D01*
X21366429Y-12775619D02*
X21375953Y-12756571D01*
X21375953Y-12756571D02*
X21385477Y-12728000D01*
X21385477Y-12728000D02*
X21395001Y-12680381D01*
X21395001Y-12680381D02*
X21395001Y-12642286D01*
X21395001Y-12642286D02*
X21385477Y-12594667D01*
X21385477Y-12594667D02*
X21375953Y-12566095D01*
X21375953Y-12566095D02*
X21366429Y-12547048D01*
X21366429Y-12547048D02*
X21347382Y-12518476D01*
X21347382Y-12518476D02*
X21337858Y-12508952D01*
X14595000Y-12909000D02*
G75*
G03*
X14595000Y-12909000I-100000J0D01*
G01*
X14823571Y-12801524D02*
X14947381Y-12801524D01*
X14947381Y-12801524D02*
X14880714Y-12877714D01*
X14880714Y-12877714D02*
X14909286Y-12877714D01*
X14909286Y-12877714D02*
X14928333Y-12887238D01*
X14928333Y-12887238D02*
X14937857Y-12896762D01*
X14937857Y-12896762D02*
X14947381Y-12915809D01*
X14947381Y-12915809D02*
X14947381Y-12963428D01*
X14947381Y-12963428D02*
X14937857Y-12982476D01*
X14937857Y-12982476D02*
X14928333Y-12992000D01*
X14928333Y-12992000D02*
X14909286Y-13001524D01*
X14909286Y-13001524D02*
X14852143Y-13001524D01*
X14852143Y-13001524D02*
X14833095Y-12992000D01*
X14833095Y-12992000D02*
X14823571Y-12982476D01*
X15033095Y-12982476D02*
X15042619Y-12992000D01*
X15042619Y-12992000D02*
X15033095Y-13001524D01*
X15033095Y-13001524D02*
X15023571Y-12992000D01*
X15023571Y-12992000D02*
X15033095Y-12982476D01*
X15033095Y-12982476D02*
X15033095Y-13001524D01*
X15166428Y-12801524D02*
X15185476Y-12801524D01*
X15185476Y-12801524D02*
X15204524Y-12811048D01*
X15204524Y-12811048D02*
X15214048Y-12820571D01*
X15214048Y-12820571D02*
X15223571Y-12839619D01*
X15223571Y-12839619D02*
X15233095Y-12877714D01*
X15233095Y-12877714D02*
X15233095Y-12925333D01*
X15233095Y-12925333D02*
X15223571Y-12963428D01*
X15223571Y-12963428D02*
X15214048Y-12982476D01*
X15214048Y-12982476D02*
X15204524Y-12992000D01*
X15204524Y-12992000D02*
X15185476Y-13001524D01*
X15185476Y-13001524D02*
X15166428Y-13001524D01*
X15166428Y-13001524D02*
X15147381Y-12992000D01*
X15147381Y-12992000D02*
X15137857Y-12982476D01*
X15137857Y-12982476D02*
X15128333Y-12963428D01*
X15128333Y-12963428D02*
X15118809Y-12925333D01*
X15118809Y-12925333D02*
X15118809Y-12877714D01*
X15118809Y-12877714D02*
X15128333Y-12839619D01*
X15128333Y-12839619D02*
X15137857Y-12820571D01*
X15137857Y-12820571D02*
X15147381Y-12811048D01*
X15147381Y-12811048D02*
X15166428Y-12801524D01*
X15356905Y-12801524D02*
X15375952Y-12801524D01*
X15375952Y-12801524D02*
X15395000Y-12811048D01*
X15395000Y-12811048D02*
X15404524Y-12820571D01*
X15404524Y-12820571D02*
X15414048Y-12839619D01*
X15414048Y-12839619D02*
X15423571Y-12877714D01*
X15423571Y-12877714D02*
X15423571Y-12925333D01*
X15423571Y-12925333D02*
X15414048Y-12963428D01*
X15414048Y-12963428D02*
X15404524Y-12982476D01*
X15404524Y-12982476D02*
X15395000Y-12992000D01*
X15395000Y-12992000D02*
X15375952Y-13001524D01*
X15375952Y-13001524D02*
X15356905Y-13001524D01*
X15356905Y-13001524D02*
X15337857Y-12992000D01*
X15337857Y-12992000D02*
X15328333Y-12982476D01*
X15328333Y-12982476D02*
X15318809Y-12963428D01*
X15318809Y-12963428D02*
X15309286Y-12925333D01*
X15309286Y-12925333D02*
X15309286Y-12877714D01*
X15309286Y-12877714D02*
X15318809Y-12839619D01*
X15318809Y-12839619D02*
X15328333Y-12820571D01*
X15328333Y-12820571D02*
X15337857Y-12811048D01*
X15337857Y-12811048D02*
X15356905Y-12801524D01*
X15547381Y-12801524D02*
X15566429Y-12801524D01*
X15566429Y-12801524D02*
X15585476Y-12811048D01*
X15585476Y-12811048D02*
X15595000Y-12820571D01*
X15595000Y-12820571D02*
X15604524Y-12839619D01*
X15604524Y-12839619D02*
X15614048Y-12877714D01*
X15614048Y-12877714D02*
X15614048Y-12925333D01*
X15614048Y-12925333D02*
X15604524Y-12963428D01*
X15604524Y-12963428D02*
X15595000Y-12982476D01*
X15595000Y-12982476D02*
X15585476Y-12992000D01*
X15585476Y-12992000D02*
X15566429Y-13001524D01*
X15566429Y-13001524D02*
X15547381Y-13001524D01*
X15547381Y-13001524D02*
X15528333Y-12992000D01*
X15528333Y-12992000D02*
X15518809Y-12982476D01*
X15518809Y-12982476D02*
X15509286Y-12963428D01*
X15509286Y-12963428D02*
X15499762Y-12925333D01*
X15499762Y-12925333D02*
X15499762Y-12877714D01*
X15499762Y-12877714D02*
X15509286Y-12839619D01*
X15509286Y-12839619D02*
X15518809Y-12820571D01*
X15518809Y-12820571D02*
X15528333Y-12811048D01*
X15528333Y-12811048D02*
X15547381Y-12801524D01*
X15699762Y-13001524D02*
X15699762Y-12868190D01*
X15699762Y-12887238D02*
X15709286Y-12877714D01*
X15709286Y-12877714D02*
X15728333Y-12868190D01*
X15728333Y-12868190D02*
X15756905Y-12868190D01*
X15756905Y-12868190D02*
X15775952Y-12877714D01*
X15775952Y-12877714D02*
X15785476Y-12896762D01*
X15785476Y-12896762D02*
X15785476Y-13001524D01*
X15785476Y-12896762D02*
X15795000Y-12877714D01*
X15795000Y-12877714D02*
X15814048Y-12868190D01*
X15814048Y-12868190D02*
X15842619Y-12868190D01*
X15842619Y-12868190D02*
X15861667Y-12877714D01*
X15861667Y-12877714D02*
X15871190Y-12896762D01*
X15871190Y-12896762D02*
X15871190Y-13001524D01*
X15966429Y-13001524D02*
X15966429Y-12868190D01*
X15966429Y-12887238D02*
X15975952Y-12877714D01*
X15975952Y-12877714D02*
X15995000Y-12868190D01*
X15995000Y-12868190D02*
X16023571Y-12868190D01*
X16023571Y-12868190D02*
X16042619Y-12877714D01*
X16042619Y-12877714D02*
X16052143Y-12896762D01*
X16052143Y-12896762D02*
X16052143Y-13001524D01*
X16052143Y-12896762D02*
X16061667Y-12877714D01*
X16061667Y-12877714D02*
X16080714Y-12868190D01*
X16080714Y-12868190D02*
X16109286Y-12868190D01*
X16109286Y-12868190D02*
X16128333Y-12877714D01*
X16128333Y-12877714D02*
X16137857Y-12896762D01*
X16137857Y-12896762D02*
X16137857Y-13001524D01*
X16528333Y-12792000D02*
X16356905Y-13049143D01*
X16785476Y-12801524D02*
X16804524Y-12801524D01*
X16804524Y-12801524D02*
X16823572Y-12811048D01*
X16823572Y-12811048D02*
X16833095Y-12820571D01*
X16833095Y-12820571D02*
X16842619Y-12839619D01*
X16842619Y-12839619D02*
X16852143Y-12877714D01*
X16852143Y-12877714D02*
X16852143Y-12925333D01*
X16852143Y-12925333D02*
X16842619Y-12963428D01*
X16842619Y-12963428D02*
X16833095Y-12982476D01*
X16833095Y-12982476D02*
X16823572Y-12992000D01*
X16823572Y-12992000D02*
X16804524Y-13001524D01*
X16804524Y-13001524D02*
X16785476Y-13001524D01*
X16785476Y-13001524D02*
X16766429Y-12992000D01*
X16766429Y-12992000D02*
X16756905Y-12982476D01*
X16756905Y-12982476D02*
X16747381Y-12963428D01*
X16747381Y-12963428D02*
X16737857Y-12925333D01*
X16737857Y-12925333D02*
X16737857Y-12877714D01*
X16737857Y-12877714D02*
X16747381Y-12839619D01*
X16747381Y-12839619D02*
X16756905Y-12820571D01*
X16756905Y-12820571D02*
X16766429Y-12811048D01*
X16766429Y-12811048D02*
X16785476Y-12801524D01*
X16937857Y-12982476D02*
X16947381Y-12992000D01*
X16947381Y-12992000D02*
X16937857Y-13001524D01*
X16937857Y-13001524D02*
X16928334Y-12992000D01*
X16928334Y-12992000D02*
X16937857Y-12982476D01*
X16937857Y-12982476D02*
X16937857Y-13001524D01*
X17137857Y-13001524D02*
X17023572Y-13001524D01*
X17080714Y-13001524D02*
X17080714Y-12801524D01*
X17080714Y-12801524D02*
X17061667Y-12830095D01*
X17061667Y-12830095D02*
X17042619Y-12849143D01*
X17042619Y-12849143D02*
X17023572Y-12858667D01*
X17328334Y-13001524D02*
X17214048Y-13001524D01*
X17271191Y-13001524D02*
X17271191Y-12801524D01*
X17271191Y-12801524D02*
X17252143Y-12830095D01*
X17252143Y-12830095D02*
X17233095Y-12849143D01*
X17233095Y-12849143D02*
X17214048Y-12858667D01*
X17442619Y-12887238D02*
X17423572Y-12877714D01*
X17423572Y-12877714D02*
X17414048Y-12868190D01*
X17414048Y-12868190D02*
X17404524Y-12849143D01*
X17404524Y-12849143D02*
X17404524Y-12839619D01*
X17404524Y-12839619D02*
X17414048Y-12820571D01*
X17414048Y-12820571D02*
X17423572Y-12811048D01*
X17423572Y-12811048D02*
X17442619Y-12801524D01*
X17442619Y-12801524D02*
X17480715Y-12801524D01*
X17480715Y-12801524D02*
X17499762Y-12811048D01*
X17499762Y-12811048D02*
X17509286Y-12820571D01*
X17509286Y-12820571D02*
X17518810Y-12839619D01*
X17518810Y-12839619D02*
X17518810Y-12849143D01*
X17518810Y-12849143D02*
X17509286Y-12868190D01*
X17509286Y-12868190D02*
X17499762Y-12877714D01*
X17499762Y-12877714D02*
X17480715Y-12887238D01*
X17480715Y-12887238D02*
X17442619Y-12887238D01*
X17442619Y-12887238D02*
X17423572Y-12896762D01*
X17423572Y-12896762D02*
X17414048Y-12906286D01*
X17414048Y-12906286D02*
X17404524Y-12925333D01*
X17404524Y-12925333D02*
X17404524Y-12963428D01*
X17404524Y-12963428D02*
X17414048Y-12982476D01*
X17414048Y-12982476D02*
X17423572Y-12992000D01*
X17423572Y-12992000D02*
X17442619Y-13001524D01*
X17442619Y-13001524D02*
X17480715Y-13001524D01*
X17480715Y-13001524D02*
X17499762Y-12992000D01*
X17499762Y-12992000D02*
X17509286Y-12982476D01*
X17509286Y-12982476D02*
X17518810Y-12963428D01*
X17518810Y-12963428D02*
X17518810Y-12925333D01*
X17518810Y-12925333D02*
X17509286Y-12906286D01*
X17509286Y-12906286D02*
X17499762Y-12896762D01*
X17499762Y-12896762D02*
X17480715Y-12887238D01*
X17709286Y-13001524D02*
X17595000Y-13001524D01*
X17652143Y-13001524D02*
X17652143Y-12801524D01*
X17652143Y-12801524D02*
X17633095Y-12830095D01*
X17633095Y-12830095D02*
X17614048Y-12849143D01*
X17614048Y-12849143D02*
X17595000Y-12858667D01*
X17785476Y-12801524D02*
X17785476Y-12839619D01*
X17861667Y-12801524D02*
X17861667Y-12839619D01*
X18156905Y-13077714D02*
X18147381Y-13068190D01*
X18147381Y-13068190D02*
X18128334Y-13039619D01*
X18128334Y-13039619D02*
X18118810Y-13020571D01*
X18118810Y-13020571D02*
X18109286Y-12992000D01*
X18109286Y-12992000D02*
X18099762Y-12944381D01*
X18099762Y-12944381D02*
X18099762Y-12906286D01*
X18099762Y-12906286D02*
X18109286Y-12858667D01*
X18109286Y-12858667D02*
X18118810Y-12830095D01*
X18118810Y-12830095D02*
X18128334Y-12811048D01*
X18128334Y-12811048D02*
X18147381Y-12782476D01*
X18147381Y-12782476D02*
X18156905Y-12772952D01*
X18223572Y-12820571D02*
X18233096Y-12811048D01*
X18233096Y-12811048D02*
X18252143Y-12801524D01*
X18252143Y-12801524D02*
X18299762Y-12801524D01*
X18299762Y-12801524D02*
X18318810Y-12811048D01*
X18318810Y-12811048D02*
X18328334Y-12820571D01*
X18328334Y-12820571D02*
X18337857Y-12839619D01*
X18337857Y-12839619D02*
X18337857Y-12858667D01*
X18337857Y-12858667D02*
X18328334Y-12887238D01*
X18328334Y-12887238D02*
X18214048Y-13001524D01*
X18214048Y-13001524D02*
X18337857Y-13001524D01*
X18575953Y-13001524D02*
X18575953Y-12801524D01*
X18661667Y-13001524D02*
X18661667Y-12896762D01*
X18661667Y-12896762D02*
X18652143Y-12877714D01*
X18652143Y-12877714D02*
X18633096Y-12868190D01*
X18633096Y-12868190D02*
X18604524Y-12868190D01*
X18604524Y-12868190D02*
X18585477Y-12877714D01*
X18585477Y-12877714D02*
X18575953Y-12887238D01*
X18785477Y-13001524D02*
X18766429Y-12992000D01*
X18766429Y-12992000D02*
X18756905Y-12982476D01*
X18756905Y-12982476D02*
X18747381Y-12963428D01*
X18747381Y-12963428D02*
X18747381Y-12906286D01*
X18747381Y-12906286D02*
X18756905Y-12887238D01*
X18756905Y-12887238D02*
X18766429Y-12877714D01*
X18766429Y-12877714D02*
X18785477Y-12868190D01*
X18785477Y-12868190D02*
X18814048Y-12868190D01*
X18814048Y-12868190D02*
X18833096Y-12877714D01*
X18833096Y-12877714D02*
X18842619Y-12887238D01*
X18842619Y-12887238D02*
X18852143Y-12906286D01*
X18852143Y-12906286D02*
X18852143Y-12963428D01*
X18852143Y-12963428D02*
X18842619Y-12982476D01*
X18842619Y-12982476D02*
X18833096Y-12992000D01*
X18833096Y-12992000D02*
X18814048Y-13001524D01*
X18814048Y-13001524D02*
X18785477Y-13001524D01*
X18966429Y-13001524D02*
X18947381Y-12992000D01*
X18947381Y-12992000D02*
X18937858Y-12972952D01*
X18937858Y-12972952D02*
X18937858Y-12801524D01*
X19118810Y-12992000D02*
X19099762Y-13001524D01*
X19099762Y-13001524D02*
X19061667Y-13001524D01*
X19061667Y-13001524D02*
X19042619Y-12992000D01*
X19042619Y-12992000D02*
X19033096Y-12972952D01*
X19033096Y-12972952D02*
X19033096Y-12896762D01*
X19033096Y-12896762D02*
X19042619Y-12877714D01*
X19042619Y-12877714D02*
X19061667Y-12868190D01*
X19061667Y-12868190D02*
X19099762Y-12868190D01*
X19099762Y-12868190D02*
X19118810Y-12877714D01*
X19118810Y-12877714D02*
X19128334Y-12896762D01*
X19128334Y-12896762D02*
X19128334Y-12915809D01*
X19128334Y-12915809D02*
X19033096Y-12934857D01*
X19204524Y-12992000D02*
X19223572Y-13001524D01*
X19223572Y-13001524D02*
X19261667Y-13001524D01*
X19261667Y-13001524D02*
X19280715Y-12992000D01*
X19280715Y-12992000D02*
X19290239Y-12972952D01*
X19290239Y-12972952D02*
X19290239Y-12963428D01*
X19290239Y-12963428D02*
X19280715Y-12944381D01*
X19280715Y-12944381D02*
X19261667Y-12934857D01*
X19261667Y-12934857D02*
X19233096Y-12934857D01*
X19233096Y-12934857D02*
X19214048Y-12925333D01*
X19214048Y-12925333D02*
X19204524Y-12906286D01*
X19204524Y-12906286D02*
X19204524Y-12896762D01*
X19204524Y-12896762D02*
X19214048Y-12877714D01*
X19214048Y-12877714D02*
X19233096Y-12868190D01*
X19233096Y-12868190D02*
X19261667Y-12868190D01*
X19261667Y-12868190D02*
X19280715Y-12877714D01*
X19356905Y-13077714D02*
X19366429Y-13068190D01*
X19366429Y-13068190D02*
X19385477Y-13039619D01*
X19385477Y-13039619D02*
X19395000Y-13020571D01*
X19395000Y-13020571D02*
X19404524Y-12992000D01*
X19404524Y-12992000D02*
X19414048Y-12944381D01*
X19414048Y-12944381D02*
X19414048Y-12906286D01*
X19414048Y-12906286D02*
X19404524Y-12858667D01*
X19404524Y-12858667D02*
X19395000Y-12830095D01*
X19395000Y-12830095D02*
X19385477Y-12811048D01*
X19385477Y-12811048D02*
X19366429Y-12782476D01*
X19366429Y-12782476D02*
X19356905Y-12772952D01*
X19718810Y-13077714D02*
X19709286Y-13068190D01*
X19709286Y-13068190D02*
X19690239Y-13039619D01*
X19690239Y-13039619D02*
X19680715Y-13020571D01*
X19680715Y-13020571D02*
X19671191Y-12992000D01*
X19671191Y-12992000D02*
X19661667Y-12944381D01*
X19661667Y-12944381D02*
X19661667Y-12906286D01*
X19661667Y-12906286D02*
X19671191Y-12858667D01*
X19671191Y-12858667D02*
X19680715Y-12830095D01*
X19680715Y-12830095D02*
X19690239Y-12811048D01*
X19690239Y-12811048D02*
X19709286Y-12782476D01*
X19709286Y-12782476D02*
X19718810Y-12772952D01*
X19795000Y-12868190D02*
X19795000Y-13001524D01*
X19795000Y-12887238D02*
X19804524Y-12877714D01*
X19804524Y-12877714D02*
X19823572Y-12868190D01*
X19823572Y-12868190D02*
X19852143Y-12868190D01*
X19852143Y-12868190D02*
X19871191Y-12877714D01*
X19871191Y-12877714D02*
X19880715Y-12896762D01*
X19880715Y-12896762D02*
X19880715Y-13001524D01*
X20004524Y-13001524D02*
X19985477Y-12992000D01*
X19985477Y-12992000D02*
X19975953Y-12982476D01*
X19975953Y-12982476D02*
X19966429Y-12963428D01*
X19966429Y-12963428D02*
X19966429Y-12906286D01*
X19966429Y-12906286D02*
X19975953Y-12887238D01*
X19975953Y-12887238D02*
X19985477Y-12877714D01*
X19985477Y-12877714D02*
X20004524Y-12868190D01*
X20004524Y-12868190D02*
X20033096Y-12868190D01*
X20033096Y-12868190D02*
X20052143Y-12877714D01*
X20052143Y-12877714D02*
X20061667Y-12887238D01*
X20061667Y-12887238D02*
X20071191Y-12906286D01*
X20071191Y-12906286D02*
X20071191Y-12963428D01*
X20071191Y-12963428D02*
X20061667Y-12982476D01*
X20061667Y-12982476D02*
X20052143Y-12992000D01*
X20052143Y-12992000D02*
X20033096Y-13001524D01*
X20033096Y-13001524D02*
X20004524Y-13001524D01*
X20128334Y-12868190D02*
X20204524Y-12868190D01*
X20156905Y-12801524D02*
X20156905Y-12972952D01*
X20156905Y-12972952D02*
X20166429Y-12992000D01*
X20166429Y-12992000D02*
X20185477Y-13001524D01*
X20185477Y-13001524D02*
X20204524Y-13001524D01*
X20423572Y-12868190D02*
X20423572Y-13068190D01*
X20423572Y-12877714D02*
X20442620Y-12868190D01*
X20442620Y-12868190D02*
X20480715Y-12868190D01*
X20480715Y-12868190D02*
X20499762Y-12877714D01*
X20499762Y-12877714D02*
X20509286Y-12887238D01*
X20509286Y-12887238D02*
X20518810Y-12906286D01*
X20518810Y-12906286D02*
X20518810Y-12963428D01*
X20518810Y-12963428D02*
X20509286Y-12982476D01*
X20509286Y-12982476D02*
X20499762Y-12992000D01*
X20499762Y-12992000D02*
X20480715Y-13001524D01*
X20480715Y-13001524D02*
X20442620Y-13001524D01*
X20442620Y-13001524D02*
X20423572Y-12992000D01*
X20633096Y-13001524D02*
X20614048Y-12992000D01*
X20614048Y-12992000D02*
X20604524Y-12972952D01*
X20604524Y-12972952D02*
X20604524Y-12801524D01*
X20795001Y-13001524D02*
X20795001Y-12896762D01*
X20795001Y-12896762D02*
X20785477Y-12877714D01*
X20785477Y-12877714D02*
X20766429Y-12868190D01*
X20766429Y-12868190D02*
X20728334Y-12868190D01*
X20728334Y-12868190D02*
X20709286Y-12877714D01*
X20795001Y-12992000D02*
X20775953Y-13001524D01*
X20775953Y-13001524D02*
X20728334Y-13001524D01*
X20728334Y-13001524D02*
X20709286Y-12992000D01*
X20709286Y-12992000D02*
X20699762Y-12972952D01*
X20699762Y-12972952D02*
X20699762Y-12953905D01*
X20699762Y-12953905D02*
X20709286Y-12934857D01*
X20709286Y-12934857D02*
X20728334Y-12925333D01*
X20728334Y-12925333D02*
X20775953Y-12925333D01*
X20775953Y-12925333D02*
X20795001Y-12915809D01*
X20861667Y-12868190D02*
X20937858Y-12868190D01*
X20890239Y-12801524D02*
X20890239Y-12972952D01*
X20890239Y-12972952D02*
X20899762Y-12992000D01*
X20899762Y-12992000D02*
X20918810Y-13001524D01*
X20918810Y-13001524D02*
X20937858Y-13001524D01*
X21080715Y-12992000D02*
X21061667Y-13001524D01*
X21061667Y-13001524D02*
X21023572Y-13001524D01*
X21023572Y-13001524D02*
X21004524Y-12992000D01*
X21004524Y-12992000D02*
X20995001Y-12972952D01*
X20995001Y-12972952D02*
X20995001Y-12896762D01*
X20995001Y-12896762D02*
X21004524Y-12877714D01*
X21004524Y-12877714D02*
X21023572Y-12868190D01*
X21023572Y-12868190D02*
X21061667Y-12868190D01*
X21061667Y-12868190D02*
X21080715Y-12877714D01*
X21080715Y-12877714D02*
X21090239Y-12896762D01*
X21090239Y-12896762D02*
X21090239Y-12915809D01*
X21090239Y-12915809D02*
X20995001Y-12934857D01*
X21261667Y-13001524D02*
X21261667Y-12801524D01*
X21261667Y-12992000D02*
X21242620Y-13001524D01*
X21242620Y-13001524D02*
X21204524Y-13001524D01*
X21204524Y-13001524D02*
X21185477Y-12992000D01*
X21185477Y-12992000D02*
X21175953Y-12982476D01*
X21175953Y-12982476D02*
X21166429Y-12963428D01*
X21166429Y-12963428D02*
X21166429Y-12906286D01*
X21166429Y-12906286D02*
X21175953Y-12887238D01*
X21175953Y-12887238D02*
X21185477Y-12877714D01*
X21185477Y-12877714D02*
X21204524Y-12868190D01*
X21204524Y-12868190D02*
X21242620Y-12868190D01*
X21242620Y-12868190D02*
X21261667Y-12877714D01*
X21337858Y-13077714D02*
X21347382Y-13068190D01*
X21347382Y-13068190D02*
X21366429Y-13039619D01*
X21366429Y-13039619D02*
X21375953Y-13020571D01*
X21375953Y-13020571D02*
X21385477Y-12992000D01*
X21385477Y-12992000D02*
X21395001Y-12944381D01*
X21395001Y-12944381D02*
X21395001Y-12906286D01*
X21395001Y-12906286D02*
X21385477Y-12858667D01*
X21385477Y-12858667D02*
X21375953Y-12830095D01*
X21375953Y-12830095D02*
X21366429Y-12811048D01*
X21366429Y-12811048D02*
X21347382Y-12782476D01*
X21347382Y-12782476D02*
X21337858Y-12772952D01*
M02*
