G04 #@! TF.GenerationSoftware,KiCad,Pcbnew,7.0.2*
G04 #@! TF.CreationDate,2023-11-13T13:22:44-06:00*
G04 #@! TF.ProjectId,Telemetry-Peripheral-SOM-Daughterboard-IMU,54656c65-6d65-4747-9279-2d5065726970,rev?*
G04 #@! TF.SameCoordinates,Original*
G04 #@! TF.FileFunction,Soldermask,Top*
G04 #@! TF.FilePolarity,Negative*
%FSLAX46Y46*%
G04 Gerber Fmt 4.6, Leading zero omitted, Abs format (unit mm)*
G04 Created by KiCad (PCBNEW 7.0.2) date 2023-11-13 13:22:44*
%MOMM*%
%LPD*%
G01*
G04 APERTURE LIST*
G04 Aperture macros list*
%AMRoundRect*
0 Rectangle with rounded corners*
0 $1 Rounding radius*
0 $2 $3 $4 $5 $6 $7 $8 $9 X,Y pos of 4 corners*
0 Add a 4 corners polygon primitive as box body*
4,1,4,$2,$3,$4,$5,$6,$7,$8,$9,$2,$3,0*
0 Add four circle primitives for the rounded corners*
1,1,$1+$1,$2,$3*
1,1,$1+$1,$4,$5*
1,1,$1+$1,$6,$7*
1,1,$1+$1,$8,$9*
0 Add four rect primitives between the rounded corners*
20,1,$1+$1,$2,$3,$4,$5,0*
20,1,$1+$1,$4,$5,$6,$7,0*
20,1,$1+$1,$6,$7,$8,$9,0*
20,1,$1+$1,$8,$9,$2,$3,0*%
G04 Aperture macros list end*
%ADD10RoundRect,0.250000X-0.250000X-0.475000X0.250000X-0.475000X0.250000X0.475000X-0.250000X0.475000X0*%
%ADD11RoundRect,0.250000X0.250000X0.475000X-0.250000X0.475000X-0.250000X-0.475000X0.250000X-0.475000X0*%
%ADD12RoundRect,0.250000X0.475000X-0.250000X0.475000X0.250000X-0.475000X0.250000X-0.475000X-0.250000X0*%
%ADD13C,1.270000*%
%ADD14C,1.700000*%
%ADD15RoundRect,0.250000X-0.350000X0.275000X-0.350000X-0.275000X0.350000X-0.275000X0.350000X0.275000X0*%
%ADD16C,2.000000*%
%ADD17R,1.800000X0.550000*%
%ADD18RoundRect,0.250000X-0.475000X0.250000X-0.475000X-0.250000X0.475000X-0.250000X0.475000X0.250000X0*%
%ADD19RoundRect,0.250000X0.450000X-0.350000X0.450000X0.350000X-0.450000X0.350000X-0.450000X-0.350000X0*%
%ADD20R,2.000000X2.000000*%
%ADD21R,0.533400X0.304800*%
%ADD22R,0.304800X0.533400*%
%ADD23C,3.000000*%
%ADD24RoundRect,0.250000X-0.450000X0.262500X-0.450000X-0.262500X0.450000X-0.262500X0.450000X0.262500X0*%
G04 APERTURE END LIST*
D10*
X156931401Y-107500000D03*
X158831401Y-107500000D03*
X174000000Y-80100000D03*
X175900000Y-80100000D03*
D11*
X176500000Y-104000000D03*
X174600000Y-104000000D03*
D12*
X150200000Y-96500000D03*
X150200000Y-94600000D03*
D13*
X182960000Y-85000000D03*
X182960000Y-97000000D03*
D14*
X181000000Y-88000000D03*
X181000000Y-91000000D03*
X181000000Y-94000000D03*
D13*
X182960000Y-69000000D03*
X182960000Y-81000000D03*
D14*
X181000000Y-72000000D03*
X181000000Y-75000000D03*
X181000000Y-78000000D03*
D15*
X176000000Y-75700000D03*
X176000000Y-78000000D03*
D11*
X176500000Y-88000000D03*
X174600000Y-88000000D03*
D16*
X157000000Y-117500000D03*
D17*
X164350000Y-87400000D03*
X168650000Y-87400000D03*
X164350000Y-88200000D03*
X168650000Y-88200000D03*
X164350000Y-89000000D03*
X168650000Y-89000000D03*
X164350000Y-89800000D03*
X168650000Y-89800000D03*
X164350000Y-90600000D03*
X168650000Y-90600000D03*
X164350000Y-91400000D03*
X168650000Y-91400000D03*
X164350000Y-92200000D03*
X168650000Y-92200000D03*
X164350000Y-93000000D03*
X168650000Y-93000000D03*
X164350000Y-93800000D03*
X168650000Y-93800000D03*
X164350000Y-94600000D03*
X168650000Y-94600000D03*
D11*
X176500000Y-72000000D03*
X174600000Y-72000000D03*
D10*
X174000000Y-96100000D03*
X175900000Y-96100000D03*
D18*
X152400000Y-94600000D03*
X152400000Y-96500000D03*
D16*
X171000000Y-117500000D03*
D19*
X174000000Y-77700000D03*
X174000000Y-75700000D03*
D16*
X167500000Y-117500000D03*
D18*
X150200000Y-85500000D03*
X150200000Y-87400000D03*
X152350000Y-85500000D03*
X152350000Y-87400000D03*
D20*
X174000000Y-117500000D03*
D10*
X174000000Y-112050000D03*
X175900000Y-112050000D03*
D21*
X158318901Y-103049698D03*
X158318901Y-103549699D03*
X158318901Y-104049699D03*
X158318901Y-104549700D03*
D22*
X159000002Y-104726799D03*
X159500001Y-104726799D03*
X160000000Y-104726799D03*
D21*
X160681101Y-104549700D03*
X160681101Y-104049699D03*
X160681101Y-103549699D03*
X160681101Y-103049698D03*
D22*
X160000000Y-102872599D03*
X159500001Y-102872599D03*
X159000002Y-102872599D03*
D19*
X174000000Y-109700000D03*
X174000000Y-107700000D03*
D23*
X150000000Y-112000000D03*
D24*
X158331401Y-98187500D03*
X158331401Y-100012500D03*
D19*
X174000000Y-93700000D03*
X174000000Y-91700000D03*
D15*
X176000000Y-91700000D03*
X176000000Y-94000000D03*
D11*
X162750000Y-107500000D03*
X160850000Y-107500000D03*
D16*
X160500000Y-117500000D03*
D15*
X176000000Y-107700000D03*
X176000000Y-110000000D03*
D23*
X150000000Y-70000000D03*
D20*
X153500000Y-117500000D03*
D13*
X182960000Y-101000000D03*
X182960000Y-113000000D03*
D14*
X181000000Y-104000000D03*
X181000000Y-107000000D03*
X181000000Y-110000000D03*
D16*
X164000000Y-117500000D03*
M02*
