M48
; DRILL file {KiCad 7.0.9} date Mon Nov 20 14:23:06 2023
; FORMAT={-:-/ absolute / metric / decimal}
; #@! TF.CreationDate,2023-11-20T14:23:06-06:00
; #@! TF.GenerationSoftware,Kicad,Pcbnew,7.0.9
; #@! TF.FileFunction,Plated,1,2,PTH
FMAT,2
METRIC
; #@! TA.AperFunction,Plated,PTH,ViaDrill
T1C0.400
; #@! TA.AperFunction,Plated,PTH,ComponentDrill
T2C1.000
; #@! TA.AperFunction,Plated,PTH,ComponentDrill
T3C1.020
%
G90
G05
T1
X146.584Y-64.963
X146.584Y-67.763
X146.586Y-109.356
X146.586Y-112.156
X147.384Y-62.763
X147.594Y-114.538
X149.0Y-78.0
X149.0Y-83.0
X149.0Y-100.0
X149.0Y-105.0
X149.784Y-61.763
X149.786Y-115.356
X150.2Y-85.5
X150.2Y-96.5
X152.35Y-85.5
X152.4Y-92.45
X152.4Y-96.5
X152.584Y-61.763
X152.586Y-115.356
X156.0Y-68.0
X156.0Y-78.0
X156.6Y-103.8
X156.931Y-107.5
X158.0Y-94.2
X158.0Y-111.0
X158.2Y-90.6
X159.0Y-97.25
X159.74Y-101.701
X159.747Y-100.775
X159.773Y-99.0
X161.7Y-101.7
X162.726Y-100.7
X162.75Y-107.5
X162.8Y-90.6
X162.936Y-93.346
X163.0Y-68.0
X163.0Y-78.0
X164.35Y-95.8
X165.0Y-111.0
X165.8Y-93.4
X166.864Y-87.136
X167.3Y-92.2
X167.3Y-93.127
X168.0Y-102.5
X168.5Y-87.0
X168.65Y-94.675
X169.0Y-83.0
X170.0Y-68.0
X170.0Y-78.0
X170.0Y-98.5
X171.1Y-92.2
X172.0Y-87.0
X174.5Y-68.0
X176.5Y-88.0
X176.5Y-104.0
X176.55Y-72.0
X178.2Y-66.8
X178.994Y-61.675
X179.436Y-115.203
X181.0Y-66.8
X181.0Y-83.0
X181.0Y-99.0
X181.794Y-61.675
X182.236Y-115.203
X183.994Y-62.475
X184.5Y-70.0
X184.636Y-114.203
X184.994Y-64.875
X184.994Y-67.675
X185.0Y-89.0
X185.436Y-109.203
X185.436Y-112.003
T2
X158.0Y-64.0
X161.5Y-64.0
X165.0Y-64.0
X168.5Y-64.0
X172.0Y-64.0
T3
X181.0Y-72.0
X181.0Y-75.0
X181.0Y-78.0
X181.0Y-88.0
X181.0Y-91.0
X181.0Y-94.0
X181.0Y-104.0
X181.0Y-107.0
X181.0Y-110.0
T0
M30
