%TF.GenerationSoftware,KiCad,Pcbnew,7.0.9*%
%TF.CreationDate,2023-11-28T01:14:56-06:00*%
%TF.ProjectId,Telemetry-Peripheral-SOM-Daughterboard-IMU,54656c65-6d65-4747-9279-2d5065726970,rev?*%
%TF.SameCoordinates,Original*%
%TF.FileFunction,Drillmap*%
%TF.FilePolarity,Positive*%
%FSLAX45Y45*%
G04 Gerber Fmt 4.5, Leading zero omitted, Abs format (unit mm)*
G04 Created by KiCad (PCBNEW 7.0.9) date 2023-11-28 01:14:56*
%MOMM*%
%LPD*%
G01*
G04 APERTURE LIST*
%ADD10C,0.100000*%
%ADD11C,0.200000*%
%ADD12C,0.127000*%
%ADD13C,0.300000*%
G04 APERTURE END LIST*
D10*
X18200000Y-11600000D02*
G75*
G03*
X18600000Y-11200000I0J400000D01*
G01*
X18600000Y-6500000D02*
G75*
G03*
X18200000Y-6100000I-400000J0D01*
G01*
X15000000Y-6100000D02*
G75*
G03*
X14600000Y-6500000I0J-400000D01*
G01*
X14600000Y-11200000D02*
G75*
G03*
X15000000Y-11600000I400000J0D01*
G01*
X14600000Y-11200000D02*
X14600000Y-6500000D01*
X15000000Y-6100000D02*
X18200000Y-6100000D01*
X18600000Y-6500000D02*
X18600000Y-11200000D01*
X18200000Y-11600000D02*
X15000000Y-11600000D01*
D11*
D12*
X18232500Y-6836500D02*
X18359500Y-6963500D01*
X18359500Y-6836500D02*
X18232500Y-6963500D01*
X18232500Y-8036500D02*
X18359500Y-8163500D01*
X18359500Y-8036500D02*
X18232500Y-8163500D01*
X18232500Y-8436500D02*
X18359500Y-8563500D01*
X18359500Y-8436500D02*
X18232500Y-8563500D01*
X18232500Y-9636500D02*
X18359500Y-9763500D01*
X18359500Y-9636500D02*
X18232500Y-9763500D01*
X18232500Y-10036500D02*
X18359500Y-10163500D01*
X18359500Y-10036500D02*
X18232500Y-10163500D01*
X18232500Y-11236500D02*
X18359500Y-11363500D01*
X18359500Y-11236500D02*
X18232500Y-11363500D01*
D13*
X15150000Y-7000000D02*
G75*
G03*
X15150000Y-7000000I-150000J0D01*
G01*
X15150000Y-11200000D02*
G75*
G03*
X15150000Y-11200000I-150000J0D01*
G01*
D11*
X14855777Y-11916484D02*
X14855777Y-11716484D01*
X14855777Y-11716484D02*
X14903396Y-11716484D01*
X14903396Y-11716484D02*
X14931967Y-11726008D01*
X14931967Y-11726008D02*
X14951015Y-11745055D01*
X14951015Y-11745055D02*
X14960539Y-11764103D01*
X14960539Y-11764103D02*
X14970062Y-11802198D01*
X14970062Y-11802198D02*
X14970062Y-11830769D01*
X14970062Y-11830769D02*
X14960539Y-11868865D01*
X14960539Y-11868865D02*
X14951015Y-11887912D01*
X14951015Y-11887912D02*
X14931967Y-11906960D01*
X14931967Y-11906960D02*
X14903396Y-11916484D01*
X14903396Y-11916484D02*
X14855777Y-11916484D01*
X15055777Y-11916484D02*
X15055777Y-11783150D01*
X15055777Y-11821246D02*
X15065301Y-11802198D01*
X15065301Y-11802198D02*
X15074824Y-11792674D01*
X15074824Y-11792674D02*
X15093872Y-11783150D01*
X15093872Y-11783150D02*
X15112920Y-11783150D01*
X15179586Y-11916484D02*
X15179586Y-11783150D01*
X15179586Y-11716484D02*
X15170062Y-11726008D01*
X15170062Y-11726008D02*
X15179586Y-11735531D01*
X15179586Y-11735531D02*
X15189110Y-11726008D01*
X15189110Y-11726008D02*
X15179586Y-11716484D01*
X15179586Y-11716484D02*
X15179586Y-11735531D01*
X15303396Y-11916484D02*
X15284348Y-11906960D01*
X15284348Y-11906960D02*
X15274824Y-11887912D01*
X15274824Y-11887912D02*
X15274824Y-11716484D01*
X15408158Y-11916484D02*
X15389110Y-11906960D01*
X15389110Y-11906960D02*
X15379586Y-11887912D01*
X15379586Y-11887912D02*
X15379586Y-11716484D01*
X15636729Y-11916484D02*
X15636729Y-11716484D01*
X15636729Y-11716484D02*
X15703396Y-11859341D01*
X15703396Y-11859341D02*
X15770062Y-11716484D01*
X15770062Y-11716484D02*
X15770062Y-11916484D01*
X15951015Y-11916484D02*
X15951015Y-11811722D01*
X15951015Y-11811722D02*
X15941491Y-11792674D01*
X15941491Y-11792674D02*
X15922443Y-11783150D01*
X15922443Y-11783150D02*
X15884348Y-11783150D01*
X15884348Y-11783150D02*
X15865301Y-11792674D01*
X15951015Y-11906960D02*
X15931967Y-11916484D01*
X15931967Y-11916484D02*
X15884348Y-11916484D01*
X15884348Y-11916484D02*
X15865301Y-11906960D01*
X15865301Y-11906960D02*
X15855777Y-11887912D01*
X15855777Y-11887912D02*
X15855777Y-11868865D01*
X15855777Y-11868865D02*
X15865301Y-11849817D01*
X15865301Y-11849817D02*
X15884348Y-11840293D01*
X15884348Y-11840293D02*
X15931967Y-11840293D01*
X15931967Y-11840293D02*
X15951015Y-11830769D01*
X16046253Y-11783150D02*
X16046253Y-11983150D01*
X16046253Y-11792674D02*
X16065301Y-11783150D01*
X16065301Y-11783150D02*
X16103396Y-11783150D01*
X16103396Y-11783150D02*
X16122443Y-11792674D01*
X16122443Y-11792674D02*
X16131967Y-11802198D01*
X16131967Y-11802198D02*
X16141491Y-11821246D01*
X16141491Y-11821246D02*
X16141491Y-11878388D01*
X16141491Y-11878388D02*
X16131967Y-11897436D01*
X16131967Y-11897436D02*
X16122443Y-11906960D01*
X16122443Y-11906960D02*
X16103396Y-11916484D01*
X16103396Y-11916484D02*
X16065301Y-11916484D01*
X16065301Y-11916484D02*
X16046253Y-11906960D01*
X16227205Y-11897436D02*
X16236729Y-11906960D01*
X16236729Y-11906960D02*
X16227205Y-11916484D01*
X16227205Y-11916484D02*
X16217682Y-11906960D01*
X16217682Y-11906960D02*
X16227205Y-11897436D01*
X16227205Y-11897436D02*
X16227205Y-11916484D01*
X16227205Y-11792674D02*
X16236729Y-11802198D01*
X16236729Y-11802198D02*
X16227205Y-11811722D01*
X16227205Y-11811722D02*
X16217682Y-11802198D01*
X16217682Y-11802198D02*
X16227205Y-11792674D01*
X16227205Y-11792674D02*
X16227205Y-11811722D01*
D12*
X14468000Y-12181500D02*
X14595000Y-12308500D01*
X14595000Y-12181500D02*
X14468000Y-12308500D01*
D11*
X14960539Y-12336484D02*
X14846253Y-12336484D01*
X14903396Y-12336484D02*
X14903396Y-12136484D01*
X14903396Y-12136484D02*
X14884348Y-12165055D01*
X14884348Y-12165055D02*
X14865301Y-12184103D01*
X14865301Y-12184103D02*
X14846253Y-12193627D01*
X15046253Y-12317436D02*
X15055777Y-12326960D01*
X15055777Y-12326960D02*
X15046253Y-12336484D01*
X15046253Y-12336484D02*
X15036729Y-12326960D01*
X15036729Y-12326960D02*
X15046253Y-12317436D01*
X15046253Y-12317436D02*
X15046253Y-12336484D01*
X15131967Y-12155531D02*
X15141491Y-12146008D01*
X15141491Y-12146008D02*
X15160539Y-12136484D01*
X15160539Y-12136484D02*
X15208158Y-12136484D01*
X15208158Y-12136484D02*
X15227205Y-12146008D01*
X15227205Y-12146008D02*
X15236729Y-12155531D01*
X15236729Y-12155531D02*
X15246253Y-12174579D01*
X15246253Y-12174579D02*
X15246253Y-12193627D01*
X15246253Y-12193627D02*
X15236729Y-12222198D01*
X15236729Y-12222198D02*
X15122443Y-12336484D01*
X15122443Y-12336484D02*
X15246253Y-12336484D01*
X15312920Y-12136484D02*
X15446253Y-12136484D01*
X15446253Y-12136484D02*
X15360539Y-12336484D01*
X15560539Y-12136484D02*
X15579586Y-12136484D01*
X15579586Y-12136484D02*
X15598634Y-12146008D01*
X15598634Y-12146008D02*
X15608158Y-12155531D01*
X15608158Y-12155531D02*
X15617682Y-12174579D01*
X15617682Y-12174579D02*
X15627205Y-12212674D01*
X15627205Y-12212674D02*
X15627205Y-12260293D01*
X15627205Y-12260293D02*
X15617682Y-12298388D01*
X15617682Y-12298388D02*
X15608158Y-12317436D01*
X15608158Y-12317436D02*
X15598634Y-12326960D01*
X15598634Y-12326960D02*
X15579586Y-12336484D01*
X15579586Y-12336484D02*
X15560539Y-12336484D01*
X15560539Y-12336484D02*
X15541491Y-12326960D01*
X15541491Y-12326960D02*
X15531967Y-12317436D01*
X15531967Y-12317436D02*
X15522443Y-12298388D01*
X15522443Y-12298388D02*
X15512920Y-12260293D01*
X15512920Y-12260293D02*
X15512920Y-12212674D01*
X15512920Y-12212674D02*
X15522443Y-12174579D01*
X15522443Y-12174579D02*
X15531967Y-12155531D01*
X15531967Y-12155531D02*
X15541491Y-12146008D01*
X15541491Y-12146008D02*
X15560539Y-12136484D01*
X15712920Y-12336484D02*
X15712920Y-12203150D01*
X15712920Y-12222198D02*
X15722443Y-12212674D01*
X15722443Y-12212674D02*
X15741491Y-12203150D01*
X15741491Y-12203150D02*
X15770063Y-12203150D01*
X15770063Y-12203150D02*
X15789110Y-12212674D01*
X15789110Y-12212674D02*
X15798634Y-12231722D01*
X15798634Y-12231722D02*
X15798634Y-12336484D01*
X15798634Y-12231722D02*
X15808158Y-12212674D01*
X15808158Y-12212674D02*
X15827205Y-12203150D01*
X15827205Y-12203150D02*
X15855777Y-12203150D01*
X15855777Y-12203150D02*
X15874824Y-12212674D01*
X15874824Y-12212674D02*
X15884348Y-12231722D01*
X15884348Y-12231722D02*
X15884348Y-12336484D01*
X15979586Y-12336484D02*
X15979586Y-12203150D01*
X15979586Y-12222198D02*
X15989110Y-12212674D01*
X15989110Y-12212674D02*
X16008158Y-12203150D01*
X16008158Y-12203150D02*
X16036729Y-12203150D01*
X16036729Y-12203150D02*
X16055777Y-12212674D01*
X16055777Y-12212674D02*
X16065301Y-12231722D01*
X16065301Y-12231722D02*
X16065301Y-12336484D01*
X16065301Y-12231722D02*
X16074824Y-12212674D01*
X16074824Y-12212674D02*
X16093872Y-12203150D01*
X16093872Y-12203150D02*
X16122443Y-12203150D01*
X16122443Y-12203150D02*
X16141491Y-12212674D01*
X16141491Y-12212674D02*
X16151015Y-12231722D01*
X16151015Y-12231722D02*
X16151015Y-12336484D01*
X16541491Y-12126960D02*
X16370063Y-12384103D01*
X16798634Y-12136484D02*
X16817682Y-12136484D01*
X16817682Y-12136484D02*
X16836729Y-12146008D01*
X16836729Y-12146008D02*
X16846253Y-12155531D01*
X16846253Y-12155531D02*
X16855777Y-12174579D01*
X16855777Y-12174579D02*
X16865301Y-12212674D01*
X16865301Y-12212674D02*
X16865301Y-12260293D01*
X16865301Y-12260293D02*
X16855777Y-12298388D01*
X16855777Y-12298388D02*
X16846253Y-12317436D01*
X16846253Y-12317436D02*
X16836729Y-12326960D01*
X16836729Y-12326960D02*
X16817682Y-12336484D01*
X16817682Y-12336484D02*
X16798634Y-12336484D01*
X16798634Y-12336484D02*
X16779587Y-12326960D01*
X16779587Y-12326960D02*
X16770063Y-12317436D01*
X16770063Y-12317436D02*
X16760539Y-12298388D01*
X16760539Y-12298388D02*
X16751015Y-12260293D01*
X16751015Y-12260293D02*
X16751015Y-12212674D01*
X16751015Y-12212674D02*
X16760539Y-12174579D01*
X16760539Y-12174579D02*
X16770063Y-12155531D01*
X16770063Y-12155531D02*
X16779587Y-12146008D01*
X16779587Y-12146008D02*
X16798634Y-12136484D01*
X16951015Y-12317436D02*
X16960539Y-12326960D01*
X16960539Y-12326960D02*
X16951015Y-12336484D01*
X16951015Y-12336484D02*
X16941491Y-12326960D01*
X16941491Y-12326960D02*
X16951015Y-12317436D01*
X16951015Y-12317436D02*
X16951015Y-12336484D01*
X17084348Y-12136484D02*
X17103396Y-12136484D01*
X17103396Y-12136484D02*
X17122444Y-12146008D01*
X17122444Y-12146008D02*
X17131968Y-12155531D01*
X17131968Y-12155531D02*
X17141491Y-12174579D01*
X17141491Y-12174579D02*
X17151015Y-12212674D01*
X17151015Y-12212674D02*
X17151015Y-12260293D01*
X17151015Y-12260293D02*
X17141491Y-12298388D01*
X17141491Y-12298388D02*
X17131968Y-12317436D01*
X17131968Y-12317436D02*
X17122444Y-12326960D01*
X17122444Y-12326960D02*
X17103396Y-12336484D01*
X17103396Y-12336484D02*
X17084348Y-12336484D01*
X17084348Y-12336484D02*
X17065301Y-12326960D01*
X17065301Y-12326960D02*
X17055777Y-12317436D01*
X17055777Y-12317436D02*
X17046253Y-12298388D01*
X17046253Y-12298388D02*
X17036729Y-12260293D01*
X17036729Y-12260293D02*
X17036729Y-12212674D01*
X17036729Y-12212674D02*
X17046253Y-12174579D01*
X17046253Y-12174579D02*
X17055777Y-12155531D01*
X17055777Y-12155531D02*
X17065301Y-12146008D01*
X17065301Y-12146008D02*
X17084348Y-12136484D01*
X17331968Y-12136484D02*
X17236729Y-12136484D01*
X17236729Y-12136484D02*
X17227206Y-12231722D01*
X17227206Y-12231722D02*
X17236729Y-12222198D01*
X17236729Y-12222198D02*
X17255777Y-12212674D01*
X17255777Y-12212674D02*
X17303396Y-12212674D01*
X17303396Y-12212674D02*
X17322444Y-12222198D01*
X17322444Y-12222198D02*
X17331968Y-12231722D01*
X17331968Y-12231722D02*
X17341491Y-12250769D01*
X17341491Y-12250769D02*
X17341491Y-12298388D01*
X17341491Y-12298388D02*
X17331968Y-12317436D01*
X17331968Y-12317436D02*
X17322444Y-12326960D01*
X17322444Y-12326960D02*
X17303396Y-12336484D01*
X17303396Y-12336484D02*
X17255777Y-12336484D01*
X17255777Y-12336484D02*
X17236729Y-12326960D01*
X17236729Y-12326960D02*
X17227206Y-12317436D01*
X17465301Y-12136484D02*
X17484349Y-12136484D01*
X17484349Y-12136484D02*
X17503396Y-12146008D01*
X17503396Y-12146008D02*
X17512920Y-12155531D01*
X17512920Y-12155531D02*
X17522444Y-12174579D01*
X17522444Y-12174579D02*
X17531968Y-12212674D01*
X17531968Y-12212674D02*
X17531968Y-12260293D01*
X17531968Y-12260293D02*
X17522444Y-12298388D01*
X17522444Y-12298388D02*
X17512920Y-12317436D01*
X17512920Y-12317436D02*
X17503396Y-12326960D01*
X17503396Y-12326960D02*
X17484349Y-12336484D01*
X17484349Y-12336484D02*
X17465301Y-12336484D01*
X17465301Y-12336484D02*
X17446253Y-12326960D01*
X17446253Y-12326960D02*
X17436729Y-12317436D01*
X17436729Y-12317436D02*
X17427206Y-12298388D01*
X17427206Y-12298388D02*
X17417682Y-12260293D01*
X17417682Y-12260293D02*
X17417682Y-12212674D01*
X17417682Y-12212674D02*
X17427206Y-12174579D01*
X17427206Y-12174579D02*
X17436729Y-12155531D01*
X17436729Y-12155531D02*
X17446253Y-12146008D01*
X17446253Y-12146008D02*
X17465301Y-12136484D01*
X17655777Y-12136484D02*
X17674825Y-12136484D01*
X17674825Y-12136484D02*
X17693872Y-12146008D01*
X17693872Y-12146008D02*
X17703396Y-12155531D01*
X17703396Y-12155531D02*
X17712920Y-12174579D01*
X17712920Y-12174579D02*
X17722444Y-12212674D01*
X17722444Y-12212674D02*
X17722444Y-12260293D01*
X17722444Y-12260293D02*
X17712920Y-12298388D01*
X17712920Y-12298388D02*
X17703396Y-12317436D01*
X17703396Y-12317436D02*
X17693872Y-12326960D01*
X17693872Y-12326960D02*
X17674825Y-12336484D01*
X17674825Y-12336484D02*
X17655777Y-12336484D01*
X17655777Y-12336484D02*
X17636729Y-12326960D01*
X17636729Y-12326960D02*
X17627206Y-12317436D01*
X17627206Y-12317436D02*
X17617682Y-12298388D01*
X17617682Y-12298388D02*
X17608158Y-12260293D01*
X17608158Y-12260293D02*
X17608158Y-12212674D01*
X17608158Y-12212674D02*
X17617682Y-12174579D01*
X17617682Y-12174579D02*
X17627206Y-12155531D01*
X17627206Y-12155531D02*
X17636729Y-12146008D01*
X17636729Y-12146008D02*
X17655777Y-12136484D01*
X17798634Y-12136484D02*
X17798634Y-12174579D01*
X17874825Y-12136484D02*
X17874825Y-12174579D01*
X18170063Y-12412674D02*
X18160539Y-12403150D01*
X18160539Y-12403150D02*
X18141491Y-12374579D01*
X18141491Y-12374579D02*
X18131968Y-12355531D01*
X18131968Y-12355531D02*
X18122444Y-12326960D01*
X18122444Y-12326960D02*
X18112920Y-12279341D01*
X18112920Y-12279341D02*
X18112920Y-12241246D01*
X18112920Y-12241246D02*
X18122444Y-12193627D01*
X18122444Y-12193627D02*
X18131968Y-12165055D01*
X18131968Y-12165055D02*
X18141491Y-12146008D01*
X18141491Y-12146008D02*
X18160539Y-12117436D01*
X18160539Y-12117436D02*
X18170063Y-12107912D01*
X18331968Y-12136484D02*
X18293872Y-12136484D01*
X18293872Y-12136484D02*
X18274825Y-12146008D01*
X18274825Y-12146008D02*
X18265301Y-12155531D01*
X18265301Y-12155531D02*
X18246253Y-12184103D01*
X18246253Y-12184103D02*
X18236730Y-12222198D01*
X18236730Y-12222198D02*
X18236730Y-12298388D01*
X18236730Y-12298388D02*
X18246253Y-12317436D01*
X18246253Y-12317436D02*
X18255777Y-12326960D01*
X18255777Y-12326960D02*
X18274825Y-12336484D01*
X18274825Y-12336484D02*
X18312920Y-12336484D01*
X18312920Y-12336484D02*
X18331968Y-12326960D01*
X18331968Y-12326960D02*
X18341491Y-12317436D01*
X18341491Y-12317436D02*
X18351015Y-12298388D01*
X18351015Y-12298388D02*
X18351015Y-12250769D01*
X18351015Y-12250769D02*
X18341491Y-12231722D01*
X18341491Y-12231722D02*
X18331968Y-12222198D01*
X18331968Y-12222198D02*
X18312920Y-12212674D01*
X18312920Y-12212674D02*
X18274825Y-12212674D01*
X18274825Y-12212674D02*
X18255777Y-12222198D01*
X18255777Y-12222198D02*
X18246253Y-12231722D01*
X18246253Y-12231722D02*
X18236730Y-12250769D01*
X18589111Y-12336484D02*
X18589111Y-12136484D01*
X18674825Y-12336484D02*
X18674825Y-12231722D01*
X18674825Y-12231722D02*
X18665301Y-12212674D01*
X18665301Y-12212674D02*
X18646253Y-12203150D01*
X18646253Y-12203150D02*
X18617682Y-12203150D01*
X18617682Y-12203150D02*
X18598634Y-12212674D01*
X18598634Y-12212674D02*
X18589111Y-12222198D01*
X18798634Y-12336484D02*
X18779587Y-12326960D01*
X18779587Y-12326960D02*
X18770063Y-12317436D01*
X18770063Y-12317436D02*
X18760539Y-12298388D01*
X18760539Y-12298388D02*
X18760539Y-12241246D01*
X18760539Y-12241246D02*
X18770063Y-12222198D01*
X18770063Y-12222198D02*
X18779587Y-12212674D01*
X18779587Y-12212674D02*
X18798634Y-12203150D01*
X18798634Y-12203150D02*
X18827206Y-12203150D01*
X18827206Y-12203150D02*
X18846253Y-12212674D01*
X18846253Y-12212674D02*
X18855777Y-12222198D01*
X18855777Y-12222198D02*
X18865301Y-12241246D01*
X18865301Y-12241246D02*
X18865301Y-12298388D01*
X18865301Y-12298388D02*
X18855777Y-12317436D01*
X18855777Y-12317436D02*
X18846253Y-12326960D01*
X18846253Y-12326960D02*
X18827206Y-12336484D01*
X18827206Y-12336484D02*
X18798634Y-12336484D01*
X18979587Y-12336484D02*
X18960539Y-12326960D01*
X18960539Y-12326960D02*
X18951015Y-12307912D01*
X18951015Y-12307912D02*
X18951015Y-12136484D01*
X19131968Y-12326960D02*
X19112920Y-12336484D01*
X19112920Y-12336484D02*
X19074825Y-12336484D01*
X19074825Y-12336484D02*
X19055777Y-12326960D01*
X19055777Y-12326960D02*
X19046253Y-12307912D01*
X19046253Y-12307912D02*
X19046253Y-12231722D01*
X19046253Y-12231722D02*
X19055777Y-12212674D01*
X19055777Y-12212674D02*
X19074825Y-12203150D01*
X19074825Y-12203150D02*
X19112920Y-12203150D01*
X19112920Y-12203150D02*
X19131968Y-12212674D01*
X19131968Y-12212674D02*
X19141492Y-12231722D01*
X19141492Y-12231722D02*
X19141492Y-12250769D01*
X19141492Y-12250769D02*
X19046253Y-12269817D01*
X19217682Y-12326960D02*
X19236730Y-12336484D01*
X19236730Y-12336484D02*
X19274825Y-12336484D01*
X19274825Y-12336484D02*
X19293873Y-12326960D01*
X19293873Y-12326960D02*
X19303396Y-12307912D01*
X19303396Y-12307912D02*
X19303396Y-12298388D01*
X19303396Y-12298388D02*
X19293873Y-12279341D01*
X19293873Y-12279341D02*
X19274825Y-12269817D01*
X19274825Y-12269817D02*
X19246253Y-12269817D01*
X19246253Y-12269817D02*
X19227206Y-12260293D01*
X19227206Y-12260293D02*
X19217682Y-12241246D01*
X19217682Y-12241246D02*
X19217682Y-12231722D01*
X19217682Y-12231722D02*
X19227206Y-12212674D01*
X19227206Y-12212674D02*
X19246253Y-12203150D01*
X19246253Y-12203150D02*
X19274825Y-12203150D01*
X19274825Y-12203150D02*
X19293873Y-12212674D01*
X19370063Y-12412674D02*
X19379587Y-12403150D01*
X19379587Y-12403150D02*
X19398634Y-12374579D01*
X19398634Y-12374579D02*
X19408158Y-12355531D01*
X19408158Y-12355531D02*
X19417682Y-12326960D01*
X19417682Y-12326960D02*
X19427206Y-12279341D01*
X19427206Y-12279341D02*
X19427206Y-12241246D01*
X19427206Y-12241246D02*
X19417682Y-12193627D01*
X19417682Y-12193627D02*
X19408158Y-12165055D01*
X19408158Y-12165055D02*
X19398634Y-12146008D01*
X19398634Y-12146008D02*
X19379587Y-12117436D01*
X19379587Y-12117436D02*
X19370063Y-12107912D01*
X19731968Y-12412674D02*
X19722444Y-12403150D01*
X19722444Y-12403150D02*
X19703396Y-12374579D01*
X19703396Y-12374579D02*
X19693873Y-12355531D01*
X19693873Y-12355531D02*
X19684349Y-12326960D01*
X19684349Y-12326960D02*
X19674825Y-12279341D01*
X19674825Y-12279341D02*
X19674825Y-12241246D01*
X19674825Y-12241246D02*
X19684349Y-12193627D01*
X19684349Y-12193627D02*
X19693873Y-12165055D01*
X19693873Y-12165055D02*
X19703396Y-12146008D01*
X19703396Y-12146008D02*
X19722444Y-12117436D01*
X19722444Y-12117436D02*
X19731968Y-12107912D01*
X19808158Y-12203150D02*
X19808158Y-12336484D01*
X19808158Y-12222198D02*
X19817682Y-12212674D01*
X19817682Y-12212674D02*
X19836730Y-12203150D01*
X19836730Y-12203150D02*
X19865301Y-12203150D01*
X19865301Y-12203150D02*
X19884349Y-12212674D01*
X19884349Y-12212674D02*
X19893873Y-12231722D01*
X19893873Y-12231722D02*
X19893873Y-12336484D01*
X20017682Y-12336484D02*
X19998634Y-12326960D01*
X19998634Y-12326960D02*
X19989111Y-12317436D01*
X19989111Y-12317436D02*
X19979587Y-12298388D01*
X19979587Y-12298388D02*
X19979587Y-12241246D01*
X19979587Y-12241246D02*
X19989111Y-12222198D01*
X19989111Y-12222198D02*
X19998634Y-12212674D01*
X19998634Y-12212674D02*
X20017682Y-12203150D01*
X20017682Y-12203150D02*
X20046254Y-12203150D01*
X20046254Y-12203150D02*
X20065301Y-12212674D01*
X20065301Y-12212674D02*
X20074825Y-12222198D01*
X20074825Y-12222198D02*
X20084349Y-12241246D01*
X20084349Y-12241246D02*
X20084349Y-12298388D01*
X20084349Y-12298388D02*
X20074825Y-12317436D01*
X20074825Y-12317436D02*
X20065301Y-12326960D01*
X20065301Y-12326960D02*
X20046254Y-12336484D01*
X20046254Y-12336484D02*
X20017682Y-12336484D01*
X20141492Y-12203150D02*
X20217682Y-12203150D01*
X20170063Y-12136484D02*
X20170063Y-12307912D01*
X20170063Y-12307912D02*
X20179587Y-12326960D01*
X20179587Y-12326960D02*
X20198634Y-12336484D01*
X20198634Y-12336484D02*
X20217682Y-12336484D01*
X20436730Y-12203150D02*
X20436730Y-12403150D01*
X20436730Y-12212674D02*
X20455777Y-12203150D01*
X20455777Y-12203150D02*
X20493873Y-12203150D01*
X20493873Y-12203150D02*
X20512920Y-12212674D01*
X20512920Y-12212674D02*
X20522444Y-12222198D01*
X20522444Y-12222198D02*
X20531968Y-12241246D01*
X20531968Y-12241246D02*
X20531968Y-12298388D01*
X20531968Y-12298388D02*
X20522444Y-12317436D01*
X20522444Y-12317436D02*
X20512920Y-12326960D01*
X20512920Y-12326960D02*
X20493873Y-12336484D01*
X20493873Y-12336484D02*
X20455777Y-12336484D01*
X20455777Y-12336484D02*
X20436730Y-12326960D01*
X20646254Y-12336484D02*
X20627206Y-12326960D01*
X20627206Y-12326960D02*
X20617682Y-12307912D01*
X20617682Y-12307912D02*
X20617682Y-12136484D01*
X20808158Y-12336484D02*
X20808158Y-12231722D01*
X20808158Y-12231722D02*
X20798635Y-12212674D01*
X20798635Y-12212674D02*
X20779587Y-12203150D01*
X20779587Y-12203150D02*
X20741492Y-12203150D01*
X20741492Y-12203150D02*
X20722444Y-12212674D01*
X20808158Y-12326960D02*
X20789111Y-12336484D01*
X20789111Y-12336484D02*
X20741492Y-12336484D01*
X20741492Y-12336484D02*
X20722444Y-12326960D01*
X20722444Y-12326960D02*
X20712920Y-12307912D01*
X20712920Y-12307912D02*
X20712920Y-12288865D01*
X20712920Y-12288865D02*
X20722444Y-12269817D01*
X20722444Y-12269817D02*
X20741492Y-12260293D01*
X20741492Y-12260293D02*
X20789111Y-12260293D01*
X20789111Y-12260293D02*
X20808158Y-12250769D01*
X20874825Y-12203150D02*
X20951015Y-12203150D01*
X20903396Y-12136484D02*
X20903396Y-12307912D01*
X20903396Y-12307912D02*
X20912920Y-12326960D01*
X20912920Y-12326960D02*
X20931968Y-12336484D01*
X20931968Y-12336484D02*
X20951015Y-12336484D01*
X21093873Y-12326960D02*
X21074825Y-12336484D01*
X21074825Y-12336484D02*
X21036730Y-12336484D01*
X21036730Y-12336484D02*
X21017682Y-12326960D01*
X21017682Y-12326960D02*
X21008158Y-12307912D01*
X21008158Y-12307912D02*
X21008158Y-12231722D01*
X21008158Y-12231722D02*
X21017682Y-12212674D01*
X21017682Y-12212674D02*
X21036730Y-12203150D01*
X21036730Y-12203150D02*
X21074825Y-12203150D01*
X21074825Y-12203150D02*
X21093873Y-12212674D01*
X21093873Y-12212674D02*
X21103396Y-12231722D01*
X21103396Y-12231722D02*
X21103396Y-12250769D01*
X21103396Y-12250769D02*
X21008158Y-12269817D01*
X21274825Y-12336484D02*
X21274825Y-12136484D01*
X21274825Y-12326960D02*
X21255777Y-12336484D01*
X21255777Y-12336484D02*
X21217682Y-12336484D01*
X21217682Y-12336484D02*
X21198635Y-12326960D01*
X21198635Y-12326960D02*
X21189111Y-12317436D01*
X21189111Y-12317436D02*
X21179587Y-12298388D01*
X21179587Y-12298388D02*
X21179587Y-12241246D01*
X21179587Y-12241246D02*
X21189111Y-12222198D01*
X21189111Y-12222198D02*
X21198635Y-12212674D01*
X21198635Y-12212674D02*
X21217682Y-12203150D01*
X21217682Y-12203150D02*
X21255777Y-12203150D01*
X21255777Y-12203150D02*
X21274825Y-12212674D01*
X21351016Y-12412674D02*
X21360539Y-12403150D01*
X21360539Y-12403150D02*
X21379587Y-12374579D01*
X21379587Y-12374579D02*
X21389111Y-12355531D01*
X21389111Y-12355531D02*
X21398635Y-12326960D01*
X21398635Y-12326960D02*
X21408158Y-12279341D01*
X21408158Y-12279341D02*
X21408158Y-12241246D01*
X21408158Y-12241246D02*
X21398635Y-12193627D01*
X21398635Y-12193627D02*
X21389111Y-12165055D01*
X21389111Y-12165055D02*
X21379587Y-12146008D01*
X21379587Y-12146008D02*
X21360539Y-12117436D01*
X21360539Y-12117436D02*
X21351016Y-12107912D01*
X14595000Y-12509000D02*
G75*
G03*
X14595000Y-12509000I-100000J0D01*
G01*
X14836729Y-12400484D02*
X14960539Y-12400484D01*
X14960539Y-12400484D02*
X14893872Y-12476674D01*
X14893872Y-12476674D02*
X14922443Y-12476674D01*
X14922443Y-12476674D02*
X14941491Y-12486198D01*
X14941491Y-12486198D02*
X14951015Y-12495722D01*
X14951015Y-12495722D02*
X14960539Y-12514769D01*
X14960539Y-12514769D02*
X14960539Y-12562388D01*
X14960539Y-12562388D02*
X14951015Y-12581436D01*
X14951015Y-12581436D02*
X14941491Y-12590960D01*
X14941491Y-12590960D02*
X14922443Y-12600484D01*
X14922443Y-12600484D02*
X14865301Y-12600484D01*
X14865301Y-12600484D02*
X14846253Y-12590960D01*
X14846253Y-12590960D02*
X14836729Y-12581436D01*
X15046253Y-12581436D02*
X15055777Y-12590960D01*
X15055777Y-12590960D02*
X15046253Y-12600484D01*
X15046253Y-12600484D02*
X15036729Y-12590960D01*
X15036729Y-12590960D02*
X15046253Y-12581436D01*
X15046253Y-12581436D02*
X15046253Y-12600484D01*
X15179586Y-12400484D02*
X15198634Y-12400484D01*
X15198634Y-12400484D02*
X15217682Y-12410008D01*
X15217682Y-12410008D02*
X15227205Y-12419531D01*
X15227205Y-12419531D02*
X15236729Y-12438579D01*
X15236729Y-12438579D02*
X15246253Y-12476674D01*
X15246253Y-12476674D02*
X15246253Y-12524293D01*
X15246253Y-12524293D02*
X15236729Y-12562388D01*
X15236729Y-12562388D02*
X15227205Y-12581436D01*
X15227205Y-12581436D02*
X15217682Y-12590960D01*
X15217682Y-12590960D02*
X15198634Y-12600484D01*
X15198634Y-12600484D02*
X15179586Y-12600484D01*
X15179586Y-12600484D02*
X15160539Y-12590960D01*
X15160539Y-12590960D02*
X15151015Y-12581436D01*
X15151015Y-12581436D02*
X15141491Y-12562388D01*
X15141491Y-12562388D02*
X15131967Y-12524293D01*
X15131967Y-12524293D02*
X15131967Y-12476674D01*
X15131967Y-12476674D02*
X15141491Y-12438579D01*
X15141491Y-12438579D02*
X15151015Y-12419531D01*
X15151015Y-12419531D02*
X15160539Y-12410008D01*
X15160539Y-12410008D02*
X15179586Y-12400484D01*
X15370062Y-12400484D02*
X15389110Y-12400484D01*
X15389110Y-12400484D02*
X15408158Y-12410008D01*
X15408158Y-12410008D02*
X15417682Y-12419531D01*
X15417682Y-12419531D02*
X15427205Y-12438579D01*
X15427205Y-12438579D02*
X15436729Y-12476674D01*
X15436729Y-12476674D02*
X15436729Y-12524293D01*
X15436729Y-12524293D02*
X15427205Y-12562388D01*
X15427205Y-12562388D02*
X15417682Y-12581436D01*
X15417682Y-12581436D02*
X15408158Y-12590960D01*
X15408158Y-12590960D02*
X15389110Y-12600484D01*
X15389110Y-12600484D02*
X15370062Y-12600484D01*
X15370062Y-12600484D02*
X15351015Y-12590960D01*
X15351015Y-12590960D02*
X15341491Y-12581436D01*
X15341491Y-12581436D02*
X15331967Y-12562388D01*
X15331967Y-12562388D02*
X15322443Y-12524293D01*
X15322443Y-12524293D02*
X15322443Y-12476674D01*
X15322443Y-12476674D02*
X15331967Y-12438579D01*
X15331967Y-12438579D02*
X15341491Y-12419531D01*
X15341491Y-12419531D02*
X15351015Y-12410008D01*
X15351015Y-12410008D02*
X15370062Y-12400484D01*
X15560539Y-12400484D02*
X15579586Y-12400484D01*
X15579586Y-12400484D02*
X15598634Y-12410008D01*
X15598634Y-12410008D02*
X15608158Y-12419531D01*
X15608158Y-12419531D02*
X15617682Y-12438579D01*
X15617682Y-12438579D02*
X15627205Y-12476674D01*
X15627205Y-12476674D02*
X15627205Y-12524293D01*
X15627205Y-12524293D02*
X15617682Y-12562388D01*
X15617682Y-12562388D02*
X15608158Y-12581436D01*
X15608158Y-12581436D02*
X15598634Y-12590960D01*
X15598634Y-12590960D02*
X15579586Y-12600484D01*
X15579586Y-12600484D02*
X15560539Y-12600484D01*
X15560539Y-12600484D02*
X15541491Y-12590960D01*
X15541491Y-12590960D02*
X15531967Y-12581436D01*
X15531967Y-12581436D02*
X15522443Y-12562388D01*
X15522443Y-12562388D02*
X15512920Y-12524293D01*
X15512920Y-12524293D02*
X15512920Y-12476674D01*
X15512920Y-12476674D02*
X15522443Y-12438579D01*
X15522443Y-12438579D02*
X15531967Y-12419531D01*
X15531967Y-12419531D02*
X15541491Y-12410008D01*
X15541491Y-12410008D02*
X15560539Y-12400484D01*
X15712920Y-12600484D02*
X15712920Y-12467150D01*
X15712920Y-12486198D02*
X15722443Y-12476674D01*
X15722443Y-12476674D02*
X15741491Y-12467150D01*
X15741491Y-12467150D02*
X15770063Y-12467150D01*
X15770063Y-12467150D02*
X15789110Y-12476674D01*
X15789110Y-12476674D02*
X15798634Y-12495722D01*
X15798634Y-12495722D02*
X15798634Y-12600484D01*
X15798634Y-12495722D02*
X15808158Y-12476674D01*
X15808158Y-12476674D02*
X15827205Y-12467150D01*
X15827205Y-12467150D02*
X15855777Y-12467150D01*
X15855777Y-12467150D02*
X15874824Y-12476674D01*
X15874824Y-12476674D02*
X15884348Y-12495722D01*
X15884348Y-12495722D02*
X15884348Y-12600484D01*
X15979586Y-12600484D02*
X15979586Y-12467150D01*
X15979586Y-12486198D02*
X15989110Y-12476674D01*
X15989110Y-12476674D02*
X16008158Y-12467150D01*
X16008158Y-12467150D02*
X16036729Y-12467150D01*
X16036729Y-12467150D02*
X16055777Y-12476674D01*
X16055777Y-12476674D02*
X16065301Y-12495722D01*
X16065301Y-12495722D02*
X16065301Y-12600484D01*
X16065301Y-12495722D02*
X16074824Y-12476674D01*
X16074824Y-12476674D02*
X16093872Y-12467150D01*
X16093872Y-12467150D02*
X16122443Y-12467150D01*
X16122443Y-12467150D02*
X16141491Y-12476674D01*
X16141491Y-12476674D02*
X16151015Y-12495722D01*
X16151015Y-12495722D02*
X16151015Y-12600484D01*
X16541491Y-12390960D02*
X16370063Y-12648103D01*
X16798634Y-12400484D02*
X16817682Y-12400484D01*
X16817682Y-12400484D02*
X16836729Y-12410008D01*
X16836729Y-12410008D02*
X16846253Y-12419531D01*
X16846253Y-12419531D02*
X16855777Y-12438579D01*
X16855777Y-12438579D02*
X16865301Y-12476674D01*
X16865301Y-12476674D02*
X16865301Y-12524293D01*
X16865301Y-12524293D02*
X16855777Y-12562388D01*
X16855777Y-12562388D02*
X16846253Y-12581436D01*
X16846253Y-12581436D02*
X16836729Y-12590960D01*
X16836729Y-12590960D02*
X16817682Y-12600484D01*
X16817682Y-12600484D02*
X16798634Y-12600484D01*
X16798634Y-12600484D02*
X16779587Y-12590960D01*
X16779587Y-12590960D02*
X16770063Y-12581436D01*
X16770063Y-12581436D02*
X16760539Y-12562388D01*
X16760539Y-12562388D02*
X16751015Y-12524293D01*
X16751015Y-12524293D02*
X16751015Y-12476674D01*
X16751015Y-12476674D02*
X16760539Y-12438579D01*
X16760539Y-12438579D02*
X16770063Y-12419531D01*
X16770063Y-12419531D02*
X16779587Y-12410008D01*
X16779587Y-12410008D02*
X16798634Y-12400484D01*
X16951015Y-12581436D02*
X16960539Y-12590960D01*
X16960539Y-12590960D02*
X16951015Y-12600484D01*
X16951015Y-12600484D02*
X16941491Y-12590960D01*
X16941491Y-12590960D02*
X16951015Y-12581436D01*
X16951015Y-12581436D02*
X16951015Y-12600484D01*
X17151015Y-12600484D02*
X17036729Y-12600484D01*
X17093872Y-12600484D02*
X17093872Y-12400484D01*
X17093872Y-12400484D02*
X17074825Y-12429055D01*
X17074825Y-12429055D02*
X17055777Y-12448103D01*
X17055777Y-12448103D02*
X17036729Y-12457627D01*
X17341491Y-12600484D02*
X17227206Y-12600484D01*
X17284348Y-12600484D02*
X17284348Y-12400484D01*
X17284348Y-12400484D02*
X17265301Y-12429055D01*
X17265301Y-12429055D02*
X17246253Y-12448103D01*
X17246253Y-12448103D02*
X17227206Y-12457627D01*
X17455777Y-12486198D02*
X17436729Y-12476674D01*
X17436729Y-12476674D02*
X17427206Y-12467150D01*
X17427206Y-12467150D02*
X17417682Y-12448103D01*
X17417682Y-12448103D02*
X17417682Y-12438579D01*
X17417682Y-12438579D02*
X17427206Y-12419531D01*
X17427206Y-12419531D02*
X17436729Y-12410008D01*
X17436729Y-12410008D02*
X17455777Y-12400484D01*
X17455777Y-12400484D02*
X17493872Y-12400484D01*
X17493872Y-12400484D02*
X17512920Y-12410008D01*
X17512920Y-12410008D02*
X17522444Y-12419531D01*
X17522444Y-12419531D02*
X17531968Y-12438579D01*
X17531968Y-12438579D02*
X17531968Y-12448103D01*
X17531968Y-12448103D02*
X17522444Y-12467150D01*
X17522444Y-12467150D02*
X17512920Y-12476674D01*
X17512920Y-12476674D02*
X17493872Y-12486198D01*
X17493872Y-12486198D02*
X17455777Y-12486198D01*
X17455777Y-12486198D02*
X17436729Y-12495722D01*
X17436729Y-12495722D02*
X17427206Y-12505246D01*
X17427206Y-12505246D02*
X17417682Y-12524293D01*
X17417682Y-12524293D02*
X17417682Y-12562388D01*
X17417682Y-12562388D02*
X17427206Y-12581436D01*
X17427206Y-12581436D02*
X17436729Y-12590960D01*
X17436729Y-12590960D02*
X17455777Y-12600484D01*
X17455777Y-12600484D02*
X17493872Y-12600484D01*
X17493872Y-12600484D02*
X17512920Y-12590960D01*
X17512920Y-12590960D02*
X17522444Y-12581436D01*
X17522444Y-12581436D02*
X17531968Y-12562388D01*
X17531968Y-12562388D02*
X17531968Y-12524293D01*
X17531968Y-12524293D02*
X17522444Y-12505246D01*
X17522444Y-12505246D02*
X17512920Y-12495722D01*
X17512920Y-12495722D02*
X17493872Y-12486198D01*
X17722444Y-12600484D02*
X17608158Y-12600484D01*
X17665301Y-12600484D02*
X17665301Y-12400484D01*
X17665301Y-12400484D02*
X17646253Y-12429055D01*
X17646253Y-12429055D02*
X17627206Y-12448103D01*
X17627206Y-12448103D02*
X17608158Y-12457627D01*
X17798634Y-12400484D02*
X17798634Y-12438579D01*
X17874825Y-12400484D02*
X17874825Y-12438579D01*
X18170063Y-12676674D02*
X18160539Y-12667150D01*
X18160539Y-12667150D02*
X18141491Y-12638579D01*
X18141491Y-12638579D02*
X18131968Y-12619531D01*
X18131968Y-12619531D02*
X18122444Y-12590960D01*
X18122444Y-12590960D02*
X18112920Y-12543341D01*
X18112920Y-12543341D02*
X18112920Y-12505246D01*
X18112920Y-12505246D02*
X18122444Y-12457627D01*
X18122444Y-12457627D02*
X18131968Y-12429055D01*
X18131968Y-12429055D02*
X18141491Y-12410008D01*
X18141491Y-12410008D02*
X18160539Y-12381436D01*
X18160539Y-12381436D02*
X18170063Y-12371912D01*
X18236730Y-12419531D02*
X18246253Y-12410008D01*
X18246253Y-12410008D02*
X18265301Y-12400484D01*
X18265301Y-12400484D02*
X18312920Y-12400484D01*
X18312920Y-12400484D02*
X18331968Y-12410008D01*
X18331968Y-12410008D02*
X18341491Y-12419531D01*
X18341491Y-12419531D02*
X18351015Y-12438579D01*
X18351015Y-12438579D02*
X18351015Y-12457627D01*
X18351015Y-12457627D02*
X18341491Y-12486198D01*
X18341491Y-12486198D02*
X18227206Y-12600484D01*
X18227206Y-12600484D02*
X18351015Y-12600484D01*
X18589111Y-12600484D02*
X18589111Y-12400484D01*
X18674825Y-12600484D02*
X18674825Y-12495722D01*
X18674825Y-12495722D02*
X18665301Y-12476674D01*
X18665301Y-12476674D02*
X18646253Y-12467150D01*
X18646253Y-12467150D02*
X18617682Y-12467150D01*
X18617682Y-12467150D02*
X18598634Y-12476674D01*
X18598634Y-12476674D02*
X18589111Y-12486198D01*
X18798634Y-12600484D02*
X18779587Y-12590960D01*
X18779587Y-12590960D02*
X18770063Y-12581436D01*
X18770063Y-12581436D02*
X18760539Y-12562388D01*
X18760539Y-12562388D02*
X18760539Y-12505246D01*
X18760539Y-12505246D02*
X18770063Y-12486198D01*
X18770063Y-12486198D02*
X18779587Y-12476674D01*
X18779587Y-12476674D02*
X18798634Y-12467150D01*
X18798634Y-12467150D02*
X18827206Y-12467150D01*
X18827206Y-12467150D02*
X18846253Y-12476674D01*
X18846253Y-12476674D02*
X18855777Y-12486198D01*
X18855777Y-12486198D02*
X18865301Y-12505246D01*
X18865301Y-12505246D02*
X18865301Y-12562388D01*
X18865301Y-12562388D02*
X18855777Y-12581436D01*
X18855777Y-12581436D02*
X18846253Y-12590960D01*
X18846253Y-12590960D02*
X18827206Y-12600484D01*
X18827206Y-12600484D02*
X18798634Y-12600484D01*
X18979587Y-12600484D02*
X18960539Y-12590960D01*
X18960539Y-12590960D02*
X18951015Y-12571912D01*
X18951015Y-12571912D02*
X18951015Y-12400484D01*
X19131968Y-12590960D02*
X19112920Y-12600484D01*
X19112920Y-12600484D02*
X19074825Y-12600484D01*
X19074825Y-12600484D02*
X19055777Y-12590960D01*
X19055777Y-12590960D02*
X19046253Y-12571912D01*
X19046253Y-12571912D02*
X19046253Y-12495722D01*
X19046253Y-12495722D02*
X19055777Y-12476674D01*
X19055777Y-12476674D02*
X19074825Y-12467150D01*
X19074825Y-12467150D02*
X19112920Y-12467150D01*
X19112920Y-12467150D02*
X19131968Y-12476674D01*
X19131968Y-12476674D02*
X19141492Y-12495722D01*
X19141492Y-12495722D02*
X19141492Y-12514769D01*
X19141492Y-12514769D02*
X19046253Y-12533817D01*
X19217682Y-12590960D02*
X19236730Y-12600484D01*
X19236730Y-12600484D02*
X19274825Y-12600484D01*
X19274825Y-12600484D02*
X19293873Y-12590960D01*
X19293873Y-12590960D02*
X19303396Y-12571912D01*
X19303396Y-12571912D02*
X19303396Y-12562388D01*
X19303396Y-12562388D02*
X19293873Y-12543341D01*
X19293873Y-12543341D02*
X19274825Y-12533817D01*
X19274825Y-12533817D02*
X19246253Y-12533817D01*
X19246253Y-12533817D02*
X19227206Y-12524293D01*
X19227206Y-12524293D02*
X19217682Y-12505246D01*
X19217682Y-12505246D02*
X19217682Y-12495722D01*
X19217682Y-12495722D02*
X19227206Y-12476674D01*
X19227206Y-12476674D02*
X19246253Y-12467150D01*
X19246253Y-12467150D02*
X19274825Y-12467150D01*
X19274825Y-12467150D02*
X19293873Y-12476674D01*
X19370063Y-12676674D02*
X19379587Y-12667150D01*
X19379587Y-12667150D02*
X19398634Y-12638579D01*
X19398634Y-12638579D02*
X19408158Y-12619531D01*
X19408158Y-12619531D02*
X19417682Y-12590960D01*
X19417682Y-12590960D02*
X19427206Y-12543341D01*
X19427206Y-12543341D02*
X19427206Y-12505246D01*
X19427206Y-12505246D02*
X19417682Y-12457627D01*
X19417682Y-12457627D02*
X19408158Y-12429055D01*
X19408158Y-12429055D02*
X19398634Y-12410008D01*
X19398634Y-12410008D02*
X19379587Y-12381436D01*
X19379587Y-12381436D02*
X19370063Y-12371912D01*
X19731968Y-12676674D02*
X19722444Y-12667150D01*
X19722444Y-12667150D02*
X19703396Y-12638579D01*
X19703396Y-12638579D02*
X19693873Y-12619531D01*
X19693873Y-12619531D02*
X19684349Y-12590960D01*
X19684349Y-12590960D02*
X19674825Y-12543341D01*
X19674825Y-12543341D02*
X19674825Y-12505246D01*
X19674825Y-12505246D02*
X19684349Y-12457627D01*
X19684349Y-12457627D02*
X19693873Y-12429055D01*
X19693873Y-12429055D02*
X19703396Y-12410008D01*
X19703396Y-12410008D02*
X19722444Y-12381436D01*
X19722444Y-12381436D02*
X19731968Y-12371912D01*
X19808158Y-12467150D02*
X19808158Y-12600484D01*
X19808158Y-12486198D02*
X19817682Y-12476674D01*
X19817682Y-12476674D02*
X19836730Y-12467150D01*
X19836730Y-12467150D02*
X19865301Y-12467150D01*
X19865301Y-12467150D02*
X19884349Y-12476674D01*
X19884349Y-12476674D02*
X19893873Y-12495722D01*
X19893873Y-12495722D02*
X19893873Y-12600484D01*
X20017682Y-12600484D02*
X19998634Y-12590960D01*
X19998634Y-12590960D02*
X19989111Y-12581436D01*
X19989111Y-12581436D02*
X19979587Y-12562388D01*
X19979587Y-12562388D02*
X19979587Y-12505246D01*
X19979587Y-12505246D02*
X19989111Y-12486198D01*
X19989111Y-12486198D02*
X19998634Y-12476674D01*
X19998634Y-12476674D02*
X20017682Y-12467150D01*
X20017682Y-12467150D02*
X20046254Y-12467150D01*
X20046254Y-12467150D02*
X20065301Y-12476674D01*
X20065301Y-12476674D02*
X20074825Y-12486198D01*
X20074825Y-12486198D02*
X20084349Y-12505246D01*
X20084349Y-12505246D02*
X20084349Y-12562388D01*
X20084349Y-12562388D02*
X20074825Y-12581436D01*
X20074825Y-12581436D02*
X20065301Y-12590960D01*
X20065301Y-12590960D02*
X20046254Y-12600484D01*
X20046254Y-12600484D02*
X20017682Y-12600484D01*
X20141492Y-12467150D02*
X20217682Y-12467150D01*
X20170063Y-12400484D02*
X20170063Y-12571912D01*
X20170063Y-12571912D02*
X20179587Y-12590960D01*
X20179587Y-12590960D02*
X20198634Y-12600484D01*
X20198634Y-12600484D02*
X20217682Y-12600484D01*
X20436730Y-12467150D02*
X20436730Y-12667150D01*
X20436730Y-12476674D02*
X20455777Y-12467150D01*
X20455777Y-12467150D02*
X20493873Y-12467150D01*
X20493873Y-12467150D02*
X20512920Y-12476674D01*
X20512920Y-12476674D02*
X20522444Y-12486198D01*
X20522444Y-12486198D02*
X20531968Y-12505246D01*
X20531968Y-12505246D02*
X20531968Y-12562388D01*
X20531968Y-12562388D02*
X20522444Y-12581436D01*
X20522444Y-12581436D02*
X20512920Y-12590960D01*
X20512920Y-12590960D02*
X20493873Y-12600484D01*
X20493873Y-12600484D02*
X20455777Y-12600484D01*
X20455777Y-12600484D02*
X20436730Y-12590960D01*
X20646254Y-12600484D02*
X20627206Y-12590960D01*
X20627206Y-12590960D02*
X20617682Y-12571912D01*
X20617682Y-12571912D02*
X20617682Y-12400484D01*
X20808158Y-12600484D02*
X20808158Y-12495722D01*
X20808158Y-12495722D02*
X20798635Y-12476674D01*
X20798635Y-12476674D02*
X20779587Y-12467150D01*
X20779587Y-12467150D02*
X20741492Y-12467150D01*
X20741492Y-12467150D02*
X20722444Y-12476674D01*
X20808158Y-12590960D02*
X20789111Y-12600484D01*
X20789111Y-12600484D02*
X20741492Y-12600484D01*
X20741492Y-12600484D02*
X20722444Y-12590960D01*
X20722444Y-12590960D02*
X20712920Y-12571912D01*
X20712920Y-12571912D02*
X20712920Y-12552865D01*
X20712920Y-12552865D02*
X20722444Y-12533817D01*
X20722444Y-12533817D02*
X20741492Y-12524293D01*
X20741492Y-12524293D02*
X20789111Y-12524293D01*
X20789111Y-12524293D02*
X20808158Y-12514769D01*
X20874825Y-12467150D02*
X20951015Y-12467150D01*
X20903396Y-12400484D02*
X20903396Y-12571912D01*
X20903396Y-12571912D02*
X20912920Y-12590960D01*
X20912920Y-12590960D02*
X20931968Y-12600484D01*
X20931968Y-12600484D02*
X20951015Y-12600484D01*
X21093873Y-12590960D02*
X21074825Y-12600484D01*
X21074825Y-12600484D02*
X21036730Y-12600484D01*
X21036730Y-12600484D02*
X21017682Y-12590960D01*
X21017682Y-12590960D02*
X21008158Y-12571912D01*
X21008158Y-12571912D02*
X21008158Y-12495722D01*
X21008158Y-12495722D02*
X21017682Y-12476674D01*
X21017682Y-12476674D02*
X21036730Y-12467150D01*
X21036730Y-12467150D02*
X21074825Y-12467150D01*
X21074825Y-12467150D02*
X21093873Y-12476674D01*
X21093873Y-12476674D02*
X21103396Y-12495722D01*
X21103396Y-12495722D02*
X21103396Y-12514769D01*
X21103396Y-12514769D02*
X21008158Y-12533817D01*
X21274825Y-12600484D02*
X21274825Y-12400484D01*
X21274825Y-12590960D02*
X21255777Y-12600484D01*
X21255777Y-12600484D02*
X21217682Y-12600484D01*
X21217682Y-12600484D02*
X21198635Y-12590960D01*
X21198635Y-12590960D02*
X21189111Y-12581436D01*
X21189111Y-12581436D02*
X21179587Y-12562388D01*
X21179587Y-12562388D02*
X21179587Y-12505246D01*
X21179587Y-12505246D02*
X21189111Y-12486198D01*
X21189111Y-12486198D02*
X21198635Y-12476674D01*
X21198635Y-12476674D02*
X21217682Y-12467150D01*
X21217682Y-12467150D02*
X21255777Y-12467150D01*
X21255777Y-12467150D02*
X21274825Y-12476674D01*
X21351016Y-12676674D02*
X21360539Y-12667150D01*
X21360539Y-12667150D02*
X21379587Y-12638579D01*
X21379587Y-12638579D02*
X21389111Y-12619531D01*
X21389111Y-12619531D02*
X21398635Y-12590960D01*
X21398635Y-12590960D02*
X21408158Y-12543341D01*
X21408158Y-12543341D02*
X21408158Y-12505246D01*
X21408158Y-12505246D02*
X21398635Y-12457627D01*
X21398635Y-12457627D02*
X21389111Y-12429055D01*
X21389111Y-12429055D02*
X21379587Y-12410008D01*
X21379587Y-12410008D02*
X21360539Y-12381436D01*
X21360539Y-12381436D02*
X21351016Y-12371912D01*
M02*
