%TF.GenerationSoftware,KiCad,Pcbnew,7.0.9*%
%TF.CreationDate,2023-11-28T01:13:51-06:00*%
%TF.ProjectId,Telemetry-Peripheral-SOM-Daughterboard-IMU,54656c65-6d65-4747-9279-2d5065726970,rev?*%
%TF.SameCoordinates,Original*%
%TF.FileFunction,Paste,Top*%
%TF.FilePolarity,Positive*%
%FSLAX46Y46*%
G04 Gerber Fmt 4.6, Leading zero omitted, Abs format (unit mm)*
G04 Created by KiCad (PCBNEW 7.0.9) date 2023-11-28 01:13:51*
%MOMM*%
%LPD*%
G01*
G04 APERTURE LIST*
G04 Aperture macros list*
%AMRoundRect*
0 Rectangle with rounded corners*
0 $1 Rounding radius*
0 $2 $3 $4 $5 $6 $7 $8 $9 X,Y pos of 4 corners*
0 Add a 4 corners polygon primitive as box body*
4,1,4,$2,$3,$4,$5,$6,$7,$8,$9,$2,$3,0*
0 Add four circle primitives for the rounded corners*
1,1,$1+$1,$2,$3*
1,1,$1+$1,$4,$5*
1,1,$1+$1,$6,$7*
1,1,$1+$1,$8,$9*
0 Add four rect primitives between the rounded corners*
20,1,$1+$1,$2,$3,$4,$5,0*
20,1,$1+$1,$4,$5,$6,$7,0*
20,1,$1+$1,$6,$7,$8,$9,0*
20,1,$1+$1,$8,$9,$2,$3,0*%
G04 Aperture macros list end*
%ADD10RoundRect,0.250000X-0.250000X-0.475000X0.250000X-0.475000X0.250000X0.475000X-0.250000X0.475000X0*%
%ADD11RoundRect,0.250000X0.250000X0.475000X-0.250000X0.475000X-0.250000X-0.475000X0.250000X-0.475000X0*%
%ADD12RoundRect,0.250000X0.475000X-0.250000X0.475000X0.250000X-0.475000X0.250000X-0.475000X-0.250000X0*%
%ADD13RoundRect,0.250000X-0.350000X0.275000X-0.350000X-0.275000X0.350000X-0.275000X0.350000X0.275000X0*%
%ADD14R,1.800000X0.550000*%
%ADD15RoundRect,0.250000X-0.475000X0.250000X-0.475000X-0.250000X0.475000X-0.250000X0.475000X0.250000X0*%
%ADD16RoundRect,0.250000X0.450000X-0.350000X0.450000X0.350000X-0.450000X0.350000X-0.450000X-0.350000X0*%
%ADD17R,0.533400X0.304800*%
%ADD18R,0.304800X0.533400*%
%ADD19RoundRect,0.250000X-0.450000X0.262500X-0.450000X-0.262500X0.450000X-0.262500X0.450000X0.262500X0*%
G04 APERTURE END LIST*
D10*
%TO.C,C1*%
X156931401Y-107500000D03*
X158831401Y-107500000D03*
%TD*%
%TO.C,C9*%
X173050000Y-80500000D03*
X174950000Y-80500000D03*
%TD*%
D11*
%TO.C,C8*%
X176500000Y-104000000D03*
X174600000Y-104000000D03*
%TD*%
D12*
%TO.C,C6*%
X150200000Y-96500000D03*
X150200000Y-94600000D03*
%TD*%
D13*
%TO.C,FB2*%
X176000000Y-75700000D03*
X176000000Y-78000000D03*
%TD*%
D11*
%TO.C,C12*%
X176500000Y-88000000D03*
X174600000Y-88000000D03*
%TD*%
D14*
%TO.C,J1*%
X164350000Y-87400000D03*
X168650000Y-87400000D03*
X164350000Y-88200000D03*
X168650000Y-88200000D03*
X164350000Y-89000000D03*
X168650000Y-89000000D03*
X164350000Y-89800000D03*
X168650000Y-89800000D03*
X164350000Y-90600000D03*
X168650000Y-90600000D03*
X164350000Y-91400000D03*
X168650000Y-91400000D03*
X164350000Y-92200000D03*
X168650000Y-92200000D03*
X164350000Y-93000000D03*
X168650000Y-93000000D03*
X164350000Y-93800000D03*
X168650000Y-93800000D03*
X164350000Y-94600000D03*
X168650000Y-94600000D03*
%TD*%
D11*
%TO.C,C10*%
X176500000Y-72000000D03*
X174600000Y-72000000D03*
%TD*%
D10*
%TO.C,C11*%
X173550000Y-96500000D03*
X175450000Y-96500000D03*
%TD*%
D15*
%TO.C,C5*%
X152400000Y-94600000D03*
X152400000Y-96500000D03*
%TD*%
D16*
%TO.C,R3*%
X173000000Y-77700000D03*
X173000000Y-75700000D03*
%TD*%
D15*
%TO.C,C4*%
X150200000Y-85500000D03*
X150200000Y-87400000D03*
%TD*%
%TO.C,C3*%
X152350000Y-85500000D03*
X152350000Y-87400000D03*
%TD*%
%TO.C,C7*%
X170000000Y-108050000D03*
X170000000Y-109950000D03*
%TD*%
D17*
%TO.C,U1*%
X158318901Y-103049698D03*
X158318901Y-103549699D03*
X158318901Y-104049699D03*
X158318901Y-104549700D03*
D18*
X159000002Y-104726799D03*
X159500001Y-104726799D03*
X160000000Y-104726799D03*
D17*
X160681101Y-104549700D03*
X160681101Y-104049699D03*
X160681101Y-103549699D03*
X160681101Y-103049698D03*
D18*
X160000000Y-102872599D03*
X159500001Y-102872599D03*
X159000002Y-102872599D03*
%TD*%
D16*
%TO.C,R2*%
X173000000Y-110000000D03*
X173000000Y-108000000D03*
%TD*%
D19*
%TO.C,R1*%
X158331401Y-98187500D03*
X158331401Y-100012500D03*
%TD*%
D16*
%TO.C,R4*%
X174000000Y-93700000D03*
X174000000Y-91700000D03*
%TD*%
D13*
%TO.C,FB3*%
X177000000Y-91500000D03*
X177000000Y-93800000D03*
%TD*%
D11*
%TO.C,C2*%
X162750000Y-107500000D03*
X160850000Y-107500000D03*
%TD*%
D13*
%TO.C,FB1*%
X176000000Y-107850000D03*
X176000000Y-110150000D03*
%TD*%
M02*
