%TF.GenerationSoftware,KiCad,Pcbnew,7.0.9*%
%TF.CreationDate,2023-11-28T01:13:51-06:00*%
%TF.ProjectId,Telemetry-Peripheral-SOM-Daughterboard-IMU,54656c65-6d65-4747-9279-2d5065726970,rev?*%
%TF.SameCoordinates,Original*%
%TF.FileFunction,Copper,L1,Top*%
%TF.FilePolarity,Positive*%
%FSLAX46Y46*%
G04 Gerber Fmt 4.6, Leading zero omitted, Abs format (unit mm)*
G04 Created by KiCad (PCBNEW 7.0.9) date 2023-11-28 01:13:51*
%MOMM*%
%LPD*%
G01*
G04 APERTURE LIST*
G04 Aperture macros list*
%AMRoundRect*
0 Rectangle with rounded corners*
0 $1 Rounding radius*
0 $2 $3 $4 $5 $6 $7 $8 $9 X,Y pos of 4 corners*
0 Add a 4 corners polygon primitive as box body*
4,1,4,$2,$3,$4,$5,$6,$7,$8,$9,$2,$3,0*
0 Add four circle primitives for the rounded corners*
1,1,$1+$1,$2,$3*
1,1,$1+$1,$4,$5*
1,1,$1+$1,$6,$7*
1,1,$1+$1,$8,$9*
0 Add four rect primitives between the rounded corners*
20,1,$1+$1,$2,$3,$4,$5,0*
20,1,$1+$1,$4,$5,$6,$7,0*
20,1,$1+$1,$6,$7,$8,$9,0*
20,1,$1+$1,$8,$9,$2,$3,0*%
G04 Aperture macros list end*
%TA.AperFunction,SMDPad,CuDef*%
%ADD10RoundRect,0.250000X-0.250000X-0.475000X0.250000X-0.475000X0.250000X0.475000X-0.250000X0.475000X0*%
%TD*%
%TA.AperFunction,SMDPad,CuDef*%
%ADD11RoundRect,0.250000X0.250000X0.475000X-0.250000X0.475000X-0.250000X-0.475000X0.250000X-0.475000X0*%
%TD*%
%TA.AperFunction,SMDPad,CuDef*%
%ADD12RoundRect,0.250000X0.475000X-0.250000X0.475000X0.250000X-0.475000X0.250000X-0.475000X-0.250000X0*%
%TD*%
%TA.AperFunction,ComponentPad*%
%ADD13C,1.700000*%
%TD*%
%TA.AperFunction,SMDPad,CuDef*%
%ADD14RoundRect,0.250000X-0.350000X0.275000X-0.350000X-0.275000X0.350000X-0.275000X0.350000X0.275000X0*%
%TD*%
%TA.AperFunction,ComponentPad*%
%ADD15C,2.000000*%
%TD*%
%TA.AperFunction,SMDPad,CuDef*%
%ADD16R,1.800000X0.550000*%
%TD*%
%TA.AperFunction,SMDPad,CuDef*%
%ADD17RoundRect,0.250000X-0.475000X0.250000X-0.475000X-0.250000X0.475000X-0.250000X0.475000X0.250000X0*%
%TD*%
%TA.AperFunction,SMDPad,CuDef*%
%ADD18RoundRect,0.250000X0.450000X-0.350000X0.450000X0.350000X-0.450000X0.350000X-0.450000X-0.350000X0*%
%TD*%
%TA.AperFunction,SMDPad,CuDef*%
%ADD19R,2.000000X2.000000*%
%TD*%
%TA.AperFunction,SMDPad,CuDef*%
%ADD20R,0.533400X0.304800*%
%TD*%
%TA.AperFunction,SMDPad,CuDef*%
%ADD21R,0.304800X0.533400*%
%TD*%
%TA.AperFunction,SMDPad,CuDef*%
%ADD22RoundRect,0.250000X-0.450000X0.262500X-0.450000X-0.262500X0.450000X-0.262500X0.450000X0.262500X0*%
%TD*%
%TA.AperFunction,ViaPad*%
%ADD23C,0.800000*%
%TD*%
%TA.AperFunction,Conductor*%
%ADD24C,1.000000*%
%TD*%
%TA.AperFunction,Conductor*%
%ADD25C,0.200000*%
%TD*%
%TA.AperFunction,Conductor*%
%ADD26C,0.400000*%
%TD*%
G04 APERTURE END LIST*
D10*
%TO.P,C1,1*%
%TO.N,+3.3V*%
X156931401Y-107500000D03*
%TO.P,C1,2*%
%TO.N,GND*%
X158831401Y-107500000D03*
%TD*%
%TO.P,C9,1*%
%TO.N,/PA1*%
X173050000Y-80500000D03*
%TO.P,C9,2*%
%TO.N,GND*%
X174950000Y-80500000D03*
%TD*%
D11*
%TO.P,C8,1*%
%TO.N,+3.3V*%
X176500000Y-104000000D03*
%TO.P,C8,2*%
%TO.N,GND*%
X174600000Y-104000000D03*
%TD*%
D12*
%TO.P,C6,1*%
%TO.N,Net-(IC1-VCM)*%
X150200000Y-96500000D03*
%TO.P,C6,2*%
%TO.N,GND*%
X150200000Y-94600000D03*
%TD*%
D13*
%TO.P,J4,1,Pin_1*%
%TO.N,+3.3V*%
X181000000Y-88000000D03*
%TO.P,J4,2,Pin_2*%
%TO.N,GND*%
X181000000Y-91000000D03*
%TO.P,J4,3,Pin_3*%
%TO.N,Net-(J4-Pin_3)*%
X181000000Y-94000000D03*
%TD*%
%TO.P,J3,1,Pin_1*%
%TO.N,+3.3V*%
X181000000Y-72000000D03*
%TO.P,J3,2,Pin_2*%
%TO.N,GND*%
X181000000Y-75000000D03*
%TO.P,J3,3,Pin_3*%
%TO.N,Net-(J3-Pin_3)*%
X181000000Y-78000000D03*
%TD*%
D14*
%TO.P,FB2,1*%
%TO.N,Net-(FB2-Pad1)*%
X176000000Y-75700000D03*
%TO.P,FB2,2*%
%TO.N,Net-(J3-Pin_3)*%
X176000000Y-78000000D03*
%TD*%
D11*
%TO.P,C12,1*%
%TO.N,+3.3V*%
X176500000Y-88000000D03*
%TO.P,C12,2*%
%TO.N,GND*%
X174600000Y-88000000D03*
%TD*%
D15*
%TO.P,Airflow_SDA,1,1*%
%TO.N,/I2C1_SDA*%
X158000000Y-64000000D03*
%TD*%
D16*
%TO.P,J1,1,Pin_1*%
%TO.N,/SPI2_MOSI*%
X164350000Y-87400000D03*
%TO.P,J1,2,Pin_2*%
%TO.N,+3.3V*%
X168650000Y-87400000D03*
%TO.P,J1,3,Pin_3*%
%TO.N,/SPI2_MISO*%
X164350000Y-88200000D03*
%TO.P,J1,4,Pin_4*%
%TO.N,GND*%
X168650000Y-88200000D03*
%TO.P,J1,5,Pin_5*%
%TO.N,/SPI2_SCK*%
X164350000Y-89000000D03*
%TO.P,J1,6,Pin_6*%
%TO.N,/I2C2_SDA*%
X168650000Y-89000000D03*
%TO.P,J1,7,Pin_7*%
%TO.N,/SPI2_NSS*%
X164350000Y-89800000D03*
%TO.P,J1,8,Pin_8*%
%TO.N,/I2C2_SCL*%
X168650000Y-89800000D03*
%TO.P,J1,9,Pin_9*%
%TO.N,+3.3V*%
X164350000Y-90600000D03*
%TO.P,J1,10,Pin_10*%
%TO.N,VDDA*%
X168650000Y-90600000D03*
%TO.P,J1,11,Pin_11*%
%TO.N,GND*%
X164350000Y-91400000D03*
%TO.P,J1,12,Pin_12*%
%TO.N,GNDA*%
X168650000Y-91400000D03*
%TO.P,J1,13,Pin_13*%
%TO.N,/SPI1_SCK*%
X164350000Y-92200000D03*
%TO.P,J1,14,Pin_14*%
%TO.N,/I2C1_SCL*%
X168650000Y-92200000D03*
%TO.P,J1,15,Pin_15*%
%TO.N,/SPI1_MISO*%
X164350000Y-93000000D03*
%TO.P,J1,16,Pin_16*%
%TO.N,/I2C1_SDA*%
X168650000Y-93000000D03*
%TO.P,J1,17,Pin_17*%
%TO.N,/SPI1_MOSI*%
X164350000Y-93800000D03*
%TO.P,J1,18,Pin_18*%
%TO.N,/PA2*%
X168650000Y-93800000D03*
%TO.P,J1,19,Pin_19*%
%TO.N,/SPI1_NSS*%
X164350000Y-94600000D03*
%TO.P,J1,20,Pin_20*%
%TO.N,/PA1*%
X168650000Y-94600000D03*
%TD*%
D11*
%TO.P,C10,1*%
%TO.N,+3.3V*%
X176500000Y-72000000D03*
%TO.P,C10,2*%
%TO.N,GND*%
X174600000Y-72000000D03*
%TD*%
D10*
%TO.P,C11,1*%
%TO.N,/PA2*%
X173550000Y-96500000D03*
%TO.P,C11,2*%
%TO.N,GND*%
X175450000Y-96500000D03*
%TD*%
D17*
%TO.P,C5,1*%
%TO.N,Net-(IC1-TP1)*%
X152400000Y-94600000D03*
%TO.P,C5,2*%
%TO.N,Net-(IC1-TP2)*%
X152400000Y-96500000D03*
%TD*%
D15*
%TO.P,Temp1,1,1*%
%TO.N,/SPI1_NSS*%
X161500000Y-64000000D03*
%TD*%
D18*
%TO.P,R3,1*%
%TO.N,/PA1*%
X173000000Y-77700000D03*
%TO.P,R3,2*%
%TO.N,Net-(FB2-Pad1)*%
X173000000Y-75700000D03*
%TD*%
D15*
%TO.P,Temp3,1,1*%
%TO.N,/PA2*%
X168500000Y-64000000D03*
%TD*%
D17*
%TO.P,C4,1*%
%TO.N,Net-(IC1-VREG)*%
X150200000Y-85500000D03*
%TO.P,C4,2*%
%TO.N,GND*%
X150200000Y-87400000D03*
%TD*%
%TO.P,C3,1*%
%TO.N,+3.3V*%
X152350000Y-85500000D03*
%TO.P,C3,2*%
%TO.N,GND*%
X152350000Y-87400000D03*
%TD*%
D19*
%TO.P,3.3V_TP1,1,1*%
%TO.N,+3.3V*%
X175500000Y-64000000D03*
%TD*%
D17*
%TO.P,C7,1*%
%TO.N,/SPI1_NSS*%
X170000000Y-108050000D03*
%TO.P,C7,2*%
%TO.N,GND*%
X170000000Y-109950000D03*
%TD*%
D20*
%TO.P,U1,1,SDO/SA0*%
%TO.N,Net-(U1-SDO{slash}SA0)*%
X158318901Y-103049698D03*
%TO.P,U1,2,SDX*%
%TO.N,GND*%
X158318901Y-103549699D03*
%TO.P,U1,3,SCX*%
X158318901Y-104049699D03*
%TO.P,U1,4,INT1*%
%TO.N,/I2C2_SDA*%
X158318901Y-104549700D03*
D21*
%TO.P,U1,5,VDD_IO*%
%TO.N,+3.3V*%
X159000002Y-104726799D03*
%TO.P,U1,6,GND*%
%TO.N,GND*%
X159500001Y-104726799D03*
%TO.P,U1,7,GND*%
X160000000Y-104726799D03*
D20*
%TO.P,U1,8,VDD*%
%TO.N,+3.3V*%
X160681101Y-104549700D03*
%TO.P,U1,9,INT2*%
%TO.N,/I2C2_SCL*%
X160681101Y-104049699D03*
%TO.P,U1,10,OCS_AUX*%
%TO.N,unconnected-(U1-OCS_AUX-Pad10)*%
X160681101Y-103549699D03*
%TO.P,U1,11,SDO_AUX*%
%TO.N,unconnected-(U1-SDO_AUX-Pad11)*%
X160681101Y-103049698D03*
D21*
%TO.P,U1,12,CS*%
%TO.N,/SPI2_NSS*%
X160000000Y-102872599D03*
%TO.P,U1,13,SCL*%
%TO.N,/SPI1_SCK*%
X159500001Y-102872599D03*
%TO.P,U1,14,SDA*%
%TO.N,/SPI1_MOSI*%
X159000002Y-102872599D03*
%TD*%
D18*
%TO.P,R2,1*%
%TO.N,/SPI1_NSS*%
X173000000Y-110000000D03*
%TO.P,R2,2*%
%TO.N,Net-(FB1-Pad1)*%
X173000000Y-108000000D03*
%TD*%
D22*
%TO.P,R1,1*%
%TO.N,/SPI1_MISO*%
X158331401Y-98187500D03*
%TO.P,R1,2*%
%TO.N,Net-(U1-SDO{slash}SA0)*%
X158331401Y-100012500D03*
%TD*%
D18*
%TO.P,R4,1*%
%TO.N,/PA2*%
X174000000Y-93700000D03*
%TO.P,R4,2*%
%TO.N,Net-(FB3-Pad1)*%
X174000000Y-91700000D03*
%TD*%
D14*
%TO.P,FB3,1*%
%TO.N,Net-(FB3-Pad1)*%
X177000000Y-91500000D03*
%TO.P,FB3,2*%
%TO.N,Net-(J4-Pin_3)*%
X177000000Y-93800000D03*
%TD*%
D11*
%TO.P,C2,1*%
%TO.N,+3.3V*%
X162750000Y-107500000D03*
%TO.P,C2,2*%
%TO.N,GND*%
X160850000Y-107500000D03*
%TD*%
D15*
%TO.P,Airflow_SCL,1,1*%
%TO.N,/I2C1_SCL*%
X165000000Y-64000000D03*
%TD*%
D14*
%TO.P,FB1,1*%
%TO.N,Net-(FB1-Pad1)*%
X176000000Y-107850000D03*
%TO.P,FB1,2*%
%TO.N,Net-(J2-Pin_3)*%
X176000000Y-110150000D03*
%TD*%
D19*
%TO.P,GND_TP1,1,1*%
%TO.N,GND*%
X154500000Y-64000000D03*
%TD*%
D13*
%TO.P,J2,1,Pin_1*%
%TO.N,+3.3V*%
X181000000Y-104000000D03*
%TO.P,J2,2,Pin_2*%
%TO.N,GND*%
X181000000Y-107000000D03*
%TO.P,J2,3,Pin_3*%
%TO.N,Net-(J2-Pin_3)*%
X181000000Y-110000000D03*
%TD*%
D15*
%TO.P,Temp2,1,1*%
%TO.N,/PA1*%
X172000000Y-64000000D03*
%TD*%
D23*
%TO.N,+3.3V*%
X176550000Y-72000000D03*
X156931401Y-107500000D03*
X168500000Y-87000000D03*
X162800000Y-90600000D03*
X176500000Y-88000000D03*
X158200000Y-90600000D03*
X176500000Y-104000000D03*
X162750000Y-107500000D03*
X152350000Y-85500000D03*
%TO.N,GND*%
X181000000Y-99000000D03*
X147600000Y-63000000D03*
X146800000Y-109355637D03*
X146800000Y-67762558D03*
X149000000Y-100000000D03*
X158000000Y-111000000D03*
X149000000Y-105000000D03*
X185000000Y-89000000D03*
X185200000Y-112000000D03*
X156000000Y-68000000D03*
X149000000Y-83000000D03*
X184636073Y-113800000D03*
X149783830Y-61800000D03*
X146800000Y-112155637D03*
X181000000Y-83000000D03*
X181793828Y-61800000D03*
X179436073Y-115200000D03*
X168000000Y-102500000D03*
X178993828Y-61800000D03*
X149785528Y-115200000D03*
X170000000Y-78000000D03*
X178200000Y-66800000D03*
X170000000Y-68000000D03*
X147700000Y-114300000D03*
X183993828Y-62475222D03*
X181000000Y-66800000D03*
X152583830Y-61800000D03*
X184500000Y-70000000D03*
X165000000Y-111000000D03*
X185200000Y-67675222D03*
X185200000Y-109200000D03*
X152585528Y-115200000D03*
X163000000Y-68000000D03*
X156000000Y-78000000D03*
X174500000Y-68000000D03*
X163000000Y-78000000D03*
X146800000Y-64962558D03*
X149000000Y-78000000D03*
X185200000Y-64875222D03*
X182236073Y-115200000D03*
%TO.N,/I2C2_SDA*%
X156600000Y-103800000D03*
X165800000Y-93400000D03*
%TO.N,/SPI1_SCK*%
X159739515Y-101701471D03*
X161700000Y-101700000D03*
%TO.N,/I2C1_SCL*%
X167300000Y-92200000D03*
X166863641Y-87136359D03*
%TO.N,/SPI1_MISO*%
X162936460Y-93345689D03*
X159000000Y-97250000D03*
%TO.N,/I2C1_SDA*%
X167300000Y-93126503D03*
X158000000Y-94200000D03*
%TO.N,/SPI1_MOSI*%
X162726500Y-100700000D03*
X159747234Y-100775001D03*
%TO.N,/SPI1_NSS*%
X159773500Y-99000000D03*
X164350000Y-95800000D03*
X170000000Y-98500000D03*
%TO.N,Net-(IC1-VREG)*%
X150200000Y-85500000D03*
%TO.N,Net-(IC1-VCM)*%
X150200000Y-96500000D03*
%TO.N,Net-(IC1-TP2)*%
X152400000Y-96500000D03*
%TO.N,Net-(IC1-TP1)*%
X152400000Y-92450000D03*
%TO.N,/PA1*%
X171100000Y-92200000D03*
X168650000Y-94674502D03*
%TO.N,/PA2*%
X172000000Y-87000000D03*
X169000000Y-83000000D03*
%TD*%
D24*
%TO.N,+3.3V*%
X176550000Y-72000000D02*
X176500000Y-72000000D01*
X181000000Y-88000000D02*
X176500000Y-88000000D01*
D25*
X153100000Y-85500000D02*
X158200000Y-90600000D01*
X176627000Y-71923000D02*
X176550000Y-72000000D01*
X159000002Y-105431399D02*
X159000002Y-104726799D01*
X152350000Y-85500000D02*
X153100000Y-85500000D01*
X156931401Y-107500000D02*
X159000002Y-105431399D01*
X162800000Y-90600000D02*
X164350000Y-90600000D01*
D26*
X168500000Y-87000000D02*
X168500000Y-87250000D01*
D25*
X176627000Y-64627000D02*
X176627000Y-71923000D01*
X160681101Y-105431101D02*
X160681101Y-104549700D01*
D24*
X176550000Y-72000000D02*
X181000000Y-72000000D01*
D26*
X168500000Y-87250000D02*
X168650000Y-87400000D01*
D25*
X175500000Y-63500000D02*
X176627000Y-64627000D01*
D24*
X176500000Y-104000000D02*
X181000000Y-104000000D01*
D25*
X162750000Y-107500000D02*
X160681101Y-105431101D01*
%TO.N,GND*%
X170550000Y-110000000D02*
X170500000Y-109950000D01*
X158318901Y-103549699D02*
X158318901Y-104049699D01*
%TO.N,/I2C2_SDA*%
X157349700Y-104549700D02*
X158318901Y-104549700D01*
X165800000Y-93400000D02*
X166346000Y-92854000D01*
X166346000Y-90454000D02*
X167800000Y-89000000D01*
X156600000Y-103800000D02*
X157349700Y-104549700D01*
X167800000Y-89000000D02*
X168650000Y-89000000D01*
X166346000Y-92854000D02*
X166346000Y-90454000D01*
%TO.N,/SPI2_NSS*%
X160400000Y-91868629D02*
X160400000Y-102472599D01*
X160400000Y-102472599D02*
X160000000Y-102872599D01*
X162468629Y-89800000D02*
X160400000Y-91868629D01*
X164350000Y-89800000D02*
X162468629Y-89800000D01*
%TO.N,/I2C2_SCL*%
X160681101Y-104049699D02*
X161147801Y-104049699D01*
X167700000Y-89800000D02*
X168650000Y-89800000D01*
X161147801Y-104049699D02*
X166673000Y-98524500D01*
X166673000Y-98524500D02*
X166673000Y-90827000D01*
X166673000Y-90827000D02*
X167700000Y-89800000D01*
%TO.N,/SPI1_SCK*%
X161700000Y-101700000D02*
X162100000Y-101300000D01*
X159739515Y-101701471D02*
X159500001Y-101940985D01*
X162100000Y-93295437D02*
X163195437Y-92200000D01*
X159500001Y-101940985D02*
X159500001Y-102872599D01*
X162100000Y-101300000D02*
X162100000Y-93295437D01*
X163195437Y-92200000D02*
X164350000Y-92200000D01*
%TO.N,/I2C1_SCL*%
X165000000Y-64000000D02*
X165000000Y-85272718D01*
X165000000Y-85272718D02*
X166863641Y-87136359D01*
X167300000Y-92200000D02*
X168650000Y-92200000D01*
%TO.N,/SPI1_MISO*%
X163282149Y-93000000D02*
X164350000Y-93000000D01*
X158331401Y-97918599D02*
X158331401Y-98187500D01*
X159000000Y-97250000D02*
X158331401Y-97918599D01*
X162936460Y-93345689D02*
X163282149Y-93000000D01*
%TO.N,/I2C1_SDA*%
X158827000Y-93373000D02*
X158000000Y-94200000D01*
X158000000Y-64000000D02*
X158827000Y-64827000D01*
X167300000Y-93126503D02*
X168523497Y-93126503D01*
X158827000Y-64827000D02*
X158827000Y-93373000D01*
X168523497Y-93126503D02*
X168650000Y-93000000D01*
%TO.N,/SPI1_MOSI*%
X163521000Y-93800000D02*
X164350000Y-93800000D01*
X163200000Y-100226500D02*
X163200000Y-94121000D01*
X159747234Y-100775001D02*
X159000002Y-101522233D01*
X163200000Y-94121000D02*
X163521000Y-93800000D01*
X159000002Y-101522233D02*
X159000002Y-102872599D01*
X162726500Y-100700000D02*
X163200000Y-100226500D01*
%TO.N,/SPI1_NSS*%
X161500000Y-90306181D02*
X160073000Y-91733181D01*
X170000000Y-98500000D02*
X170000000Y-108050000D01*
X161500000Y-64000000D02*
X161500000Y-90306181D01*
X164350000Y-95800000D02*
X164350000Y-94600000D01*
X160073000Y-98700500D02*
X159773500Y-99000000D01*
X173000000Y-110000000D02*
X171050000Y-108050000D01*
X160073000Y-91733181D02*
X160073000Y-98700500D01*
X171050000Y-108050000D02*
X170000000Y-108050000D01*
D26*
%TO.N,Net-(U1-SDO{slash}SA0)*%
X158318901Y-100025000D02*
X158318901Y-102997299D01*
D25*
%TO.N,Net-(IC1-TP1)*%
X152400000Y-92450000D02*
X152200000Y-92450000D01*
X151800000Y-94000000D02*
X152400000Y-94600000D01*
X151800000Y-92850000D02*
X151800000Y-94000000D01*
X152200000Y-92450000D02*
X151800000Y-92850000D01*
%TO.N,/PA1*%
X173000000Y-80450000D02*
X173050000Y-80500000D01*
X173000000Y-77700000D02*
X173000000Y-80450000D01*
X172000000Y-64000000D02*
X172000000Y-76700000D01*
X171100000Y-92200000D02*
X171100000Y-83000000D01*
X172000000Y-76700000D02*
X173000000Y-77700000D01*
X173050000Y-80500000D02*
X173050000Y-81050000D01*
X173050000Y-81050000D02*
X171100000Y-83000000D01*
%TO.N,/PA2*%
X174000000Y-93700000D02*
X174000000Y-96100000D01*
X169750000Y-93800000D02*
X168650000Y-93800000D01*
X168500000Y-82500000D02*
X169000000Y-83000000D01*
X168500000Y-64000000D02*
X168500000Y-82500000D01*
X172000000Y-87000000D02*
X173073000Y-88073000D01*
X173600000Y-96500000D02*
X172450000Y-96500000D01*
X174000000Y-96100000D02*
X173600000Y-96500000D01*
X173073000Y-92773000D02*
X174000000Y-93700000D01*
X172450000Y-96500000D02*
X169750000Y-93800000D01*
X173073000Y-88073000D02*
X173073000Y-92773000D01*
%TO.N,Net-(FB1-Pad1)*%
X176000000Y-107850000D02*
X173150000Y-107850000D01*
X173150000Y-107850000D02*
X173000000Y-108000000D01*
X173300000Y-107700000D02*
X173000000Y-108000000D01*
%TO.N,Net-(J2-Pin_3)*%
X176000000Y-110000000D02*
X181000000Y-110000000D01*
%TO.N,Net-(FB2-Pad1)*%
X176000000Y-75700000D02*
X173000000Y-75700000D01*
%TO.N,Net-(J3-Pin_3)*%
X176000000Y-78000000D02*
X181000000Y-78000000D01*
%TO.N,Net-(FB3-Pad1)*%
X176800000Y-91700000D02*
X174000000Y-91700000D01*
X174700000Y-91500000D02*
X174500000Y-91700000D01*
X177000000Y-91500000D02*
X176800000Y-91700000D01*
%TO.N,Net-(J4-Pin_3)*%
X181000000Y-94000000D02*
X177200000Y-94000000D01*
X177200000Y-94000000D02*
X177000000Y-93800000D01*
%TD*%
%TA.AperFunction,Conductor*%
%TO.N,GND*%
G36*
X182001513Y-61300575D02*
G01*
X182359571Y-61318165D01*
X182365624Y-61318760D01*
X182718724Y-61371138D01*
X182724676Y-61372321D01*
X183013435Y-61444651D01*
X183070953Y-61459059D01*
X183076774Y-61460824D01*
X183412867Y-61581081D01*
X183418486Y-61583409D01*
X183741181Y-61736031D01*
X183746539Y-61738894D01*
X184052713Y-61922408D01*
X184057775Y-61925790D01*
X184344494Y-62138436D01*
X184349198Y-62142296D01*
X184613699Y-62382025D01*
X184617974Y-62386300D01*
X184772369Y-62556649D01*
X184857701Y-62650799D01*
X184861563Y-62655505D01*
X185074209Y-62942224D01*
X185077591Y-62947286D01*
X185080520Y-62952172D01*
X185221726Y-63187761D01*
X185261098Y-63253448D01*
X185263968Y-63258818D01*
X185416590Y-63581513D01*
X185418920Y-63587137D01*
X185539173Y-63923220D01*
X185540940Y-63929046D01*
X185627674Y-64275304D01*
X185628861Y-64281275D01*
X185681238Y-64634370D01*
X185681834Y-64640428D01*
X185699425Y-64998486D01*
X185699500Y-65001529D01*
X185699500Y-111998470D01*
X185699425Y-112001513D01*
X185681834Y-112359571D01*
X185681238Y-112365629D01*
X185628861Y-112718724D01*
X185627674Y-112724695D01*
X185540940Y-113070953D01*
X185539173Y-113076779D01*
X185418920Y-113412862D01*
X185416590Y-113418486D01*
X185263968Y-113741181D01*
X185261098Y-113746551D01*
X185077591Y-114052713D01*
X185074209Y-114057775D01*
X184861563Y-114344494D01*
X184857701Y-114349200D01*
X184617989Y-114613684D01*
X184613689Y-114617983D01*
X184518751Y-114704029D01*
X184349200Y-114857701D01*
X184344494Y-114861563D01*
X184057775Y-115074209D01*
X184052713Y-115077591D01*
X183746551Y-115261098D01*
X183741181Y-115263968D01*
X183418486Y-115416590D01*
X183412862Y-115418920D01*
X183076779Y-115539173D01*
X183070953Y-115540940D01*
X182724695Y-115627674D01*
X182718724Y-115628861D01*
X182365629Y-115681238D01*
X182359571Y-115681834D01*
X182001514Y-115699425D01*
X181998471Y-115699500D01*
X150001529Y-115699500D01*
X149998486Y-115699425D01*
X149640428Y-115681834D01*
X149634370Y-115681238D01*
X149281275Y-115628861D01*
X149275307Y-115627674D01*
X149217188Y-115613116D01*
X148929046Y-115540940D01*
X148923220Y-115539173D01*
X148587137Y-115418920D01*
X148581513Y-115416590D01*
X148258818Y-115263968D01*
X148253453Y-115261101D01*
X147947286Y-115077591D01*
X147942224Y-115074209D01*
X147655505Y-114861563D01*
X147650799Y-114857701D01*
X147532295Y-114750296D01*
X147386300Y-114617974D01*
X147382025Y-114613699D01*
X147142296Y-114349198D01*
X147138436Y-114344494D01*
X146925790Y-114057775D01*
X146922408Y-114052713D01*
X146815804Y-113874855D01*
X146738894Y-113746539D01*
X146736031Y-113741181D01*
X146583409Y-113418486D01*
X146581079Y-113412862D01*
X146532248Y-113276390D01*
X146460824Y-113076774D01*
X146459059Y-113070953D01*
X146444651Y-113013435D01*
X146372321Y-112724676D01*
X146371138Y-112718724D01*
X146346525Y-112552795D01*
X146318760Y-112365624D01*
X146318165Y-112359571D01*
X146306960Y-112131489D01*
X148245500Y-112131489D01*
X148284690Y-112391503D01*
X148284692Y-112391509D01*
X148362202Y-112642788D01*
X148476295Y-112879705D01*
X148476297Y-112879707D01*
X148476298Y-112879710D01*
X148624430Y-113096980D01*
X148803290Y-113289746D01*
X149008883Y-113453701D01*
X149236616Y-113585183D01*
X149481402Y-113681254D01*
X149737772Y-113739769D01*
X149737778Y-113739769D01*
X149737781Y-113739770D01*
X149934340Y-113754500D01*
X149934346Y-113754500D01*
X150065660Y-113754500D01*
X150262218Y-113739770D01*
X150262220Y-113739769D01*
X150262228Y-113739769D01*
X150518598Y-113681254D01*
X150763384Y-113585183D01*
X150991117Y-113453701D01*
X151196710Y-113289746D01*
X151375570Y-113096980D01*
X151377950Y-113093489D01*
X182070500Y-113093489D01*
X182109374Y-113276384D01*
X182109376Y-113276390D01*
X182185427Y-113447199D01*
X182185429Y-113447204D01*
X182295330Y-113598469D01*
X182434286Y-113723586D01*
X182596213Y-113817074D01*
X182596215Y-113817075D01*
X182774044Y-113874855D01*
X182913380Y-113889500D01*
X182913385Y-113889500D01*
X183006615Y-113889500D01*
X183006620Y-113889500D01*
X183145956Y-113874855D01*
X183323785Y-113817075D01*
X183485715Y-113723585D01*
X183624669Y-113598470D01*
X183734573Y-113447200D01*
X183810625Y-113276385D01*
X183849500Y-113093490D01*
X183849500Y-112906510D01*
X183810625Y-112723615D01*
X183810623Y-112723609D01*
X183774638Y-112642788D01*
X183734573Y-112552800D01*
X183734570Y-112552796D01*
X183734570Y-112552795D01*
X183624669Y-112401530D01*
X183485713Y-112276413D01*
X183323786Y-112182925D01*
X183145960Y-112125146D01*
X183145958Y-112125145D01*
X183106145Y-112120960D01*
X183006620Y-112110500D01*
X182913380Y-112110500D01*
X182826295Y-112119653D01*
X182774041Y-112125145D01*
X182774039Y-112125146D01*
X182596213Y-112182925D01*
X182434286Y-112276413D01*
X182295330Y-112401530D01*
X182185429Y-112552795D01*
X182185427Y-112552800D01*
X182109376Y-112723609D01*
X182109374Y-112723615D01*
X182070500Y-112906510D01*
X182070500Y-113093489D01*
X151377950Y-113093489D01*
X151523702Y-112879710D01*
X151637798Y-112642788D01*
X151715308Y-112391508D01*
X151754500Y-112131482D01*
X151754500Y-111868518D01*
X151715308Y-111608492D01*
X151637798Y-111357212D01*
X151523702Y-111120290D01*
X151375570Y-110903020D01*
X151196710Y-110710254D01*
X150991117Y-110546299D01*
X150763384Y-110414817D01*
X150518598Y-110318746D01*
X150518593Y-110318744D01*
X150518584Y-110318742D01*
X150300501Y-110268966D01*
X150262228Y-110260231D01*
X150262227Y-110260230D01*
X150262223Y-110260230D01*
X150262218Y-110260229D01*
X150065660Y-110245500D01*
X150065654Y-110245500D01*
X149934346Y-110245500D01*
X149934340Y-110245500D01*
X149737781Y-110260229D01*
X149737776Y-110260230D01*
X149481415Y-110318742D01*
X149481396Y-110318748D01*
X149236615Y-110414817D01*
X149008883Y-110546299D01*
X148803290Y-110710254D01*
X148803288Y-110710256D01*
X148624430Y-110903019D01*
X148476295Y-111120294D01*
X148362202Y-111357211D01*
X148284692Y-111608490D01*
X148284690Y-111608496D01*
X148245500Y-111868510D01*
X148245500Y-112131489D01*
X146306960Y-112131489D01*
X146300575Y-112001512D01*
X146300500Y-111998470D01*
X146300500Y-110200000D01*
X168775001Y-110200000D01*
X168775001Y-110249986D01*
X168785494Y-110352697D01*
X168840641Y-110519119D01*
X168840643Y-110519124D01*
X168932684Y-110668345D01*
X169056654Y-110792315D01*
X169205875Y-110884356D01*
X169205880Y-110884358D01*
X169372302Y-110939505D01*
X169372309Y-110939506D01*
X169475019Y-110949999D01*
X169749999Y-110949999D01*
X169750000Y-110949998D01*
X169750000Y-110200000D01*
X170250000Y-110200000D01*
X170250000Y-110949999D01*
X170524972Y-110949999D01*
X170524986Y-110949998D01*
X170627697Y-110939505D01*
X170794119Y-110884358D01*
X170794124Y-110884356D01*
X170943345Y-110792315D01*
X171067315Y-110668345D01*
X171159356Y-110519124D01*
X171159358Y-110519119D01*
X171214505Y-110352697D01*
X171214506Y-110352690D01*
X171224999Y-110249986D01*
X171225000Y-110249973D01*
X171225000Y-110200000D01*
X170250000Y-110200000D01*
X169750000Y-110200000D01*
X168775001Y-110200000D01*
X146300500Y-110200000D01*
X146300500Y-109700000D01*
X168775000Y-109700000D01*
X171224999Y-109700000D01*
X171224999Y-109650028D01*
X171224998Y-109650013D01*
X171214505Y-109547302D01*
X171159358Y-109380880D01*
X171159356Y-109380875D01*
X171067315Y-109231654D01*
X170943345Y-109107684D01*
X170794124Y-109015643D01*
X170794119Y-109015641D01*
X170625917Y-108959905D01*
X170568472Y-108920133D01*
X170541649Y-108855617D01*
X170553964Y-108786841D01*
X170601507Y-108735641D01*
X170623966Y-108725158D01*
X170623972Y-108725156D01*
X170687882Y-108702793D01*
X170797150Y-108622150D01*
X170877793Y-108512882D01*
X170877792Y-108512882D01*
X170881453Y-108507923D01*
X170937100Y-108465672D01*
X171006756Y-108460213D01*
X171068306Y-108493280D01*
X171068904Y-108493875D01*
X172064389Y-109489360D01*
X172097874Y-109550683D01*
X172100167Y-109588607D01*
X172099500Y-109595726D01*
X172099500Y-110404269D01*
X172102353Y-110434699D01*
X172102353Y-110434701D01*
X172131895Y-110519124D01*
X172147207Y-110562882D01*
X172227850Y-110672150D01*
X172337118Y-110752793D01*
X172379845Y-110767744D01*
X172465299Y-110797646D01*
X172495730Y-110800500D01*
X172495734Y-110800500D01*
X173504270Y-110800500D01*
X173534699Y-110797646D01*
X173534701Y-110797646D01*
X173598790Y-110775219D01*
X173662882Y-110752793D01*
X173772150Y-110672150D01*
X173852793Y-110562882D01*
X173875219Y-110498790D01*
X173882050Y-110479269D01*
X175199500Y-110479269D01*
X175202353Y-110509699D01*
X175202353Y-110509701D01*
X175247206Y-110637880D01*
X175247207Y-110637882D01*
X175327850Y-110747150D01*
X175437118Y-110827793D01*
X175479845Y-110842744D01*
X175565299Y-110872646D01*
X175595730Y-110875500D01*
X175595734Y-110875500D01*
X176404270Y-110875500D01*
X176434699Y-110872646D01*
X176434701Y-110872646D01*
X176498790Y-110850219D01*
X176562882Y-110827793D01*
X176672150Y-110747150D01*
X176752793Y-110637882D01*
X176784839Y-110546299D01*
X176797646Y-110509701D01*
X176797646Y-110509699D01*
X176800500Y-110479269D01*
X176800500Y-110424500D01*
X176820185Y-110357461D01*
X176872989Y-110311706D01*
X176924500Y-110300500D01*
X179901421Y-110300500D01*
X179968460Y-110320185D01*
X180014215Y-110372989D01*
X180020081Y-110388503D01*
X180024768Y-110403954D01*
X180122315Y-110586450D01*
X180122317Y-110586452D01*
X180253589Y-110746410D01*
X180319499Y-110800500D01*
X180413550Y-110877685D01*
X180596046Y-110975232D01*
X180794066Y-111035300D01*
X180794065Y-111035300D01*
X180812529Y-111037118D01*
X181000000Y-111055583D01*
X181205934Y-111035300D01*
X181403954Y-110975232D01*
X181586450Y-110877685D01*
X181746410Y-110746410D01*
X181877685Y-110586450D01*
X181975232Y-110403954D01*
X182035300Y-110205934D01*
X182055583Y-110000000D01*
X182035300Y-109794066D01*
X181975232Y-109596046D01*
X181877685Y-109413550D01*
X181807353Y-109327850D01*
X181746410Y-109253589D01*
X181586452Y-109122317D01*
X181586453Y-109122317D01*
X181586450Y-109122315D01*
X181403954Y-109024768D01*
X181205934Y-108964700D01*
X181205932Y-108964699D01*
X181205934Y-108964699D01*
X181000000Y-108944417D01*
X180794067Y-108964699D01*
X180596043Y-109024769D01*
X180485898Y-109083643D01*
X180413550Y-109122315D01*
X180413548Y-109122316D01*
X180413547Y-109122317D01*
X180253589Y-109253589D01*
X180149126Y-109380880D01*
X180122315Y-109413550D01*
X180090962Y-109472207D01*
X180024769Y-109596043D01*
X180024768Y-109596046D01*
X180020081Y-109611497D01*
X179981783Y-109669935D01*
X179917970Y-109698391D01*
X179901421Y-109699500D01*
X176842980Y-109699500D01*
X176775941Y-109679815D01*
X176743210Y-109649133D01*
X176672151Y-109552851D01*
X176669213Y-109550683D01*
X176562882Y-109472207D01*
X176562880Y-109472206D01*
X176434700Y-109427353D01*
X176404270Y-109424500D01*
X176404266Y-109424500D01*
X175595734Y-109424500D01*
X175595730Y-109424500D01*
X175565300Y-109427353D01*
X175565298Y-109427353D01*
X175437119Y-109472206D01*
X175437117Y-109472207D01*
X175327850Y-109552850D01*
X175247207Y-109662117D01*
X175247206Y-109662119D01*
X175202353Y-109790298D01*
X175202353Y-109790300D01*
X175199500Y-109820730D01*
X175199500Y-110479269D01*
X173882050Y-110479269D01*
X173897646Y-110434701D01*
X173897646Y-110434699D01*
X173900500Y-110404269D01*
X173900500Y-109595730D01*
X173897646Y-109565300D01*
X173897646Y-109565298D01*
X173852793Y-109437119D01*
X173852792Y-109437117D01*
X173845586Y-109427353D01*
X173772150Y-109327850D01*
X173662882Y-109247207D01*
X173662880Y-109247206D01*
X173534700Y-109202353D01*
X173504270Y-109199500D01*
X173504266Y-109199500D01*
X172675834Y-109199500D01*
X172608795Y-109179815D01*
X172588153Y-109163181D01*
X172437153Y-109012181D01*
X172403668Y-108950858D01*
X172408652Y-108881166D01*
X172450524Y-108825233D01*
X172515988Y-108800816D01*
X172524834Y-108800500D01*
X173504270Y-108800500D01*
X173534699Y-108797646D01*
X173534701Y-108797646D01*
X173598790Y-108775219D01*
X173662882Y-108752793D01*
X173772150Y-108672150D01*
X173852793Y-108562882D01*
X173887797Y-108462847D01*
X173897646Y-108434701D01*
X173897646Y-108434699D01*
X173900500Y-108404269D01*
X173900500Y-108274500D01*
X173920185Y-108207461D01*
X173972989Y-108161706D01*
X174024500Y-108150500D01*
X175093656Y-108150500D01*
X175160695Y-108170185D01*
X175206450Y-108222989D01*
X175210697Y-108233544D01*
X175231893Y-108294117D01*
X175247207Y-108337882D01*
X175327850Y-108447150D01*
X175437118Y-108527793D01*
X175479845Y-108542744D01*
X175565299Y-108572646D01*
X175595730Y-108575500D01*
X175595734Y-108575500D01*
X176404270Y-108575500D01*
X176434699Y-108572646D01*
X176434701Y-108572646D01*
X176498790Y-108550219D01*
X176562882Y-108527793D01*
X176672150Y-108447150D01*
X176752793Y-108337882D01*
X176775346Y-108273429D01*
X176797646Y-108209701D01*
X176797646Y-108209699D01*
X176800500Y-108179269D01*
X176800500Y-107520730D01*
X176797646Y-107490300D01*
X176797646Y-107490298D01*
X176752793Y-107362119D01*
X176752792Y-107362117D01*
X176672150Y-107252850D01*
X176562882Y-107172207D01*
X176562880Y-107172206D01*
X176434700Y-107127353D01*
X176404270Y-107124500D01*
X176404266Y-107124500D01*
X175595734Y-107124500D01*
X175595730Y-107124500D01*
X175565300Y-107127353D01*
X175565298Y-107127353D01*
X175437119Y-107172206D01*
X175437117Y-107172207D01*
X175327850Y-107252850D01*
X175247207Y-107362117D01*
X175210697Y-107466456D01*
X175169975Y-107523231D01*
X175105022Y-107548978D01*
X175093656Y-107549500D01*
X173980099Y-107549500D01*
X173913060Y-107529815D01*
X173867305Y-107477011D01*
X173863065Y-107466474D01*
X173852793Y-107437118D01*
X173772150Y-107327850D01*
X173662882Y-107247207D01*
X173662880Y-107247206D01*
X173534700Y-107202353D01*
X173504270Y-107199500D01*
X173504266Y-107199500D01*
X172495734Y-107199500D01*
X172495730Y-107199500D01*
X172465300Y-107202353D01*
X172465298Y-107202353D01*
X172337119Y-107247206D01*
X172337117Y-107247207D01*
X172227850Y-107327850D01*
X172147207Y-107437117D01*
X172147206Y-107437119D01*
X172102353Y-107565298D01*
X172102353Y-107565300D01*
X172099500Y-107595730D01*
X172099500Y-108375166D01*
X172079815Y-108442205D01*
X172027011Y-108487960D01*
X171957853Y-108497904D01*
X171894297Y-108468879D01*
X171887819Y-108462847D01*
X171454237Y-108029266D01*
X171306915Y-107881944D01*
X171301278Y-107875465D01*
X171293956Y-107865770D01*
X171258624Y-107833560D01*
X171256573Y-107831602D01*
X171242797Y-107817826D01*
X171240586Y-107816311D01*
X171233853Y-107810978D01*
X171210933Y-107790084D01*
X171204470Y-107787580D01*
X171179192Y-107774256D01*
X171173481Y-107770344D01*
X171173478Y-107770343D01*
X171173479Y-107770343D01*
X171143302Y-107763244D01*
X171135094Y-107760703D01*
X171106173Y-107749500D01*
X171099249Y-107749500D01*
X171070858Y-107746206D01*
X171064119Y-107744621D01*
X171039629Y-107748037D01*
X170970513Y-107737802D01*
X170917902Y-107691825D01*
X170905460Y-107666186D01*
X170877793Y-107587118D01*
X170797150Y-107477850D01*
X170687882Y-107397207D01*
X170687880Y-107397206D01*
X170559700Y-107352353D01*
X170529270Y-107349500D01*
X170529266Y-107349500D01*
X170424500Y-107349500D01*
X170357461Y-107329815D01*
X170311706Y-107277011D01*
X170300500Y-107225500D01*
X170300500Y-107000001D01*
X179644843Y-107000001D01*
X179665430Y-107235315D01*
X179665432Y-107235326D01*
X179726566Y-107463483D01*
X179726570Y-107463492D01*
X179826400Y-107677579D01*
X179826402Y-107677583D01*
X179885072Y-107761373D01*
X179885073Y-107761373D01*
X180508866Y-107137580D01*
X180531318Y-107214040D01*
X180610605Y-107337413D01*
X180721438Y-107433451D01*
X180854839Y-107494373D01*
X180858633Y-107494918D01*
X180238625Y-108114925D01*
X180322421Y-108173599D01*
X180536507Y-108273429D01*
X180536516Y-108273433D01*
X180764673Y-108334567D01*
X180764684Y-108334569D01*
X180999998Y-108355157D01*
X181000002Y-108355157D01*
X181235315Y-108334569D01*
X181235326Y-108334567D01*
X181463483Y-108273433D01*
X181463492Y-108273429D01*
X181677578Y-108173600D01*
X181677582Y-108173598D01*
X181761373Y-108114926D01*
X181761373Y-108114925D01*
X181141365Y-107494918D01*
X181145161Y-107494373D01*
X181278562Y-107433451D01*
X181389395Y-107337413D01*
X181468682Y-107214040D01*
X181491133Y-107137580D01*
X182114925Y-107761373D01*
X182114926Y-107761373D01*
X182173598Y-107677582D01*
X182173600Y-107677578D01*
X182273429Y-107463492D01*
X182273433Y-107463483D01*
X182334567Y-107235326D01*
X182334569Y-107235315D01*
X182355157Y-107000001D01*
X182355157Y-106999998D01*
X182334569Y-106764684D01*
X182334567Y-106764673D01*
X182273433Y-106536516D01*
X182273429Y-106536507D01*
X182173600Y-106322423D01*
X182173599Y-106322421D01*
X182114925Y-106238626D01*
X182114925Y-106238625D01*
X181491132Y-106862418D01*
X181468682Y-106785960D01*
X181389395Y-106662587D01*
X181278562Y-106566549D01*
X181145161Y-106505627D01*
X181141366Y-106505081D01*
X181761373Y-105885073D01*
X181761373Y-105885072D01*
X181677583Y-105826402D01*
X181677579Y-105826400D01*
X181463492Y-105726570D01*
X181463483Y-105726566D01*
X181235326Y-105665432D01*
X181235315Y-105665430D01*
X181000002Y-105644843D01*
X180999998Y-105644843D01*
X180764684Y-105665430D01*
X180764673Y-105665432D01*
X180536516Y-105726566D01*
X180536507Y-105726570D01*
X180322419Y-105826401D01*
X180238625Y-105885072D01*
X180858634Y-106505081D01*
X180854839Y-106505627D01*
X180721438Y-106566549D01*
X180610605Y-106662587D01*
X180531318Y-106785960D01*
X180508867Y-106862419D01*
X179885073Y-106238625D01*
X179885072Y-106238625D01*
X179826401Y-106322419D01*
X179726570Y-106536507D01*
X179726566Y-106536516D01*
X179665432Y-106764673D01*
X179665430Y-106764684D01*
X179644843Y-106999998D01*
X179644843Y-107000001D01*
X170300500Y-107000001D01*
X170300500Y-104250000D01*
X173600001Y-104250000D01*
X173600001Y-104524986D01*
X173610494Y-104627697D01*
X173665641Y-104794119D01*
X173665643Y-104794124D01*
X173757684Y-104943345D01*
X173881654Y-105067315D01*
X174030875Y-105159356D01*
X174030880Y-105159358D01*
X174197302Y-105214505D01*
X174197309Y-105214506D01*
X174300019Y-105224999D01*
X174349999Y-105224998D01*
X174350000Y-105224998D01*
X174350000Y-104250000D01*
X173600001Y-104250000D01*
X170300500Y-104250000D01*
X170300500Y-103750000D01*
X173600000Y-103750000D01*
X174350000Y-103750000D01*
X174350000Y-102775000D01*
X174850000Y-102775000D01*
X174850000Y-105224999D01*
X174899972Y-105224999D01*
X174899986Y-105224998D01*
X175002697Y-105214505D01*
X175169119Y-105159358D01*
X175169124Y-105159356D01*
X175318345Y-105067315D01*
X175442315Y-104943345D01*
X175534356Y-104794124D01*
X175534359Y-104794117D01*
X175590094Y-104625918D01*
X175629866Y-104568473D01*
X175694382Y-104541649D01*
X175763158Y-104553964D01*
X175814358Y-104601506D01*
X175824841Y-104623965D01*
X175826147Y-104627697D01*
X175847207Y-104687882D01*
X175927850Y-104797150D01*
X176037118Y-104877793D01*
X176054371Y-104883830D01*
X176165299Y-104922646D01*
X176195730Y-104925500D01*
X176195734Y-104925500D01*
X176804270Y-104925500D01*
X176834699Y-104922646D01*
X176834701Y-104922646D01*
X176899978Y-104899804D01*
X176962882Y-104877793D01*
X177072150Y-104797150D01*
X177106308Y-104750866D01*
X177161956Y-104708616D01*
X177206079Y-104700500D01*
X180157265Y-104700500D01*
X180224304Y-104720185D01*
X180249119Y-104742274D01*
X180249287Y-104742107D01*
X180252165Y-104744985D01*
X180253114Y-104745830D01*
X180253590Y-104746410D01*
X180413550Y-104877685D01*
X180596046Y-104975232D01*
X180794066Y-105035300D01*
X180794065Y-105035300D01*
X180812529Y-105037118D01*
X181000000Y-105055583D01*
X181205934Y-105035300D01*
X181403954Y-104975232D01*
X181586450Y-104877685D01*
X181746410Y-104746410D01*
X181877685Y-104586450D01*
X181975232Y-104403954D01*
X182035300Y-104205934D01*
X182055583Y-104000000D01*
X182035300Y-103794066D01*
X181975232Y-103596046D01*
X181877685Y-103413550D01*
X181817427Y-103340125D01*
X181746410Y-103253589D01*
X181586452Y-103122317D01*
X181586453Y-103122317D01*
X181586450Y-103122315D01*
X181403954Y-103024768D01*
X181205934Y-102964700D01*
X181205932Y-102964699D01*
X181205934Y-102964699D01*
X181000000Y-102944417D01*
X180794067Y-102964699D01*
X180596043Y-103024769D01*
X180503005Y-103074500D01*
X180413550Y-103122315D01*
X180413548Y-103122316D01*
X180413547Y-103122317D01*
X180253591Y-103253588D01*
X180253115Y-103254169D01*
X180252787Y-103254391D01*
X180249287Y-103257893D01*
X180248622Y-103257228D01*
X180195368Y-103293501D01*
X180157265Y-103299500D01*
X177206079Y-103299500D01*
X177139040Y-103279815D01*
X177106308Y-103249133D01*
X177072151Y-103202851D01*
X177072150Y-103202850D01*
X176962882Y-103122207D01*
X176962880Y-103122206D01*
X176834700Y-103077353D01*
X176804270Y-103074500D01*
X176804266Y-103074500D01*
X176195734Y-103074500D01*
X176195730Y-103074500D01*
X176165300Y-103077353D01*
X176165298Y-103077353D01*
X176037119Y-103122206D01*
X176037117Y-103122207D01*
X175927850Y-103202850D01*
X175847207Y-103312117D01*
X175824842Y-103376033D01*
X175784120Y-103432808D01*
X175719167Y-103458555D01*
X175650605Y-103445098D01*
X175600203Y-103396711D01*
X175590095Y-103374081D01*
X175534358Y-103205880D01*
X175534356Y-103205875D01*
X175442315Y-103056654D01*
X175318345Y-102932684D01*
X175169124Y-102840643D01*
X175169119Y-102840641D01*
X175002697Y-102785494D01*
X175002690Y-102785493D01*
X174899986Y-102775000D01*
X174850000Y-102775000D01*
X174350000Y-102775000D01*
X174349999Y-102774999D01*
X174300029Y-102775000D01*
X174300011Y-102775001D01*
X174197302Y-102785494D01*
X174030880Y-102840641D01*
X174030875Y-102840643D01*
X173881654Y-102932684D01*
X173757684Y-103056654D01*
X173665643Y-103205875D01*
X173665641Y-103205880D01*
X173610494Y-103372302D01*
X173610493Y-103372309D01*
X173600000Y-103475013D01*
X173600000Y-103750000D01*
X170300500Y-103750000D01*
X170300500Y-101093489D01*
X182070500Y-101093489D01*
X182109374Y-101276384D01*
X182109376Y-101276390D01*
X182156030Y-101381174D01*
X182182692Y-101441058D01*
X182185427Y-101447199D01*
X182185429Y-101447204D01*
X182295330Y-101598469D01*
X182434286Y-101723586D01*
X182596213Y-101817074D01*
X182596215Y-101817075D01*
X182774044Y-101874855D01*
X182913380Y-101889500D01*
X182913385Y-101889500D01*
X183006615Y-101889500D01*
X183006620Y-101889500D01*
X183145956Y-101874855D01*
X183323785Y-101817075D01*
X183485715Y-101723585D01*
X183624669Y-101598470D01*
X183734573Y-101447200D01*
X183810625Y-101276385D01*
X183849500Y-101093490D01*
X183849500Y-100906510D01*
X183810625Y-100723615D01*
X183810623Y-100723609D01*
X183756005Y-100600938D01*
X183734573Y-100552800D01*
X183734570Y-100552796D01*
X183734570Y-100552795D01*
X183624669Y-100401530D01*
X183485713Y-100276413D01*
X183323786Y-100182925D01*
X183145960Y-100125146D01*
X183145958Y-100125145D01*
X183106145Y-100120960D01*
X183006620Y-100110500D01*
X182913380Y-100110500D01*
X182826295Y-100119653D01*
X182774041Y-100125145D01*
X182774039Y-100125146D01*
X182596213Y-100182925D01*
X182434286Y-100276413D01*
X182295330Y-100401530D01*
X182185429Y-100552795D01*
X182185427Y-100552800D01*
X182109376Y-100723609D01*
X182109374Y-100723615D01*
X182070500Y-100906510D01*
X182070500Y-101093489D01*
X170300500Y-101093489D01*
X170300500Y-99087482D01*
X170320185Y-99020443D01*
X170349014Y-98989106D01*
X170359346Y-98981178D01*
X170428282Y-98928282D01*
X170524536Y-98802841D01*
X170585044Y-98656762D01*
X170601628Y-98530792D01*
X170605682Y-98500001D01*
X170605682Y-98499998D01*
X170586295Y-98352743D01*
X170585044Y-98343238D01*
X170524536Y-98197159D01*
X170428282Y-98071718D01*
X170302841Y-97975464D01*
X170156762Y-97914956D01*
X170156760Y-97914955D01*
X170000001Y-97894318D01*
X169999999Y-97894318D01*
X169843239Y-97914955D01*
X169843237Y-97914956D01*
X169697160Y-97975463D01*
X169571718Y-98071718D01*
X169475463Y-98197160D01*
X169414956Y-98343237D01*
X169414955Y-98343239D01*
X169394318Y-98499998D01*
X169394318Y-98500001D01*
X169414955Y-98656760D01*
X169414956Y-98656762D01*
X169464254Y-98775779D01*
X169475464Y-98802841D01*
X169550400Y-98900500D01*
X169571719Y-98928283D01*
X169650986Y-98989106D01*
X169692189Y-99045534D01*
X169699500Y-99087482D01*
X169699500Y-107225500D01*
X169679815Y-107292539D01*
X169627011Y-107338294D01*
X169575500Y-107349500D01*
X169470730Y-107349500D01*
X169440300Y-107352353D01*
X169440298Y-107352353D01*
X169312119Y-107397206D01*
X169312117Y-107397207D01*
X169202850Y-107477850D01*
X169122207Y-107587117D01*
X169122206Y-107587119D01*
X169077353Y-107715298D01*
X169077353Y-107715300D01*
X169074500Y-107745730D01*
X169074500Y-108354269D01*
X169077353Y-108384699D01*
X169077353Y-108384701D01*
X169122206Y-108512880D01*
X169122207Y-108512882D01*
X169202850Y-108622150D01*
X169312118Y-108702793D01*
X169376033Y-108725158D01*
X169432807Y-108765878D01*
X169458555Y-108830830D01*
X169445099Y-108899392D01*
X169396712Y-108949795D01*
X169374082Y-108959904D01*
X169205878Y-109015642D01*
X169205875Y-109015643D01*
X169056654Y-109107684D01*
X168932684Y-109231654D01*
X168840643Y-109380875D01*
X168840641Y-109380880D01*
X168785494Y-109547302D01*
X168785493Y-109547309D01*
X168775000Y-109650013D01*
X168775000Y-109700000D01*
X146300500Y-109700000D01*
X146300500Y-103800001D01*
X155994318Y-103800001D01*
X156014955Y-103956760D01*
X156014956Y-103956762D01*
X156063020Y-104072800D01*
X156075464Y-104102841D01*
X156171718Y-104228282D01*
X156297159Y-104324536D01*
X156443238Y-104385044D01*
X156493993Y-104391726D01*
X156599999Y-104405682D01*
X156600000Y-104405682D01*
X156699061Y-104392640D01*
X156768096Y-104403405D01*
X156802927Y-104427898D01*
X157092778Y-104717749D01*
X157098421Y-104724233D01*
X157105741Y-104733926D01*
X157105742Y-104733928D01*
X157124323Y-104750867D01*
X157141075Y-104766139D01*
X157143123Y-104768094D01*
X157156903Y-104781874D01*
X157159113Y-104783388D01*
X157165843Y-104788718D01*
X157171773Y-104794124D01*
X157188765Y-104809615D01*
X157188766Y-104809615D01*
X157188767Y-104809616D01*
X157195221Y-104812116D01*
X157220506Y-104825444D01*
X157224319Y-104828055D01*
X157226219Y-104829357D01*
X157256410Y-104836457D01*
X157264605Y-104838995D01*
X157293527Y-104850200D01*
X157300452Y-104850200D01*
X157328840Y-104853493D01*
X157335581Y-104855079D01*
X157366291Y-104850794D01*
X157374866Y-104850200D01*
X157875343Y-104850200D01*
X157942382Y-104869885D01*
X157944234Y-104871098D01*
X157973970Y-104890967D01*
X157973971Y-104890968D01*
X158032448Y-104902599D01*
X158032451Y-104902600D01*
X158523817Y-104902600D01*
X158590856Y-104922285D01*
X158636611Y-104975089D01*
X158645318Y-105007391D01*
X158645913Y-105007273D01*
X158658733Y-105071728D01*
X158658734Y-105071729D01*
X158678604Y-105101466D01*
X158699482Y-105168143D01*
X158699502Y-105170357D01*
X158699502Y-105255565D01*
X158679817Y-105322604D01*
X158663183Y-105343246D01*
X157441924Y-106564504D01*
X157380601Y-106597989D01*
X157313290Y-106593865D01*
X157266100Y-106577353D01*
X157235671Y-106574500D01*
X157235667Y-106574500D01*
X156627135Y-106574500D01*
X156627131Y-106574500D01*
X156596701Y-106577353D01*
X156596699Y-106577353D01*
X156468520Y-106622206D01*
X156468518Y-106622207D01*
X156359251Y-106702850D01*
X156278608Y-106812117D01*
X156278607Y-106812119D01*
X156233754Y-106940298D01*
X156233754Y-106940300D01*
X156230901Y-106970730D01*
X156230901Y-108029269D01*
X156233754Y-108059699D01*
X156233754Y-108059701D01*
X156275593Y-108179266D01*
X156278608Y-108187882D01*
X156359251Y-108297150D01*
X156468519Y-108377793D01*
X156511246Y-108392744D01*
X156596700Y-108422646D01*
X156627131Y-108425500D01*
X156627135Y-108425500D01*
X157235671Y-108425500D01*
X157266100Y-108422646D01*
X157266102Y-108422646D01*
X157330191Y-108400219D01*
X157394283Y-108377793D01*
X157503551Y-108297150D01*
X157584194Y-108187882D01*
X157606559Y-108123964D01*
X157647278Y-108067192D01*
X157712231Y-108041444D01*
X157780793Y-108054900D01*
X157831196Y-108103287D01*
X157841305Y-108125917D01*
X157897043Y-108294121D01*
X157897044Y-108294124D01*
X157989085Y-108443345D01*
X158113055Y-108567315D01*
X158262276Y-108659356D01*
X158262281Y-108659358D01*
X158428703Y-108714505D01*
X158428710Y-108714506D01*
X158531420Y-108724999D01*
X158581400Y-108724998D01*
X158581401Y-108724998D01*
X158581401Y-107750000D01*
X159081401Y-107750000D01*
X159081401Y-108724999D01*
X159131373Y-108724999D01*
X159131387Y-108724998D01*
X159234098Y-108714505D01*
X159400520Y-108659358D01*
X159400525Y-108659356D01*
X159549746Y-108567315D01*
X159673718Y-108443343D01*
X159735161Y-108343728D01*
X159787109Y-108297003D01*
X159856071Y-108285780D01*
X159920153Y-108313623D01*
X159946239Y-108343727D01*
X160007684Y-108443345D01*
X160131654Y-108567315D01*
X160280875Y-108659356D01*
X160280880Y-108659358D01*
X160447302Y-108714505D01*
X160447309Y-108714506D01*
X160550019Y-108724999D01*
X160599999Y-108724998D01*
X160600000Y-108724998D01*
X160600000Y-107750000D01*
X159081401Y-107750000D01*
X158581401Y-107750000D01*
X158581401Y-107250000D01*
X159081401Y-107250000D01*
X160600000Y-107250000D01*
X160600000Y-106275000D01*
X160599999Y-106274999D01*
X160550029Y-106275000D01*
X160550011Y-106275001D01*
X160447302Y-106285494D01*
X160280880Y-106340641D01*
X160280875Y-106340643D01*
X160131654Y-106432684D01*
X160007683Y-106556655D01*
X160007680Y-106556659D01*
X159946238Y-106656272D01*
X159894290Y-106702997D01*
X159825328Y-106714218D01*
X159761246Y-106686375D01*
X159735161Y-106656272D01*
X159673716Y-106556654D01*
X159549746Y-106432684D01*
X159400525Y-106340643D01*
X159400520Y-106340641D01*
X159234098Y-106285494D01*
X159234091Y-106285493D01*
X159131387Y-106275000D01*
X159081401Y-106275000D01*
X159081401Y-107250000D01*
X158581401Y-107250000D01*
X158581401Y-106326332D01*
X158601086Y-106259293D01*
X158617715Y-106238656D01*
X159168065Y-105688306D01*
X159174538Y-105682675D01*
X159184226Y-105675358D01*
X159184230Y-105675357D01*
X159216451Y-105640010D01*
X159218359Y-105638012D01*
X159232177Y-105624196D01*
X159233694Y-105621980D01*
X159239019Y-105615255D01*
X159259918Y-105592332D01*
X159262417Y-105585879D01*
X159275747Y-105560588D01*
X159279659Y-105554879D01*
X159279659Y-105554877D01*
X159284771Y-105547416D01*
X159333263Y-105507836D01*
X159347601Y-105493499D01*
X159347601Y-105052109D01*
X159349984Y-105027915D01*
X159352902Y-105013246D01*
X159352902Y-104440350D01*
X159349984Y-104425682D01*
X159347601Y-104401489D01*
X159347601Y-103960099D01*
X159652401Y-103960099D01*
X159652401Y-105493499D01*
X159700219Y-105493499D01*
X159700236Y-105493498D01*
X159736742Y-105489573D01*
X159763255Y-105489573D01*
X159799758Y-105493498D01*
X159799772Y-105493499D01*
X159847600Y-105493499D01*
X159847600Y-103960099D01*
X159799763Y-103960099D01*
X159763251Y-103964024D01*
X159736748Y-103964024D01*
X159700235Y-103960099D01*
X159652401Y-103960099D01*
X159347601Y-103960099D01*
X159299756Y-103960099D01*
X159240221Y-103966501D01*
X159238106Y-103967001D01*
X159236417Y-103966910D01*
X159232514Y-103967330D01*
X159232445Y-103966697D01*
X159168337Y-103963255D01*
X159111669Y-103922383D01*
X159086093Y-103857362D01*
X159085888Y-103852772D01*
X159085778Y-103852778D01*
X159085600Y-103849470D01*
X159081675Y-103812954D01*
X159081675Y-103786444D01*
X159085600Y-103749927D01*
X159085601Y-103749926D01*
X159085601Y-103702099D01*
X157552201Y-103702099D01*
X157552201Y-103749935D01*
X157556126Y-103786448D01*
X157556126Y-103812950D01*
X157552201Y-103849462D01*
X157552201Y-103897299D01*
X158347301Y-103897299D01*
X158414340Y-103916984D01*
X158460095Y-103969788D01*
X158471301Y-104021299D01*
X158471301Y-104072800D01*
X158451616Y-104139839D01*
X158398812Y-104185594D01*
X158347301Y-104196800D01*
X158032453Y-104196800D01*
X158017792Y-104199716D01*
X157993601Y-104202099D01*
X157531318Y-104202099D01*
X157515988Y-104210469D01*
X157446296Y-104205482D01*
X157401954Y-104176983D01*
X157227898Y-104002927D01*
X157194413Y-103941604D01*
X157192640Y-103899063D01*
X157205682Y-103800000D01*
X157205642Y-103799699D01*
X157185044Y-103643239D01*
X157185044Y-103643238D01*
X157124536Y-103497159D01*
X157028282Y-103371718D01*
X156902841Y-103275464D01*
X156858815Y-103257228D01*
X156756762Y-103214956D01*
X156756760Y-103214955D01*
X156600001Y-103194318D01*
X156599999Y-103194318D01*
X156443239Y-103214955D01*
X156443237Y-103214956D01*
X156297160Y-103275463D01*
X156171718Y-103371718D01*
X156075463Y-103497160D01*
X156014956Y-103643237D01*
X156014955Y-103643239D01*
X155994318Y-103799998D01*
X155994318Y-103800001D01*
X146300500Y-103800001D01*
X146300500Y-100329269D01*
X157430901Y-100329269D01*
X157433754Y-100359699D01*
X157433754Y-100359701D01*
X157477048Y-100483424D01*
X157478608Y-100487882D01*
X157559251Y-100597150D01*
X157668519Y-100677793D01*
X157709312Y-100692067D01*
X157796697Y-100722645D01*
X157796699Y-100722645D01*
X157796702Y-100722646D01*
X157805977Y-100723515D01*
X157870885Y-100749372D01*
X157911511Y-100806216D01*
X157918401Y-100846974D01*
X157918401Y-102699039D01*
X157898716Y-102766078D01*
X157897503Y-102767930D01*
X157863333Y-102819067D01*
X157863332Y-102819068D01*
X157850512Y-102883524D01*
X157847829Y-102882990D01*
X157826063Y-102936856D01*
X157803151Y-102959156D01*
X157695013Y-103040108D01*
X157695010Y-103040111D01*
X157608850Y-103155205D01*
X157608846Y-103155212D01*
X157558604Y-103289919D01*
X157558602Y-103289926D01*
X157552201Y-103349454D01*
X157552201Y-103397299D01*
X157993601Y-103397299D01*
X158017792Y-103399681D01*
X158032453Y-103402598D01*
X158307927Y-103402598D01*
X158310379Y-103402791D01*
X158318901Y-103402791D01*
X158327423Y-103402791D01*
X158329875Y-103402598D01*
X158605349Y-103402598D01*
X158620009Y-103399681D01*
X158644201Y-103397299D01*
X159085599Y-103397299D01*
X159109288Y-103373610D01*
X159170611Y-103340125D01*
X159172707Y-103339688D01*
X159225811Y-103329125D01*
X159274192Y-103329126D01*
X159327848Y-103339798D01*
X159327851Y-103339799D01*
X159327853Y-103339799D01*
X159672151Y-103339799D01*
X159672152Y-103339798D01*
X159685062Y-103337230D01*
X159725809Y-103329126D01*
X159774191Y-103329126D01*
X159827847Y-103339798D01*
X159827850Y-103339799D01*
X160089901Y-103339799D01*
X160156940Y-103359484D01*
X160202695Y-103412288D01*
X160213901Y-103463799D01*
X160213901Y-103721851D01*
X160224574Y-103775508D01*
X160224574Y-103823891D01*
X160216012Y-103866933D01*
X160183626Y-103928844D01*
X160182077Y-103930422D01*
X160152400Y-103960099D01*
X160152400Y-105493499D01*
X160200228Y-105493499D01*
X160200244Y-105493498D01*
X160259767Y-105487098D01*
X160262306Y-105486498D01*
X160264337Y-105486606D01*
X160267488Y-105486268D01*
X160267542Y-105486778D01*
X160332076Y-105490230D01*
X160388752Y-105531090D01*
X160396259Y-105541888D01*
X160412361Y-105567894D01*
X160416364Y-105575487D01*
X160428895Y-105603866D01*
X160428896Y-105603867D01*
X160428897Y-105603869D01*
X160433790Y-105608762D01*
X160451536Y-105631166D01*
X160455178Y-105637049D01*
X160455181Y-105637052D01*
X160455182Y-105637053D01*
X160457743Y-105638987D01*
X160479927Y-105655740D01*
X160486412Y-105661383D01*
X161063681Y-106238652D01*
X161097166Y-106299975D01*
X161100000Y-106326333D01*
X161100000Y-108724999D01*
X161149972Y-108724999D01*
X161149986Y-108724998D01*
X161252697Y-108714505D01*
X161419119Y-108659358D01*
X161419124Y-108659356D01*
X161568345Y-108567315D01*
X161692315Y-108443345D01*
X161784356Y-108294124D01*
X161784359Y-108294117D01*
X161840094Y-108125918D01*
X161879866Y-108068473D01*
X161944382Y-108041649D01*
X162013158Y-108053964D01*
X162064358Y-108101506D01*
X162074841Y-108123965D01*
X162094192Y-108179266D01*
X162097207Y-108187882D01*
X162177850Y-108297150D01*
X162287118Y-108377793D01*
X162329845Y-108392744D01*
X162415299Y-108422646D01*
X162445730Y-108425500D01*
X162445734Y-108425500D01*
X163054270Y-108425500D01*
X163084699Y-108422646D01*
X163084701Y-108422646D01*
X163148790Y-108400219D01*
X163212882Y-108377793D01*
X163322150Y-108297150D01*
X163402793Y-108187882D01*
X163444576Y-108068473D01*
X163447646Y-108059701D01*
X163447646Y-108059699D01*
X163450500Y-108029269D01*
X163450500Y-106970730D01*
X163447646Y-106940300D01*
X163447646Y-106940298D01*
X163402793Y-106812119D01*
X163402792Y-106812117D01*
X163322150Y-106702850D01*
X163212882Y-106622207D01*
X163212880Y-106622206D01*
X163084700Y-106577353D01*
X163054270Y-106574500D01*
X163054266Y-106574500D01*
X162445734Y-106574500D01*
X162445730Y-106574500D01*
X162415305Y-106577353D01*
X162415298Y-106577354D01*
X162368110Y-106593866D01*
X162298332Y-106597427D01*
X162239476Y-106564505D01*
X161017920Y-105342949D01*
X160984435Y-105281626D01*
X160981601Y-105255268D01*
X160981601Y-104986933D01*
X161001286Y-104919894D01*
X161036706Y-104883834D01*
X161092353Y-104846652D01*
X161136668Y-104780331D01*
X161136668Y-104780329D01*
X161136669Y-104780329D01*
X161145898Y-104733928D01*
X161148301Y-104721848D01*
X161148301Y-104458765D01*
X161167986Y-104391726D01*
X161220790Y-104345971D01*
X161222079Y-104345391D01*
X161224141Y-104344480D01*
X161251430Y-104336031D01*
X161258234Y-104334760D01*
X161284598Y-104318435D01*
X161292193Y-104314432D01*
X161320566Y-104301905D01*
X161325462Y-104297008D01*
X161347870Y-104279260D01*
X161353753Y-104275618D01*
X161372450Y-104250857D01*
X161378067Y-104244402D01*
X166841059Y-98781410D01*
X166847532Y-98775779D01*
X166857224Y-98768459D01*
X166857228Y-98768458D01*
X166889459Y-98733100D01*
X166891367Y-98731102D01*
X166905174Y-98717297D01*
X166906684Y-98715092D01*
X166912023Y-98708351D01*
X166922226Y-98697159D01*
X166932916Y-98685433D01*
X166935416Y-98678978D01*
X166948749Y-98653682D01*
X166952656Y-98647981D01*
X166959757Y-98617785D01*
X166962292Y-98609601D01*
X166973500Y-98580673D01*
X166973500Y-98573748D01*
X166976795Y-98545355D01*
X166978378Y-98538623D01*
X166978379Y-98538619D01*
X166974095Y-98507908D01*
X166973500Y-98499333D01*
X166973500Y-93826818D01*
X166993185Y-93759779D01*
X167045989Y-93714024D01*
X167115147Y-93704080D01*
X167135339Y-93709619D01*
X167135387Y-93709443D01*
X167143236Y-93711546D01*
X167143238Y-93711547D01*
X167221619Y-93721866D01*
X167299999Y-93732185D01*
X167300000Y-93732185D01*
X167409316Y-93717793D01*
X167478350Y-93728558D01*
X167530605Y-93774938D01*
X167549500Y-93840732D01*
X167549500Y-94094752D01*
X167563515Y-94165209D01*
X167562239Y-94165462D01*
X167568317Y-94222023D01*
X167561303Y-94245910D01*
X167549500Y-94305247D01*
X167549500Y-94894752D01*
X167561131Y-94953229D01*
X167561132Y-94953230D01*
X167605447Y-95019552D01*
X167671769Y-95063867D01*
X167671770Y-95063868D01*
X167730247Y-95075499D01*
X167730250Y-95075500D01*
X167730252Y-95075500D01*
X168144069Y-95075500D01*
X168211108Y-95095185D01*
X168219556Y-95101124D01*
X168221716Y-95102781D01*
X168221718Y-95102784D01*
X168347159Y-95199038D01*
X168493238Y-95259546D01*
X168571619Y-95269865D01*
X168649999Y-95280184D01*
X168650000Y-95280184D01*
X168650001Y-95280184D01*
X168702254Y-95273304D01*
X168806762Y-95259546D01*
X168952841Y-95199038D01*
X169078282Y-95102784D01*
X169078283Y-95102781D01*
X169080444Y-95101124D01*
X169145614Y-95075930D01*
X169155931Y-95075500D01*
X169569750Y-95075500D01*
X169569751Y-95075499D01*
X169584568Y-95072552D01*
X169628229Y-95063868D01*
X169628229Y-95063867D01*
X169628231Y-95063867D01*
X169694552Y-95019552D01*
X169738867Y-94953231D01*
X169738867Y-94953229D01*
X169738868Y-94953229D01*
X169750499Y-94894752D01*
X169750500Y-94894750D01*
X169750500Y-94524834D01*
X169770185Y-94457795D01*
X169822989Y-94412040D01*
X169892147Y-94402096D01*
X169955703Y-94431121D01*
X169962181Y-94437153D01*
X172193081Y-96668053D01*
X172198723Y-96674537D01*
X172206039Y-96684224D01*
X172206040Y-96684225D01*
X172206042Y-96684228D01*
X172231727Y-96707644D01*
X172241364Y-96716429D01*
X172243412Y-96718384D01*
X172257203Y-96732175D01*
X172258663Y-96733175D01*
X172259419Y-96733693D01*
X172266158Y-96739031D01*
X172289063Y-96759913D01*
X172289064Y-96759914D01*
X172289067Y-96759916D01*
X172289070Y-96759917D01*
X172295521Y-96762416D01*
X172320806Y-96775743D01*
X172326520Y-96779657D01*
X172356703Y-96786756D01*
X172364911Y-96789298D01*
X172393825Y-96800500D01*
X172393827Y-96800500D01*
X172400752Y-96800500D01*
X172429140Y-96803793D01*
X172435881Y-96805379D01*
X172466591Y-96801094D01*
X172475166Y-96800500D01*
X172725500Y-96800500D01*
X172792539Y-96820185D01*
X172838294Y-96872989D01*
X172849500Y-96924500D01*
X172849500Y-97029269D01*
X172852353Y-97059699D01*
X172852353Y-97059701D01*
X172897206Y-97187880D01*
X172897207Y-97187882D01*
X172977850Y-97297150D01*
X173087118Y-97377793D01*
X173129845Y-97392744D01*
X173215299Y-97422646D01*
X173245730Y-97425500D01*
X173245734Y-97425500D01*
X173854270Y-97425500D01*
X173884699Y-97422646D01*
X173884701Y-97422646D01*
X173948790Y-97400219D01*
X174012882Y-97377793D01*
X174122150Y-97297150D01*
X174202793Y-97187882D01*
X174225158Y-97123964D01*
X174265877Y-97067192D01*
X174330830Y-97041444D01*
X174399392Y-97054900D01*
X174449795Y-97103287D01*
X174459904Y-97125917D01*
X174515642Y-97294121D01*
X174515643Y-97294124D01*
X174607684Y-97443345D01*
X174731654Y-97567315D01*
X174880875Y-97659356D01*
X174880880Y-97659358D01*
X175047302Y-97714505D01*
X175047309Y-97714506D01*
X175150019Y-97724999D01*
X175199999Y-97724998D01*
X175200000Y-97724998D01*
X175200000Y-96750000D01*
X175700000Y-96750000D01*
X175700000Y-97724999D01*
X175749972Y-97724999D01*
X175749986Y-97724998D01*
X175852697Y-97714505D01*
X176019119Y-97659358D01*
X176019124Y-97659356D01*
X176168345Y-97567315D01*
X176292315Y-97443345D01*
X176384356Y-97294124D01*
X176384358Y-97294119D01*
X176439505Y-97127697D01*
X176439506Y-97127690D01*
X176443000Y-97093490D01*
X182070500Y-97093490D01*
X182077769Y-97127690D01*
X182109374Y-97276384D01*
X182109376Y-97276390D01*
X182185427Y-97447199D01*
X182185429Y-97447204D01*
X182280162Y-97577592D01*
X182295331Y-97598470D01*
X182362952Y-97659356D01*
X182434286Y-97723586D01*
X182583195Y-97809558D01*
X182596215Y-97817075D01*
X182774044Y-97874855D01*
X182913380Y-97889500D01*
X182913385Y-97889500D01*
X183006615Y-97889500D01*
X183006620Y-97889500D01*
X183145956Y-97874855D01*
X183323785Y-97817075D01*
X183485715Y-97723585D01*
X183624669Y-97598470D01*
X183734573Y-97447200D01*
X183810625Y-97276385D01*
X183849500Y-97093490D01*
X183849500Y-96906510D01*
X183810625Y-96723615D01*
X183810623Y-96723609D01*
X183780073Y-96654996D01*
X183734573Y-96552800D01*
X183734570Y-96552796D01*
X183734570Y-96552795D01*
X183624669Y-96401530D01*
X183485713Y-96276413D01*
X183323786Y-96182925D01*
X183145960Y-96125146D01*
X183145958Y-96125145D01*
X183106145Y-96120960D01*
X183006620Y-96110500D01*
X182913380Y-96110500D01*
X182826295Y-96119653D01*
X182774041Y-96125145D01*
X182774039Y-96125146D01*
X182596213Y-96182925D01*
X182434286Y-96276413D01*
X182295330Y-96401530D01*
X182185429Y-96552795D01*
X182185427Y-96552800D01*
X182109376Y-96723609D01*
X182109374Y-96723615D01*
X182085763Y-96834701D01*
X182070500Y-96906510D01*
X182070500Y-97093490D01*
X176443000Y-97093490D01*
X176449999Y-97024986D01*
X176450000Y-97024973D01*
X176450000Y-96750000D01*
X175700000Y-96750000D01*
X175200000Y-96750000D01*
X175200000Y-95275000D01*
X175700000Y-95275000D01*
X175700000Y-96250000D01*
X176449999Y-96250000D01*
X176449999Y-95975028D01*
X176449998Y-95975013D01*
X176439505Y-95872302D01*
X176384358Y-95705880D01*
X176384356Y-95705875D01*
X176292315Y-95556654D01*
X176168345Y-95432684D01*
X176019124Y-95340643D01*
X176019119Y-95340641D01*
X175852697Y-95285494D01*
X175852690Y-95285493D01*
X175749986Y-95275000D01*
X175700000Y-95275000D01*
X175200000Y-95275000D01*
X175199999Y-95274999D01*
X175150029Y-95275000D01*
X175150011Y-95275001D01*
X175047302Y-95285494D01*
X174880880Y-95340641D01*
X174880875Y-95340643D01*
X174731654Y-95432684D01*
X174607683Y-95556655D01*
X174607680Y-95556659D01*
X174530038Y-95682537D01*
X174478091Y-95729262D01*
X174409128Y-95740483D01*
X174345046Y-95712640D01*
X174306190Y-95654571D01*
X174300500Y-95617440D01*
X174300500Y-94624500D01*
X174320185Y-94557461D01*
X174372989Y-94511706D01*
X174424500Y-94500500D01*
X174504270Y-94500500D01*
X174534699Y-94497646D01*
X174534701Y-94497646D01*
X174598790Y-94475219D01*
X174662882Y-94452793D01*
X174772150Y-94372150D01*
X174852793Y-94262882D01*
X174886970Y-94165209D01*
X174897646Y-94134701D01*
X174897646Y-94134699D01*
X174898155Y-94129269D01*
X176199500Y-94129269D01*
X176202353Y-94159699D01*
X176202353Y-94159701D01*
X176247206Y-94287880D01*
X176247207Y-94287882D01*
X176327850Y-94397150D01*
X176437118Y-94477793D01*
X176479845Y-94492744D01*
X176565299Y-94522646D01*
X176595730Y-94525500D01*
X176595734Y-94525500D01*
X177404270Y-94525500D01*
X177434699Y-94522646D01*
X177434701Y-94522646D01*
X177506145Y-94497646D01*
X177562882Y-94477793D01*
X177672150Y-94397150D01*
X177706308Y-94350866D01*
X177761956Y-94308616D01*
X177806079Y-94300500D01*
X179901421Y-94300500D01*
X179968460Y-94320185D01*
X180014215Y-94372989D01*
X180020081Y-94388503D01*
X180024768Y-94403954D01*
X180122315Y-94586450D01*
X180122317Y-94586452D01*
X180253589Y-94746410D01*
X180350209Y-94825702D01*
X180413550Y-94877685D01*
X180596046Y-94975232D01*
X180794066Y-95035300D01*
X180794065Y-95035300D01*
X180812529Y-95037118D01*
X181000000Y-95055583D01*
X181205934Y-95035300D01*
X181403954Y-94975232D01*
X181586450Y-94877685D01*
X181746410Y-94746410D01*
X181877685Y-94586450D01*
X181975232Y-94403954D01*
X182035300Y-94205934D01*
X182055583Y-94000000D01*
X182035300Y-93794066D01*
X181975232Y-93596046D01*
X181877685Y-93413550D01*
X181797869Y-93316293D01*
X181746410Y-93253589D01*
X181604489Y-93137119D01*
X181586450Y-93122315D01*
X181403954Y-93024768D01*
X181205934Y-92964700D01*
X181205932Y-92964699D01*
X181205934Y-92964699D01*
X181000000Y-92944417D01*
X180794067Y-92964699D01*
X180596043Y-93024769D01*
X180538210Y-93055682D01*
X180413550Y-93122315D01*
X180413548Y-93122316D01*
X180413547Y-93122317D01*
X180253589Y-93253589D01*
X180122317Y-93413547D01*
X180122315Y-93413550D01*
X180108018Y-93440298D01*
X180024769Y-93596043D01*
X180024768Y-93596046D01*
X180020081Y-93611497D01*
X179981783Y-93669935D01*
X179917970Y-93698391D01*
X179901421Y-93699500D01*
X177924500Y-93699500D01*
X177857461Y-93679815D01*
X177811706Y-93627011D01*
X177800500Y-93575500D01*
X177800500Y-93470730D01*
X177797646Y-93440300D01*
X177797646Y-93440298D01*
X177752793Y-93312119D01*
X177752792Y-93312117D01*
X177732666Y-93284847D01*
X177672150Y-93202850D01*
X177562882Y-93122207D01*
X177562880Y-93122206D01*
X177434700Y-93077353D01*
X177404270Y-93074500D01*
X177404266Y-93074500D01*
X176595734Y-93074500D01*
X176595730Y-93074500D01*
X176565300Y-93077353D01*
X176565298Y-93077353D01*
X176437119Y-93122206D01*
X176437117Y-93122207D01*
X176327850Y-93202850D01*
X176247207Y-93312117D01*
X176247206Y-93312119D01*
X176202353Y-93440298D01*
X176202353Y-93440300D01*
X176199500Y-93470730D01*
X176199500Y-94129269D01*
X174898155Y-94129269D01*
X174900500Y-94104269D01*
X174900500Y-93295730D01*
X174897646Y-93265300D01*
X174897646Y-93265298D01*
X174859976Y-93157646D01*
X174852793Y-93137118D01*
X174772150Y-93027850D01*
X174662882Y-92947207D01*
X174662880Y-92947206D01*
X174534700Y-92902353D01*
X174504270Y-92899500D01*
X174504266Y-92899500D01*
X173675833Y-92899500D01*
X173608794Y-92879815D01*
X173588152Y-92863181D01*
X173437152Y-92712181D01*
X173403667Y-92650858D01*
X173408651Y-92581166D01*
X173450523Y-92525233D01*
X173515987Y-92500816D01*
X173524833Y-92500500D01*
X174504270Y-92500500D01*
X174534699Y-92497646D01*
X174534701Y-92497646D01*
X174598790Y-92475219D01*
X174662882Y-92452793D01*
X174772150Y-92372150D01*
X174852793Y-92262882D01*
X174884034Y-92173600D01*
X174897646Y-92134701D01*
X174897646Y-92134699D01*
X174899689Y-92112921D01*
X174925547Y-92048013D01*
X174982393Y-92007388D01*
X175023147Y-92000500D01*
X176193921Y-92000500D01*
X176260960Y-92020185D01*
X176293692Y-92050867D01*
X176327848Y-92097148D01*
X176327850Y-92097150D01*
X176437118Y-92177793D01*
X176479845Y-92192744D01*
X176565299Y-92222646D01*
X176595730Y-92225500D01*
X176595734Y-92225500D01*
X177404270Y-92225500D01*
X177434699Y-92222646D01*
X177434701Y-92222646D01*
X177499418Y-92200000D01*
X177562882Y-92177793D01*
X177672150Y-92097150D01*
X177752793Y-91987882D01*
X177777563Y-91917093D01*
X177797646Y-91859701D01*
X177797646Y-91859699D01*
X177800500Y-91829269D01*
X177800500Y-91170730D01*
X177797646Y-91140300D01*
X177797646Y-91140298D01*
X177758449Y-91028282D01*
X177752793Y-91012118D01*
X177743850Y-91000001D01*
X179644843Y-91000001D01*
X179665430Y-91235315D01*
X179665432Y-91235326D01*
X179726566Y-91463483D01*
X179726570Y-91463492D01*
X179826400Y-91677579D01*
X179826402Y-91677583D01*
X179885072Y-91761373D01*
X179885073Y-91761373D01*
X180508866Y-91137580D01*
X180531318Y-91214040D01*
X180610605Y-91337413D01*
X180721438Y-91433451D01*
X180854839Y-91494373D01*
X180858633Y-91494918D01*
X180238625Y-92114925D01*
X180322421Y-92173599D01*
X180536507Y-92273429D01*
X180536516Y-92273433D01*
X180764673Y-92334567D01*
X180764684Y-92334569D01*
X180999998Y-92355157D01*
X181000002Y-92355157D01*
X181235315Y-92334569D01*
X181235326Y-92334567D01*
X181463483Y-92273433D01*
X181463492Y-92273429D01*
X181677578Y-92173600D01*
X181677582Y-92173598D01*
X181761373Y-92114926D01*
X181761373Y-92114925D01*
X181141365Y-91494918D01*
X181145161Y-91494373D01*
X181278562Y-91433451D01*
X181389395Y-91337413D01*
X181468682Y-91214040D01*
X181491133Y-91137580D01*
X182114925Y-91761373D01*
X182114926Y-91761373D01*
X182173598Y-91677582D01*
X182173600Y-91677578D01*
X182273429Y-91463492D01*
X182273433Y-91463483D01*
X182334567Y-91235326D01*
X182334569Y-91235315D01*
X182355157Y-91000001D01*
X182355157Y-90999998D01*
X182334569Y-90764684D01*
X182334567Y-90764673D01*
X182273433Y-90536516D01*
X182273429Y-90536507D01*
X182173600Y-90322423D01*
X182173599Y-90322421D01*
X182114925Y-90238626D01*
X182114925Y-90238625D01*
X181491132Y-90862418D01*
X181468682Y-90785960D01*
X181389395Y-90662587D01*
X181278562Y-90566549D01*
X181145161Y-90505627D01*
X181141366Y-90505081D01*
X181761373Y-89885073D01*
X181761373Y-89885072D01*
X181677583Y-89826402D01*
X181677579Y-89826400D01*
X181463492Y-89726570D01*
X181463483Y-89726566D01*
X181235326Y-89665432D01*
X181235315Y-89665430D01*
X181000002Y-89644843D01*
X180999998Y-89644843D01*
X180764684Y-89665430D01*
X180764673Y-89665432D01*
X180536516Y-89726566D01*
X180536507Y-89726570D01*
X180322419Y-89826401D01*
X180238625Y-89885072D01*
X180858634Y-90505081D01*
X180854839Y-90505627D01*
X180721438Y-90566549D01*
X180610605Y-90662587D01*
X180531318Y-90785960D01*
X180508867Y-90862419D01*
X179885073Y-90238625D01*
X179885072Y-90238625D01*
X179826401Y-90322419D01*
X179726570Y-90536507D01*
X179726566Y-90536516D01*
X179665432Y-90764673D01*
X179665430Y-90764684D01*
X179644843Y-90999998D01*
X179644843Y-91000001D01*
X177743850Y-91000001D01*
X177672150Y-90902850D01*
X177562882Y-90822207D01*
X177562880Y-90822206D01*
X177434700Y-90777353D01*
X177404270Y-90774500D01*
X177404266Y-90774500D01*
X176595734Y-90774500D01*
X176595730Y-90774500D01*
X176565300Y-90777353D01*
X176565298Y-90777353D01*
X176437119Y-90822206D01*
X176437117Y-90822207D01*
X176327850Y-90902850D01*
X176247207Y-91012117D01*
X176247206Y-91012119D01*
X176202353Y-91140298D01*
X176202353Y-91140300D01*
X176199500Y-91170730D01*
X176199500Y-91275500D01*
X176179815Y-91342539D01*
X176127011Y-91388294D01*
X176075500Y-91399500D01*
X175060863Y-91399500D01*
X174993824Y-91379815D01*
X174952534Y-91335839D01*
X174944536Y-91321481D01*
X174935190Y-91304701D01*
X174928164Y-91298866D01*
X174890342Y-91244428D01*
X174852793Y-91137118D01*
X174772150Y-91027850D01*
X174662882Y-90947207D01*
X174662880Y-90947206D01*
X174534700Y-90902353D01*
X174504270Y-90899500D01*
X174504266Y-90899500D01*
X173497500Y-90899500D01*
X173430461Y-90879815D01*
X173384706Y-90827011D01*
X173373500Y-90775500D01*
X173373500Y-88680920D01*
X173393185Y-88613881D01*
X173445989Y-88568126D01*
X173515147Y-88558182D01*
X173578703Y-88587207D01*
X173615206Y-88641916D01*
X173665641Y-88794119D01*
X173665643Y-88794124D01*
X173757684Y-88943345D01*
X173881654Y-89067315D01*
X174030875Y-89159356D01*
X174030880Y-89159358D01*
X174197302Y-89214505D01*
X174197309Y-89214506D01*
X174300019Y-89224999D01*
X174349999Y-89224998D01*
X174350000Y-89224998D01*
X174350000Y-88250000D01*
X173600001Y-88250000D01*
X173585181Y-88264820D01*
X173523858Y-88298305D01*
X173454166Y-88293321D01*
X173398233Y-88251449D01*
X173373816Y-88185985D01*
X173373500Y-88177139D01*
X173373500Y-88135838D01*
X173374095Y-88127262D01*
X173375771Y-88115239D01*
X173375773Y-88115235D01*
X173373566Y-88067490D01*
X173373500Y-88064627D01*
X173373500Y-88045159D01*
X173373499Y-88045153D01*
X173373009Y-88042533D01*
X173372016Y-88033980D01*
X173370585Y-88003008D01*
X173367788Y-87996675D01*
X173359332Y-87969368D01*
X173358061Y-87962567D01*
X173341736Y-87936202D01*
X173337735Y-87928612D01*
X173325206Y-87900235D01*
X173320309Y-87895338D01*
X173302563Y-87872934D01*
X173298918Y-87867047D01*
X173274172Y-87848360D01*
X173267694Y-87842723D01*
X173174971Y-87750000D01*
X173600000Y-87750000D01*
X174350000Y-87750000D01*
X174350000Y-86775000D01*
X174850000Y-86775000D01*
X174850000Y-89224999D01*
X174899972Y-89224999D01*
X174899986Y-89224998D01*
X175002697Y-89214505D01*
X175169119Y-89159358D01*
X175169124Y-89159356D01*
X175318345Y-89067315D01*
X175442315Y-88943345D01*
X175534356Y-88794124D01*
X175534359Y-88794117D01*
X175590094Y-88625918D01*
X175629866Y-88568473D01*
X175694382Y-88541649D01*
X175763158Y-88553964D01*
X175814358Y-88601506D01*
X175824841Y-88623965D01*
X175832520Y-88645910D01*
X175847207Y-88687882D01*
X175927850Y-88797150D01*
X176037118Y-88877793D01*
X176079845Y-88892744D01*
X176165299Y-88922646D01*
X176195730Y-88925500D01*
X176195734Y-88925500D01*
X176804270Y-88925500D01*
X176834699Y-88922646D01*
X176834701Y-88922646D01*
X176906745Y-88897436D01*
X176962882Y-88877793D01*
X177072150Y-88797150D01*
X177106308Y-88750866D01*
X177161956Y-88708616D01*
X177206079Y-88700500D01*
X180157265Y-88700500D01*
X180224304Y-88720185D01*
X180249119Y-88742274D01*
X180249287Y-88742107D01*
X180252165Y-88744985D01*
X180253114Y-88745830D01*
X180253590Y-88746410D01*
X180413550Y-88877685D01*
X180596046Y-88975232D01*
X180794066Y-89035300D01*
X180794065Y-89035300D01*
X180812529Y-89037118D01*
X181000000Y-89055583D01*
X181205934Y-89035300D01*
X181403954Y-88975232D01*
X181586450Y-88877685D01*
X181746410Y-88746410D01*
X181877685Y-88586450D01*
X181975232Y-88403954D01*
X182035300Y-88205934D01*
X182055583Y-88000000D01*
X182035300Y-87794066D01*
X181975232Y-87596046D01*
X181877685Y-87413550D01*
X181825702Y-87350209D01*
X181746410Y-87253589D01*
X181586452Y-87122317D01*
X181586453Y-87122317D01*
X181586450Y-87122315D01*
X181403954Y-87024768D01*
X181205934Y-86964700D01*
X181205932Y-86964699D01*
X181205934Y-86964699D01*
X181000000Y-86944417D01*
X180794067Y-86964699D01*
X180596043Y-87024769D01*
X180503005Y-87074500D01*
X180413550Y-87122315D01*
X180413548Y-87122316D01*
X180413547Y-87122317D01*
X180253591Y-87253588D01*
X180253115Y-87254169D01*
X180252787Y-87254391D01*
X180249287Y-87257893D01*
X180248622Y-87257228D01*
X180195368Y-87293501D01*
X180157265Y-87299500D01*
X177206079Y-87299500D01*
X177139040Y-87279815D01*
X177106308Y-87249133D01*
X177072151Y-87202851D01*
X177072150Y-87202850D01*
X176962882Y-87122207D01*
X176962880Y-87122206D01*
X176834700Y-87077353D01*
X176804270Y-87074500D01*
X176804266Y-87074500D01*
X176195734Y-87074500D01*
X176195730Y-87074500D01*
X176165300Y-87077353D01*
X176165298Y-87077353D01*
X176037119Y-87122206D01*
X176037117Y-87122207D01*
X175927850Y-87202850D01*
X175847207Y-87312117D01*
X175824842Y-87376033D01*
X175784120Y-87432808D01*
X175719167Y-87458555D01*
X175650605Y-87445098D01*
X175600203Y-87396711D01*
X175590095Y-87374081D01*
X175534358Y-87205880D01*
X175534356Y-87205875D01*
X175442315Y-87056654D01*
X175318345Y-86932684D01*
X175169124Y-86840643D01*
X175169119Y-86840641D01*
X175002697Y-86785494D01*
X175002690Y-86785493D01*
X174899986Y-86775000D01*
X174850000Y-86775000D01*
X174350000Y-86775000D01*
X174349999Y-86774999D01*
X174300029Y-86775000D01*
X174300011Y-86775001D01*
X174197302Y-86785494D01*
X174030880Y-86840641D01*
X174030875Y-86840643D01*
X173881654Y-86932684D01*
X173757684Y-87056654D01*
X173665643Y-87205875D01*
X173665641Y-87205880D01*
X173610494Y-87372302D01*
X173610493Y-87372309D01*
X173600000Y-87475013D01*
X173600000Y-87750000D01*
X173174971Y-87750000D01*
X172627898Y-87202927D01*
X172594413Y-87141604D01*
X172592640Y-87099063D01*
X172605682Y-87000000D01*
X172604991Y-86994754D01*
X172585044Y-86843239D01*
X172585044Y-86843238D01*
X172524536Y-86697159D01*
X172428282Y-86571718D01*
X172302841Y-86475464D01*
X172279126Y-86465641D01*
X172156762Y-86414956D01*
X172156760Y-86414955D01*
X172000001Y-86394318D01*
X171999999Y-86394318D01*
X171843239Y-86414955D01*
X171843237Y-86414956D01*
X171697157Y-86475464D01*
X171599986Y-86550027D01*
X171534817Y-86575221D01*
X171466372Y-86561183D01*
X171416383Y-86512369D01*
X171400500Y-86451651D01*
X171400500Y-85093490D01*
X182070500Y-85093490D01*
X182076824Y-85123242D01*
X182109374Y-85276384D01*
X182109376Y-85276390D01*
X182185427Y-85447199D01*
X182185429Y-85447204D01*
X182295330Y-85598469D01*
X182434286Y-85723586D01*
X182574029Y-85804266D01*
X182596215Y-85817075D01*
X182774044Y-85874855D01*
X182913380Y-85889500D01*
X182913385Y-85889500D01*
X183006615Y-85889500D01*
X183006620Y-85889500D01*
X183145956Y-85874855D01*
X183323785Y-85817075D01*
X183485715Y-85723585D01*
X183624669Y-85598470D01*
X183734573Y-85447200D01*
X183808530Y-85281090D01*
X183810623Y-85276390D01*
X183810625Y-85276384D01*
X183813284Y-85263877D01*
X183849500Y-85093490D01*
X183849500Y-84906510D01*
X183810625Y-84723615D01*
X183810623Y-84723609D01*
X183780073Y-84654996D01*
X183734573Y-84552800D01*
X183734570Y-84552796D01*
X183734570Y-84552795D01*
X183624669Y-84401530D01*
X183485713Y-84276413D01*
X183323786Y-84182925D01*
X183145960Y-84125146D01*
X183145958Y-84125145D01*
X183106145Y-84120960D01*
X183006620Y-84110500D01*
X182913380Y-84110500D01*
X182826295Y-84119653D01*
X182774041Y-84125145D01*
X182774039Y-84125146D01*
X182596213Y-84182925D01*
X182434286Y-84276413D01*
X182295330Y-84401530D01*
X182185429Y-84552795D01*
X182185427Y-84552800D01*
X182109376Y-84723609D01*
X182109374Y-84723615D01*
X182083105Y-84847206D01*
X182070500Y-84906510D01*
X182070500Y-85093490D01*
X171400500Y-85093490D01*
X171400500Y-83175833D01*
X171420185Y-83108794D01*
X171436819Y-83088152D01*
X173063152Y-81461819D01*
X173124475Y-81428334D01*
X173150833Y-81425500D01*
X173354270Y-81425500D01*
X173384699Y-81422646D01*
X173384701Y-81422646D01*
X173448790Y-81400219D01*
X173512882Y-81377793D01*
X173622150Y-81297150D01*
X173702793Y-81187882D01*
X173725158Y-81123964D01*
X173765877Y-81067192D01*
X173830830Y-81041444D01*
X173899392Y-81054900D01*
X173949795Y-81103287D01*
X173959904Y-81125917D01*
X174015642Y-81294121D01*
X174015643Y-81294124D01*
X174107684Y-81443345D01*
X174231654Y-81567315D01*
X174380875Y-81659356D01*
X174380880Y-81659358D01*
X174547302Y-81714505D01*
X174547309Y-81714506D01*
X174650019Y-81724999D01*
X174699999Y-81724998D01*
X174700000Y-81724998D01*
X174700000Y-80750000D01*
X175200000Y-80750000D01*
X175200000Y-81724999D01*
X175249972Y-81724999D01*
X175249986Y-81724998D01*
X175352697Y-81714505D01*
X175519119Y-81659358D01*
X175519124Y-81659356D01*
X175668345Y-81567315D01*
X175792315Y-81443345D01*
X175884356Y-81294124D01*
X175884358Y-81294119D01*
X175939505Y-81127697D01*
X175939506Y-81127690D01*
X175943000Y-81093490D01*
X182070500Y-81093490D01*
X182077769Y-81127690D01*
X182109374Y-81276384D01*
X182109376Y-81276390D01*
X182154524Y-81377792D01*
X182177027Y-81428334D01*
X182185427Y-81447199D01*
X182185429Y-81447204D01*
X182295330Y-81598469D01*
X182434286Y-81723586D01*
X182596213Y-81817074D01*
X182596215Y-81817075D01*
X182774044Y-81874855D01*
X182913380Y-81889500D01*
X182913385Y-81889500D01*
X183006615Y-81889500D01*
X183006620Y-81889500D01*
X183145956Y-81874855D01*
X183323785Y-81817075D01*
X183485715Y-81723585D01*
X183624669Y-81598470D01*
X183734573Y-81447200D01*
X183810625Y-81276385D01*
X183849500Y-81093490D01*
X183849500Y-80906510D01*
X183810625Y-80723615D01*
X183810623Y-80723609D01*
X183780073Y-80654996D01*
X183734573Y-80552800D01*
X183734570Y-80552796D01*
X183734570Y-80552795D01*
X183624669Y-80401530D01*
X183485713Y-80276413D01*
X183323786Y-80182925D01*
X183145960Y-80125146D01*
X183145958Y-80125145D01*
X183106145Y-80120960D01*
X183006620Y-80110500D01*
X182913380Y-80110500D01*
X182826295Y-80119653D01*
X182774041Y-80125145D01*
X182774039Y-80125146D01*
X182596213Y-80182925D01*
X182434286Y-80276413D01*
X182295330Y-80401530D01*
X182185429Y-80552795D01*
X182185427Y-80552800D01*
X182109376Y-80723609D01*
X182109374Y-80723615D01*
X182070500Y-80906510D01*
X182070500Y-81093490D01*
X175943000Y-81093490D01*
X175949999Y-81024986D01*
X175950000Y-81024973D01*
X175950000Y-80750000D01*
X175200000Y-80750000D01*
X174700000Y-80750000D01*
X174700000Y-79275000D01*
X175200000Y-79275000D01*
X175200000Y-80250000D01*
X175949999Y-80250000D01*
X175949999Y-79975028D01*
X175949998Y-79975013D01*
X175939505Y-79872302D01*
X175884358Y-79705880D01*
X175884356Y-79705875D01*
X175792315Y-79556654D01*
X175668345Y-79432684D01*
X175519124Y-79340643D01*
X175519119Y-79340641D01*
X175352697Y-79285494D01*
X175352690Y-79285493D01*
X175249986Y-79275000D01*
X175200000Y-79275000D01*
X174700000Y-79275000D01*
X174699999Y-79274999D01*
X174650029Y-79275000D01*
X174650011Y-79275001D01*
X174547302Y-79285494D01*
X174380880Y-79340641D01*
X174380875Y-79340643D01*
X174231654Y-79432684D01*
X174107684Y-79556654D01*
X174015643Y-79705875D01*
X174015641Y-79705880D01*
X173959905Y-79874082D01*
X173920132Y-79931527D01*
X173855617Y-79958350D01*
X173786841Y-79946035D01*
X173735641Y-79898492D01*
X173725158Y-79876033D01*
X173702793Y-79812119D01*
X173702792Y-79812117D01*
X173622150Y-79702850D01*
X173512882Y-79622207D01*
X173383544Y-79576949D01*
X173326769Y-79536227D01*
X173301022Y-79471274D01*
X173300500Y-79459908D01*
X173300500Y-78624500D01*
X173320185Y-78557461D01*
X173372989Y-78511706D01*
X173424500Y-78500500D01*
X173504270Y-78500500D01*
X173534699Y-78497646D01*
X173534701Y-78497646D01*
X173598790Y-78475219D01*
X173662882Y-78452793D01*
X173772150Y-78372150D01*
X173803797Y-78329269D01*
X175199500Y-78329269D01*
X175202353Y-78359699D01*
X175202353Y-78359701D01*
X175247206Y-78487880D01*
X175247207Y-78487882D01*
X175327850Y-78597150D01*
X175437118Y-78677793D01*
X175479845Y-78692744D01*
X175565299Y-78722646D01*
X175595730Y-78725500D01*
X175595734Y-78725500D01*
X176404270Y-78725500D01*
X176434699Y-78722646D01*
X176434701Y-78722646D01*
X176498790Y-78700219D01*
X176562882Y-78677793D01*
X176672150Y-78597150D01*
X176752793Y-78487882D01*
X176782161Y-78403953D01*
X176789303Y-78383544D01*
X176830025Y-78326769D01*
X176894978Y-78301022D01*
X176906344Y-78300500D01*
X179901421Y-78300500D01*
X179968460Y-78320185D01*
X180014215Y-78372989D01*
X180020081Y-78388503D01*
X180024768Y-78403954D01*
X180122315Y-78586450D01*
X180131096Y-78597150D01*
X180253589Y-78746410D01*
X180350209Y-78825702D01*
X180413550Y-78877685D01*
X180596046Y-78975232D01*
X180794066Y-79035300D01*
X180794065Y-79035300D01*
X180812529Y-79037118D01*
X181000000Y-79055583D01*
X181205934Y-79035300D01*
X181403954Y-78975232D01*
X181586450Y-78877685D01*
X181746410Y-78746410D01*
X181877685Y-78586450D01*
X181975232Y-78403954D01*
X182035300Y-78205934D01*
X182055583Y-78000000D01*
X182035300Y-77794066D01*
X181975232Y-77596046D01*
X181877685Y-77413550D01*
X181802722Y-77322207D01*
X181746410Y-77253589D01*
X181604489Y-77137119D01*
X181586450Y-77122315D01*
X181403954Y-77024768D01*
X181205934Y-76964700D01*
X181205932Y-76964699D01*
X181205934Y-76964699D01*
X181000000Y-76944417D01*
X180794067Y-76964699D01*
X180596043Y-77024769D01*
X180485898Y-77083643D01*
X180413550Y-77122315D01*
X180413548Y-77122316D01*
X180413547Y-77122317D01*
X180253589Y-77253589D01*
X180122317Y-77413547D01*
X180024769Y-77596043D01*
X180024768Y-77596046D01*
X180020081Y-77611497D01*
X179981783Y-77669935D01*
X179917970Y-77698391D01*
X179901421Y-77699500D01*
X176906344Y-77699500D01*
X176839305Y-77679815D01*
X176793550Y-77627011D01*
X176789303Y-77616456D01*
X176752793Y-77512119D01*
X176752793Y-77512118D01*
X176672150Y-77402850D01*
X176562882Y-77322207D01*
X176562880Y-77322206D01*
X176434700Y-77277353D01*
X176404270Y-77274500D01*
X176404266Y-77274500D01*
X175595734Y-77274500D01*
X175595730Y-77274500D01*
X175565300Y-77277353D01*
X175565298Y-77277353D01*
X175437119Y-77322206D01*
X175437117Y-77322207D01*
X175327850Y-77402850D01*
X175247207Y-77512117D01*
X175247206Y-77512119D01*
X175202353Y-77640298D01*
X175202353Y-77640300D01*
X175199500Y-77670730D01*
X175199500Y-78329269D01*
X173803797Y-78329269D01*
X173852793Y-78262882D01*
X173875219Y-78198790D01*
X173897646Y-78134701D01*
X173897646Y-78134699D01*
X173900500Y-78104269D01*
X173900500Y-77295730D01*
X173897646Y-77265300D01*
X173897646Y-77265298D01*
X173852793Y-77137119D01*
X173852792Y-77137117D01*
X173841868Y-77122315D01*
X173772150Y-77027850D01*
X173662882Y-76947207D01*
X173662880Y-76947206D01*
X173534700Y-76902353D01*
X173504270Y-76899500D01*
X173504266Y-76899500D01*
X172675833Y-76899500D01*
X172608794Y-76879815D01*
X172588152Y-76863181D01*
X172437152Y-76712181D01*
X172403667Y-76650858D01*
X172408651Y-76581166D01*
X172450523Y-76525233D01*
X172515987Y-76500816D01*
X172524833Y-76500500D01*
X173504270Y-76500500D01*
X173534699Y-76497646D01*
X173534701Y-76497646D01*
X173598790Y-76475219D01*
X173662882Y-76452793D01*
X173772150Y-76372150D01*
X173852793Y-76262882D01*
X173884034Y-76173600D01*
X173897646Y-76134701D01*
X173897646Y-76134699D01*
X173899689Y-76112921D01*
X173925547Y-76048013D01*
X173982393Y-76007388D01*
X174023147Y-76000500D01*
X175093656Y-76000500D01*
X175160695Y-76020185D01*
X175206450Y-76072989D01*
X175210697Y-76083544D01*
X175247206Y-76187880D01*
X175247207Y-76187882D01*
X175327850Y-76297150D01*
X175437118Y-76377793D01*
X175479845Y-76392744D01*
X175565299Y-76422646D01*
X175595730Y-76425500D01*
X175595734Y-76425500D01*
X176404270Y-76425500D01*
X176434699Y-76422646D01*
X176434701Y-76422646D01*
X176498790Y-76400219D01*
X176562882Y-76377793D01*
X176672150Y-76297150D01*
X176752793Y-76187882D01*
X176779023Y-76112921D01*
X176797646Y-76059701D01*
X176797646Y-76059699D01*
X176800500Y-76029269D01*
X176800500Y-75370730D01*
X176797646Y-75340300D01*
X176797646Y-75340298D01*
X176760910Y-75235315D01*
X176752793Y-75212118D01*
X176672150Y-75102850D01*
X176562882Y-75022207D01*
X176562880Y-75022206D01*
X176499423Y-75000001D01*
X179644843Y-75000001D01*
X179665430Y-75235315D01*
X179665432Y-75235326D01*
X179726566Y-75463483D01*
X179726570Y-75463492D01*
X179826400Y-75677579D01*
X179826402Y-75677583D01*
X179885072Y-75761373D01*
X179885073Y-75761373D01*
X180508866Y-75137580D01*
X180531318Y-75214040D01*
X180610605Y-75337413D01*
X180721438Y-75433451D01*
X180854839Y-75494373D01*
X180858633Y-75494918D01*
X180238625Y-76114925D01*
X180322421Y-76173599D01*
X180536507Y-76273429D01*
X180536516Y-76273433D01*
X180764673Y-76334567D01*
X180764684Y-76334569D01*
X180999998Y-76355157D01*
X181000002Y-76355157D01*
X181235315Y-76334569D01*
X181235326Y-76334567D01*
X181463483Y-76273433D01*
X181463492Y-76273429D01*
X181677578Y-76173600D01*
X181677582Y-76173598D01*
X181761373Y-76114926D01*
X181761373Y-76114925D01*
X181141365Y-75494918D01*
X181145161Y-75494373D01*
X181278562Y-75433451D01*
X181389395Y-75337413D01*
X181468682Y-75214040D01*
X181491133Y-75137580D01*
X182114925Y-75761373D01*
X182114926Y-75761373D01*
X182173598Y-75677582D01*
X182173600Y-75677578D01*
X182273429Y-75463492D01*
X182273433Y-75463483D01*
X182334567Y-75235326D01*
X182334569Y-75235315D01*
X182355157Y-75000001D01*
X182355157Y-74999998D01*
X182334569Y-74764684D01*
X182334567Y-74764673D01*
X182273433Y-74536516D01*
X182273429Y-74536507D01*
X182173600Y-74322423D01*
X182173599Y-74322421D01*
X182114925Y-74238626D01*
X182114925Y-74238625D01*
X181491132Y-74862418D01*
X181468682Y-74785960D01*
X181389395Y-74662587D01*
X181278562Y-74566549D01*
X181145161Y-74505627D01*
X181141366Y-74505081D01*
X181761373Y-73885073D01*
X181761373Y-73885072D01*
X181677583Y-73826402D01*
X181677579Y-73826400D01*
X181463492Y-73726570D01*
X181463483Y-73726566D01*
X181235326Y-73665432D01*
X181235315Y-73665430D01*
X181000002Y-73644843D01*
X180999998Y-73644843D01*
X180764684Y-73665430D01*
X180764673Y-73665432D01*
X180536516Y-73726566D01*
X180536507Y-73726570D01*
X180322419Y-73826401D01*
X180238625Y-73885072D01*
X180858634Y-74505081D01*
X180854839Y-74505627D01*
X180721438Y-74566549D01*
X180610605Y-74662587D01*
X180531318Y-74785960D01*
X180508867Y-74862419D01*
X179885073Y-74238625D01*
X179885072Y-74238625D01*
X179826401Y-74322419D01*
X179726570Y-74536507D01*
X179726566Y-74536516D01*
X179665432Y-74764673D01*
X179665430Y-74764684D01*
X179644843Y-74999998D01*
X179644843Y-75000001D01*
X176499423Y-75000001D01*
X176434700Y-74977353D01*
X176404270Y-74974500D01*
X176404266Y-74974500D01*
X175595734Y-74974500D01*
X175595730Y-74974500D01*
X175565300Y-74977353D01*
X175565298Y-74977353D01*
X175437119Y-75022206D01*
X175437117Y-75022207D01*
X175327850Y-75102850D01*
X175247207Y-75212117D01*
X175210697Y-75316456D01*
X175169975Y-75373231D01*
X175105022Y-75398978D01*
X175093656Y-75399500D01*
X174023147Y-75399500D01*
X173956108Y-75379815D01*
X173910353Y-75327011D01*
X173899689Y-75287079D01*
X173897646Y-75265300D01*
X173897646Y-75265298D01*
X173852793Y-75137119D01*
X173852792Y-75137117D01*
X173805713Y-75073327D01*
X173772150Y-75027850D01*
X173662882Y-74947207D01*
X173662880Y-74947206D01*
X173534700Y-74902353D01*
X173504270Y-74899500D01*
X173504266Y-74899500D01*
X172495734Y-74899500D01*
X172495730Y-74899500D01*
X172465300Y-74902353D01*
X172457927Y-74903964D01*
X172457650Y-74902698D01*
X172395673Y-74905861D01*
X172335046Y-74871130D01*
X172302821Y-74809136D01*
X172300500Y-74785258D01*
X172300500Y-72250000D01*
X173600001Y-72250000D01*
X173600001Y-72524986D01*
X173610494Y-72627697D01*
X173665641Y-72794119D01*
X173665643Y-72794124D01*
X173757684Y-72943345D01*
X173881654Y-73067315D01*
X174030875Y-73159356D01*
X174030880Y-73159358D01*
X174197302Y-73214505D01*
X174197309Y-73214506D01*
X174300019Y-73224999D01*
X174349999Y-73224998D01*
X174350000Y-73224998D01*
X174350000Y-72250000D01*
X173600001Y-72250000D01*
X172300500Y-72250000D01*
X172300500Y-71750000D01*
X173600000Y-71750000D01*
X174350000Y-71750000D01*
X174350000Y-70775000D01*
X174349999Y-70774999D01*
X174300029Y-70775000D01*
X174300011Y-70775001D01*
X174197302Y-70785494D01*
X174030880Y-70840641D01*
X174030875Y-70840643D01*
X173881654Y-70932684D01*
X173757684Y-71056654D01*
X173665643Y-71205875D01*
X173665641Y-71205880D01*
X173610494Y-71372302D01*
X173610493Y-71372309D01*
X173600000Y-71475013D01*
X173600000Y-71750000D01*
X172300500Y-71750000D01*
X172300500Y-65255965D01*
X172320185Y-65188926D01*
X172372989Y-65143171D01*
X172379691Y-65140344D01*
X172537401Y-65079247D01*
X172633489Y-65019752D01*
X174299500Y-65019752D01*
X174311131Y-65078229D01*
X174311132Y-65078230D01*
X174355447Y-65144552D01*
X174421769Y-65188867D01*
X174421770Y-65188868D01*
X174480247Y-65200499D01*
X174480250Y-65200500D01*
X174480252Y-65200500D01*
X176202500Y-65200500D01*
X176269539Y-65220185D01*
X176315294Y-65272989D01*
X176326500Y-65324500D01*
X176326500Y-70950500D01*
X176306815Y-71017539D01*
X176254011Y-71063294D01*
X176202500Y-71074500D01*
X176195730Y-71074500D01*
X176165300Y-71077353D01*
X176165298Y-71077353D01*
X176037119Y-71122206D01*
X176037117Y-71122207D01*
X175927850Y-71202850D01*
X175847207Y-71312117D01*
X175824842Y-71376033D01*
X175784120Y-71432808D01*
X175719167Y-71458555D01*
X175650605Y-71445098D01*
X175600203Y-71396711D01*
X175590095Y-71374081D01*
X175534358Y-71205880D01*
X175534356Y-71205875D01*
X175442315Y-71056654D01*
X175318345Y-70932684D01*
X175169124Y-70840643D01*
X175169119Y-70840641D01*
X175002697Y-70785494D01*
X175002690Y-70785493D01*
X174899986Y-70775000D01*
X174850000Y-70775000D01*
X174850000Y-73224999D01*
X174899972Y-73224999D01*
X174899986Y-73224998D01*
X175002697Y-73214505D01*
X175169119Y-73159358D01*
X175169124Y-73159356D01*
X175318345Y-73067315D01*
X175442315Y-72943345D01*
X175534356Y-72794124D01*
X175534359Y-72794117D01*
X175590094Y-72625918D01*
X175629866Y-72568473D01*
X175694382Y-72541649D01*
X175763158Y-72553964D01*
X175814358Y-72601506D01*
X175824841Y-72623965D01*
X175826147Y-72627697D01*
X175847207Y-72687882D01*
X175927850Y-72797150D01*
X176037118Y-72877793D01*
X176079845Y-72892744D01*
X176165299Y-72922646D01*
X176195730Y-72925500D01*
X176195734Y-72925500D01*
X176804270Y-72925500D01*
X176834699Y-72922646D01*
X176834701Y-72922646D01*
X176898790Y-72900219D01*
X176962882Y-72877793D01*
X177072150Y-72797150D01*
X177106308Y-72750866D01*
X177161956Y-72708616D01*
X177206079Y-72700500D01*
X180157265Y-72700500D01*
X180224304Y-72720185D01*
X180249119Y-72742274D01*
X180249287Y-72742107D01*
X180252165Y-72744985D01*
X180253114Y-72745830D01*
X180253590Y-72746410D01*
X180413550Y-72877685D01*
X180596046Y-72975232D01*
X180794066Y-73035300D01*
X180794065Y-73035300D01*
X180812529Y-73037118D01*
X181000000Y-73055583D01*
X181205934Y-73035300D01*
X181403954Y-72975232D01*
X181586450Y-72877685D01*
X181746410Y-72746410D01*
X181877685Y-72586450D01*
X181975232Y-72403954D01*
X182035300Y-72205934D01*
X182055583Y-72000000D01*
X182035300Y-71794066D01*
X181975232Y-71596046D01*
X181877685Y-71413550D01*
X181825702Y-71350209D01*
X181746410Y-71253589D01*
X181628677Y-71156969D01*
X181586450Y-71122315D01*
X181403954Y-71024768D01*
X181205934Y-70964700D01*
X181205932Y-70964699D01*
X181205934Y-70964699D01*
X181000000Y-70944417D01*
X180794067Y-70964699D01*
X180596043Y-71024769D01*
X180503005Y-71074500D01*
X180413550Y-71122315D01*
X180413548Y-71122316D01*
X180413547Y-71122317D01*
X180253591Y-71253588D01*
X180253115Y-71254169D01*
X180252787Y-71254391D01*
X180249287Y-71257893D01*
X180248622Y-71257228D01*
X180195368Y-71293501D01*
X180157265Y-71299500D01*
X177206079Y-71299500D01*
X177139040Y-71279815D01*
X177106308Y-71249133D01*
X177072151Y-71202851D01*
X177072150Y-71202850D01*
X177021396Y-71165392D01*
X176977866Y-71133265D01*
X176935615Y-71077617D01*
X176927500Y-71033495D01*
X176927500Y-69093490D01*
X182070500Y-69093490D01*
X182076197Y-69120294D01*
X182109374Y-69276384D01*
X182109376Y-69276390D01*
X182185427Y-69447199D01*
X182185429Y-69447204D01*
X182295330Y-69598469D01*
X182434286Y-69723586D01*
X182596213Y-69817074D01*
X182596215Y-69817075D01*
X182774044Y-69874855D01*
X182913380Y-69889500D01*
X182913385Y-69889500D01*
X183006615Y-69889500D01*
X183006620Y-69889500D01*
X183145956Y-69874855D01*
X183323785Y-69817075D01*
X183485715Y-69723585D01*
X183624669Y-69598470D01*
X183734573Y-69447200D01*
X183810625Y-69276385D01*
X183849500Y-69093490D01*
X183849500Y-68906510D01*
X183810625Y-68723615D01*
X183810623Y-68723609D01*
X183780073Y-68654996D01*
X183734573Y-68552800D01*
X183734570Y-68552796D01*
X183734570Y-68552795D01*
X183624669Y-68401530D01*
X183485713Y-68276413D01*
X183323786Y-68182925D01*
X183145960Y-68125146D01*
X183145958Y-68125145D01*
X183106145Y-68120960D01*
X183006620Y-68110500D01*
X182913380Y-68110500D01*
X182826295Y-68119653D01*
X182774041Y-68125145D01*
X182774039Y-68125146D01*
X182596213Y-68182925D01*
X182434286Y-68276413D01*
X182295330Y-68401530D01*
X182185429Y-68552795D01*
X182185427Y-68552800D01*
X182109376Y-68723609D01*
X182109374Y-68723615D01*
X182071242Y-68903019D01*
X182070500Y-68906510D01*
X182070500Y-69093490D01*
X176927500Y-69093490D01*
X176927500Y-64689839D01*
X176928095Y-64681263D01*
X176929771Y-64669240D01*
X176929773Y-64669236D01*
X176927566Y-64621491D01*
X176927500Y-64618628D01*
X176927500Y-64599159D01*
X176927499Y-64599153D01*
X176927009Y-64596533D01*
X176926016Y-64587980D01*
X176924585Y-64557009D01*
X176921788Y-64550676D01*
X176913332Y-64523370D01*
X176912061Y-64516567D01*
X176895738Y-64490205D01*
X176891731Y-64482602D01*
X176879207Y-64454237D01*
X176879206Y-64454236D01*
X176879206Y-64454235D01*
X176874309Y-64449338D01*
X176856563Y-64426934D01*
X176852918Y-64421047D01*
X176828172Y-64402360D01*
X176821694Y-64396723D01*
X176736819Y-64311848D01*
X176703334Y-64250525D01*
X176700500Y-64224167D01*
X176700500Y-62980249D01*
X176700499Y-62980247D01*
X176688868Y-62921770D01*
X176688867Y-62921769D01*
X176644552Y-62855447D01*
X176578230Y-62811132D01*
X176578229Y-62811131D01*
X176519752Y-62799500D01*
X176519748Y-62799500D01*
X174480252Y-62799500D01*
X174480247Y-62799500D01*
X174421770Y-62811131D01*
X174421769Y-62811132D01*
X174355447Y-62855447D01*
X174311132Y-62921769D01*
X174311131Y-62921770D01*
X174299500Y-62980247D01*
X174299500Y-65019752D01*
X172633489Y-65019752D01*
X172726562Y-64962124D01*
X172890981Y-64812236D01*
X173025058Y-64634689D01*
X173124229Y-64435528D01*
X173185115Y-64221536D01*
X173205643Y-64000000D01*
X173185115Y-63778464D01*
X173124229Y-63564472D01*
X173124224Y-63564461D01*
X173025061Y-63365316D01*
X173025056Y-63365308D01*
X172890979Y-63187761D01*
X172726562Y-63037876D01*
X172726560Y-63037874D01*
X172537404Y-62920754D01*
X172537398Y-62920752D01*
X172329940Y-62840382D01*
X172111243Y-62799500D01*
X171888757Y-62799500D01*
X171670060Y-62840382D01*
X171538864Y-62891207D01*
X171462601Y-62920752D01*
X171462595Y-62920754D01*
X171273439Y-63037874D01*
X171273437Y-63037876D01*
X171109020Y-63187761D01*
X170974943Y-63365308D01*
X170974938Y-63365316D01*
X170875775Y-63564461D01*
X170875769Y-63564476D01*
X170814885Y-63778462D01*
X170814884Y-63778464D01*
X170794357Y-63999999D01*
X170794357Y-64000000D01*
X170814884Y-64221535D01*
X170814885Y-64221537D01*
X170875769Y-64435523D01*
X170875775Y-64435538D01*
X170974938Y-64634683D01*
X170974943Y-64634691D01*
X171109020Y-64812238D01*
X171273437Y-64962123D01*
X171273439Y-64962125D01*
X171462595Y-65079245D01*
X171462601Y-65079248D01*
X171511193Y-65098072D01*
X171620295Y-65140339D01*
X171675695Y-65182911D01*
X171699286Y-65248678D01*
X171699500Y-65255965D01*
X171699500Y-76637158D01*
X171698905Y-76645732D01*
X171697227Y-76657763D01*
X171699434Y-76705509D01*
X171699500Y-76708372D01*
X171699500Y-76727845D01*
X171699993Y-76730482D01*
X171700982Y-76739015D01*
X171702415Y-76769991D01*
X171702416Y-76769997D01*
X171705214Y-76776334D01*
X171713664Y-76803620D01*
X171714937Y-76810429D01*
X171714937Y-76810430D01*
X171731260Y-76836793D01*
X171735263Y-76844386D01*
X171747794Y-76872765D01*
X171747795Y-76872766D01*
X171747796Y-76872768D01*
X171752689Y-76877661D01*
X171770435Y-76900065D01*
X171774077Y-76905948D01*
X171774080Y-76905951D01*
X171798826Y-76924639D01*
X171805311Y-76930282D01*
X172064389Y-77189361D01*
X172097874Y-77250684D01*
X172100167Y-77288609D01*
X172099500Y-77295728D01*
X172099500Y-78104269D01*
X172102353Y-78134699D01*
X172102353Y-78134701D01*
X172147206Y-78262880D01*
X172147207Y-78262882D01*
X172227850Y-78372150D01*
X172337118Y-78452793D01*
X172379845Y-78467744D01*
X172465299Y-78497646D01*
X172495730Y-78500500D01*
X172495734Y-78500500D01*
X172575500Y-78500500D01*
X172642539Y-78520185D01*
X172688294Y-78572989D01*
X172699500Y-78624500D01*
X172699500Y-79494900D01*
X172679815Y-79561939D01*
X172627011Y-79607694D01*
X172616456Y-79611941D01*
X172587118Y-79622207D01*
X172477850Y-79702850D01*
X172397207Y-79812117D01*
X172397206Y-79812119D01*
X172352353Y-79940298D01*
X172352353Y-79940300D01*
X172349500Y-79970730D01*
X172349500Y-81029269D01*
X172352353Y-81059699D01*
X172352354Y-81059701D01*
X172394786Y-81180964D01*
X172398348Y-81250743D01*
X172365426Y-81309600D01*
X170931948Y-82743080D01*
X170925464Y-82748722D01*
X170915768Y-82756044D01*
X170883559Y-82791374D01*
X170881585Y-82793442D01*
X170867827Y-82807200D01*
X170867822Y-82807206D01*
X170866306Y-82809420D01*
X170860976Y-82816148D01*
X170840083Y-82839066D01*
X170840083Y-82839067D01*
X170837578Y-82845533D01*
X170824259Y-82870802D01*
X170820345Y-82876515D01*
X170820343Y-82876521D01*
X170813244Y-82906699D01*
X170810702Y-82914907D01*
X170799500Y-82943826D01*
X170799500Y-82950751D01*
X170796206Y-82979141D01*
X170794621Y-82985877D01*
X170794621Y-82985881D01*
X170798905Y-83016590D01*
X170799500Y-83025166D01*
X170799500Y-91612518D01*
X170779815Y-91679557D01*
X170750986Y-91710894D01*
X170671719Y-91771716D01*
X170575463Y-91897160D01*
X170514956Y-92043237D01*
X170514955Y-92043239D01*
X170494318Y-92199998D01*
X170494318Y-92200001D01*
X170514955Y-92356760D01*
X170514956Y-92356762D01*
X170572112Y-92494750D01*
X170575464Y-92502841D01*
X170671718Y-92628282D01*
X170797159Y-92724536D01*
X170943238Y-92785044D01*
X171009944Y-92793826D01*
X171099999Y-92805682D01*
X171100000Y-92805682D01*
X171100001Y-92805682D01*
X171152254Y-92798802D01*
X171256762Y-92785044D01*
X171402841Y-92724536D01*
X171528282Y-92628282D01*
X171624536Y-92502841D01*
X171685044Y-92356762D01*
X171705682Y-92200000D01*
X171702758Y-92177793D01*
X171685044Y-92043239D01*
X171685044Y-92043238D01*
X171624536Y-91897159D01*
X171528282Y-91771718D01*
X171528280Y-91771717D01*
X171528280Y-91771716D01*
X171449014Y-91710894D01*
X171407811Y-91654466D01*
X171400500Y-91612518D01*
X171400500Y-87548348D01*
X171420185Y-87481309D01*
X171472989Y-87435554D01*
X171542147Y-87425610D01*
X171599985Y-87449972D01*
X171611171Y-87458555D01*
X171697157Y-87524535D01*
X171697158Y-87524535D01*
X171697159Y-87524536D01*
X171843238Y-87585044D01*
X171900936Y-87592640D01*
X171999999Y-87605682D01*
X172000000Y-87605682D01*
X172099061Y-87592640D01*
X172168096Y-87603405D01*
X172202927Y-87627898D01*
X172736181Y-88161152D01*
X172769666Y-88222475D01*
X172772500Y-88248833D01*
X172772500Y-92710158D01*
X172771905Y-92718732D01*
X172770227Y-92730763D01*
X172770227Y-92730764D01*
X172770227Y-92730765D01*
X172771014Y-92747794D01*
X172772434Y-92778509D01*
X172772500Y-92781372D01*
X172772500Y-92800845D01*
X172772993Y-92803482D01*
X172773982Y-92812015D01*
X172775415Y-92842991D01*
X172775416Y-92842997D01*
X172778214Y-92849334D01*
X172786664Y-92876620D01*
X172787937Y-92883429D01*
X172787937Y-92883430D01*
X172804260Y-92909793D01*
X172808263Y-92917386D01*
X172820794Y-92945765D01*
X172820795Y-92945766D01*
X172820796Y-92945768D01*
X172825689Y-92950661D01*
X172843435Y-92973065D01*
X172847077Y-92978948D01*
X172847080Y-92978951D01*
X172871826Y-92997639D01*
X172878311Y-93003282D01*
X173064389Y-93189360D01*
X173097874Y-93250683D01*
X173100167Y-93288607D01*
X173099500Y-93295726D01*
X173099500Y-94104269D01*
X173102353Y-94134699D01*
X173102353Y-94134701D01*
X173147206Y-94262880D01*
X173147207Y-94262882D01*
X173227850Y-94372150D01*
X173337118Y-94452793D01*
X173379845Y-94467744D01*
X173465299Y-94497646D01*
X173495730Y-94500500D01*
X173495734Y-94500500D01*
X173575500Y-94500500D01*
X173642539Y-94520185D01*
X173688294Y-94572989D01*
X173699500Y-94624500D01*
X173699500Y-95450500D01*
X173679815Y-95517539D01*
X173627011Y-95563294D01*
X173575500Y-95574500D01*
X173245730Y-95574500D01*
X173215300Y-95577353D01*
X173215298Y-95577353D01*
X173087119Y-95622206D01*
X173087117Y-95622207D01*
X172977850Y-95702850D01*
X172897207Y-95812117D01*
X172897206Y-95812119D01*
X172852353Y-95940298D01*
X172852353Y-95940300D01*
X172849500Y-95970730D01*
X172849500Y-96075500D01*
X172829815Y-96142539D01*
X172777011Y-96188294D01*
X172725500Y-96199500D01*
X172625833Y-96199500D01*
X172558794Y-96179815D01*
X172538152Y-96163181D01*
X170006922Y-93631951D01*
X170001278Y-93625465D01*
X169993956Y-93615770D01*
X169958624Y-93583560D01*
X169956573Y-93581602D01*
X169942797Y-93567826D01*
X169940586Y-93566311D01*
X169933853Y-93560978D01*
X169910933Y-93540084D01*
X169904470Y-93537580D01*
X169879192Y-93524256D01*
X169873481Y-93520344D01*
X169873478Y-93520343D01*
X169873480Y-93520343D01*
X169843302Y-93513245D01*
X169835095Y-93510703D01*
X169818588Y-93504309D01*
X169813821Y-93502463D01*
X169758420Y-93459893D01*
X169734827Y-93394127D01*
X169736995Y-93362643D01*
X169750500Y-93294750D01*
X169750500Y-92705249D01*
X169750499Y-92705247D01*
X169736485Y-92634790D01*
X169737762Y-92634535D01*
X169731680Y-92577991D01*
X169738694Y-92554100D01*
X169748890Y-92502841D01*
X169750500Y-92494748D01*
X169750500Y-91905252D01*
X169750500Y-91905249D01*
X169750499Y-91905247D01*
X169736485Y-91834790D01*
X169737762Y-91834535D01*
X169731680Y-91777991D01*
X169738694Y-91754100D01*
X169744915Y-91722827D01*
X169750500Y-91694748D01*
X169750500Y-91105252D01*
X169750500Y-91105249D01*
X169750499Y-91105247D01*
X169736485Y-91034790D01*
X169737762Y-91034535D01*
X169731680Y-90977991D01*
X169738694Y-90954100D01*
X169742335Y-90935794D01*
X169750500Y-90894748D01*
X169750500Y-90305252D01*
X169750500Y-90305249D01*
X169750499Y-90305247D01*
X169736485Y-90234790D01*
X169737762Y-90234535D01*
X169731680Y-90177991D01*
X169738694Y-90154100D01*
X169750499Y-90094752D01*
X169750500Y-90094750D01*
X169750500Y-89505249D01*
X169750499Y-89505247D01*
X169736485Y-89434790D01*
X169737762Y-89434535D01*
X169731680Y-89377991D01*
X169738694Y-89354100D01*
X169750499Y-89294752D01*
X169750500Y-89294750D01*
X169750500Y-89011556D01*
X169770185Y-88944517D01*
X169800189Y-88912290D01*
X169907187Y-88832190D01*
X169907190Y-88832187D01*
X169993350Y-88717093D01*
X169993354Y-88717086D01*
X170043596Y-88582379D01*
X170043598Y-88582372D01*
X170049999Y-88522844D01*
X170050000Y-88522827D01*
X170050000Y-88450000D01*
X167250000Y-88450000D01*
X167250000Y-88522844D01*
X167256401Y-88582372D01*
X167256403Y-88582379D01*
X167306645Y-88717086D01*
X167306649Y-88717093D01*
X167392648Y-88831972D01*
X167417066Y-88897436D01*
X167402215Y-88965709D01*
X167381063Y-88993964D01*
X166177948Y-90197080D01*
X166171464Y-90202722D01*
X166161768Y-90210044D01*
X166129559Y-90245374D01*
X166127585Y-90247442D01*
X166113827Y-90261200D01*
X166113822Y-90261206D01*
X166112306Y-90263420D01*
X166106976Y-90270148D01*
X166086083Y-90293066D01*
X166086083Y-90293067D01*
X166083578Y-90299533D01*
X166070259Y-90324802D01*
X166066345Y-90330515D01*
X166066343Y-90330521D01*
X166059244Y-90360699D01*
X166056702Y-90368907D01*
X166045500Y-90397826D01*
X166045500Y-90404751D01*
X166042206Y-90433141D01*
X166040621Y-90439877D01*
X166040621Y-90439881D01*
X166044905Y-90470590D01*
X166045500Y-90479166D01*
X166045500Y-92678165D01*
X166025815Y-92745204D01*
X166009181Y-92765846D01*
X166002926Y-92772101D01*
X165941603Y-92805586D01*
X165899060Y-92807359D01*
X165800001Y-92794318D01*
X165799999Y-92794318D01*
X165643239Y-92814955D01*
X165643234Y-92814957D01*
X165621950Y-92823773D01*
X165552480Y-92831240D01*
X165490002Y-92799964D01*
X165454351Y-92739874D01*
X165450500Y-92709211D01*
X165450500Y-92705249D01*
X165450499Y-92705247D01*
X165436485Y-92634790D01*
X165437762Y-92634535D01*
X165431680Y-92577991D01*
X165438694Y-92554100D01*
X165448890Y-92502841D01*
X165450500Y-92494748D01*
X165450500Y-92211556D01*
X165470185Y-92144517D01*
X165500189Y-92112290D01*
X165607187Y-92032190D01*
X165607190Y-92032187D01*
X165693350Y-91917093D01*
X165693354Y-91917086D01*
X165743596Y-91782379D01*
X165743598Y-91782372D01*
X165749999Y-91722844D01*
X165750000Y-91722827D01*
X165750000Y-91650000D01*
X162950000Y-91650000D01*
X162950000Y-91722844D01*
X162956401Y-91782372D01*
X162956402Y-91782376D01*
X162991422Y-91876267D01*
X162996406Y-91945959D01*
X162974194Y-91994327D01*
X162970799Y-91998824D01*
X162965156Y-92005309D01*
X161931948Y-93038517D01*
X161925464Y-93044159D01*
X161915768Y-93051481D01*
X161883559Y-93086811D01*
X161881585Y-93088879D01*
X161867827Y-93102637D01*
X161867822Y-93102643D01*
X161866306Y-93104857D01*
X161860976Y-93111585D01*
X161840083Y-93134503D01*
X161840083Y-93134504D01*
X161837578Y-93140970D01*
X161824259Y-93166239D01*
X161820345Y-93171952D01*
X161820343Y-93171958D01*
X161813244Y-93202136D01*
X161810702Y-93210344D01*
X161799500Y-93239263D01*
X161799500Y-93246188D01*
X161796206Y-93274578D01*
X161794621Y-93281314D01*
X161794621Y-93281318D01*
X161796631Y-93295730D01*
X161798905Y-93312027D01*
X161799500Y-93320603D01*
X161799500Y-100972473D01*
X161779815Y-101039512D01*
X161727011Y-101085267D01*
X161691686Y-101095412D01*
X161543238Y-101114956D01*
X161543237Y-101114956D01*
X161397160Y-101175463D01*
X161271718Y-101271718D01*
X161175463Y-101397160D01*
X161114956Y-101543237D01*
X161114955Y-101543239D01*
X161094318Y-101699998D01*
X161094318Y-101700001D01*
X161114955Y-101856760D01*
X161114956Y-101856762D01*
X161175464Y-102002841D01*
X161271718Y-102128282D01*
X161397159Y-102224536D01*
X161543238Y-102285044D01*
X161621619Y-102295363D01*
X161699999Y-102305682D01*
X161700000Y-102305682D01*
X161700001Y-102305682D01*
X161752254Y-102298802D01*
X161856762Y-102285044D01*
X162002841Y-102224536D01*
X162128282Y-102128282D01*
X162224536Y-102002841D01*
X162285044Y-101856762D01*
X162305682Y-101700000D01*
X162292640Y-101600937D01*
X162303405Y-101531903D01*
X162327903Y-101497066D01*
X162332174Y-101492797D01*
X162333684Y-101490592D01*
X162339023Y-101483851D01*
X162341763Y-101480844D01*
X162359916Y-101460933D01*
X162362416Y-101454478D01*
X162375749Y-101429182D01*
X162379656Y-101423481D01*
X162386757Y-101393285D01*
X162389290Y-101385105D01*
X162400500Y-101356173D01*
X162400500Y-101356172D01*
X162401809Y-101352794D01*
X162444385Y-101297395D01*
X162510154Y-101273809D01*
X162564885Y-101283034D01*
X162569738Y-101285044D01*
X162648119Y-101295363D01*
X162726499Y-101305682D01*
X162726500Y-101305682D01*
X162726501Y-101305682D01*
X162789446Y-101297395D01*
X162883262Y-101285044D01*
X163029341Y-101224536D01*
X163154782Y-101128282D01*
X163251036Y-101002841D01*
X163311544Y-100856762D01*
X163325682Y-100749372D01*
X163332182Y-100700001D01*
X163332182Y-100700000D01*
X163319140Y-100600938D01*
X163329905Y-100531902D01*
X163354395Y-100497074D01*
X163368059Y-100483410D01*
X163374532Y-100477779D01*
X163384224Y-100470459D01*
X163384228Y-100470458D01*
X163416459Y-100435100D01*
X163418367Y-100433102D01*
X163432174Y-100419297D01*
X163433684Y-100417092D01*
X163439023Y-100410351D01*
X163441763Y-100407344D01*
X163459916Y-100387433D01*
X163462416Y-100380978D01*
X163475749Y-100355682D01*
X163479656Y-100349981D01*
X163486757Y-100319785D01*
X163489292Y-100311601D01*
X163500500Y-100282673D01*
X163500500Y-100275748D01*
X163503795Y-100247355D01*
X163505378Y-100240623D01*
X163505379Y-100240619D01*
X163501095Y-100209908D01*
X163500500Y-100201333D01*
X163500500Y-95839892D01*
X163512045Y-95800574D01*
X163501981Y-95779213D01*
X163500500Y-95760107D01*
X163500500Y-95199500D01*
X163520185Y-95132461D01*
X163572989Y-95086706D01*
X163624500Y-95075500D01*
X163925500Y-95075500D01*
X163992539Y-95095185D01*
X164038294Y-95147989D01*
X164049500Y-95199500D01*
X164049500Y-95212518D01*
X164029815Y-95279557D01*
X164000986Y-95310894D01*
X163921719Y-95371716D01*
X163825463Y-95497160D01*
X163764956Y-95643237D01*
X163764955Y-95643239D01*
X163747439Y-95776292D01*
X163738312Y-95796921D01*
X163743477Y-95804957D01*
X163747439Y-95823707D01*
X163764955Y-95956760D01*
X163764956Y-95956762D01*
X163825464Y-96102841D01*
X163921718Y-96228282D01*
X164047159Y-96324536D01*
X164193238Y-96385044D01*
X164271619Y-96395363D01*
X164349999Y-96405682D01*
X164350000Y-96405682D01*
X164350001Y-96405682D01*
X164402254Y-96398802D01*
X164506762Y-96385044D01*
X164652841Y-96324536D01*
X164778282Y-96228282D01*
X164874536Y-96102841D01*
X164935044Y-95956762D01*
X164954087Y-95812117D01*
X164955682Y-95800001D01*
X164955682Y-95799998D01*
X164935044Y-95643239D01*
X164935044Y-95643238D01*
X164874536Y-95497159D01*
X164778282Y-95371718D01*
X164778280Y-95371717D01*
X164778280Y-95371716D01*
X164730608Y-95335137D01*
X164699013Y-95310893D01*
X164657811Y-95254466D01*
X164650500Y-95212518D01*
X164650500Y-95199500D01*
X164670185Y-95132461D01*
X164722989Y-95086706D01*
X164774500Y-95075500D01*
X165269750Y-95075500D01*
X165269751Y-95075499D01*
X165284568Y-95072552D01*
X165328229Y-95063868D01*
X165328229Y-95063867D01*
X165328231Y-95063867D01*
X165394552Y-95019552D01*
X165438867Y-94953231D01*
X165438867Y-94953229D01*
X165438868Y-94953229D01*
X165450499Y-94894752D01*
X165450500Y-94894750D01*
X165450500Y-94305249D01*
X165450499Y-94305247D01*
X165436485Y-94234790D01*
X165437762Y-94234535D01*
X165431680Y-94177991D01*
X165438694Y-94154100D01*
X165440272Y-94146166D01*
X165450500Y-94094748D01*
X165450500Y-94090788D01*
X165451087Y-94088788D01*
X165451097Y-94088688D01*
X165451116Y-94088689D01*
X165470185Y-94023749D01*
X165522989Y-93977994D01*
X165592147Y-93968050D01*
X165621949Y-93976226D01*
X165643238Y-93985044D01*
X165721619Y-93995363D01*
X165799999Y-94005682D01*
X165800000Y-94005682D01*
X165800001Y-94005682D01*
X165865400Y-93997072D01*
X165956762Y-93985044D01*
X166102841Y-93924536D01*
X166173013Y-93870690D01*
X166238182Y-93845496D01*
X166306627Y-93859534D01*
X166356617Y-93908348D01*
X166372500Y-93969066D01*
X166372500Y-98348666D01*
X166352815Y-98415705D01*
X166336181Y-98436347D01*
X161353267Y-103419260D01*
X161291944Y-103452745D01*
X161222252Y-103447761D01*
X161166319Y-103405889D01*
X161143969Y-103355772D01*
X161142154Y-103346650D01*
X161137627Y-103323889D01*
X161137627Y-103275507D01*
X161148301Y-103221846D01*
X161148301Y-102877550D01*
X161148301Y-102877547D01*
X161148300Y-102877545D01*
X161136669Y-102819068D01*
X161136668Y-102819067D01*
X161092353Y-102752745D01*
X161026031Y-102708430D01*
X161026030Y-102708429D01*
X160967553Y-102696798D01*
X160967549Y-102696798D01*
X160816424Y-102696798D01*
X160749385Y-102677113D01*
X160703630Y-102624309D01*
X160693686Y-102555151D01*
X160700257Y-102530066D01*
X160700500Y-102528770D01*
X160700500Y-102521847D01*
X160703795Y-102493454D01*
X160705378Y-102486722D01*
X160705379Y-102486718D01*
X160701095Y-102456007D01*
X160700500Y-102447432D01*
X160700500Y-92044461D01*
X160720185Y-91977422D01*
X160736814Y-91956785D01*
X162004803Y-90688795D01*
X162066124Y-90655312D01*
X162135816Y-90660296D01*
X162191749Y-90702168D01*
X162210989Y-90749411D01*
X162212853Y-90748912D01*
X162214956Y-90756762D01*
X162272112Y-90894750D01*
X162275464Y-90902841D01*
X162371718Y-91028282D01*
X162497159Y-91124536D01*
X162643238Y-91185044D01*
X162721619Y-91195363D01*
X162799999Y-91205682D01*
X162800000Y-91205682D01*
X162800001Y-91205682D01*
X162852254Y-91198802D01*
X162956762Y-91185044D01*
X162994574Y-91169381D01*
X163018579Y-91159439D01*
X163066031Y-91150000D01*
X165750000Y-91150000D01*
X165750000Y-91077172D01*
X165749999Y-91077155D01*
X165743598Y-91017627D01*
X165743596Y-91017620D01*
X165693354Y-90882913D01*
X165693350Y-90882906D01*
X165607190Y-90767812D01*
X165500188Y-90687709D01*
X165458318Y-90631775D01*
X165450500Y-90588443D01*
X165450500Y-90305249D01*
X165450499Y-90305247D01*
X165436485Y-90234790D01*
X165437762Y-90234535D01*
X165431680Y-90177991D01*
X165438694Y-90154100D01*
X165450499Y-90094752D01*
X165450500Y-90094750D01*
X165450500Y-89505249D01*
X165450499Y-89505247D01*
X165436485Y-89434790D01*
X165437762Y-89434535D01*
X165431680Y-89377991D01*
X165438694Y-89354100D01*
X165450499Y-89294752D01*
X165450500Y-89294750D01*
X165450500Y-88705249D01*
X165450499Y-88705247D01*
X165436485Y-88634790D01*
X165437762Y-88634535D01*
X165431680Y-88577991D01*
X165438694Y-88554100D01*
X165450499Y-88494752D01*
X165450500Y-88494750D01*
X165450500Y-87905249D01*
X165450499Y-87905247D01*
X165436485Y-87834790D01*
X165437762Y-87834535D01*
X165431680Y-87777991D01*
X165438694Y-87754100D01*
X165449458Y-87699986D01*
X165450500Y-87694748D01*
X165450500Y-87105252D01*
X165450500Y-87105249D01*
X165450499Y-87105247D01*
X165438868Y-87046770D01*
X165438867Y-87046769D01*
X165394552Y-86980447D01*
X165328230Y-86936132D01*
X165328229Y-86936131D01*
X165269752Y-86924500D01*
X165269748Y-86924500D01*
X163430252Y-86924500D01*
X163430247Y-86924500D01*
X163371770Y-86936131D01*
X163371769Y-86936132D01*
X163305447Y-86980447D01*
X163261132Y-87046769D01*
X163261131Y-87046770D01*
X163249500Y-87105247D01*
X163249500Y-87694752D01*
X163263515Y-87765209D01*
X163262239Y-87765462D01*
X163268317Y-87822023D01*
X163261303Y-87845910D01*
X163249500Y-87905247D01*
X163249500Y-88494752D01*
X163263515Y-88565209D01*
X163262239Y-88565462D01*
X163268317Y-88622023D01*
X163261303Y-88645910D01*
X163249500Y-88705247D01*
X163249500Y-89294752D01*
X163260750Y-89351309D01*
X163254523Y-89420900D01*
X163211660Y-89476078D01*
X163145770Y-89499322D01*
X163139133Y-89499500D01*
X162531470Y-89499500D01*
X162522896Y-89498905D01*
X162510867Y-89497227D01*
X162510864Y-89497227D01*
X162485848Y-89498383D01*
X162463119Y-89499434D01*
X162460256Y-89499500D01*
X162440784Y-89499500D01*
X162439836Y-89499677D01*
X162438144Y-89499993D01*
X162429616Y-89500982D01*
X162400426Y-89502332D01*
X162398637Y-89502415D01*
X162392292Y-89505215D01*
X162365009Y-89513665D01*
X162358197Y-89514938D01*
X162358196Y-89514939D01*
X162331835Y-89531260D01*
X162324236Y-89535265D01*
X162295864Y-89547793D01*
X162290965Y-89552693D01*
X162268571Y-89570431D01*
X162262677Y-89574080D01*
X162243988Y-89598827D01*
X162238347Y-89605310D01*
X162012181Y-89831476D01*
X161950858Y-89864961D01*
X161881167Y-89859977D01*
X161825233Y-89818106D01*
X161800816Y-89752641D01*
X161800500Y-89743795D01*
X161800500Y-65255965D01*
X161820185Y-65188926D01*
X161872989Y-65143171D01*
X161879691Y-65140344D01*
X162037401Y-65079247D01*
X162226562Y-64962124D01*
X162390981Y-64812236D01*
X162525058Y-64634689D01*
X162624229Y-64435528D01*
X162685115Y-64221536D01*
X162705643Y-64000000D01*
X163794357Y-64000000D01*
X163814884Y-64221535D01*
X163814885Y-64221537D01*
X163875769Y-64435523D01*
X163875775Y-64435538D01*
X163974938Y-64634683D01*
X163974943Y-64634691D01*
X164109020Y-64812238D01*
X164273437Y-64962123D01*
X164273439Y-64962125D01*
X164462595Y-65079245D01*
X164462601Y-65079248D01*
X164511193Y-65098072D01*
X164620295Y-65140339D01*
X164675695Y-65182911D01*
X164699286Y-65248678D01*
X164699500Y-65255965D01*
X164699500Y-85209876D01*
X164698905Y-85218450D01*
X164697227Y-85230481D01*
X164697227Y-85230482D01*
X164697227Y-85230483D01*
X164698166Y-85250813D01*
X164699434Y-85278227D01*
X164699500Y-85281090D01*
X164699500Y-85300563D01*
X164699993Y-85303200D01*
X164700982Y-85311733D01*
X164702415Y-85342709D01*
X164702416Y-85342715D01*
X164705214Y-85349052D01*
X164713664Y-85376338D01*
X164714937Y-85383147D01*
X164714937Y-85383148D01*
X164731260Y-85409511D01*
X164735263Y-85417104D01*
X164747794Y-85445483D01*
X164747795Y-85445484D01*
X164747796Y-85445486D01*
X164752689Y-85450379D01*
X164770435Y-85472783D01*
X164774077Y-85478666D01*
X164774080Y-85478669D01*
X164798826Y-85497357D01*
X164805311Y-85503000D01*
X166235742Y-86933431D01*
X166269227Y-86994754D01*
X166271000Y-87037297D01*
X166257959Y-87136357D01*
X166257959Y-87136360D01*
X166278596Y-87293119D01*
X166278597Y-87293121D01*
X166334582Y-87428282D01*
X166339105Y-87439200D01*
X166435359Y-87564641D01*
X166560800Y-87660895D01*
X166706879Y-87721403D01*
X166785260Y-87731722D01*
X166863640Y-87742041D01*
X166863641Y-87742041D01*
X166863642Y-87742041D01*
X166915895Y-87735161D01*
X167020403Y-87721403D01*
X167085147Y-87694584D01*
X167154615Y-87687116D01*
X167217095Y-87718391D01*
X167252747Y-87778480D01*
X167255888Y-87822402D01*
X167250000Y-87877155D01*
X167250000Y-87950000D01*
X170050000Y-87950000D01*
X170050000Y-87877172D01*
X170049999Y-87877155D01*
X170043598Y-87817627D01*
X170043596Y-87817620D01*
X169993354Y-87682913D01*
X169993350Y-87682906D01*
X169907190Y-87567812D01*
X169800188Y-87487709D01*
X169758318Y-87431775D01*
X169750500Y-87388443D01*
X169750500Y-87105249D01*
X169750499Y-87105247D01*
X169738868Y-87046770D01*
X169738867Y-87046769D01*
X169694552Y-86980447D01*
X169628230Y-86936132D01*
X169628229Y-86936131D01*
X169569752Y-86924500D01*
X169569748Y-86924500D01*
X169201558Y-86924500D01*
X169134519Y-86904815D01*
X169088764Y-86852011D01*
X169086997Y-86847953D01*
X169079923Y-86830875D01*
X169024536Y-86697159D01*
X168928282Y-86571718D01*
X168802841Y-86475464D01*
X168779126Y-86465641D01*
X168656762Y-86414956D01*
X168656760Y-86414955D01*
X168500001Y-86394318D01*
X168499999Y-86394318D01*
X168343239Y-86414955D01*
X168343237Y-86414956D01*
X168197160Y-86475463D01*
X168071718Y-86571718D01*
X167975463Y-86697160D01*
X167913003Y-86847953D01*
X167869162Y-86902356D01*
X167802868Y-86924421D01*
X167798442Y-86924500D01*
X167730247Y-86924500D01*
X167671770Y-86936131D01*
X167671769Y-86936132D01*
X167608573Y-86978359D01*
X167541895Y-86999237D01*
X167474515Y-86980752D01*
X167427825Y-86928774D01*
X167425121Y-86922709D01*
X167388178Y-86833520D01*
X167388177Y-86833519D01*
X167388177Y-86833518D01*
X167291923Y-86708077D01*
X167166482Y-86611823D01*
X167020403Y-86551315D01*
X167020401Y-86551314D01*
X166863642Y-86530677D01*
X166863640Y-86530677D01*
X166764580Y-86543718D01*
X166695544Y-86532952D01*
X166660714Y-86508460D01*
X165336819Y-85184565D01*
X165303334Y-85123242D01*
X165300500Y-85096884D01*
X165300500Y-65255965D01*
X165320185Y-65188926D01*
X165372989Y-65143171D01*
X165379691Y-65140344D01*
X165537401Y-65079247D01*
X165726562Y-64962124D01*
X165890981Y-64812236D01*
X166025058Y-64634689D01*
X166124229Y-64435528D01*
X166185115Y-64221536D01*
X166205643Y-64000000D01*
X167294357Y-64000000D01*
X167314884Y-64221535D01*
X167314885Y-64221537D01*
X167375769Y-64435523D01*
X167375775Y-64435538D01*
X167474938Y-64634683D01*
X167474943Y-64634691D01*
X167609020Y-64812238D01*
X167773437Y-64962123D01*
X167773439Y-64962125D01*
X167962595Y-65079245D01*
X167962601Y-65079248D01*
X168011193Y-65098072D01*
X168120295Y-65140339D01*
X168175695Y-65182911D01*
X168199286Y-65248678D01*
X168199500Y-65255965D01*
X168199500Y-82437158D01*
X168198905Y-82445732D01*
X168197227Y-82457763D01*
X168199434Y-82505509D01*
X168199500Y-82508372D01*
X168199500Y-82527845D01*
X168199993Y-82530482D01*
X168200982Y-82539015D01*
X168202415Y-82569991D01*
X168202416Y-82569997D01*
X168205214Y-82576334D01*
X168213664Y-82603620D01*
X168214937Y-82610429D01*
X168214937Y-82610430D01*
X168231260Y-82636793D01*
X168235263Y-82644386D01*
X168247794Y-82672765D01*
X168247795Y-82672766D01*
X168247796Y-82672768D01*
X168252689Y-82677661D01*
X168270435Y-82700065D01*
X168274077Y-82705948D01*
X168274080Y-82705951D01*
X168298826Y-82724639D01*
X168305311Y-82730282D01*
X168372101Y-82797072D01*
X168405586Y-82858395D01*
X168407359Y-82900938D01*
X168394318Y-82999998D01*
X168394318Y-83000001D01*
X168414955Y-83156760D01*
X168414956Y-83156762D01*
X168475464Y-83302841D01*
X168571718Y-83428282D01*
X168697159Y-83524536D01*
X168843238Y-83585044D01*
X168921619Y-83595363D01*
X168999999Y-83605682D01*
X169000000Y-83605682D01*
X169000001Y-83605682D01*
X169052254Y-83598802D01*
X169156762Y-83585044D01*
X169302841Y-83524536D01*
X169428282Y-83428282D01*
X169524536Y-83302841D01*
X169585044Y-83156762D01*
X169605682Y-83000000D01*
X169585044Y-82843238D01*
X169524536Y-82697159D01*
X169428282Y-82571718D01*
X169302841Y-82475464D01*
X169156762Y-82414956D01*
X169156760Y-82414955D01*
X169000001Y-82394318D01*
X168999997Y-82394318D01*
X168940684Y-82402126D01*
X168871649Y-82391360D01*
X168819393Y-82344979D01*
X168800500Y-82279187D01*
X168800500Y-65255965D01*
X168820185Y-65188926D01*
X168872989Y-65143171D01*
X168879691Y-65140344D01*
X169037401Y-65079247D01*
X169226562Y-64962124D01*
X169390981Y-64812236D01*
X169525058Y-64634689D01*
X169624229Y-64435528D01*
X169685115Y-64221536D01*
X169705643Y-64000000D01*
X169685115Y-63778464D01*
X169624229Y-63564472D01*
X169624224Y-63564461D01*
X169525061Y-63365316D01*
X169525056Y-63365308D01*
X169390979Y-63187761D01*
X169226562Y-63037876D01*
X169226560Y-63037874D01*
X169037404Y-62920754D01*
X169037398Y-62920752D01*
X168829940Y-62840382D01*
X168611243Y-62799500D01*
X168388757Y-62799500D01*
X168170060Y-62840382D01*
X168038864Y-62891207D01*
X167962601Y-62920752D01*
X167962595Y-62920754D01*
X167773439Y-63037874D01*
X167773437Y-63037876D01*
X167609020Y-63187761D01*
X167474943Y-63365308D01*
X167474938Y-63365316D01*
X167375775Y-63564461D01*
X167375769Y-63564476D01*
X167314885Y-63778462D01*
X167314884Y-63778464D01*
X167294357Y-63999999D01*
X167294357Y-64000000D01*
X166205643Y-64000000D01*
X166185115Y-63778464D01*
X166124229Y-63564472D01*
X166124224Y-63564461D01*
X166025061Y-63365316D01*
X166025056Y-63365308D01*
X165890979Y-63187761D01*
X165726562Y-63037876D01*
X165726560Y-63037874D01*
X165537404Y-62920754D01*
X165537398Y-62920752D01*
X165329940Y-62840382D01*
X165111243Y-62799500D01*
X164888757Y-62799500D01*
X164670060Y-62840382D01*
X164538864Y-62891207D01*
X164462601Y-62920752D01*
X164462595Y-62920754D01*
X164273439Y-63037874D01*
X164273437Y-63037876D01*
X164109020Y-63187761D01*
X163974943Y-63365308D01*
X163974938Y-63365316D01*
X163875775Y-63564461D01*
X163875769Y-63564476D01*
X163814885Y-63778462D01*
X163814884Y-63778464D01*
X163794357Y-63999999D01*
X163794357Y-64000000D01*
X162705643Y-64000000D01*
X162685115Y-63778464D01*
X162624229Y-63564472D01*
X162624224Y-63564461D01*
X162525061Y-63365316D01*
X162525056Y-63365308D01*
X162390979Y-63187761D01*
X162226562Y-63037876D01*
X162226560Y-63037874D01*
X162037404Y-62920754D01*
X162037398Y-62920752D01*
X161829940Y-62840382D01*
X161611243Y-62799500D01*
X161388757Y-62799500D01*
X161170060Y-62840382D01*
X161038864Y-62891207D01*
X160962601Y-62920752D01*
X160962595Y-62920754D01*
X160773439Y-63037874D01*
X160773437Y-63037876D01*
X160609020Y-63187761D01*
X160474943Y-63365308D01*
X160474938Y-63365316D01*
X160375775Y-63564461D01*
X160375769Y-63564476D01*
X160314885Y-63778462D01*
X160314884Y-63778464D01*
X160294357Y-63999999D01*
X160294357Y-64000000D01*
X160314884Y-64221535D01*
X160314885Y-64221537D01*
X160375769Y-64435523D01*
X160375775Y-64435538D01*
X160474938Y-64634683D01*
X160474943Y-64634691D01*
X160609020Y-64812238D01*
X160773437Y-64962123D01*
X160773439Y-64962125D01*
X160962595Y-65079245D01*
X160962601Y-65079248D01*
X161011193Y-65098072D01*
X161120295Y-65140339D01*
X161175695Y-65182911D01*
X161199286Y-65248678D01*
X161199500Y-65255965D01*
X161199500Y-90130347D01*
X161179815Y-90197386D01*
X161163181Y-90218028D01*
X159904948Y-91476261D01*
X159898464Y-91481903D01*
X159888768Y-91489225D01*
X159856559Y-91524555D01*
X159854585Y-91526623D01*
X159840827Y-91540381D01*
X159840822Y-91540387D01*
X159839306Y-91542601D01*
X159833976Y-91549329D01*
X159813083Y-91572247D01*
X159813083Y-91572248D01*
X159810578Y-91578714D01*
X159797259Y-91603983D01*
X159793345Y-91609696D01*
X159793343Y-91609702D01*
X159786244Y-91639880D01*
X159783702Y-91648088D01*
X159772500Y-91677007D01*
X159772500Y-91683932D01*
X159769206Y-91712322D01*
X159767621Y-91719058D01*
X159767621Y-91719062D01*
X159771905Y-91749771D01*
X159772500Y-91758347D01*
X159772500Y-96922407D01*
X159752815Y-96989446D01*
X159700011Y-97035201D01*
X159630853Y-97045145D01*
X159567297Y-97016120D01*
X159533939Y-96969860D01*
X159524536Y-96947160D01*
X159524536Y-96947159D01*
X159428282Y-96821718D01*
X159302841Y-96725464D01*
X159298377Y-96723615D01*
X159156762Y-96664956D01*
X159156760Y-96664955D01*
X159000001Y-96644318D01*
X158999999Y-96644318D01*
X158843239Y-96664955D01*
X158843237Y-96664956D01*
X158697160Y-96725463D01*
X158571718Y-96821718D01*
X158475463Y-96947160D01*
X158414956Y-97093237D01*
X158414955Y-97093239D01*
X158394318Y-97249998D01*
X158394318Y-97250001D01*
X158405418Y-97334315D01*
X158394652Y-97403350D01*
X158348272Y-97455606D01*
X158282479Y-97474500D01*
X157827131Y-97474500D01*
X157796701Y-97477353D01*
X157796699Y-97477353D01*
X157668520Y-97522206D01*
X157668518Y-97522207D01*
X157559251Y-97602850D01*
X157478608Y-97712117D01*
X157478607Y-97712119D01*
X157433754Y-97840298D01*
X157433754Y-97840300D01*
X157430901Y-97870730D01*
X157430901Y-98504269D01*
X157433754Y-98534699D01*
X157433754Y-98534701D01*
X157478607Y-98662880D01*
X157478608Y-98662882D01*
X157559251Y-98772150D01*
X157668519Y-98852793D01*
X157708372Y-98866738D01*
X157796700Y-98897646D01*
X157827131Y-98900500D01*
X157827135Y-98900500D01*
X158835671Y-98900500D01*
X158866100Y-98897646D01*
X158866102Y-98897646D01*
X158966371Y-98862559D01*
X158994283Y-98852793D01*
X158994283Y-98852792D01*
X159003053Y-98849724D01*
X159003990Y-98852403D01*
X159057868Y-98841441D01*
X159122997Y-98866738D01*
X159164111Y-98923231D01*
X159170295Y-98981178D01*
X159167818Y-98999995D01*
X159167818Y-99000001D01*
X159188455Y-99156760D01*
X159188457Y-99156765D01*
X159216874Y-99225371D01*
X159224343Y-99294841D01*
X159193067Y-99357320D01*
X159132978Y-99392971D01*
X159063153Y-99390477D01*
X159028682Y-99372594D01*
X158994283Y-99347207D01*
X158994281Y-99347206D01*
X158866101Y-99302353D01*
X158835671Y-99299500D01*
X158835667Y-99299500D01*
X157827135Y-99299500D01*
X157827131Y-99299500D01*
X157796701Y-99302353D01*
X157796699Y-99302353D01*
X157668520Y-99347206D01*
X157668518Y-99347207D01*
X157559251Y-99427850D01*
X157478608Y-99537117D01*
X157478607Y-99537119D01*
X157433754Y-99665298D01*
X157433754Y-99665300D01*
X157430901Y-99695730D01*
X157430901Y-100329269D01*
X146300500Y-100329269D01*
X146300500Y-94899986D01*
X148975001Y-94899986D01*
X148985494Y-95002697D01*
X149040641Y-95169119D01*
X149040643Y-95169124D01*
X149132684Y-95318345D01*
X149256654Y-95442315D01*
X149405875Y-95534356D01*
X149405882Y-95534359D01*
X149574081Y-95590094D01*
X149631526Y-95629866D01*
X149658350Y-95694382D01*
X149646035Y-95763158D01*
X149598493Y-95814358D01*
X149576035Y-95824841D01*
X149534422Y-95839402D01*
X149512118Y-95847207D01*
X149512117Y-95847207D01*
X149512116Y-95847208D01*
X149402850Y-95927850D01*
X149322207Y-96037117D01*
X149322206Y-96037119D01*
X149277353Y-96165298D01*
X149277353Y-96165300D01*
X149274500Y-96195730D01*
X149274500Y-96804269D01*
X149277353Y-96834699D01*
X149277353Y-96834701D01*
X149322206Y-96962880D01*
X149322207Y-96962882D01*
X149402850Y-97072150D01*
X149512118Y-97152793D01*
X149554845Y-97167744D01*
X149640299Y-97197646D01*
X149670730Y-97200500D01*
X149670734Y-97200500D01*
X150729270Y-97200500D01*
X150759699Y-97197646D01*
X150759701Y-97197646D01*
X150823790Y-97175219D01*
X150887882Y-97152793D01*
X150997150Y-97072150D01*
X151077793Y-96962882D01*
X151109248Y-96872989D01*
X151122646Y-96834701D01*
X151122646Y-96834699D01*
X151125500Y-96804269D01*
X151474500Y-96804269D01*
X151477353Y-96834699D01*
X151477353Y-96834701D01*
X151522206Y-96962880D01*
X151522207Y-96962882D01*
X151602850Y-97072150D01*
X151712118Y-97152793D01*
X151754845Y-97167744D01*
X151840299Y-97197646D01*
X151870730Y-97200500D01*
X151870734Y-97200500D01*
X152929270Y-97200500D01*
X152959699Y-97197646D01*
X152959701Y-97197646D01*
X153023790Y-97175219D01*
X153087882Y-97152793D01*
X153197150Y-97072150D01*
X153277793Y-96962882D01*
X153309248Y-96872989D01*
X153322646Y-96834701D01*
X153322646Y-96834699D01*
X153325500Y-96804269D01*
X153325500Y-96195730D01*
X153322646Y-96165300D01*
X153322646Y-96165298D01*
X153277793Y-96037119D01*
X153277792Y-96037117D01*
X153197150Y-95927850D01*
X153087882Y-95847207D01*
X153087880Y-95847206D01*
X152959700Y-95802353D01*
X152929270Y-95799500D01*
X152929266Y-95799500D01*
X151870734Y-95799500D01*
X151870730Y-95799500D01*
X151840300Y-95802353D01*
X151840298Y-95802353D01*
X151712119Y-95847206D01*
X151712117Y-95847207D01*
X151602850Y-95927850D01*
X151522207Y-96037117D01*
X151522206Y-96037119D01*
X151477353Y-96165298D01*
X151477353Y-96165300D01*
X151474500Y-96195730D01*
X151474500Y-96804269D01*
X151125500Y-96804269D01*
X151125500Y-96195730D01*
X151122646Y-96165300D01*
X151122646Y-96165298D01*
X151077793Y-96037119D01*
X151077792Y-96037117D01*
X150997150Y-95927850D01*
X150887882Y-95847207D01*
X150887880Y-95847206D01*
X150823967Y-95824842D01*
X150767191Y-95784120D01*
X150741444Y-95719168D01*
X150754901Y-95650606D01*
X150803288Y-95600203D01*
X150825918Y-95590095D01*
X150994119Y-95534358D01*
X150994124Y-95534356D01*
X151143345Y-95442315D01*
X151267315Y-95318345D01*
X151359356Y-95169124D01*
X151362408Y-95162579D01*
X151363980Y-95163312D01*
X151398572Y-95113343D01*
X151463086Y-95086515D01*
X151531862Y-95098825D01*
X151576283Y-95136153D01*
X151602848Y-95172148D01*
X151602849Y-95172148D01*
X151602850Y-95172150D01*
X151712118Y-95252793D01*
X151754845Y-95267744D01*
X151840299Y-95297646D01*
X151870730Y-95300500D01*
X151870734Y-95300500D01*
X152929270Y-95300500D01*
X152959699Y-95297646D01*
X152959701Y-95297646D01*
X153025864Y-95274494D01*
X153087882Y-95252793D01*
X153197150Y-95172150D01*
X153277793Y-95062882D01*
X153308464Y-94975230D01*
X153322646Y-94934701D01*
X153322646Y-94934699D01*
X153325500Y-94904269D01*
X153325500Y-94295730D01*
X153322646Y-94265300D01*
X153322646Y-94265298D01*
X153277793Y-94137119D01*
X153277792Y-94137117D01*
X153276009Y-94134701D01*
X153197150Y-94027850D01*
X153087882Y-93947207D01*
X153087880Y-93947206D01*
X152959700Y-93902353D01*
X152929270Y-93899500D01*
X152929266Y-93899500D01*
X152224500Y-93899500D01*
X152157461Y-93879815D01*
X152111706Y-93827011D01*
X152100500Y-93775500D01*
X152100500Y-93157646D01*
X152120185Y-93090607D01*
X152172989Y-93044852D01*
X152240686Y-93034707D01*
X152243234Y-93035042D01*
X152243238Y-93035044D01*
X152400000Y-93055682D01*
X152400001Y-93055682D01*
X152487526Y-93044159D01*
X152556762Y-93035044D01*
X152702841Y-92974536D01*
X152828282Y-92878282D01*
X152924536Y-92752841D01*
X152985044Y-92606762D01*
X153005314Y-92452793D01*
X153005682Y-92450001D01*
X153005682Y-92449998D01*
X152985044Y-92293239D01*
X152985044Y-92293238D01*
X152924536Y-92147159D01*
X152828282Y-92021718D01*
X152702841Y-91925464D01*
X152677431Y-91914939D01*
X152556762Y-91864956D01*
X152556760Y-91864955D01*
X152400001Y-91844318D01*
X152399999Y-91844318D01*
X152243239Y-91864955D01*
X152243237Y-91864956D01*
X152097160Y-91925463D01*
X151971718Y-92021718D01*
X151875463Y-92147160D01*
X151814956Y-92293237D01*
X151814956Y-92293239D01*
X151802736Y-92386053D01*
X151774469Y-92449950D01*
X151767479Y-92457548D01*
X151631947Y-92593081D01*
X151625463Y-92598723D01*
X151615769Y-92606043D01*
X151583559Y-92641374D01*
X151581585Y-92643442D01*
X151567827Y-92657200D01*
X151567822Y-92657206D01*
X151566306Y-92659420D01*
X151560976Y-92666148D01*
X151540083Y-92689066D01*
X151540083Y-92689067D01*
X151537578Y-92695533D01*
X151524259Y-92720802D01*
X151520345Y-92726515D01*
X151520343Y-92726521D01*
X151513244Y-92756699D01*
X151510702Y-92764907D01*
X151499500Y-92793826D01*
X151499500Y-92800751D01*
X151496206Y-92829141D01*
X151494621Y-92835877D01*
X151494621Y-92835881D01*
X151498905Y-92866590D01*
X151499500Y-92875166D01*
X151499500Y-93820846D01*
X151479815Y-93887885D01*
X151427011Y-93933640D01*
X151357853Y-93943584D01*
X151294297Y-93914559D01*
X151269962Y-93885945D01*
X151267315Y-93881654D01*
X151143345Y-93757684D01*
X150994124Y-93665643D01*
X150994119Y-93665641D01*
X150827697Y-93610494D01*
X150827690Y-93610493D01*
X150724986Y-93600000D01*
X150450000Y-93600000D01*
X150450000Y-94726000D01*
X150430315Y-94793039D01*
X150377511Y-94838794D01*
X150326000Y-94850000D01*
X148975001Y-94850000D01*
X148975001Y-94899986D01*
X146300500Y-94899986D01*
X146300500Y-94350000D01*
X148975000Y-94350000D01*
X149950000Y-94350000D01*
X149950000Y-93600000D01*
X149675029Y-93600000D01*
X149675012Y-93600001D01*
X149572302Y-93610494D01*
X149405880Y-93665641D01*
X149405875Y-93665643D01*
X149256654Y-93757684D01*
X149132684Y-93881654D01*
X149040643Y-94030875D01*
X149040641Y-94030880D01*
X148985494Y-94197302D01*
X148985493Y-94197309D01*
X148975000Y-94300013D01*
X148975000Y-94350000D01*
X146300500Y-94350000D01*
X146300500Y-87650000D01*
X148975001Y-87650000D01*
X148975001Y-87699986D01*
X148985494Y-87802697D01*
X149040641Y-87969119D01*
X149040643Y-87969124D01*
X149132684Y-88118345D01*
X149256654Y-88242315D01*
X149405875Y-88334356D01*
X149405880Y-88334358D01*
X149572302Y-88389505D01*
X149572309Y-88389506D01*
X149675019Y-88399999D01*
X149949999Y-88399999D01*
X149950000Y-88399998D01*
X149950000Y-87650000D01*
X150450000Y-87650000D01*
X150450000Y-88399999D01*
X150724972Y-88399999D01*
X150724986Y-88399998D01*
X150827697Y-88389505D01*
X150994119Y-88334358D01*
X150994124Y-88334356D01*
X151143345Y-88242315D01*
X151187319Y-88198342D01*
X151248642Y-88164857D01*
X151318334Y-88169841D01*
X151362681Y-88198342D01*
X151406654Y-88242315D01*
X151555875Y-88334356D01*
X151555880Y-88334358D01*
X151722302Y-88389505D01*
X151722309Y-88389506D01*
X151825019Y-88399999D01*
X152099999Y-88399999D01*
X152100000Y-88399998D01*
X152100000Y-87650000D01*
X152600000Y-87650000D01*
X152600000Y-88399999D01*
X152874972Y-88399999D01*
X152874986Y-88399998D01*
X152977697Y-88389505D01*
X153144119Y-88334358D01*
X153144124Y-88334356D01*
X153293345Y-88242315D01*
X153417315Y-88118345D01*
X153509356Y-87969124D01*
X153509358Y-87969119D01*
X153564505Y-87802697D01*
X153564506Y-87802690D01*
X153574999Y-87699986D01*
X153575000Y-87699973D01*
X153575000Y-87650000D01*
X152600000Y-87650000D01*
X152100000Y-87650000D01*
X150450000Y-87650000D01*
X149950000Y-87650000D01*
X148975001Y-87650000D01*
X146300500Y-87650000D01*
X146300500Y-87150000D01*
X148975000Y-87150000D01*
X153574999Y-87150000D01*
X153574999Y-87100028D01*
X153574998Y-87100013D01*
X153564505Y-86997302D01*
X153509358Y-86830880D01*
X153509356Y-86830875D01*
X153417315Y-86681654D01*
X153293345Y-86557684D01*
X153144124Y-86465643D01*
X153144119Y-86465641D01*
X152975917Y-86409905D01*
X152918472Y-86370133D01*
X152891649Y-86305617D01*
X152903964Y-86236841D01*
X152951507Y-86185641D01*
X152973966Y-86175158D01*
X152973972Y-86175156D01*
X153037882Y-86152793D01*
X153118846Y-86093038D01*
X153184471Y-86069069D01*
X153252642Y-86084384D01*
X153280158Y-86105129D01*
X157572101Y-90397072D01*
X157605586Y-90458395D01*
X157607359Y-90500938D01*
X157594318Y-90599998D01*
X157594318Y-90600001D01*
X157614955Y-90756760D01*
X157614956Y-90756762D01*
X157672112Y-90894750D01*
X157675464Y-90902841D01*
X157771718Y-91028282D01*
X157897159Y-91124536D01*
X158043238Y-91185044D01*
X158121619Y-91195363D01*
X158199999Y-91205682D01*
X158200000Y-91205682D01*
X158200001Y-91205682D01*
X158252254Y-91198802D01*
X158356762Y-91185044D01*
X158356765Y-91185042D01*
X158364613Y-91182940D01*
X158365077Y-91184675D01*
X158424516Y-91178285D01*
X158486995Y-91209559D01*
X158522648Y-91269648D01*
X158526500Y-91300315D01*
X158526500Y-93197166D01*
X158506815Y-93264205D01*
X158490181Y-93284847D01*
X158202926Y-93572101D01*
X158141603Y-93605586D01*
X158099060Y-93607359D01*
X158000001Y-93594318D01*
X157999999Y-93594318D01*
X157843239Y-93614955D01*
X157843237Y-93614956D01*
X157697160Y-93675463D01*
X157571718Y-93771718D01*
X157475463Y-93897160D01*
X157414956Y-94043237D01*
X157414955Y-94043239D01*
X157394318Y-94199998D01*
X157394318Y-94200001D01*
X157414955Y-94356760D01*
X157414956Y-94356762D01*
X157445756Y-94431121D01*
X157475464Y-94502841D01*
X157571718Y-94628282D01*
X157697159Y-94724536D01*
X157843238Y-94785044D01*
X157921619Y-94795363D01*
X157999999Y-94805682D01*
X158000000Y-94805682D01*
X158000001Y-94805682D01*
X158052254Y-94798802D01*
X158156762Y-94785044D01*
X158302841Y-94724536D01*
X158428282Y-94628282D01*
X158524536Y-94502841D01*
X158585044Y-94356762D01*
X158605682Y-94200000D01*
X158592640Y-94100937D01*
X158603405Y-94031903D01*
X158627895Y-93997075D01*
X158995063Y-93629907D01*
X159001536Y-93624276D01*
X159011224Y-93616959D01*
X159011228Y-93616958D01*
X159043449Y-93581611D01*
X159045357Y-93579613D01*
X159059175Y-93565797D01*
X159060692Y-93563581D01*
X159066017Y-93556856D01*
X159086916Y-93533933D01*
X159089415Y-93527480D01*
X159102749Y-93502184D01*
X159106657Y-93496480D01*
X159113757Y-93466291D01*
X159116291Y-93458106D01*
X159127500Y-93429173D01*
X159127500Y-93422248D01*
X159130795Y-93393855D01*
X159132378Y-93387123D01*
X159132379Y-93387119D01*
X159128095Y-93356408D01*
X159127500Y-93347833D01*
X159127500Y-64889839D01*
X159128095Y-64881263D01*
X159129771Y-64869240D01*
X159129773Y-64869236D01*
X159127566Y-64821491D01*
X159127500Y-64818628D01*
X159127500Y-64799159D01*
X159127499Y-64799153D01*
X159127009Y-64796533D01*
X159126016Y-64787980D01*
X159124585Y-64757009D01*
X159121788Y-64750676D01*
X159113332Y-64723370D01*
X159112061Y-64716567D01*
X159095738Y-64690205D01*
X159091731Y-64682602D01*
X159074565Y-64643723D01*
X159077549Y-64642405D01*
X159061749Y-64593934D01*
X159074693Y-64535005D01*
X159124229Y-64435528D01*
X159185115Y-64221536D01*
X159205643Y-64000000D01*
X159185115Y-63778464D01*
X159124229Y-63564472D01*
X159124224Y-63564461D01*
X159025061Y-63365316D01*
X159025056Y-63365308D01*
X158890979Y-63187761D01*
X158726562Y-63037876D01*
X158726560Y-63037874D01*
X158537404Y-62920754D01*
X158537398Y-62920752D01*
X158329940Y-62840382D01*
X158111243Y-62799500D01*
X157888757Y-62799500D01*
X157670060Y-62840382D01*
X157538864Y-62891207D01*
X157462601Y-62920752D01*
X157462595Y-62920754D01*
X157273439Y-63037874D01*
X157273437Y-63037876D01*
X157109020Y-63187761D01*
X156974943Y-63365308D01*
X156974938Y-63365316D01*
X156875775Y-63564461D01*
X156875769Y-63564476D01*
X156814885Y-63778462D01*
X156814884Y-63778464D01*
X156794357Y-63999999D01*
X156794357Y-64000000D01*
X156814884Y-64221535D01*
X156814885Y-64221537D01*
X156875769Y-64435523D01*
X156875775Y-64435538D01*
X156974938Y-64634683D01*
X156974943Y-64634691D01*
X157109020Y-64812238D01*
X157273437Y-64962123D01*
X157273439Y-64962125D01*
X157462595Y-65079245D01*
X157462596Y-65079245D01*
X157462599Y-65079247D01*
X157670060Y-65159618D01*
X157888757Y-65200500D01*
X157888759Y-65200500D01*
X158111241Y-65200500D01*
X158111243Y-65200500D01*
X158329940Y-65159618D01*
X158357707Y-65148860D01*
X158427328Y-65142998D01*
X158489069Y-65175707D01*
X158523324Y-65236603D01*
X158526500Y-65264487D01*
X158526500Y-89899684D01*
X158506815Y-89966723D01*
X158454011Y-90012478D01*
X158384853Y-90022422D01*
X158364660Y-90016884D01*
X158364613Y-90017060D01*
X158356760Y-90014955D01*
X158200001Y-89994318D01*
X158199999Y-89994318D01*
X158100938Y-90007359D01*
X158031902Y-89996593D01*
X157997072Y-89972101D01*
X153356922Y-85331951D01*
X153351278Y-85325465D01*
X153343956Y-85315769D01*
X153315961Y-85290248D01*
X153279680Y-85230536D01*
X153275500Y-85198612D01*
X153275500Y-85195730D01*
X153272646Y-85165300D01*
X153272646Y-85165298D01*
X153227793Y-85037119D01*
X153227792Y-85037117D01*
X153147150Y-84927850D01*
X153037882Y-84847207D01*
X153037880Y-84847206D01*
X152909700Y-84802353D01*
X152879270Y-84799500D01*
X152879266Y-84799500D01*
X151820734Y-84799500D01*
X151820730Y-84799500D01*
X151790300Y-84802353D01*
X151790298Y-84802353D01*
X151662119Y-84847206D01*
X151662117Y-84847207D01*
X151552850Y-84927850D01*
X151472207Y-85037117D01*
X151472206Y-85037119D01*
X151427353Y-85165298D01*
X151427353Y-85165300D01*
X151424500Y-85195730D01*
X151424500Y-85804269D01*
X151427353Y-85834699D01*
X151427353Y-85834701D01*
X151472206Y-85962880D01*
X151472207Y-85962882D01*
X151552850Y-86072150D01*
X151662118Y-86152793D01*
X151726033Y-86175158D01*
X151782807Y-86215878D01*
X151808555Y-86280830D01*
X151795099Y-86349392D01*
X151746712Y-86399795D01*
X151724082Y-86409904D01*
X151555878Y-86465642D01*
X151555875Y-86465643D01*
X151406654Y-86557684D01*
X151362681Y-86601658D01*
X151301358Y-86635143D01*
X151231666Y-86630159D01*
X151187319Y-86601658D01*
X151143345Y-86557684D01*
X150994124Y-86465643D01*
X150994119Y-86465641D01*
X150825917Y-86409905D01*
X150768472Y-86370133D01*
X150741649Y-86305617D01*
X150753964Y-86236841D01*
X150801507Y-86185641D01*
X150823966Y-86175158D01*
X150823972Y-86175156D01*
X150887882Y-86152793D01*
X150997150Y-86072150D01*
X151077793Y-85962882D01*
X151108596Y-85874853D01*
X151122646Y-85834701D01*
X151122646Y-85834699D01*
X151125500Y-85804269D01*
X151125500Y-85195730D01*
X151122646Y-85165300D01*
X151122646Y-85165298D01*
X151077793Y-85037119D01*
X151077792Y-85037117D01*
X150997150Y-84927850D01*
X150887882Y-84847207D01*
X150887880Y-84847206D01*
X150759700Y-84802353D01*
X150729270Y-84799500D01*
X150729266Y-84799500D01*
X149670734Y-84799500D01*
X149670730Y-84799500D01*
X149640300Y-84802353D01*
X149640298Y-84802353D01*
X149512119Y-84847206D01*
X149512117Y-84847207D01*
X149402850Y-84927850D01*
X149322207Y-85037117D01*
X149322206Y-85037119D01*
X149277353Y-85165298D01*
X149277353Y-85165300D01*
X149274500Y-85195730D01*
X149274500Y-85804269D01*
X149277353Y-85834699D01*
X149277353Y-85834701D01*
X149322206Y-85962880D01*
X149322207Y-85962882D01*
X149402850Y-86072150D01*
X149512118Y-86152793D01*
X149576033Y-86175158D01*
X149632807Y-86215878D01*
X149658555Y-86280830D01*
X149645099Y-86349392D01*
X149596712Y-86399795D01*
X149574082Y-86409904D01*
X149405878Y-86465642D01*
X149405875Y-86465643D01*
X149256654Y-86557684D01*
X149132684Y-86681654D01*
X149040643Y-86830875D01*
X149040641Y-86830880D01*
X148985494Y-86997302D01*
X148985493Y-86997309D01*
X148975000Y-87100013D01*
X148975000Y-87150000D01*
X146300500Y-87150000D01*
X146300500Y-70131489D01*
X148245500Y-70131489D01*
X148284690Y-70391503D01*
X148284692Y-70391509D01*
X148362202Y-70642788D01*
X148476295Y-70879705D01*
X148476297Y-70879707D01*
X148476298Y-70879710D01*
X148624430Y-71096980D01*
X148803290Y-71289746D01*
X149008883Y-71453701D01*
X149236616Y-71585183D01*
X149481402Y-71681254D01*
X149737772Y-71739769D01*
X149737778Y-71739769D01*
X149737781Y-71739770D01*
X149934340Y-71754500D01*
X149934346Y-71754500D01*
X150065660Y-71754500D01*
X150262218Y-71739770D01*
X150262220Y-71739769D01*
X150262228Y-71739769D01*
X150518598Y-71681254D01*
X150763384Y-71585183D01*
X150991117Y-71453701D01*
X151196710Y-71289746D01*
X151375570Y-71096980D01*
X151523702Y-70879710D01*
X151637798Y-70642788D01*
X151715308Y-70391508D01*
X151754500Y-70131482D01*
X151754500Y-69868518D01*
X151754499Y-69868510D01*
X151715309Y-69608496D01*
X151715307Y-69608490D01*
X151637798Y-69357212D01*
X151523702Y-69120290D01*
X151375570Y-68903020D01*
X151196710Y-68710254D01*
X150991117Y-68546299D01*
X150763384Y-68414817D01*
X150518598Y-68318746D01*
X150518593Y-68318744D01*
X150518584Y-68318742D01*
X150300501Y-68268966D01*
X150262228Y-68260231D01*
X150262227Y-68260230D01*
X150262223Y-68260230D01*
X150262218Y-68260229D01*
X150065660Y-68245500D01*
X150065654Y-68245500D01*
X149934346Y-68245500D01*
X149934340Y-68245500D01*
X149737781Y-68260229D01*
X149737776Y-68260230D01*
X149481415Y-68318742D01*
X149481396Y-68318748D01*
X149236615Y-68414817D01*
X149008883Y-68546299D01*
X148803290Y-68710254D01*
X148803288Y-68710256D01*
X148624430Y-68903019D01*
X148476295Y-69120294D01*
X148362202Y-69357211D01*
X148284692Y-69608490D01*
X148284690Y-69608496D01*
X148245500Y-69868510D01*
X148245500Y-70131489D01*
X146300500Y-70131489D01*
X146300500Y-65001529D01*
X146300575Y-64998487D01*
X146318165Y-64640428D01*
X146318761Y-64634370D01*
X146320672Y-64621491D01*
X146371138Y-64281270D01*
X146372320Y-64275326D01*
X146378664Y-64250000D01*
X153000000Y-64250000D01*
X153000000Y-65047844D01*
X153006401Y-65107372D01*
X153006403Y-65107379D01*
X153056645Y-65242086D01*
X153056649Y-65242093D01*
X153142809Y-65357187D01*
X153142812Y-65357190D01*
X153257906Y-65443350D01*
X153257913Y-65443354D01*
X153392620Y-65493596D01*
X153392627Y-65493598D01*
X153452155Y-65499999D01*
X153452172Y-65500000D01*
X154250000Y-65500000D01*
X154250000Y-64250000D01*
X154750000Y-64250000D01*
X154750000Y-65500000D01*
X155547828Y-65500000D01*
X155547844Y-65499999D01*
X155607372Y-65493598D01*
X155607379Y-65493596D01*
X155742086Y-65443354D01*
X155742093Y-65443350D01*
X155857187Y-65357190D01*
X155857190Y-65357187D01*
X155943350Y-65242093D01*
X155943354Y-65242086D01*
X155993596Y-65107379D01*
X155993598Y-65107372D01*
X155999999Y-65047844D01*
X156000000Y-65047827D01*
X156000000Y-64250000D01*
X154750000Y-64250000D01*
X154250000Y-64250000D01*
X153000000Y-64250000D01*
X146378664Y-64250000D01*
X146459059Y-63929044D01*
X146460822Y-63923231D01*
X146522805Y-63750000D01*
X153000000Y-63750000D01*
X154250000Y-63750000D01*
X154250000Y-62500000D01*
X154750000Y-62500000D01*
X154750000Y-63750000D01*
X156000000Y-63750000D01*
X156000000Y-62952172D01*
X155999999Y-62952155D01*
X155993598Y-62892627D01*
X155993596Y-62892620D01*
X155943354Y-62757913D01*
X155943350Y-62757906D01*
X155857190Y-62642812D01*
X155857187Y-62642809D01*
X155742093Y-62556649D01*
X155742086Y-62556645D01*
X155607379Y-62506403D01*
X155607372Y-62506401D01*
X155547844Y-62500000D01*
X154750000Y-62500000D01*
X154250000Y-62500000D01*
X153452155Y-62500000D01*
X153392627Y-62506401D01*
X153392620Y-62506403D01*
X153257913Y-62556645D01*
X153257906Y-62556649D01*
X153142812Y-62642809D01*
X153142809Y-62642812D01*
X153056649Y-62757906D01*
X153056645Y-62757913D01*
X153006403Y-62892620D01*
X153006401Y-62892627D01*
X153000000Y-62952155D01*
X153000000Y-63750000D01*
X146522805Y-63750000D01*
X146581083Y-63587125D01*
X146583409Y-63581513D01*
X146685664Y-63365311D01*
X146736034Y-63258812D01*
X146738889Y-63253469D01*
X146922416Y-62947273D01*
X146925784Y-62942232D01*
X147138437Y-62655503D01*
X147142287Y-62650811D01*
X147382035Y-62386289D01*
X147386289Y-62382035D01*
X147650811Y-62142287D01*
X147655505Y-62138436D01*
X147901708Y-61955839D01*
X147942232Y-61925784D01*
X147947273Y-61922416D01*
X148253469Y-61738889D01*
X148258812Y-61736034D01*
X148420165Y-61659720D01*
X148581513Y-61583409D01*
X148587125Y-61581083D01*
X148923231Y-61460822D01*
X148929046Y-61459059D01*
X149275326Y-61372320D01*
X149281270Y-61371138D01*
X149634377Y-61318760D01*
X149640428Y-61318165D01*
X149998487Y-61300575D01*
X150001529Y-61300500D01*
X150047595Y-61300500D01*
X181952405Y-61300500D01*
X181998471Y-61300500D01*
X182001513Y-61300575D01*
G37*
%TD.AperFunction*%
%TD*%
M02*
