%TF.GenerationSoftware,KiCad,Pcbnew,7.0.9*%
%TF.CreationDate,2023-11-28T01:13:51-06:00*%
%TF.ProjectId,Telemetry-Peripheral-SOM-Daughterboard-IMU,54656c65-6d65-4747-9279-2d5065726970,rev?*%
%TF.SameCoordinates,Original*%
%TF.FileFunction,Legend,Top*%
%TF.FilePolarity,Positive*%
%FSLAX46Y46*%
G04 Gerber Fmt 4.6, Leading zero omitted, Abs format (unit mm)*
G04 Created by KiCad (PCBNEW 7.0.9) date 2023-11-28 01:13:51*
%MOMM*%
%LPD*%
G01*
G04 APERTURE LIST*
G04 Aperture macros list*
%AMRoundRect*
0 Rectangle with rounded corners*
0 $1 Rounding radius*
0 $2 $3 $4 $5 $6 $7 $8 $9 X,Y pos of 4 corners*
0 Add a 4 corners polygon primitive as box body*
4,1,4,$2,$3,$4,$5,$6,$7,$8,$9,$2,$3,0*
0 Add four circle primitives for the rounded corners*
1,1,$1+$1,$2,$3*
1,1,$1+$1,$4,$5*
1,1,$1+$1,$6,$7*
1,1,$1+$1,$8,$9*
0 Add four rect primitives between the rounded corners*
20,1,$1+$1,$2,$3,$4,$5,0*
20,1,$1+$1,$4,$5,$6,$7,0*
20,1,$1+$1,$6,$7,$8,$9,0*
20,1,$1+$1,$8,$9,$2,$3,0*%
G04 Aperture macros list end*
%ADD10C,0.150000*%
%ADD11C,0.254000*%
%ADD12C,0.120000*%
%ADD13C,0.100000*%
%ADD14C,0.300000*%
%ADD15C,0.152400*%
%ADD16RoundRect,0.250000X-0.250000X-0.475000X0.250000X-0.475000X0.250000X0.475000X-0.250000X0.475000X0*%
%ADD17RoundRect,0.250000X0.250000X0.475000X-0.250000X0.475000X-0.250000X-0.475000X0.250000X-0.475000X0*%
%ADD18RoundRect,0.250000X0.475000X-0.250000X0.475000X0.250000X-0.475000X0.250000X-0.475000X-0.250000X0*%
%ADD19C,1.270000*%
%ADD20C,1.700000*%
%ADD21RoundRect,0.250000X-0.350000X0.275000X-0.350000X-0.275000X0.350000X-0.275000X0.350000X0.275000X0*%
%ADD22C,2.000000*%
%ADD23R,1.800000X0.550000*%
%ADD24RoundRect,0.250000X-0.475000X0.250000X-0.475000X-0.250000X0.475000X-0.250000X0.475000X0.250000X0*%
%ADD25RoundRect,0.250000X0.450000X-0.350000X0.450000X0.350000X-0.450000X0.350000X-0.450000X-0.350000X0*%
%ADD26R,2.000000X2.000000*%
%ADD27R,0.533400X0.304800*%
%ADD28R,0.304800X0.533400*%
%ADD29C,3.000000*%
%ADD30RoundRect,0.250000X-0.450000X0.262500X-0.450000X-0.262500X0.450000X-0.262500X0.450000X0.262500X0*%
G04 APERTURE END LIST*
D10*
X157764734Y-109509580D02*
X157717115Y-109557200D01*
X157717115Y-109557200D02*
X157574258Y-109604819D01*
X157574258Y-109604819D02*
X157479020Y-109604819D01*
X157479020Y-109604819D02*
X157336163Y-109557200D01*
X157336163Y-109557200D02*
X157240925Y-109461961D01*
X157240925Y-109461961D02*
X157193306Y-109366723D01*
X157193306Y-109366723D02*
X157145687Y-109176247D01*
X157145687Y-109176247D02*
X157145687Y-109033390D01*
X157145687Y-109033390D02*
X157193306Y-108842914D01*
X157193306Y-108842914D02*
X157240925Y-108747676D01*
X157240925Y-108747676D02*
X157336163Y-108652438D01*
X157336163Y-108652438D02*
X157479020Y-108604819D01*
X157479020Y-108604819D02*
X157574258Y-108604819D01*
X157574258Y-108604819D02*
X157717115Y-108652438D01*
X157717115Y-108652438D02*
X157764734Y-108700057D01*
X158717115Y-109604819D02*
X158145687Y-109604819D01*
X158431401Y-109604819D02*
X158431401Y-108604819D01*
X158431401Y-108604819D02*
X158336163Y-108747676D01*
X158336163Y-108747676D02*
X158240925Y-108842914D01*
X158240925Y-108842914D02*
X158145687Y-108890533D01*
X172109580Y-80666666D02*
X172157200Y-80714285D01*
X172157200Y-80714285D02*
X172204819Y-80857142D01*
X172204819Y-80857142D02*
X172204819Y-80952380D01*
X172204819Y-80952380D02*
X172157200Y-81095237D01*
X172157200Y-81095237D02*
X172061961Y-81190475D01*
X172061961Y-81190475D02*
X171966723Y-81238094D01*
X171966723Y-81238094D02*
X171776247Y-81285713D01*
X171776247Y-81285713D02*
X171633390Y-81285713D01*
X171633390Y-81285713D02*
X171442914Y-81238094D01*
X171442914Y-81238094D02*
X171347676Y-81190475D01*
X171347676Y-81190475D02*
X171252438Y-81095237D01*
X171252438Y-81095237D02*
X171204819Y-80952380D01*
X171204819Y-80952380D02*
X171204819Y-80857142D01*
X171204819Y-80857142D02*
X171252438Y-80714285D01*
X171252438Y-80714285D02*
X171300057Y-80666666D01*
X172204819Y-80190475D02*
X172204819Y-79999999D01*
X172204819Y-79999999D02*
X172157200Y-79904761D01*
X172157200Y-79904761D02*
X172109580Y-79857142D01*
X172109580Y-79857142D02*
X171966723Y-79761904D01*
X171966723Y-79761904D02*
X171776247Y-79714285D01*
X171776247Y-79714285D02*
X171395295Y-79714285D01*
X171395295Y-79714285D02*
X171300057Y-79761904D01*
X171300057Y-79761904D02*
X171252438Y-79809523D01*
X171252438Y-79809523D02*
X171204819Y-79904761D01*
X171204819Y-79904761D02*
X171204819Y-80095237D01*
X171204819Y-80095237D02*
X171252438Y-80190475D01*
X171252438Y-80190475D02*
X171300057Y-80238094D01*
X171300057Y-80238094D02*
X171395295Y-80285713D01*
X171395295Y-80285713D02*
X171633390Y-80285713D01*
X171633390Y-80285713D02*
X171728628Y-80238094D01*
X171728628Y-80238094D02*
X171776247Y-80190475D01*
X171776247Y-80190475D02*
X171823866Y-80095237D01*
X171823866Y-80095237D02*
X171823866Y-79904761D01*
X171823866Y-79904761D02*
X171776247Y-79809523D01*
X171776247Y-79809523D02*
X171728628Y-79761904D01*
X171728628Y-79761904D02*
X171633390Y-79714285D01*
X175383333Y-102859580D02*
X175335714Y-102907200D01*
X175335714Y-102907200D02*
X175192857Y-102954819D01*
X175192857Y-102954819D02*
X175097619Y-102954819D01*
X175097619Y-102954819D02*
X174954762Y-102907200D01*
X174954762Y-102907200D02*
X174859524Y-102811961D01*
X174859524Y-102811961D02*
X174811905Y-102716723D01*
X174811905Y-102716723D02*
X174764286Y-102526247D01*
X174764286Y-102526247D02*
X174764286Y-102383390D01*
X174764286Y-102383390D02*
X174811905Y-102192914D01*
X174811905Y-102192914D02*
X174859524Y-102097676D01*
X174859524Y-102097676D02*
X174954762Y-102002438D01*
X174954762Y-102002438D02*
X175097619Y-101954819D01*
X175097619Y-101954819D02*
X175192857Y-101954819D01*
X175192857Y-101954819D02*
X175335714Y-102002438D01*
X175335714Y-102002438D02*
X175383333Y-102050057D01*
X175954762Y-102383390D02*
X175859524Y-102335771D01*
X175859524Y-102335771D02*
X175811905Y-102288152D01*
X175811905Y-102288152D02*
X175764286Y-102192914D01*
X175764286Y-102192914D02*
X175764286Y-102145295D01*
X175764286Y-102145295D02*
X175811905Y-102050057D01*
X175811905Y-102050057D02*
X175859524Y-102002438D01*
X175859524Y-102002438D02*
X175954762Y-101954819D01*
X175954762Y-101954819D02*
X176145238Y-101954819D01*
X176145238Y-101954819D02*
X176240476Y-102002438D01*
X176240476Y-102002438D02*
X176288095Y-102050057D01*
X176288095Y-102050057D02*
X176335714Y-102145295D01*
X176335714Y-102145295D02*
X176335714Y-102192914D01*
X176335714Y-102192914D02*
X176288095Y-102288152D01*
X176288095Y-102288152D02*
X176240476Y-102335771D01*
X176240476Y-102335771D02*
X176145238Y-102383390D01*
X176145238Y-102383390D02*
X175954762Y-102383390D01*
X175954762Y-102383390D02*
X175859524Y-102431009D01*
X175859524Y-102431009D02*
X175811905Y-102478628D01*
X175811905Y-102478628D02*
X175764286Y-102573866D01*
X175764286Y-102573866D02*
X175764286Y-102764342D01*
X175764286Y-102764342D02*
X175811905Y-102859580D01*
X175811905Y-102859580D02*
X175859524Y-102907200D01*
X175859524Y-102907200D02*
X175954762Y-102954819D01*
X175954762Y-102954819D02*
X176145238Y-102954819D01*
X176145238Y-102954819D02*
X176240476Y-102907200D01*
X176240476Y-102907200D02*
X176288095Y-102859580D01*
X176288095Y-102859580D02*
X176335714Y-102764342D01*
X176335714Y-102764342D02*
X176335714Y-102573866D01*
X176335714Y-102573866D02*
X176288095Y-102478628D01*
X176288095Y-102478628D02*
X176240476Y-102431009D01*
X176240476Y-102431009D02*
X176145238Y-102383390D01*
X150033333Y-93909580D02*
X149985714Y-93957200D01*
X149985714Y-93957200D02*
X149842857Y-94004819D01*
X149842857Y-94004819D02*
X149747619Y-94004819D01*
X149747619Y-94004819D02*
X149604762Y-93957200D01*
X149604762Y-93957200D02*
X149509524Y-93861961D01*
X149509524Y-93861961D02*
X149461905Y-93766723D01*
X149461905Y-93766723D02*
X149414286Y-93576247D01*
X149414286Y-93576247D02*
X149414286Y-93433390D01*
X149414286Y-93433390D02*
X149461905Y-93242914D01*
X149461905Y-93242914D02*
X149509524Y-93147676D01*
X149509524Y-93147676D02*
X149604762Y-93052438D01*
X149604762Y-93052438D02*
X149747619Y-93004819D01*
X149747619Y-93004819D02*
X149842857Y-93004819D01*
X149842857Y-93004819D02*
X149985714Y-93052438D01*
X149985714Y-93052438D02*
X150033333Y-93100057D01*
X150890476Y-93004819D02*
X150700000Y-93004819D01*
X150700000Y-93004819D02*
X150604762Y-93052438D01*
X150604762Y-93052438D02*
X150557143Y-93100057D01*
X150557143Y-93100057D02*
X150461905Y-93242914D01*
X150461905Y-93242914D02*
X150414286Y-93433390D01*
X150414286Y-93433390D02*
X150414286Y-93814342D01*
X150414286Y-93814342D02*
X150461905Y-93909580D01*
X150461905Y-93909580D02*
X150509524Y-93957200D01*
X150509524Y-93957200D02*
X150604762Y-94004819D01*
X150604762Y-94004819D02*
X150795238Y-94004819D01*
X150795238Y-94004819D02*
X150890476Y-93957200D01*
X150890476Y-93957200D02*
X150938095Y-93909580D01*
X150938095Y-93909580D02*
X150985714Y-93814342D01*
X150985714Y-93814342D02*
X150985714Y-93576247D01*
X150985714Y-93576247D02*
X150938095Y-93481009D01*
X150938095Y-93481009D02*
X150890476Y-93433390D01*
X150890476Y-93433390D02*
X150795238Y-93385771D01*
X150795238Y-93385771D02*
X150604762Y-93385771D01*
X150604762Y-93385771D02*
X150509524Y-93433390D01*
X150509524Y-93433390D02*
X150461905Y-93481009D01*
X150461905Y-93481009D02*
X150414286Y-93576247D01*
X183754819Y-91333333D02*
X184469104Y-91333333D01*
X184469104Y-91333333D02*
X184611961Y-91380952D01*
X184611961Y-91380952D02*
X184707200Y-91476190D01*
X184707200Y-91476190D02*
X184754819Y-91619047D01*
X184754819Y-91619047D02*
X184754819Y-91714285D01*
X184088152Y-90428571D02*
X184754819Y-90428571D01*
X183707200Y-90666666D02*
X184421485Y-90904761D01*
X184421485Y-90904761D02*
X184421485Y-90285714D01*
X183704819Y-75333333D02*
X184419104Y-75333333D01*
X184419104Y-75333333D02*
X184561961Y-75380952D01*
X184561961Y-75380952D02*
X184657200Y-75476190D01*
X184657200Y-75476190D02*
X184704819Y-75619047D01*
X184704819Y-75619047D02*
X184704819Y-75714285D01*
X183704819Y-74952380D02*
X183704819Y-74333333D01*
X183704819Y-74333333D02*
X184085771Y-74666666D01*
X184085771Y-74666666D02*
X184085771Y-74523809D01*
X184085771Y-74523809D02*
X184133390Y-74428571D01*
X184133390Y-74428571D02*
X184181009Y-74380952D01*
X184181009Y-74380952D02*
X184276247Y-74333333D01*
X184276247Y-74333333D02*
X184514342Y-74333333D01*
X184514342Y-74333333D02*
X184609580Y-74380952D01*
X184609580Y-74380952D02*
X184657200Y-74428571D01*
X184657200Y-74428571D02*
X184704819Y-74523809D01*
X184704819Y-74523809D02*
X184704819Y-74809523D01*
X184704819Y-74809523D02*
X184657200Y-74904761D01*
X184657200Y-74904761D02*
X184609580Y-74952380D01*
X177481009Y-79333333D02*
X177481009Y-79666666D01*
X178004819Y-79666666D02*
X177004819Y-79666666D01*
X177004819Y-79666666D02*
X177004819Y-79190476D01*
X177481009Y-78476190D02*
X177528628Y-78333333D01*
X177528628Y-78333333D02*
X177576247Y-78285714D01*
X177576247Y-78285714D02*
X177671485Y-78238095D01*
X177671485Y-78238095D02*
X177814342Y-78238095D01*
X177814342Y-78238095D02*
X177909580Y-78285714D01*
X177909580Y-78285714D02*
X177957200Y-78333333D01*
X177957200Y-78333333D02*
X178004819Y-78428571D01*
X178004819Y-78428571D02*
X178004819Y-78809523D01*
X178004819Y-78809523D02*
X177004819Y-78809523D01*
X177004819Y-78809523D02*
X177004819Y-78476190D01*
X177004819Y-78476190D02*
X177052438Y-78380952D01*
X177052438Y-78380952D02*
X177100057Y-78333333D01*
X177100057Y-78333333D02*
X177195295Y-78285714D01*
X177195295Y-78285714D02*
X177290533Y-78285714D01*
X177290533Y-78285714D02*
X177385771Y-78333333D01*
X177385771Y-78333333D02*
X177433390Y-78380952D01*
X177433390Y-78380952D02*
X177481009Y-78476190D01*
X177481009Y-78476190D02*
X177481009Y-78809523D01*
X177100057Y-77857142D02*
X177052438Y-77809523D01*
X177052438Y-77809523D02*
X177004819Y-77714285D01*
X177004819Y-77714285D02*
X177004819Y-77476190D01*
X177004819Y-77476190D02*
X177052438Y-77380952D01*
X177052438Y-77380952D02*
X177100057Y-77333333D01*
X177100057Y-77333333D02*
X177195295Y-77285714D01*
X177195295Y-77285714D02*
X177290533Y-77285714D01*
X177290533Y-77285714D02*
X177433390Y-77333333D01*
X177433390Y-77333333D02*
X178004819Y-77904761D01*
X178004819Y-77904761D02*
X178004819Y-77285714D01*
X174857142Y-86859580D02*
X174809523Y-86907200D01*
X174809523Y-86907200D02*
X174666666Y-86954819D01*
X174666666Y-86954819D02*
X174571428Y-86954819D01*
X174571428Y-86954819D02*
X174428571Y-86907200D01*
X174428571Y-86907200D02*
X174333333Y-86811961D01*
X174333333Y-86811961D02*
X174285714Y-86716723D01*
X174285714Y-86716723D02*
X174238095Y-86526247D01*
X174238095Y-86526247D02*
X174238095Y-86383390D01*
X174238095Y-86383390D02*
X174285714Y-86192914D01*
X174285714Y-86192914D02*
X174333333Y-86097676D01*
X174333333Y-86097676D02*
X174428571Y-86002438D01*
X174428571Y-86002438D02*
X174571428Y-85954819D01*
X174571428Y-85954819D02*
X174666666Y-85954819D01*
X174666666Y-85954819D02*
X174809523Y-86002438D01*
X174809523Y-86002438D02*
X174857142Y-86050057D01*
X175809523Y-86954819D02*
X175238095Y-86954819D01*
X175523809Y-86954819D02*
X175523809Y-85954819D01*
X175523809Y-85954819D02*
X175428571Y-86097676D01*
X175428571Y-86097676D02*
X175333333Y-86192914D01*
X175333333Y-86192914D02*
X175238095Y-86240533D01*
X176190476Y-86050057D02*
X176238095Y-86002438D01*
X176238095Y-86002438D02*
X176333333Y-85954819D01*
X176333333Y-85954819D02*
X176571428Y-85954819D01*
X176571428Y-85954819D02*
X176666666Y-86002438D01*
X176666666Y-86002438D02*
X176714285Y-86050057D01*
X176714285Y-86050057D02*
X176761904Y-86145295D01*
X176761904Y-86145295D02*
X176761904Y-86240533D01*
X176761904Y-86240533D02*
X176714285Y-86383390D01*
X176714285Y-86383390D02*
X176142857Y-86954819D01*
X176142857Y-86954819D02*
X176761904Y-86954819D01*
X154723809Y-66133723D02*
X155104762Y-66133723D01*
X154647619Y-66362295D02*
X154914286Y-65562295D01*
X154914286Y-65562295D02*
X155180952Y-66362295D01*
X155447619Y-66362295D02*
X155447619Y-65828961D01*
X155447619Y-65562295D02*
X155409523Y-65600390D01*
X155409523Y-65600390D02*
X155447619Y-65638485D01*
X155447619Y-65638485D02*
X155485714Y-65600390D01*
X155485714Y-65600390D02*
X155447619Y-65562295D01*
X155447619Y-65562295D02*
X155447619Y-65638485D01*
X155828571Y-66362295D02*
X155828571Y-65828961D01*
X155828571Y-65981342D02*
X155866666Y-65905152D01*
X155866666Y-65905152D02*
X155904761Y-65867057D01*
X155904761Y-65867057D02*
X155980952Y-65828961D01*
X155980952Y-65828961D02*
X156057142Y-65828961D01*
X156209523Y-65828961D02*
X156514285Y-65828961D01*
X156323809Y-66362295D02*
X156323809Y-65676580D01*
X156323809Y-65676580D02*
X156361904Y-65600390D01*
X156361904Y-65600390D02*
X156438094Y-65562295D01*
X156438094Y-65562295D02*
X156514285Y-65562295D01*
X156895237Y-66362295D02*
X156819047Y-66324200D01*
X156819047Y-66324200D02*
X156780952Y-66248009D01*
X156780952Y-66248009D02*
X156780952Y-65562295D01*
X157314285Y-66362295D02*
X157238095Y-66324200D01*
X157238095Y-66324200D02*
X157200000Y-66286104D01*
X157200000Y-66286104D02*
X157161904Y-66209914D01*
X157161904Y-66209914D02*
X157161904Y-65981342D01*
X157161904Y-65981342D02*
X157200000Y-65905152D01*
X157200000Y-65905152D02*
X157238095Y-65867057D01*
X157238095Y-65867057D02*
X157314285Y-65828961D01*
X157314285Y-65828961D02*
X157428571Y-65828961D01*
X157428571Y-65828961D02*
X157504762Y-65867057D01*
X157504762Y-65867057D02*
X157542857Y-65905152D01*
X157542857Y-65905152D02*
X157580952Y-65981342D01*
X157580952Y-65981342D02*
X157580952Y-66209914D01*
X157580952Y-66209914D02*
X157542857Y-66286104D01*
X157542857Y-66286104D02*
X157504762Y-66324200D01*
X157504762Y-66324200D02*
X157428571Y-66362295D01*
X157428571Y-66362295D02*
X157314285Y-66362295D01*
X157847619Y-65828961D02*
X158000000Y-66362295D01*
X158000000Y-66362295D02*
X158152381Y-65981342D01*
X158152381Y-65981342D02*
X158304762Y-66362295D01*
X158304762Y-66362295D02*
X158457143Y-65828961D01*
X158571429Y-66438485D02*
X159180952Y-66438485D01*
X159333333Y-66324200D02*
X159447619Y-66362295D01*
X159447619Y-66362295D02*
X159638095Y-66362295D01*
X159638095Y-66362295D02*
X159714286Y-66324200D01*
X159714286Y-66324200D02*
X159752381Y-66286104D01*
X159752381Y-66286104D02*
X159790476Y-66209914D01*
X159790476Y-66209914D02*
X159790476Y-66133723D01*
X159790476Y-66133723D02*
X159752381Y-66057533D01*
X159752381Y-66057533D02*
X159714286Y-66019438D01*
X159714286Y-66019438D02*
X159638095Y-65981342D01*
X159638095Y-65981342D02*
X159485714Y-65943247D01*
X159485714Y-65943247D02*
X159409524Y-65905152D01*
X159409524Y-65905152D02*
X159371429Y-65867057D01*
X159371429Y-65867057D02*
X159333333Y-65790866D01*
X159333333Y-65790866D02*
X159333333Y-65714676D01*
X159333333Y-65714676D02*
X159371429Y-65638485D01*
X159371429Y-65638485D02*
X159409524Y-65600390D01*
X159409524Y-65600390D02*
X159485714Y-65562295D01*
X159485714Y-65562295D02*
X159676191Y-65562295D01*
X159676191Y-65562295D02*
X159790476Y-65600390D01*
X160133334Y-66362295D02*
X160133334Y-65562295D01*
X160133334Y-65562295D02*
X160323810Y-65562295D01*
X160323810Y-65562295D02*
X160438096Y-65600390D01*
X160438096Y-65600390D02*
X160514286Y-65676580D01*
X160514286Y-65676580D02*
X160552381Y-65752771D01*
X160552381Y-65752771D02*
X160590477Y-65905152D01*
X160590477Y-65905152D02*
X160590477Y-66019438D01*
X160590477Y-66019438D02*
X160552381Y-66171819D01*
X160552381Y-66171819D02*
X160514286Y-66248009D01*
X160514286Y-66248009D02*
X160438096Y-66324200D01*
X160438096Y-66324200D02*
X160323810Y-66362295D01*
X160323810Y-66362295D02*
X160133334Y-66362295D01*
X160895238Y-66133723D02*
X161276191Y-66133723D01*
X160819048Y-66362295D02*
X161085715Y-65562295D01*
X161085715Y-65562295D02*
X161352381Y-66362295D01*
D11*
X166076667Y-84204318D02*
X166076667Y-85111461D01*
X166076667Y-85111461D02*
X166016190Y-85292889D01*
X166016190Y-85292889D02*
X165895238Y-85413842D01*
X165895238Y-85413842D02*
X165713809Y-85474318D01*
X165713809Y-85474318D02*
X165592857Y-85474318D01*
X167346667Y-85474318D02*
X166620952Y-85474318D01*
X166983809Y-85474318D02*
X166983809Y-84204318D01*
X166983809Y-84204318D02*
X166862857Y-84385746D01*
X166862857Y-84385746D02*
X166741905Y-84506699D01*
X166741905Y-84506699D02*
X166620952Y-84567175D01*
D10*
X174857142Y-70859580D02*
X174809523Y-70907200D01*
X174809523Y-70907200D02*
X174666666Y-70954819D01*
X174666666Y-70954819D02*
X174571428Y-70954819D01*
X174571428Y-70954819D02*
X174428571Y-70907200D01*
X174428571Y-70907200D02*
X174333333Y-70811961D01*
X174333333Y-70811961D02*
X174285714Y-70716723D01*
X174285714Y-70716723D02*
X174238095Y-70526247D01*
X174238095Y-70526247D02*
X174238095Y-70383390D01*
X174238095Y-70383390D02*
X174285714Y-70192914D01*
X174285714Y-70192914D02*
X174333333Y-70097676D01*
X174333333Y-70097676D02*
X174428571Y-70002438D01*
X174428571Y-70002438D02*
X174571428Y-69954819D01*
X174571428Y-69954819D02*
X174666666Y-69954819D01*
X174666666Y-69954819D02*
X174809523Y-70002438D01*
X174809523Y-70002438D02*
X174857142Y-70050057D01*
X175809523Y-70954819D02*
X175238095Y-70954819D01*
X175523809Y-70954819D02*
X175523809Y-69954819D01*
X175523809Y-69954819D02*
X175428571Y-70097676D01*
X175428571Y-70097676D02*
X175333333Y-70192914D01*
X175333333Y-70192914D02*
X175238095Y-70240533D01*
X176428571Y-69954819D02*
X176523809Y-69954819D01*
X176523809Y-69954819D02*
X176619047Y-70002438D01*
X176619047Y-70002438D02*
X176666666Y-70050057D01*
X176666666Y-70050057D02*
X176714285Y-70145295D01*
X176714285Y-70145295D02*
X176761904Y-70335771D01*
X176761904Y-70335771D02*
X176761904Y-70573866D01*
X176761904Y-70573866D02*
X176714285Y-70764342D01*
X176714285Y-70764342D02*
X176666666Y-70859580D01*
X176666666Y-70859580D02*
X176619047Y-70907200D01*
X176619047Y-70907200D02*
X176523809Y-70954819D01*
X176523809Y-70954819D02*
X176428571Y-70954819D01*
X176428571Y-70954819D02*
X176333333Y-70907200D01*
X176333333Y-70907200D02*
X176285714Y-70859580D01*
X176285714Y-70859580D02*
X176238095Y-70764342D01*
X176238095Y-70764342D02*
X176190476Y-70573866D01*
X176190476Y-70573866D02*
X176190476Y-70335771D01*
X176190476Y-70335771D02*
X176238095Y-70145295D01*
X176238095Y-70145295D02*
X176285714Y-70050057D01*
X176285714Y-70050057D02*
X176333333Y-70002438D01*
X176333333Y-70002438D02*
X176428571Y-69954819D01*
X173807142Y-98859580D02*
X173759523Y-98907200D01*
X173759523Y-98907200D02*
X173616666Y-98954819D01*
X173616666Y-98954819D02*
X173521428Y-98954819D01*
X173521428Y-98954819D02*
X173378571Y-98907200D01*
X173378571Y-98907200D02*
X173283333Y-98811961D01*
X173283333Y-98811961D02*
X173235714Y-98716723D01*
X173235714Y-98716723D02*
X173188095Y-98526247D01*
X173188095Y-98526247D02*
X173188095Y-98383390D01*
X173188095Y-98383390D02*
X173235714Y-98192914D01*
X173235714Y-98192914D02*
X173283333Y-98097676D01*
X173283333Y-98097676D02*
X173378571Y-98002438D01*
X173378571Y-98002438D02*
X173521428Y-97954819D01*
X173521428Y-97954819D02*
X173616666Y-97954819D01*
X173616666Y-97954819D02*
X173759523Y-98002438D01*
X173759523Y-98002438D02*
X173807142Y-98050057D01*
X174759523Y-98954819D02*
X174188095Y-98954819D01*
X174473809Y-98954819D02*
X174473809Y-97954819D01*
X174473809Y-97954819D02*
X174378571Y-98097676D01*
X174378571Y-98097676D02*
X174283333Y-98192914D01*
X174283333Y-98192914D02*
X174188095Y-98240533D01*
X175711904Y-98954819D02*
X175140476Y-98954819D01*
X175426190Y-98954819D02*
X175426190Y-97954819D01*
X175426190Y-97954819D02*
X175330952Y-98097676D01*
X175330952Y-98097676D02*
X175235714Y-98192914D01*
X175235714Y-98192914D02*
X175140476Y-98240533D01*
X152233333Y-93909580D02*
X152185714Y-93957200D01*
X152185714Y-93957200D02*
X152042857Y-94004819D01*
X152042857Y-94004819D02*
X151947619Y-94004819D01*
X151947619Y-94004819D02*
X151804762Y-93957200D01*
X151804762Y-93957200D02*
X151709524Y-93861961D01*
X151709524Y-93861961D02*
X151661905Y-93766723D01*
X151661905Y-93766723D02*
X151614286Y-93576247D01*
X151614286Y-93576247D02*
X151614286Y-93433390D01*
X151614286Y-93433390D02*
X151661905Y-93242914D01*
X151661905Y-93242914D02*
X151709524Y-93147676D01*
X151709524Y-93147676D02*
X151804762Y-93052438D01*
X151804762Y-93052438D02*
X151947619Y-93004819D01*
X151947619Y-93004819D02*
X152042857Y-93004819D01*
X152042857Y-93004819D02*
X152185714Y-93052438D01*
X152185714Y-93052438D02*
X152233333Y-93100057D01*
X153138095Y-93004819D02*
X152661905Y-93004819D01*
X152661905Y-93004819D02*
X152614286Y-93481009D01*
X152614286Y-93481009D02*
X152661905Y-93433390D01*
X152661905Y-93433390D02*
X152757143Y-93385771D01*
X152757143Y-93385771D02*
X152995238Y-93385771D01*
X152995238Y-93385771D02*
X153090476Y-93433390D01*
X153090476Y-93433390D02*
X153138095Y-93481009D01*
X153138095Y-93481009D02*
X153185714Y-93576247D01*
X153185714Y-93576247D02*
X153185714Y-93814342D01*
X153185714Y-93814342D02*
X153138095Y-93909580D01*
X153138095Y-93909580D02*
X153090476Y-93957200D01*
X153090476Y-93957200D02*
X152995238Y-94004819D01*
X152995238Y-94004819D02*
X152757143Y-94004819D01*
X152757143Y-94004819D02*
X152661905Y-93957200D01*
X152661905Y-93957200D02*
X152614286Y-93909580D01*
X159866642Y-61362295D02*
X160323785Y-61362295D01*
X160095213Y-62162295D02*
X160095213Y-61362295D01*
X160895214Y-62124200D02*
X160819023Y-62162295D01*
X160819023Y-62162295D02*
X160666642Y-62162295D01*
X160666642Y-62162295D02*
X160590452Y-62124200D01*
X160590452Y-62124200D02*
X160552356Y-62048009D01*
X160552356Y-62048009D02*
X160552356Y-61743247D01*
X160552356Y-61743247D02*
X160590452Y-61667057D01*
X160590452Y-61667057D02*
X160666642Y-61628961D01*
X160666642Y-61628961D02*
X160819023Y-61628961D01*
X160819023Y-61628961D02*
X160895214Y-61667057D01*
X160895214Y-61667057D02*
X160933309Y-61743247D01*
X160933309Y-61743247D02*
X160933309Y-61819438D01*
X160933309Y-61819438D02*
X160552356Y-61895628D01*
X161276166Y-62162295D02*
X161276166Y-61628961D01*
X161276166Y-61705152D02*
X161314261Y-61667057D01*
X161314261Y-61667057D02*
X161390451Y-61628961D01*
X161390451Y-61628961D02*
X161504737Y-61628961D01*
X161504737Y-61628961D02*
X161580928Y-61667057D01*
X161580928Y-61667057D02*
X161619023Y-61743247D01*
X161619023Y-61743247D02*
X161619023Y-62162295D01*
X161619023Y-61743247D02*
X161657118Y-61667057D01*
X161657118Y-61667057D02*
X161733309Y-61628961D01*
X161733309Y-61628961D02*
X161847594Y-61628961D01*
X161847594Y-61628961D02*
X161923785Y-61667057D01*
X161923785Y-61667057D02*
X161961880Y-61743247D01*
X161961880Y-61743247D02*
X161961880Y-62162295D01*
X162342833Y-61628961D02*
X162342833Y-62428961D01*
X162342833Y-61667057D02*
X162419023Y-61628961D01*
X162419023Y-61628961D02*
X162571404Y-61628961D01*
X162571404Y-61628961D02*
X162647595Y-61667057D01*
X162647595Y-61667057D02*
X162685690Y-61705152D01*
X162685690Y-61705152D02*
X162723785Y-61781342D01*
X162723785Y-61781342D02*
X162723785Y-62009914D01*
X162723785Y-62009914D02*
X162685690Y-62086104D01*
X162685690Y-62086104D02*
X162647595Y-62124200D01*
X162647595Y-62124200D02*
X162571404Y-62162295D01*
X162571404Y-62162295D02*
X162419023Y-62162295D01*
X162419023Y-62162295D02*
X162342833Y-62124200D01*
X163485690Y-62162295D02*
X163028547Y-62162295D01*
X163257119Y-62162295D02*
X163257119Y-61362295D01*
X163257119Y-61362295D02*
X163180928Y-61476580D01*
X163180928Y-61476580D02*
X163104738Y-61552771D01*
X163104738Y-61552771D02*
X163028547Y-61590866D01*
X171804819Y-76866666D02*
X171328628Y-77199999D01*
X171804819Y-77438094D02*
X170804819Y-77438094D01*
X170804819Y-77438094D02*
X170804819Y-77057142D01*
X170804819Y-77057142D02*
X170852438Y-76961904D01*
X170852438Y-76961904D02*
X170900057Y-76914285D01*
X170900057Y-76914285D02*
X170995295Y-76866666D01*
X170995295Y-76866666D02*
X171138152Y-76866666D01*
X171138152Y-76866666D02*
X171233390Y-76914285D01*
X171233390Y-76914285D02*
X171281009Y-76961904D01*
X171281009Y-76961904D02*
X171328628Y-77057142D01*
X171328628Y-77057142D02*
X171328628Y-77438094D01*
X170804819Y-76533332D02*
X170804819Y-75914285D01*
X170804819Y-75914285D02*
X171185771Y-76247618D01*
X171185771Y-76247618D02*
X171185771Y-76104761D01*
X171185771Y-76104761D02*
X171233390Y-76009523D01*
X171233390Y-76009523D02*
X171281009Y-75961904D01*
X171281009Y-75961904D02*
X171376247Y-75914285D01*
X171376247Y-75914285D02*
X171614342Y-75914285D01*
X171614342Y-75914285D02*
X171709580Y-75961904D01*
X171709580Y-75961904D02*
X171757200Y-76009523D01*
X171757200Y-76009523D02*
X171804819Y-76104761D01*
X171804819Y-76104761D02*
X171804819Y-76390475D01*
X171804819Y-76390475D02*
X171757200Y-76485713D01*
X171757200Y-76485713D02*
X171709580Y-76533332D01*
X166664284Y-61362295D02*
X167121427Y-61362295D01*
X166892855Y-62162295D02*
X166892855Y-61362295D01*
X167692856Y-62124200D02*
X167616665Y-62162295D01*
X167616665Y-62162295D02*
X167464284Y-62162295D01*
X167464284Y-62162295D02*
X167388094Y-62124200D01*
X167388094Y-62124200D02*
X167349998Y-62048009D01*
X167349998Y-62048009D02*
X167349998Y-61743247D01*
X167349998Y-61743247D02*
X167388094Y-61667057D01*
X167388094Y-61667057D02*
X167464284Y-61628961D01*
X167464284Y-61628961D02*
X167616665Y-61628961D01*
X167616665Y-61628961D02*
X167692856Y-61667057D01*
X167692856Y-61667057D02*
X167730951Y-61743247D01*
X167730951Y-61743247D02*
X167730951Y-61819438D01*
X167730951Y-61819438D02*
X167349998Y-61895628D01*
X168073808Y-62162295D02*
X168073808Y-61628961D01*
X168073808Y-61705152D02*
X168111903Y-61667057D01*
X168111903Y-61667057D02*
X168188093Y-61628961D01*
X168188093Y-61628961D02*
X168302379Y-61628961D01*
X168302379Y-61628961D02*
X168378570Y-61667057D01*
X168378570Y-61667057D02*
X168416665Y-61743247D01*
X168416665Y-61743247D02*
X168416665Y-62162295D01*
X168416665Y-61743247D02*
X168454760Y-61667057D01*
X168454760Y-61667057D02*
X168530951Y-61628961D01*
X168530951Y-61628961D02*
X168645236Y-61628961D01*
X168645236Y-61628961D02*
X168721427Y-61667057D01*
X168721427Y-61667057D02*
X168759522Y-61743247D01*
X168759522Y-61743247D02*
X168759522Y-62162295D01*
X169140475Y-61628961D02*
X169140475Y-62428961D01*
X169140475Y-61667057D02*
X169216665Y-61628961D01*
X169216665Y-61628961D02*
X169369046Y-61628961D01*
X169369046Y-61628961D02*
X169445237Y-61667057D01*
X169445237Y-61667057D02*
X169483332Y-61705152D01*
X169483332Y-61705152D02*
X169521427Y-61781342D01*
X169521427Y-61781342D02*
X169521427Y-62009914D01*
X169521427Y-62009914D02*
X169483332Y-62086104D01*
X169483332Y-62086104D02*
X169445237Y-62124200D01*
X169445237Y-62124200D02*
X169369046Y-62162295D01*
X169369046Y-62162295D02*
X169216665Y-62162295D01*
X169216665Y-62162295D02*
X169140475Y-62124200D01*
X169788094Y-61362295D02*
X170283332Y-61362295D01*
X170283332Y-61362295D02*
X170016666Y-61667057D01*
X170016666Y-61667057D02*
X170130951Y-61667057D01*
X170130951Y-61667057D02*
X170207142Y-61705152D01*
X170207142Y-61705152D02*
X170245237Y-61743247D01*
X170245237Y-61743247D02*
X170283332Y-61819438D01*
X170283332Y-61819438D02*
X170283332Y-62009914D01*
X170283332Y-62009914D02*
X170245237Y-62086104D01*
X170245237Y-62086104D02*
X170207142Y-62124200D01*
X170207142Y-62124200D02*
X170130951Y-62162295D01*
X170130951Y-62162295D02*
X169902380Y-62162295D01*
X169902380Y-62162295D02*
X169826189Y-62124200D01*
X169826189Y-62124200D02*
X169788094Y-62086104D01*
X150033333Y-84509580D02*
X149985714Y-84557200D01*
X149985714Y-84557200D02*
X149842857Y-84604819D01*
X149842857Y-84604819D02*
X149747619Y-84604819D01*
X149747619Y-84604819D02*
X149604762Y-84557200D01*
X149604762Y-84557200D02*
X149509524Y-84461961D01*
X149509524Y-84461961D02*
X149461905Y-84366723D01*
X149461905Y-84366723D02*
X149414286Y-84176247D01*
X149414286Y-84176247D02*
X149414286Y-84033390D01*
X149414286Y-84033390D02*
X149461905Y-83842914D01*
X149461905Y-83842914D02*
X149509524Y-83747676D01*
X149509524Y-83747676D02*
X149604762Y-83652438D01*
X149604762Y-83652438D02*
X149747619Y-83604819D01*
X149747619Y-83604819D02*
X149842857Y-83604819D01*
X149842857Y-83604819D02*
X149985714Y-83652438D01*
X149985714Y-83652438D02*
X150033333Y-83700057D01*
X150890476Y-83938152D02*
X150890476Y-84604819D01*
X150652381Y-83557200D02*
X150414286Y-84271485D01*
X150414286Y-84271485D02*
X151033333Y-84271485D01*
X152183333Y-84509580D02*
X152135714Y-84557200D01*
X152135714Y-84557200D02*
X151992857Y-84604819D01*
X151992857Y-84604819D02*
X151897619Y-84604819D01*
X151897619Y-84604819D02*
X151754762Y-84557200D01*
X151754762Y-84557200D02*
X151659524Y-84461961D01*
X151659524Y-84461961D02*
X151611905Y-84366723D01*
X151611905Y-84366723D02*
X151564286Y-84176247D01*
X151564286Y-84176247D02*
X151564286Y-84033390D01*
X151564286Y-84033390D02*
X151611905Y-83842914D01*
X151611905Y-83842914D02*
X151659524Y-83747676D01*
X151659524Y-83747676D02*
X151754762Y-83652438D01*
X151754762Y-83652438D02*
X151897619Y-83604819D01*
X151897619Y-83604819D02*
X151992857Y-83604819D01*
X151992857Y-83604819D02*
X152135714Y-83652438D01*
X152135714Y-83652438D02*
X152183333Y-83700057D01*
X152516667Y-83604819D02*
X153135714Y-83604819D01*
X153135714Y-83604819D02*
X152802381Y-83985771D01*
X152802381Y-83985771D02*
X152945238Y-83985771D01*
X152945238Y-83985771D02*
X153040476Y-84033390D01*
X153040476Y-84033390D02*
X153088095Y-84081009D01*
X153088095Y-84081009D02*
X153135714Y-84176247D01*
X153135714Y-84176247D02*
X153135714Y-84414342D01*
X153135714Y-84414342D02*
X153088095Y-84509580D01*
X153088095Y-84509580D02*
X153040476Y-84557200D01*
X153040476Y-84557200D02*
X152945238Y-84604819D01*
X152945238Y-84604819D02*
X152659524Y-84604819D01*
X152659524Y-84604819D02*
X152564286Y-84557200D01*
X152564286Y-84557200D02*
X152516667Y-84509580D01*
X177128571Y-63562295D02*
X177623809Y-63562295D01*
X177623809Y-63562295D02*
X177357143Y-63867057D01*
X177357143Y-63867057D02*
X177471428Y-63867057D01*
X177471428Y-63867057D02*
X177547619Y-63905152D01*
X177547619Y-63905152D02*
X177585714Y-63943247D01*
X177585714Y-63943247D02*
X177623809Y-64019438D01*
X177623809Y-64019438D02*
X177623809Y-64209914D01*
X177623809Y-64209914D02*
X177585714Y-64286104D01*
X177585714Y-64286104D02*
X177547619Y-64324200D01*
X177547619Y-64324200D02*
X177471428Y-64362295D01*
X177471428Y-64362295D02*
X177242857Y-64362295D01*
X177242857Y-64362295D02*
X177166666Y-64324200D01*
X177166666Y-64324200D02*
X177128571Y-64286104D01*
X177966667Y-64286104D02*
X178004762Y-64324200D01*
X178004762Y-64324200D02*
X177966667Y-64362295D01*
X177966667Y-64362295D02*
X177928571Y-64324200D01*
X177928571Y-64324200D02*
X177966667Y-64286104D01*
X177966667Y-64286104D02*
X177966667Y-64362295D01*
X178271428Y-63562295D02*
X178766666Y-63562295D01*
X178766666Y-63562295D02*
X178500000Y-63867057D01*
X178500000Y-63867057D02*
X178614285Y-63867057D01*
X178614285Y-63867057D02*
X178690476Y-63905152D01*
X178690476Y-63905152D02*
X178728571Y-63943247D01*
X178728571Y-63943247D02*
X178766666Y-64019438D01*
X178766666Y-64019438D02*
X178766666Y-64209914D01*
X178766666Y-64209914D02*
X178728571Y-64286104D01*
X178728571Y-64286104D02*
X178690476Y-64324200D01*
X178690476Y-64324200D02*
X178614285Y-64362295D01*
X178614285Y-64362295D02*
X178385714Y-64362295D01*
X178385714Y-64362295D02*
X178309523Y-64324200D01*
X178309523Y-64324200D02*
X178271428Y-64286104D01*
X178995238Y-63562295D02*
X179261905Y-64362295D01*
X179261905Y-64362295D02*
X179528571Y-63562295D01*
X179604762Y-64438485D02*
X180214285Y-64438485D01*
X180290476Y-63562295D02*
X180747619Y-63562295D01*
X180519047Y-64362295D02*
X180519047Y-63562295D01*
X181014286Y-64362295D02*
X181014286Y-63562295D01*
X181014286Y-63562295D02*
X181319048Y-63562295D01*
X181319048Y-63562295D02*
X181395238Y-63600390D01*
X181395238Y-63600390D02*
X181433333Y-63638485D01*
X181433333Y-63638485D02*
X181471429Y-63714676D01*
X181471429Y-63714676D02*
X181471429Y-63828961D01*
X181471429Y-63828961D02*
X181433333Y-63905152D01*
X181433333Y-63905152D02*
X181395238Y-63943247D01*
X181395238Y-63943247D02*
X181319048Y-63981342D01*
X181319048Y-63981342D02*
X181014286Y-63981342D01*
X182233333Y-64362295D02*
X181776190Y-64362295D01*
X182004762Y-64362295D02*
X182004762Y-63562295D01*
X182004762Y-63562295D02*
X181928571Y-63676580D01*
X181928571Y-63676580D02*
X181852381Y-63752771D01*
X181852381Y-63752771D02*
X181776190Y-63790866D01*
X169833333Y-112359580D02*
X169785714Y-112407200D01*
X169785714Y-112407200D02*
X169642857Y-112454819D01*
X169642857Y-112454819D02*
X169547619Y-112454819D01*
X169547619Y-112454819D02*
X169404762Y-112407200D01*
X169404762Y-112407200D02*
X169309524Y-112311961D01*
X169309524Y-112311961D02*
X169261905Y-112216723D01*
X169261905Y-112216723D02*
X169214286Y-112026247D01*
X169214286Y-112026247D02*
X169214286Y-111883390D01*
X169214286Y-111883390D02*
X169261905Y-111692914D01*
X169261905Y-111692914D02*
X169309524Y-111597676D01*
X169309524Y-111597676D02*
X169404762Y-111502438D01*
X169404762Y-111502438D02*
X169547619Y-111454819D01*
X169547619Y-111454819D02*
X169642857Y-111454819D01*
X169642857Y-111454819D02*
X169785714Y-111502438D01*
X169785714Y-111502438D02*
X169833333Y-111550057D01*
X170166667Y-111454819D02*
X170833333Y-111454819D01*
X170833333Y-111454819D02*
X170404762Y-112454819D01*
X158738096Y-103254518D02*
X158738096Y-104064041D01*
X158738096Y-104064041D02*
X158785715Y-104159279D01*
X158785715Y-104159279D02*
X158833334Y-104206899D01*
X158833334Y-104206899D02*
X158928572Y-104254518D01*
X158928572Y-104254518D02*
X159119048Y-104254518D01*
X159119048Y-104254518D02*
X159214286Y-104206899D01*
X159214286Y-104206899D02*
X159261905Y-104159279D01*
X159261905Y-104159279D02*
X159309524Y-104064041D01*
X159309524Y-104064041D02*
X159309524Y-103254518D01*
X160309524Y-104254518D02*
X159738096Y-104254518D01*
X160023810Y-104254518D02*
X160023810Y-103254518D01*
X160023810Y-103254518D02*
X159928572Y-103397375D01*
X159928572Y-103397375D02*
X159833334Y-103492613D01*
X159833334Y-103492613D02*
X159738096Y-103540232D01*
X157100000Y-102154819D02*
X157100000Y-102392914D01*
X156861905Y-102297676D02*
X157100000Y-102392914D01*
X157100000Y-102392914D02*
X157338095Y-102297676D01*
X156957143Y-102583390D02*
X157100000Y-102392914D01*
X157100000Y-102392914D02*
X157242857Y-102583390D01*
X172833333Y-112454819D02*
X172500000Y-111978628D01*
X172261905Y-112454819D02*
X172261905Y-111454819D01*
X172261905Y-111454819D02*
X172642857Y-111454819D01*
X172642857Y-111454819D02*
X172738095Y-111502438D01*
X172738095Y-111502438D02*
X172785714Y-111550057D01*
X172785714Y-111550057D02*
X172833333Y-111645295D01*
X172833333Y-111645295D02*
X172833333Y-111788152D01*
X172833333Y-111788152D02*
X172785714Y-111883390D01*
X172785714Y-111883390D02*
X172738095Y-111931009D01*
X172738095Y-111931009D02*
X172642857Y-111978628D01*
X172642857Y-111978628D02*
X172261905Y-111978628D01*
X173214286Y-111550057D02*
X173261905Y-111502438D01*
X173261905Y-111502438D02*
X173357143Y-111454819D01*
X173357143Y-111454819D02*
X173595238Y-111454819D01*
X173595238Y-111454819D02*
X173690476Y-111502438D01*
X173690476Y-111502438D02*
X173738095Y-111550057D01*
X173738095Y-111550057D02*
X173785714Y-111645295D01*
X173785714Y-111645295D02*
X173785714Y-111740533D01*
X173785714Y-111740533D02*
X173738095Y-111883390D01*
X173738095Y-111883390D02*
X173166667Y-112454819D01*
X173166667Y-112454819D02*
X173785714Y-112454819D01*
X157254819Y-99266666D02*
X156778628Y-99599999D01*
X157254819Y-99838094D02*
X156254819Y-99838094D01*
X156254819Y-99838094D02*
X156254819Y-99457142D01*
X156254819Y-99457142D02*
X156302438Y-99361904D01*
X156302438Y-99361904D02*
X156350057Y-99314285D01*
X156350057Y-99314285D02*
X156445295Y-99266666D01*
X156445295Y-99266666D02*
X156588152Y-99266666D01*
X156588152Y-99266666D02*
X156683390Y-99314285D01*
X156683390Y-99314285D02*
X156731009Y-99361904D01*
X156731009Y-99361904D02*
X156778628Y-99457142D01*
X156778628Y-99457142D02*
X156778628Y-99838094D01*
X157254819Y-98314285D02*
X157254819Y-98885713D01*
X157254819Y-98599999D02*
X156254819Y-98599999D01*
X156254819Y-98599999D02*
X156397676Y-98695237D01*
X156397676Y-98695237D02*
X156492914Y-98790475D01*
X156492914Y-98790475D02*
X156540533Y-98885713D01*
X172954819Y-92666666D02*
X172478628Y-92999999D01*
X172954819Y-93238094D02*
X171954819Y-93238094D01*
X171954819Y-93238094D02*
X171954819Y-92857142D01*
X171954819Y-92857142D02*
X172002438Y-92761904D01*
X172002438Y-92761904D02*
X172050057Y-92714285D01*
X172050057Y-92714285D02*
X172145295Y-92666666D01*
X172145295Y-92666666D02*
X172288152Y-92666666D01*
X172288152Y-92666666D02*
X172383390Y-92714285D01*
X172383390Y-92714285D02*
X172431009Y-92761904D01*
X172431009Y-92761904D02*
X172478628Y-92857142D01*
X172478628Y-92857142D02*
X172478628Y-93238094D01*
X172288152Y-91809523D02*
X172954819Y-91809523D01*
X171907200Y-92047618D02*
X172621485Y-92285713D01*
X172621485Y-92285713D02*
X172621485Y-91666666D01*
X177539328Y-96833333D02*
X177539328Y-97166666D01*
X178063138Y-97166666D02*
X177063138Y-97166666D01*
X177063138Y-97166666D02*
X177063138Y-96690476D01*
X177539328Y-95976190D02*
X177586947Y-95833333D01*
X177586947Y-95833333D02*
X177634566Y-95785714D01*
X177634566Y-95785714D02*
X177729804Y-95738095D01*
X177729804Y-95738095D02*
X177872661Y-95738095D01*
X177872661Y-95738095D02*
X177967899Y-95785714D01*
X177967899Y-95785714D02*
X178015519Y-95833333D01*
X178015519Y-95833333D02*
X178063138Y-95928571D01*
X178063138Y-95928571D02*
X178063138Y-96309523D01*
X178063138Y-96309523D02*
X177063138Y-96309523D01*
X177063138Y-96309523D02*
X177063138Y-95976190D01*
X177063138Y-95976190D02*
X177110757Y-95880952D01*
X177110757Y-95880952D02*
X177158376Y-95833333D01*
X177158376Y-95833333D02*
X177253614Y-95785714D01*
X177253614Y-95785714D02*
X177348852Y-95785714D01*
X177348852Y-95785714D02*
X177444090Y-95833333D01*
X177444090Y-95833333D02*
X177491709Y-95880952D01*
X177491709Y-95880952D02*
X177539328Y-95976190D01*
X177539328Y-95976190D02*
X177539328Y-96309523D01*
X177063138Y-95404761D02*
X177063138Y-94785714D01*
X177063138Y-94785714D02*
X177444090Y-95119047D01*
X177444090Y-95119047D02*
X177444090Y-94976190D01*
X177444090Y-94976190D02*
X177491709Y-94880952D01*
X177491709Y-94880952D02*
X177539328Y-94833333D01*
X177539328Y-94833333D02*
X177634566Y-94785714D01*
X177634566Y-94785714D02*
X177872661Y-94785714D01*
X177872661Y-94785714D02*
X177967899Y-94833333D01*
X177967899Y-94833333D02*
X178015519Y-94880952D01*
X178015519Y-94880952D02*
X178063138Y-94976190D01*
X178063138Y-94976190D02*
X178063138Y-95261904D01*
X178063138Y-95261904D02*
X178015519Y-95357142D01*
X178015519Y-95357142D02*
X177967899Y-95404761D01*
X161583333Y-109559580D02*
X161535714Y-109607200D01*
X161535714Y-109607200D02*
X161392857Y-109654819D01*
X161392857Y-109654819D02*
X161297619Y-109654819D01*
X161297619Y-109654819D02*
X161154762Y-109607200D01*
X161154762Y-109607200D02*
X161059524Y-109511961D01*
X161059524Y-109511961D02*
X161011905Y-109416723D01*
X161011905Y-109416723D02*
X160964286Y-109226247D01*
X160964286Y-109226247D02*
X160964286Y-109083390D01*
X160964286Y-109083390D02*
X161011905Y-108892914D01*
X161011905Y-108892914D02*
X161059524Y-108797676D01*
X161059524Y-108797676D02*
X161154762Y-108702438D01*
X161154762Y-108702438D02*
X161297619Y-108654819D01*
X161297619Y-108654819D02*
X161392857Y-108654819D01*
X161392857Y-108654819D02*
X161535714Y-108702438D01*
X161535714Y-108702438D02*
X161583333Y-108750057D01*
X161964286Y-108750057D02*
X162011905Y-108702438D01*
X162011905Y-108702438D02*
X162107143Y-108654819D01*
X162107143Y-108654819D02*
X162345238Y-108654819D01*
X162345238Y-108654819D02*
X162440476Y-108702438D01*
X162440476Y-108702438D02*
X162488095Y-108750057D01*
X162488095Y-108750057D02*
X162535714Y-108845295D01*
X162535714Y-108845295D02*
X162535714Y-108940533D01*
X162535714Y-108940533D02*
X162488095Y-109083390D01*
X162488095Y-109083390D02*
X161916667Y-109654819D01*
X161916667Y-109654819D02*
X162535714Y-109654819D01*
X161742856Y-66133723D02*
X162123809Y-66133723D01*
X161666666Y-66362295D02*
X161933333Y-65562295D01*
X161933333Y-65562295D02*
X162199999Y-66362295D01*
X162466666Y-66362295D02*
X162466666Y-65828961D01*
X162466666Y-65562295D02*
X162428570Y-65600390D01*
X162428570Y-65600390D02*
X162466666Y-65638485D01*
X162466666Y-65638485D02*
X162504761Y-65600390D01*
X162504761Y-65600390D02*
X162466666Y-65562295D01*
X162466666Y-65562295D02*
X162466666Y-65638485D01*
X162847618Y-66362295D02*
X162847618Y-65828961D01*
X162847618Y-65981342D02*
X162885713Y-65905152D01*
X162885713Y-65905152D02*
X162923808Y-65867057D01*
X162923808Y-65867057D02*
X162999999Y-65828961D01*
X162999999Y-65828961D02*
X163076189Y-65828961D01*
X163228570Y-65828961D02*
X163533332Y-65828961D01*
X163342856Y-66362295D02*
X163342856Y-65676580D01*
X163342856Y-65676580D02*
X163380951Y-65600390D01*
X163380951Y-65600390D02*
X163457141Y-65562295D01*
X163457141Y-65562295D02*
X163533332Y-65562295D01*
X163914284Y-66362295D02*
X163838094Y-66324200D01*
X163838094Y-66324200D02*
X163799999Y-66248009D01*
X163799999Y-66248009D02*
X163799999Y-65562295D01*
X164333332Y-66362295D02*
X164257142Y-66324200D01*
X164257142Y-66324200D02*
X164219047Y-66286104D01*
X164219047Y-66286104D02*
X164180951Y-66209914D01*
X164180951Y-66209914D02*
X164180951Y-65981342D01*
X164180951Y-65981342D02*
X164219047Y-65905152D01*
X164219047Y-65905152D02*
X164257142Y-65867057D01*
X164257142Y-65867057D02*
X164333332Y-65828961D01*
X164333332Y-65828961D02*
X164447618Y-65828961D01*
X164447618Y-65828961D02*
X164523809Y-65867057D01*
X164523809Y-65867057D02*
X164561904Y-65905152D01*
X164561904Y-65905152D02*
X164599999Y-65981342D01*
X164599999Y-65981342D02*
X164599999Y-66209914D01*
X164599999Y-66209914D02*
X164561904Y-66286104D01*
X164561904Y-66286104D02*
X164523809Y-66324200D01*
X164523809Y-66324200D02*
X164447618Y-66362295D01*
X164447618Y-66362295D02*
X164333332Y-66362295D01*
X164866666Y-65828961D02*
X165019047Y-66362295D01*
X165019047Y-66362295D02*
X165171428Y-65981342D01*
X165171428Y-65981342D02*
X165323809Y-66362295D01*
X165323809Y-66362295D02*
X165476190Y-65828961D01*
X165590476Y-66438485D02*
X166199999Y-66438485D01*
X166352380Y-66324200D02*
X166466666Y-66362295D01*
X166466666Y-66362295D02*
X166657142Y-66362295D01*
X166657142Y-66362295D02*
X166733333Y-66324200D01*
X166733333Y-66324200D02*
X166771428Y-66286104D01*
X166771428Y-66286104D02*
X166809523Y-66209914D01*
X166809523Y-66209914D02*
X166809523Y-66133723D01*
X166809523Y-66133723D02*
X166771428Y-66057533D01*
X166771428Y-66057533D02*
X166733333Y-66019438D01*
X166733333Y-66019438D02*
X166657142Y-65981342D01*
X166657142Y-65981342D02*
X166504761Y-65943247D01*
X166504761Y-65943247D02*
X166428571Y-65905152D01*
X166428571Y-65905152D02*
X166390476Y-65867057D01*
X166390476Y-65867057D02*
X166352380Y-65790866D01*
X166352380Y-65790866D02*
X166352380Y-65714676D01*
X166352380Y-65714676D02*
X166390476Y-65638485D01*
X166390476Y-65638485D02*
X166428571Y-65600390D01*
X166428571Y-65600390D02*
X166504761Y-65562295D01*
X166504761Y-65562295D02*
X166695238Y-65562295D01*
X166695238Y-65562295D02*
X166809523Y-65600390D01*
X167609524Y-66286104D02*
X167571428Y-66324200D01*
X167571428Y-66324200D02*
X167457143Y-66362295D01*
X167457143Y-66362295D02*
X167380952Y-66362295D01*
X167380952Y-66362295D02*
X167266666Y-66324200D01*
X167266666Y-66324200D02*
X167190476Y-66248009D01*
X167190476Y-66248009D02*
X167152381Y-66171819D01*
X167152381Y-66171819D02*
X167114285Y-66019438D01*
X167114285Y-66019438D02*
X167114285Y-65905152D01*
X167114285Y-65905152D02*
X167152381Y-65752771D01*
X167152381Y-65752771D02*
X167190476Y-65676580D01*
X167190476Y-65676580D02*
X167266666Y-65600390D01*
X167266666Y-65600390D02*
X167380952Y-65562295D01*
X167380952Y-65562295D02*
X167457143Y-65562295D01*
X167457143Y-65562295D02*
X167571428Y-65600390D01*
X167571428Y-65600390D02*
X167609524Y-65638485D01*
X168333333Y-66362295D02*
X167952381Y-66362295D01*
X167952381Y-66362295D02*
X167952381Y-65562295D01*
X175166666Y-111931009D02*
X174833333Y-111931009D01*
X174833333Y-112454819D02*
X174833333Y-111454819D01*
X174833333Y-111454819D02*
X175309523Y-111454819D01*
X176023809Y-111931009D02*
X176166666Y-111978628D01*
X176166666Y-111978628D02*
X176214285Y-112026247D01*
X176214285Y-112026247D02*
X176261904Y-112121485D01*
X176261904Y-112121485D02*
X176261904Y-112264342D01*
X176261904Y-112264342D02*
X176214285Y-112359580D01*
X176214285Y-112359580D02*
X176166666Y-112407200D01*
X176166666Y-112407200D02*
X176071428Y-112454819D01*
X176071428Y-112454819D02*
X175690476Y-112454819D01*
X175690476Y-112454819D02*
X175690476Y-111454819D01*
X175690476Y-111454819D02*
X176023809Y-111454819D01*
X176023809Y-111454819D02*
X176119047Y-111502438D01*
X176119047Y-111502438D02*
X176166666Y-111550057D01*
X176166666Y-111550057D02*
X176214285Y-111645295D01*
X176214285Y-111645295D02*
X176214285Y-111740533D01*
X176214285Y-111740533D02*
X176166666Y-111835771D01*
X176166666Y-111835771D02*
X176119047Y-111883390D01*
X176119047Y-111883390D02*
X176023809Y-111931009D01*
X176023809Y-111931009D02*
X175690476Y-111931009D01*
X177214285Y-112454819D02*
X176642857Y-112454819D01*
X176928571Y-112454819D02*
X176928571Y-111454819D01*
X176928571Y-111454819D02*
X176833333Y-111597676D01*
X176833333Y-111597676D02*
X176738095Y-111692914D01*
X176738095Y-111692914D02*
X176642857Y-111740533D01*
X147999999Y-63600390D02*
X147923809Y-63562295D01*
X147923809Y-63562295D02*
X147809523Y-63562295D01*
X147809523Y-63562295D02*
X147695237Y-63600390D01*
X147695237Y-63600390D02*
X147619047Y-63676580D01*
X147619047Y-63676580D02*
X147580952Y-63752771D01*
X147580952Y-63752771D02*
X147542856Y-63905152D01*
X147542856Y-63905152D02*
X147542856Y-64019438D01*
X147542856Y-64019438D02*
X147580952Y-64171819D01*
X147580952Y-64171819D02*
X147619047Y-64248009D01*
X147619047Y-64248009D02*
X147695237Y-64324200D01*
X147695237Y-64324200D02*
X147809523Y-64362295D01*
X147809523Y-64362295D02*
X147885714Y-64362295D01*
X147885714Y-64362295D02*
X147999999Y-64324200D01*
X147999999Y-64324200D02*
X148038095Y-64286104D01*
X148038095Y-64286104D02*
X148038095Y-64019438D01*
X148038095Y-64019438D02*
X147885714Y-64019438D01*
X148380952Y-64362295D02*
X148380952Y-63562295D01*
X148380952Y-63562295D02*
X148838095Y-64362295D01*
X148838095Y-64362295D02*
X148838095Y-63562295D01*
X149219047Y-64362295D02*
X149219047Y-63562295D01*
X149219047Y-63562295D02*
X149409523Y-63562295D01*
X149409523Y-63562295D02*
X149523809Y-63600390D01*
X149523809Y-63600390D02*
X149599999Y-63676580D01*
X149599999Y-63676580D02*
X149638094Y-63752771D01*
X149638094Y-63752771D02*
X149676190Y-63905152D01*
X149676190Y-63905152D02*
X149676190Y-64019438D01*
X149676190Y-64019438D02*
X149638094Y-64171819D01*
X149638094Y-64171819D02*
X149599999Y-64248009D01*
X149599999Y-64248009D02*
X149523809Y-64324200D01*
X149523809Y-64324200D02*
X149409523Y-64362295D01*
X149409523Y-64362295D02*
X149219047Y-64362295D01*
X149828571Y-64438485D02*
X150438094Y-64438485D01*
X150514285Y-63562295D02*
X150971428Y-63562295D01*
X150742856Y-64362295D02*
X150742856Y-63562295D01*
X151238095Y-64362295D02*
X151238095Y-63562295D01*
X151238095Y-63562295D02*
X151542857Y-63562295D01*
X151542857Y-63562295D02*
X151619047Y-63600390D01*
X151619047Y-63600390D02*
X151657142Y-63638485D01*
X151657142Y-63638485D02*
X151695238Y-63714676D01*
X151695238Y-63714676D02*
X151695238Y-63828961D01*
X151695238Y-63828961D02*
X151657142Y-63905152D01*
X151657142Y-63905152D02*
X151619047Y-63943247D01*
X151619047Y-63943247D02*
X151542857Y-63981342D01*
X151542857Y-63981342D02*
X151238095Y-63981342D01*
X152457142Y-64362295D02*
X151999999Y-64362295D01*
X152228571Y-64362295D02*
X152228571Y-63562295D01*
X152228571Y-63562295D02*
X152152380Y-63676580D01*
X152152380Y-63676580D02*
X152076190Y-63752771D01*
X152076190Y-63752771D02*
X151999999Y-63790866D01*
X183754819Y-107833333D02*
X184469104Y-107833333D01*
X184469104Y-107833333D02*
X184611961Y-107880952D01*
X184611961Y-107880952D02*
X184707200Y-107976190D01*
X184707200Y-107976190D02*
X184754819Y-108119047D01*
X184754819Y-108119047D02*
X184754819Y-108214285D01*
X183850057Y-107404761D02*
X183802438Y-107357142D01*
X183802438Y-107357142D02*
X183754819Y-107261904D01*
X183754819Y-107261904D02*
X183754819Y-107023809D01*
X183754819Y-107023809D02*
X183802438Y-106928571D01*
X183802438Y-106928571D02*
X183850057Y-106880952D01*
X183850057Y-106880952D02*
X183945295Y-106833333D01*
X183945295Y-106833333D02*
X184040533Y-106833333D01*
X184040533Y-106833333D02*
X184183390Y-106880952D01*
X184183390Y-106880952D02*
X184754819Y-107452380D01*
X184754819Y-107452380D02*
X184754819Y-106833333D01*
X170152380Y-65562295D02*
X170609523Y-65562295D01*
X170380951Y-66362295D02*
X170380951Y-65562295D01*
X171180952Y-66324200D02*
X171104761Y-66362295D01*
X171104761Y-66362295D02*
X170952380Y-66362295D01*
X170952380Y-66362295D02*
X170876190Y-66324200D01*
X170876190Y-66324200D02*
X170838094Y-66248009D01*
X170838094Y-66248009D02*
X170838094Y-65943247D01*
X170838094Y-65943247D02*
X170876190Y-65867057D01*
X170876190Y-65867057D02*
X170952380Y-65828961D01*
X170952380Y-65828961D02*
X171104761Y-65828961D01*
X171104761Y-65828961D02*
X171180952Y-65867057D01*
X171180952Y-65867057D02*
X171219047Y-65943247D01*
X171219047Y-65943247D02*
X171219047Y-66019438D01*
X171219047Y-66019438D02*
X170838094Y-66095628D01*
X171561904Y-66362295D02*
X171561904Y-65828961D01*
X171561904Y-65905152D02*
X171599999Y-65867057D01*
X171599999Y-65867057D02*
X171676189Y-65828961D01*
X171676189Y-65828961D02*
X171790475Y-65828961D01*
X171790475Y-65828961D02*
X171866666Y-65867057D01*
X171866666Y-65867057D02*
X171904761Y-65943247D01*
X171904761Y-65943247D02*
X171904761Y-66362295D01*
X171904761Y-65943247D02*
X171942856Y-65867057D01*
X171942856Y-65867057D02*
X172019047Y-65828961D01*
X172019047Y-65828961D02*
X172133332Y-65828961D01*
X172133332Y-65828961D02*
X172209523Y-65867057D01*
X172209523Y-65867057D02*
X172247618Y-65943247D01*
X172247618Y-65943247D02*
X172247618Y-66362295D01*
X172628571Y-65828961D02*
X172628571Y-66628961D01*
X172628571Y-65867057D02*
X172704761Y-65828961D01*
X172704761Y-65828961D02*
X172857142Y-65828961D01*
X172857142Y-65828961D02*
X172933333Y-65867057D01*
X172933333Y-65867057D02*
X172971428Y-65905152D01*
X172971428Y-65905152D02*
X173009523Y-65981342D01*
X173009523Y-65981342D02*
X173009523Y-66209914D01*
X173009523Y-66209914D02*
X172971428Y-66286104D01*
X172971428Y-66286104D02*
X172933333Y-66324200D01*
X172933333Y-66324200D02*
X172857142Y-66362295D01*
X172857142Y-66362295D02*
X172704761Y-66362295D01*
X172704761Y-66362295D02*
X172628571Y-66324200D01*
X173314285Y-65638485D02*
X173352381Y-65600390D01*
X173352381Y-65600390D02*
X173428571Y-65562295D01*
X173428571Y-65562295D02*
X173619047Y-65562295D01*
X173619047Y-65562295D02*
X173695238Y-65600390D01*
X173695238Y-65600390D02*
X173733333Y-65638485D01*
X173733333Y-65638485D02*
X173771428Y-65714676D01*
X173771428Y-65714676D02*
X173771428Y-65790866D01*
X173771428Y-65790866D02*
X173733333Y-65905152D01*
X173733333Y-65905152D02*
X173276190Y-66362295D01*
X173276190Y-66362295D02*
X173771428Y-66362295D01*
D12*
%TO.C,C1*%
X157620149Y-106765000D02*
X158142653Y-106765000D01*
X157620149Y-108235000D02*
X158142653Y-108235000D01*
%TO.C,C9*%
X173738748Y-79765000D02*
X174261252Y-79765000D01*
X173738748Y-81235000D02*
X174261252Y-81235000D01*
%TO.C,C8*%
X175811252Y-104735000D02*
X175288748Y-104735000D01*
X175811252Y-103265000D02*
X175288748Y-103265000D01*
%TO.C,C6*%
X149465000Y-95811252D02*
X149465000Y-95288748D01*
X150935000Y-95811252D02*
X150935000Y-95288748D01*
D10*
%TO.C,J4*%
X184000000Y-83500000D02*
X184000000Y-86500000D01*
X179100000Y-83500000D02*
X184000000Y-83500000D01*
X184000000Y-86500000D02*
X183000000Y-86500000D01*
X183000000Y-86500000D02*
X183000000Y-95500000D01*
X184000000Y-95500000D02*
X184000000Y-98500000D01*
X183000000Y-95500000D02*
X184000000Y-95500000D01*
X184000000Y-98500000D02*
X179100000Y-98500000D01*
X179100000Y-98500000D02*
X179100000Y-83500000D01*
%TO.C,J3*%
X184000000Y-67500000D02*
X184000000Y-70500000D01*
X179100000Y-67500000D02*
X184000000Y-67500000D01*
X184000000Y-70500000D02*
X183000000Y-70500000D01*
X183000000Y-70500000D02*
X183000000Y-79500000D01*
X184000000Y-79500000D02*
X184000000Y-82500000D01*
X183000000Y-79500000D02*
X184000000Y-79500000D01*
X184000000Y-82500000D02*
X179100000Y-82500000D01*
X179100000Y-82500000D02*
X179100000Y-67500000D01*
D12*
%TO.C,FB2*%
X176560000Y-76439758D02*
X176560000Y-77260242D01*
X175440000Y-76439758D02*
X175440000Y-77260242D01*
%TO.C,C12*%
X175811252Y-88735000D02*
X175288748Y-88735000D01*
X175811252Y-87265000D02*
X175288748Y-87265000D01*
%TO.C,Airflow_SDA*%
X159200000Y-64000000D02*
G75*
G03*
X159200000Y-64000000I-1200000J0D01*
G01*
D13*
%TO.C,J1*%
X164450000Y-95900000D02*
X168550000Y-95900000D01*
D14*
X162500000Y-87400000D02*
X162500000Y-87400000D01*
X162500000Y-87300000D02*
X162500000Y-87300000D01*
D13*
X164450000Y-86100000D02*
X168550000Y-86100000D01*
D14*
X162500000Y-87300000D02*
G75*
G03*
X162500000Y-87400000I0J-50000D01*
G01*
X162500000Y-87400000D02*
G75*
G03*
X162500000Y-87300000I0J50000D01*
G01*
D12*
%TO.C,C10*%
X175811252Y-72735000D02*
X175288748Y-72735000D01*
X175811252Y-71265000D02*
X175288748Y-71265000D01*
%TO.C,C11*%
X174238748Y-95765000D02*
X174761252Y-95765000D01*
X174238748Y-97235000D02*
X174761252Y-97235000D01*
%TO.C,C5*%
X153135000Y-95288748D02*
X153135000Y-95811252D01*
X151665000Y-95288748D02*
X151665000Y-95811252D01*
%TO.C,Temp1*%
X162700000Y-64000000D02*
G75*
G03*
X162700000Y-64000000I-1200000J0D01*
G01*
%TO.C,R3*%
X172265000Y-76927064D02*
X172265000Y-76472936D01*
X173735000Y-76927064D02*
X173735000Y-76472936D01*
%TO.C,Temp3*%
X169700000Y-64000000D02*
G75*
G03*
X169700000Y-64000000I-1200000J0D01*
G01*
%TO.C,C4*%
X150935000Y-86188748D02*
X150935000Y-86711252D01*
X149465000Y-86188748D02*
X149465000Y-86711252D01*
%TO.C,C3*%
X153085000Y-86188748D02*
X153085000Y-86711252D01*
X151615000Y-86188748D02*
X151615000Y-86711252D01*
%TO.C,3.3V_TP1*%
X174300000Y-62800000D02*
X176700000Y-62800000D01*
X174300000Y-65200000D02*
X174300000Y-62800000D01*
X176700000Y-62800000D02*
X176700000Y-65200000D01*
X176700000Y-65200000D02*
X174300000Y-65200000D01*
%TO.C,C7*%
X170735000Y-108738748D02*
X170735000Y-109261252D01*
X169265000Y-108738748D02*
X169265000Y-109261252D01*
D15*
%TO.C,U1*%
X157823601Y-102377299D02*
X157823601Y-102655517D01*
X157823601Y-104943881D02*
X157823601Y-105222099D01*
X157823601Y-105222099D02*
X158605821Y-105222099D01*
X158605821Y-102377299D02*
X157823601Y-102377299D01*
X160394181Y-105222099D02*
X161176401Y-105222099D01*
X161176401Y-102377299D02*
X160394181Y-102377299D01*
X161176401Y-102655517D02*
X161176401Y-102377299D01*
X161176401Y-105222099D02*
X161176401Y-104943881D01*
G36*
X161455801Y-103740200D02*
G01*
X161201801Y-103740200D01*
X161201801Y-103359199D01*
X161455801Y-103359199D01*
X161455801Y-103740200D01*
G37*
D12*
%TO.C,R2*%
X172265000Y-109227064D02*
X172265000Y-108772936D01*
X173735000Y-109227064D02*
X173735000Y-108772936D01*
%TO.C,R1*%
X159066401Y-98872936D02*
X159066401Y-99327064D01*
X157596401Y-98872936D02*
X157596401Y-99327064D01*
%TO.C,R4*%
X173265000Y-92927064D02*
X173265000Y-92472936D01*
X174735000Y-92927064D02*
X174735000Y-92472936D01*
%TO.C,FB3*%
X177560000Y-92239758D02*
X177560000Y-93060242D01*
X176440000Y-92239758D02*
X176440000Y-93060242D01*
%TO.C,C2*%
X162061252Y-108235000D02*
X161538748Y-108235000D01*
X162061252Y-106765000D02*
X161538748Y-106765000D01*
%TO.C,Airflow_SCL*%
X166200000Y-64000000D02*
G75*
G03*
X166200000Y-64000000I-1200000J0D01*
G01*
%TO.C,FB1*%
X176560000Y-108589758D02*
X176560000Y-109410242D01*
X175440000Y-108589758D02*
X175440000Y-109410242D01*
%TO.C,GND_TP1*%
X153300000Y-62800000D02*
X155700000Y-62800000D01*
X153300000Y-65200000D02*
X153300000Y-62800000D01*
X155700000Y-62800000D02*
X155700000Y-65200000D01*
X155700000Y-65200000D02*
X153300000Y-65200000D01*
D10*
%TO.C,J2*%
X184000000Y-99500000D02*
X184000000Y-102500000D01*
X179100000Y-99500000D02*
X184000000Y-99500000D01*
X184000000Y-102500000D02*
X183000000Y-102500000D01*
X183000000Y-102500000D02*
X183000000Y-111500000D01*
X184000000Y-111500000D02*
X184000000Y-114500000D01*
X183000000Y-111500000D02*
X184000000Y-111500000D01*
X184000000Y-114500000D02*
X179100000Y-114500000D01*
X179100000Y-114500000D02*
X179100000Y-99500000D01*
D12*
%TO.C,Temp2*%
X173200000Y-64000000D02*
G75*
G03*
X173200000Y-64000000I-1200000J0D01*
G01*
%TD*%
%LPC*%
D16*
%TO.C,C1*%
X156931401Y-107500000D03*
X158831401Y-107500000D03*
%TD*%
%TO.C,C9*%
X173050000Y-80500000D03*
X174950000Y-80500000D03*
%TD*%
D17*
%TO.C,C8*%
X176500000Y-104000000D03*
X174600000Y-104000000D03*
%TD*%
D18*
%TO.C,C6*%
X150200000Y-96500000D03*
X150200000Y-94600000D03*
%TD*%
D19*
%TO.C,J4*%
X182960000Y-85000000D03*
X182960000Y-97000000D03*
D20*
X181000000Y-88000000D03*
X181000000Y-91000000D03*
X181000000Y-94000000D03*
%TD*%
D19*
%TO.C,J3*%
X182960000Y-69000000D03*
X182960000Y-81000000D03*
D20*
X181000000Y-72000000D03*
X181000000Y-75000000D03*
X181000000Y-78000000D03*
%TD*%
D21*
%TO.C,FB2*%
X176000000Y-75700000D03*
X176000000Y-78000000D03*
%TD*%
D17*
%TO.C,C12*%
X176500000Y-88000000D03*
X174600000Y-88000000D03*
%TD*%
D22*
%TO.C,Airflow_SDA*%
X158000000Y-64000000D03*
%TD*%
D23*
%TO.C,J1*%
X164350000Y-87400000D03*
X168650000Y-87400000D03*
X164350000Y-88200000D03*
X168650000Y-88200000D03*
X164350000Y-89000000D03*
X168650000Y-89000000D03*
X164350000Y-89800000D03*
X168650000Y-89800000D03*
X164350000Y-90600000D03*
X168650000Y-90600000D03*
X164350000Y-91400000D03*
X168650000Y-91400000D03*
X164350000Y-92200000D03*
X168650000Y-92200000D03*
X164350000Y-93000000D03*
X168650000Y-93000000D03*
X164350000Y-93800000D03*
X168650000Y-93800000D03*
X164350000Y-94600000D03*
X168650000Y-94600000D03*
%TD*%
D17*
%TO.C,C10*%
X176500000Y-72000000D03*
X174600000Y-72000000D03*
%TD*%
D16*
%TO.C,C11*%
X173550000Y-96500000D03*
X175450000Y-96500000D03*
%TD*%
D24*
%TO.C,C5*%
X152400000Y-94600000D03*
X152400000Y-96500000D03*
%TD*%
D22*
%TO.C,Temp1*%
X161500000Y-64000000D03*
%TD*%
D25*
%TO.C,R3*%
X173000000Y-77700000D03*
X173000000Y-75700000D03*
%TD*%
D22*
%TO.C,Temp3*%
X168500000Y-64000000D03*
%TD*%
D24*
%TO.C,C4*%
X150200000Y-85500000D03*
X150200000Y-87400000D03*
%TD*%
%TO.C,C3*%
X152350000Y-85500000D03*
X152350000Y-87400000D03*
%TD*%
D26*
%TO.C,3.3V_TP1*%
X175500000Y-64000000D03*
%TD*%
D24*
%TO.C,C7*%
X170000000Y-108050000D03*
X170000000Y-109950000D03*
%TD*%
D27*
%TO.C,U1*%
X158318901Y-103049698D03*
X158318901Y-103549699D03*
X158318901Y-104049699D03*
X158318901Y-104549700D03*
D28*
X159000002Y-104726799D03*
X159500001Y-104726799D03*
X160000000Y-104726799D03*
D27*
X160681101Y-104549700D03*
X160681101Y-104049699D03*
X160681101Y-103549699D03*
X160681101Y-103049698D03*
D28*
X160000000Y-102872599D03*
X159500001Y-102872599D03*
X159000002Y-102872599D03*
%TD*%
D25*
%TO.C,R2*%
X173000000Y-110000000D03*
X173000000Y-108000000D03*
%TD*%
D29*
%TO.C,MH2*%
X150000000Y-112000000D03*
%TD*%
D30*
%TO.C,R1*%
X158331401Y-98187500D03*
X158331401Y-100012500D03*
%TD*%
D25*
%TO.C,R4*%
X174000000Y-93700000D03*
X174000000Y-91700000D03*
%TD*%
D21*
%TO.C,FB3*%
X177000000Y-91500000D03*
X177000000Y-93800000D03*
%TD*%
D17*
%TO.C,C2*%
X162750000Y-107500000D03*
X160850000Y-107500000D03*
%TD*%
D22*
%TO.C,Airflow_SCL*%
X165000000Y-64000000D03*
%TD*%
D21*
%TO.C,FB1*%
X176000000Y-107850000D03*
X176000000Y-110150000D03*
%TD*%
D29*
%TO.C,MH1*%
X150000000Y-70000000D03*
%TD*%
D26*
%TO.C,GND_TP1*%
X154500000Y-64000000D03*
%TD*%
D19*
%TO.C,J2*%
X182960000Y-101000000D03*
X182960000Y-113000000D03*
D20*
X181000000Y-104000000D03*
X181000000Y-107000000D03*
X181000000Y-110000000D03*
%TD*%
D22*
%TO.C,Temp2*%
X172000000Y-64000000D03*
%TD*%
%LPD*%
M02*
